<?xml version="1.0" encoding="UTF-8" standalone="no"?>
<!DOCTYPE svg PUBLIC "-//W3C//DTD SVG 1.1//EN"
 "http://www.w3.org/Graphics/SVG/1.1/DTD/svg11.dtd">
<!-- Generated by graphviz version 2.40.1 (20161225.0304)
 -->
<!-- Title: public.users Pages: 1 -->
<svg width="502pt" height="645pt"
 viewBox="0.00 0.00 502.00 645.00" xmlns="http://www.w3.org/2000/svg" xmlns:xlink="http://www.w3.org/1999/xlink">
<g id="graph0" class="graph" transform="scale(1 1) rotate(0) translate(4 641)">
<title>public.users</title>
<polygon fill="#ffffff" stroke="transparent" points="-4,4 -4,-641 498,-641 498,4 -4,4"/>
<!-- public.users -->
<g id="node1" class="node">
<title>public.users</title>
<polygon fill="#efefef" stroke="transparent" points="46,-555.5 46,-590.5 448,-590.5 448,-555.5 46,-555.5"/>
<polygon fill="none" stroke="#000000" points="46,-555.5 46,-590.5 448,-590.5 448,-555.5 46,-555.5"/>
<text text-anchor="start" x="150.3662" y="-568.3" font-family="Arial Bold" font-size="18.00" fill="#000000">public.users</text>
<text text-anchor="start" x="246.38" y="-568.3" font-family="Arial" font-size="14.00" fill="#000000"> </text>
<text text-anchor="start" x="250.2706" y="-568.3" font-family="Arial" font-size="14.00" fill="#666666">[BASE TABLE]</text>
<polygon fill="none" stroke="#000000" points="46,-525.5 46,-555.5 448,-555.5 448,-525.5 46,-525.5"/>
<text text-anchor="start" x="53" y="-536.9" font-family="Arial" font-size="14.00" fill="#000000">id </text>
<text text-anchor="start" x="67.7798" y="-536.9" font-family="Arial" font-size="14.00" fill="#666666">[bigint]</text>
<polygon fill="none" stroke="#000000" points="46,-495.5 46,-525.5 448,-525.5 448,-495.5 46,-495.5"/>
<text text-anchor="start" x="53" y="-506.9" font-family="Arial" font-size="14.00" fill="#000000">name </text>
<text text-anchor="start" x="91.899" y="-506.9" font-family="Arial" font-size="14.00" fill="#666666">[varchar(50)]</text>
<polygon fill="none" stroke="#000000" points="46,-465.5 46,-495.5 448,-495.5 448,-465.5 46,-465.5"/>
<text text-anchor="start" x="53" y="-476.9" font-family="Arial" font-size="14.00" fill="#000000">email </text>
<text text-anchor="start" x="90.3296" y="-476.9" font-family="Arial" font-size="14.00" fill="#666666">[varchar(100)]</text>
<polygon fill="none" stroke="#000000" points="46,-435.5 46,-465.5 448,-465.5 448,-435.5 46,-435.5"/>
<text text-anchor="start" x="53" y="-446.9" font-family="Arial" font-size="14.00" fill="#000000">role </text>
<text text-anchor="start" x="80.223" y="-446.9" font-family="Arial" font-size="14.00" fill="#666666">[varchar]</text>
<polygon fill="none" stroke="#000000" points="46,-405.5 46,-435.5 448,-435.5 448,-405.5 46,-405.5"/>
<text text-anchor="start" x="53" y="-416.9" font-family="Arial" font-size="14.00" fill="#000000">avatar </text>
<text text-anchor="start" x="95.7896" y="-416.9" font-family="Arial" font-size="14.00" fill="#666666">[varchar]</text>
<polygon fill="none" stroke="#000000" points="46,-375.5 46,-405.5 448,-405.5 448,-375.5 46,-375.5"/>
<text text-anchor="start" x="53" y="-386.9" font-family="Arial" font-size="14.00" fill="#000000">introduction </text>
<text text-anchor="start" x="129.2412" y="-386.9" font-family="Arial" font-size="14.00" fill="#666666">[varchar(160)]</text>
<polygon fill="none" stroke="#000000" points="46,-345.5 46,-375.5 448,-375.5 448,-345.5 46,-345.5"/>
<text text-anchor="start" x="53" y="-356.9" font-family="Arial" font-size="14.00" fill="#000000">email_verification_status </text>
<text text-anchor="start" x="210.1332" y="-356.9" font-family="Arial" font-size="14.00" fill="#666666">[varchar]</text>
<polygon fill="none" stroke="#000000" points="46,-315.5 46,-345.5 448,-345.5 448,-315.5 46,-315.5"/>
<text text-anchor="start" x="53" y="-326.9" font-family="Arial" font-size="14.00" fill="#000000">email_verification_code </text>
<text text-anchor="start" x="203.1346" y="-326.9" font-family="Arial" font-size="14.00" fill="#666666">[varchar]</text>
<polygon fill="none" stroke="#000000" points="46,-285.5 46,-315.5 448,-315.5 448,-285.5 46,-285.5"/>
<text text-anchor="start" x="52.9138" y="-296.9" font-family="Arial" font-size="14.00" fill="#000000">email_verification_code_expires_at </text>
<text text-anchor="start" x="275.4018" y="-296.9" font-family="Arial" font-size="14.00" fill="#666666">[timestamp with time zone]</text>
<polygon fill="none" stroke="#000000" points="46,-255.5 46,-285.5 448,-285.5 448,-255.5 46,-255.5"/>
<text text-anchor="start" x="53" y="-266.9" font-family="Arial" font-size="14.00" fill="#000000">password_digest </text>
<text text-anchor="start" x="161.9158" y="-266.9" font-family="Arial" font-size="14.00" fill="#666666">[varchar]</text>
<polygon fill="none" stroke="#000000" points="46,-225.5 46,-255.5 448,-255.5 448,-225.5 46,-225.5"/>
<text text-anchor="start" x="53" y="-236.9" font-family="Arial" font-size="14.00" fill="#000000">last_sign_in_at </text>
<text text-anchor="start" x="150.2524" y="-236.9" font-family="Arial" font-size="14.00" fill="#666666">[timestamp with time zone]</text>
<polygon fill="none" stroke="#000000" points="46,-195.5 46,-225.5 448,-225.5 448,-195.5 46,-195.5"/>
<text text-anchor="start" x="53" y="-206.9" font-family="Arial" font-size="14.00" fill="#000000">unverified_email </text>
<text text-anchor="start" x="158.7896" y="-206.9" font-family="Arial" font-size="14.00" fill="#666666">[varchar(160)]</text>
<polygon fill="none" stroke="#000000" points="46,-165.5 46,-195.5 448,-195.5 448,-165.5 46,-165.5"/>
<text text-anchor="start" x="53" y="-176.9" font-family="Arial" font-size="14.00" fill="#000000">password_reset_token </text>
<text text-anchor="start" x="197.7082" y="-176.9" font-family="Arial" font-size="14.00" fill="#666666">[varchar]</text>
<polygon fill="none" stroke="#000000" points="46,-135.5 46,-165.5 448,-165.5 448,-135.5 46,-135.5"/>
<text text-anchor="start" x="53" y="-146.9" font-family="Arial" font-size="14.00" fill="#000000">password_reset_token_expires_at </text>
<text text-anchor="start" x="270.0616" y="-146.9" font-family="Arial" font-size="14.00" fill="#666666">[timestamp with time zone]</text>
<polygon fill="none" stroke="#000000" points="46,-105.5 46,-135.5 448,-135.5 448,-105.5 46,-105.5"/>
<text text-anchor="start" x="53" y="-116.9" font-family="Arial" font-size="14.00" fill="#000000">website_url </text>
<text text-anchor="start" x="127.6746" y="-116.9" font-family="Arial" font-size="14.00" fill="#666666">[varchar]</text>
<polygon fill="none" stroke="#000000" points="46,-75.5 46,-105.5 448,-105.5 448,-75.5 46,-75.5"/>
<text text-anchor="start" x="53" y="-86.9" font-family="Arial" font-size="14.00" fill="#000000">created_at </text>
<text text-anchor="start" x="123.028" y="-86.9" font-family="Arial" font-size="14.00" fill="#666666">[timestamp with time zone]</text>
<polygon fill="none" stroke="#000000" points="46,-45.5 46,-75.5 448,-75.5 448,-45.5 46,-45.5"/>
<text text-anchor="start" x="53" y="-56.9" font-family="Arial" font-size="14.00" fill="#000000">updated_at </text>
<text text-anchor="start" x="126.9326" y="-56.9" font-family="Arial" font-size="14.00" fill="#666666">[timestamp with time zone]</text>
<polygon fill="none" stroke="#000000" stroke-width="3" points="44.5,-44.5 44.5,-592.5 449.5,-592.5 449.5,-44.5 44.5,-44.5"/>
</g>
</g>
</svg>
