<?xml version="1.0" encoding="UTF-8" standalone="no"?>
<!DOCTYPE svg PUBLIC "-//W3C//DTD SVG 1.1//EN"
 "http://www.w3.org/Graphics/SVG/1.1/DTD/svg11.dtd">
<!-- Generated by graphviz version 2.40.1 (20161225.0304)
 -->
<!-- Title: connefut_db Pages: 1 -->
<svg width="1568pt" height="639pt"
 viewBox="0.00 0.00 1567.50 639.00" xmlns="http://www.w3.org/2000/svg" xmlns:xlink="http://www.w3.org/1999/xlink">
<g id="graph0" class="graph" transform="scale(1 1) rotate(0) translate(4 635)">
<title>connefut_db</title>
<polygon fill="#ffffff" stroke="transparent" points="-4,4 -4,-635 1563.5,-635 1563.5,4 -4,4"/>
<!-- public.users -->
<g id="node1" class="node">
<title>public.users</title>
<polygon fill="#efefef" stroke="transparent" points="43,-552.5 43,-587.5 445,-587.5 445,-552.5 43,-552.5"/>
<polygon fill="none" stroke="#000000" points="43,-552.5 43,-587.5 445,-587.5 445,-552.5 43,-552.5"/>
<text text-anchor="start" x="147.3662" y="-565.3" font-family="Arial Bold" font-size="18.00" fill="#000000">public.users</text>
<text text-anchor="start" x="243.38" y="-565.3" font-family="Arial" font-size="14.00" fill="#000000"> </text>
<text text-anchor="start" x="247.2706" y="-565.3" font-family="Arial" font-size="14.00" fill="#666666">[BASE TABLE]</text>
<polygon fill="none" stroke="#000000" points="43,-522.5 43,-552.5 445,-552.5 445,-522.5 43,-522.5"/>
<text text-anchor="start" x="50" y="-533.9" font-family="Arial" font-size="14.00" fill="#000000">id </text>
<text text-anchor="start" x="64.7798" y="-533.9" font-family="Arial" font-size="14.00" fill="#666666">[bigint]</text>
<polygon fill="none" stroke="#000000" points="43,-492.5 43,-522.5 445,-522.5 445,-492.5 43,-492.5"/>
<text text-anchor="start" x="50" y="-503.9" font-family="Arial" font-size="14.00" fill="#000000">name </text>
<text text-anchor="start" x="88.899" y="-503.9" font-family="Arial" font-size="14.00" fill="#666666">[varchar(50)]</text>
<polygon fill="none" stroke="#000000" points="43,-462.5 43,-492.5 445,-492.5 445,-462.5 43,-462.5"/>
<text text-anchor="start" x="50" y="-473.9" font-family="Arial" font-size="14.00" fill="#000000">email </text>
<text text-anchor="start" x="87.3296" y="-473.9" font-family="Arial" font-size="14.00" fill="#666666">[varchar(100)]</text>
<polygon fill="none" stroke="#000000" points="43,-432.5 43,-462.5 445,-462.5 445,-432.5 43,-432.5"/>
<text text-anchor="start" x="50" y="-443.9" font-family="Arial" font-size="14.00" fill="#000000">role </text>
<text text-anchor="start" x="77.223" y="-443.9" font-family="Arial" font-size="14.00" fill="#666666">[varchar]</text>
<polygon fill="none" stroke="#000000" points="43,-402.5 43,-432.5 445,-432.5 445,-402.5 43,-402.5"/>
<text text-anchor="start" x="50" y="-413.9" font-family="Arial" font-size="14.00" fill="#000000">avatar </text>
<text text-anchor="start" x="92.7896" y="-413.9" font-family="Arial" font-size="14.00" fill="#666666">[varchar]</text>
<polygon fill="none" stroke="#000000" points="43,-372.5 43,-402.5 445,-402.5 445,-372.5 43,-372.5"/>
<text text-anchor="start" x="50" y="-383.9" font-family="Arial" font-size="14.00" fill="#000000">introduction </text>
<text text-anchor="start" x="126.2412" y="-383.9" font-family="Arial" font-size="14.00" fill="#666666">[varchar(160)]</text>
<polygon fill="none" stroke="#000000" points="43,-342.5 43,-372.5 445,-372.5 445,-342.5 43,-342.5"/>
<text text-anchor="start" x="50" y="-353.9" font-family="Arial" font-size="14.00" fill="#000000">email_verification_status </text>
<text text-anchor="start" x="207.1332" y="-353.9" font-family="Arial" font-size="14.00" fill="#666666">[varchar]</text>
<polygon fill="none" stroke="#000000" points="43,-312.5 43,-342.5 445,-342.5 445,-312.5 43,-312.5"/>
<text text-anchor="start" x="50" y="-323.9" font-family="Arial" font-size="14.00" fill="#000000">email_verification_code </text>
<text text-anchor="start" x="200.1346" y="-323.9" font-family="Arial" font-size="14.00" fill="#666666">[varchar]</text>
<polygon fill="none" stroke="#000000" points="43,-282.5 43,-312.5 445,-312.5 445,-282.5 43,-282.5"/>
<text text-anchor="start" x="49.9138" y="-293.9" font-family="Arial" font-size="14.00" fill="#000000">email_verification_code_expires_at </text>
<text text-anchor="start" x="272.4018" y="-293.9" font-family="Arial" font-size="14.00" fill="#666666">[timestamp with time zone]</text>
<polygon fill="none" stroke="#000000" points="43,-252.5 43,-282.5 445,-282.5 445,-252.5 43,-252.5"/>
<text text-anchor="start" x="50" y="-263.9" font-family="Arial" font-size="14.00" fill="#000000">password_digest </text>
<text text-anchor="start" x="158.9158" y="-263.9" font-family="Arial" font-size="14.00" fill="#666666">[varchar]</text>
<polygon fill="none" stroke="#000000" points="43,-222.5 43,-252.5 445,-252.5 445,-222.5 43,-222.5"/>
<text text-anchor="start" x="50" y="-233.9" font-family="Arial" font-size="14.00" fill="#000000">last_sign_in_at </text>
<text text-anchor="start" x="147.2524" y="-233.9" font-family="Arial" font-size="14.00" fill="#666666">[timestamp with time zone]</text>
<polygon fill="none" stroke="#000000" points="43,-192.5 43,-222.5 445,-222.5 445,-192.5 43,-192.5"/>
<text text-anchor="start" x="50" y="-203.9" font-family="Arial" font-size="14.00" fill="#000000">unverified_email </text>
<text text-anchor="start" x="155.7896" y="-203.9" font-family="Arial" font-size="14.00" fill="#666666">[varchar(160)]</text>
<polygon fill="none" stroke="#000000" points="43,-162.5 43,-192.5 445,-192.5 445,-162.5 43,-162.5"/>
<text text-anchor="start" x="50" y="-173.9" font-family="Arial" font-size="14.00" fill="#000000">password_reset_token </text>
<text text-anchor="start" x="194.7082" y="-173.9" font-family="Arial" font-size="14.00" fill="#666666">[varchar]</text>
<polygon fill="none" stroke="#000000" points="43,-132.5 43,-162.5 445,-162.5 445,-132.5 43,-132.5"/>
<text text-anchor="start" x="50" y="-143.9" font-family="Arial" font-size="14.00" fill="#000000">password_reset_token_expires_at </text>
<text text-anchor="start" x="267.0616" y="-143.9" font-family="Arial" font-size="14.00" fill="#666666">[timestamp with time zone]</text>
<polygon fill="none" stroke="#000000" points="43,-102.5 43,-132.5 445,-132.5 445,-102.5 43,-102.5"/>
<text text-anchor="start" x="50" y="-113.9" font-family="Arial" font-size="14.00" fill="#000000">website_url </text>
<text text-anchor="start" x="124.6746" y="-113.9" font-family="Arial" font-size="14.00" fill="#666666">[varchar]</text>
<polygon fill="none" stroke="#000000" points="43,-72.5 43,-102.5 445,-102.5 445,-72.5 43,-72.5"/>
<text text-anchor="start" x="50" y="-83.9" font-family="Arial" font-size="14.00" fill="#000000">created_at </text>
<text text-anchor="start" x="120.028" y="-83.9" font-family="Arial" font-size="14.00" fill="#666666">[timestamp with time zone]</text>
<polygon fill="none" stroke="#000000" points="43,-42.5 43,-72.5 445,-72.5 445,-42.5 43,-42.5"/>
<text text-anchor="start" x="50" y="-53.9" font-family="Arial" font-size="14.00" fill="#000000">updated_at </text>
<text text-anchor="start" x="123.9326" y="-53.9" font-family="Arial" font-size="14.00" fill="#666666">[timestamp with time zone]</text>
</g>
<!-- public.prefectures -->
<g id="node2" class="node">
<title>public.prefectures</title>
<polygon fill="#efefef" stroke="transparent" points="550,-357.5 550,-392.5 803,-392.5 803,-357.5 550,-357.5"/>
<polygon fill="none" stroke="#000000" points="550,-357.5 550,-392.5 803,-392.5 803,-357.5 550,-357.5"/>
<text text-anchor="start" x="556.8586" y="-370.3" font-family="Arial Bold" font-size="18.00" fill="#000000">public.prefectures</text>
<text text-anchor="start" x="698.8876" y="-370.3" font-family="Arial" font-size="14.00" fill="#000000"> </text>
<text text-anchor="start" x="702.7782" y="-370.3" font-family="Arial" font-size="14.00" fill="#666666">[BASE TABLE]</text>
<polygon fill="none" stroke="#000000" points="550,-327.5 550,-357.5 803,-357.5 803,-327.5 550,-327.5"/>
<text text-anchor="start" x="557" y="-338.9" font-family="Arial" font-size="14.00" fill="#000000">id </text>
<text text-anchor="start" x="571.7798" y="-338.9" font-family="Arial" font-size="14.00" fill="#666666">[bigint]</text>
<polygon fill="none" stroke="#000000" points="550,-297.5 550,-327.5 803,-327.5 803,-297.5 550,-297.5"/>
<text text-anchor="start" x="557" y="-308.9" font-family="Arial" font-size="14.00" fill="#000000">name </text>
<text text-anchor="start" x="595.899" y="-308.9" font-family="Arial" font-size="14.00" fill="#666666">[varchar]</text>
<polygon fill="none" stroke="#000000" points="550,-267.5 550,-297.5 803,-297.5 803,-267.5 550,-267.5"/>
<text text-anchor="start" x="557" y="-278.9" font-family="Arial" font-size="14.00" fill="#000000">created_at </text>
<text text-anchor="start" x="627.028" y="-278.9" font-family="Arial" font-size="14.00" fill="#666666">[timestamp with time zone]</text>
<polygon fill="none" stroke="#000000" points="550,-237.5 550,-267.5 803,-267.5 803,-237.5 550,-237.5"/>
<text text-anchor="start" x="556.6915" y="-248.9" font-family="Arial" font-size="14.00" fill="#000000">updated_at </text>
<text text-anchor="start" x="630.6241" y="-248.9" font-family="Arial" font-size="14.00" fill="#666666">[timestamp with time zone]</text>
</g>
<!-- public.sports -->
<g id="node3" class="node">
<title>public.sports</title>
<polygon fill="#efefef" stroke="transparent" points="907,-357.5 907,-392.5 1160,-392.5 1160,-357.5 907,-357.5"/>
<polygon fill="none" stroke="#000000" points="907,-357.5 907,-392.5 1160,-392.5 1160,-357.5 907,-357.5"/>
<text text-anchor="start" x="934.3651" y="-370.3" font-family="Arial Bold" font-size="18.00" fill="#000000">public.sports</text>
<text text-anchor="start" x="1035.3811" y="-370.3" font-family="Arial" font-size="14.00" fill="#000000"> </text>
<text text-anchor="start" x="1039.2717" y="-370.3" font-family="Arial" font-size="14.00" fill="#666666">[BASE TABLE]</text>
<polygon fill="none" stroke="#000000" points="907,-327.5 907,-357.5 1160,-357.5 1160,-327.5 907,-327.5"/>
<text text-anchor="start" x="914" y="-338.9" font-family="Arial" font-size="14.00" fill="#000000">id </text>
<text text-anchor="start" x="928.7798" y="-338.9" font-family="Arial" font-size="14.00" fill="#666666">[bigint]</text>
<polygon fill="none" stroke="#000000" points="907,-297.5 907,-327.5 1160,-327.5 1160,-297.5 907,-297.5"/>
<text text-anchor="start" x="914" y="-308.9" font-family="Arial" font-size="14.00" fill="#000000">name </text>
<text text-anchor="start" x="952.899" y="-308.9" font-family="Arial" font-size="14.00" fill="#666666">[varchar]</text>
<polygon fill="none" stroke="#000000" points="907,-267.5 907,-297.5 1160,-297.5 1160,-267.5 907,-267.5"/>
<text text-anchor="start" x="914" y="-278.9" font-family="Arial" font-size="14.00" fill="#000000">created_at </text>
<text text-anchor="start" x="984.028" y="-278.9" font-family="Arial" font-size="14.00" fill="#666666">[timestamp with time zone]</text>
<polygon fill="none" stroke="#000000" points="907,-237.5 907,-267.5 1160,-267.5 1160,-237.5 907,-237.5"/>
<text text-anchor="start" x="913.6915" y="-248.9" font-family="Arial" font-size="14.00" fill="#000000">updated_at </text>
<text text-anchor="start" x="987.6241" y="-248.9" font-family="Arial" font-size="14.00" fill="#666666">[timestamp with time zone]</text>
</g>
<!-- public.tags -->
<g id="node4" class="node">
<title>public.tags</title>
<polygon fill="#efefef" stroke="transparent" points="1264,-357.5 1264,-392.5 1517,-392.5 1517,-357.5 1264,-357.5"/>
<polygon fill="none" stroke="#000000" points="1264,-357.5 1264,-392.5 1517,-392.5 1517,-357.5 1264,-357.5"/>
<text text-anchor="start" x="1298.8612" y="-370.3" font-family="Arial Bold" font-size="18.00" fill="#000000">public.tags</text>
<text text-anchor="start" x="1384.885" y="-370.3" font-family="Arial" font-size="14.00" fill="#000000"> </text>
<text text-anchor="start" x="1388.7756" y="-370.3" font-family="Arial" font-size="14.00" fill="#666666">[BASE TABLE]</text>
<polygon fill="none" stroke="#000000" points="1264,-327.5 1264,-357.5 1517,-357.5 1517,-327.5 1264,-327.5"/>
<text text-anchor="start" x="1271" y="-338.9" font-family="Arial" font-size="14.00" fill="#000000">id </text>
<text text-anchor="start" x="1285.7798" y="-338.9" font-family="Arial" font-size="14.00" fill="#666666">[bigint]</text>
<polygon fill="none" stroke="#000000" points="1264,-297.5 1264,-327.5 1517,-327.5 1517,-297.5 1264,-297.5"/>
<text text-anchor="start" x="1271" y="-308.9" font-family="Arial" font-size="14.00" fill="#000000">name </text>
<text text-anchor="start" x="1309.899" y="-308.9" font-family="Arial" font-size="14.00" fill="#666666">[varchar]</text>
<polygon fill="none" stroke="#000000" points="1264,-267.5 1264,-297.5 1517,-297.5 1517,-267.5 1264,-267.5"/>
<text text-anchor="start" x="1271" y="-278.9" font-family="Arial" font-size="14.00" fill="#000000">created_at </text>
<text text-anchor="start" x="1341.028" y="-278.9" font-family="Arial" font-size="14.00" fill="#666666">[timestamp with time zone]</text>
<polygon fill="none" stroke="#000000" points="1264,-237.5 1264,-267.5 1517,-267.5 1517,-237.5 1264,-237.5"/>
<text text-anchor="start" x="1270.6915" y="-248.9" font-family="Arial" font-size="14.00" fill="#000000">updated_at </text>
<text text-anchor="start" x="1344.6241" y="-248.9" font-family="Arial" font-size="14.00" fill="#666666">[timestamp with time zone]</text>
</g>
</g>
</svg>
