<?xml version="1.0" encoding="UTF-8" standalone="no"?>
<!DOCTYPE svg PUBLIC "-//W3C//DTD SVG 1.1//EN"
 "http://www.w3.org/Graphics/SVG/1.1/DTD/svg11.dtd">
<!-- Generated by graphviz version 2.40.1 (20161225.0304)
 -->
<!-- Title: public.room_read_managements Pages: 1 -->
<svg width="1083pt" height="982pt"
 viewBox="0.00 0.00 1083.00 982.00" xmlns="http://www.w3.org/2000/svg" xmlns:xlink="http://www.w3.org/1999/xlink">
<g id="graph0" class="graph" transform="scale(1 1) rotate(0) translate(4 978)">
<title>public.room_read_managements</title>
<polygon fill="#ffffff" stroke="transparent" points="-4,4 -4,-978 1079,-978 1079,4 -4,4"/>
<!-- public.room_read_managements -->
<g id="node1" class="node">
<title>public.room_read_managements</title>
<polygon fill="#efefef" stroke="transparent" points="354,-892.5 354,-927.5 728,-927.5 728,-892.5 354,-892.5"/>
<polygon fill="none" stroke="#000000" points="354,-892.5 354,-927.5 728,-927.5 728,-892.5 354,-892.5"/>
<text text-anchor="start" x="360.8435" y="-905.3" font-family="Arial Bold" font-size="18.00" fill="#000000">public.room_read_managements</text>
<text text-anchor="start" x="623.9027" y="-905.3" font-family="Arial" font-size="14.00" fill="#000000"> </text>
<text text-anchor="start" x="627.7933" y="-905.3" font-family="Arial" font-size="14.00" fill="#666666">[BASE TABLE]</text>
<polygon fill="none" stroke="#000000" points="354,-862.5 354,-892.5 728,-892.5 728,-862.5 354,-862.5"/>
<text text-anchor="start" x="361" y="-873.9" font-family="Arial" font-size="14.00" fill="#000000">id </text>
<text text-anchor="start" x="375.7798" y="-873.9" font-family="Arial" font-size="14.00" fill="#666666">[bigint]</text>
<polygon fill="none" stroke="#000000" points="354,-832.5 354,-862.5 728,-862.5 728,-832.5 354,-832.5"/>
<text text-anchor="start" x="361" y="-843.9" font-family="Arial" font-size="14.00" fill="#000000">last_read_at </text>
<text text-anchor="start" x="441.9172" y="-843.9" font-family="Arial" font-size="14.00" fill="#666666">[timestamp with time zone]</text>
<polygon fill="none" stroke="#000000" points="354,-802.5 354,-832.5 728,-832.5 728,-802.5 354,-802.5"/>
<text text-anchor="start" x="361" y="-813.9" font-family="Arial" font-size="14.00" fill="#000000">room_id </text>
<text text-anchor="start" x="415.4488" y="-813.9" font-family="Arial" font-size="14.00" fill="#666666">[bigint]</text>
<polygon fill="none" stroke="#000000" points="354,-772.5 354,-802.5 728,-802.5 728,-772.5 354,-772.5"/>
<text text-anchor="start" x="361" y="-783.9" font-family="Arial" font-size="14.00" fill="#000000">user_id </text>
<text text-anchor="start" x="410.7882" y="-783.9" font-family="Arial" font-size="14.00" fill="#666666">[bigint]</text>
<polygon fill="none" stroke="#000000" points="354,-742.5 354,-772.5 728,-772.5 728,-742.5 354,-742.5"/>
<text text-anchor="start" x="361" y="-753.9" font-family="Arial" font-size="14.00" fill="#000000">created_at </text>
<text text-anchor="start" x="431.028" y="-753.9" font-family="Arial" font-size="14.00" fill="#666666">[timestamp with time zone]</text>
<polygon fill="none" stroke="#000000" points="354,-712.5 354,-742.5 728,-742.5 728,-712.5 354,-712.5"/>
<text text-anchor="start" x="361" y="-723.9" font-family="Arial" font-size="14.00" fill="#000000">updated_at </text>
<text text-anchor="start" x="434.9326" y="-723.9" font-family="Arial" font-size="14.00" fill="#666666">[timestamp with time zone]</text>
<polygon fill="none" stroke="#000000" stroke-width="3" points="352.5,-711.5 352.5,-929.5 729.5,-929.5 729.5,-711.5 352.5,-711.5"/>
</g>
<!-- public.rooms -->
<g id="node2" class="node">
<title>public.rooms</title>
<polygon fill="#efefef" stroke="transparent" points="199,-342.5 199,-377.5 452,-377.5 452,-342.5 199,-342.5"/>
<polygon fill="none" stroke="#000000" points="199,-342.5 199,-377.5 452,-377.5 452,-342.5 199,-342.5"/>
<text text-anchor="start" x="225.8701" y="-355.3" font-family="Arial Bold" font-size="18.00" fill="#000000">public.rooms</text>
<text text-anchor="start" x="327.8761" y="-355.3" font-family="Arial" font-size="14.00" fill="#000000"> </text>
<text text-anchor="start" x="331.7667" y="-355.3" font-family="Arial" font-size="14.00" fill="#666666">[BASE TABLE]</text>
<polygon fill="none" stroke="#000000" points="199,-312.5 199,-342.5 452,-342.5 452,-312.5 199,-312.5"/>
<text text-anchor="start" x="206" y="-323.9" font-family="Arial" font-size="14.00" fill="#000000">id </text>
<text text-anchor="start" x="220.7798" y="-323.9" font-family="Arial" font-size="14.00" fill="#666666">[bigint]</text>
<polygon fill="none" stroke="#000000" points="199,-282.5 199,-312.5 452,-312.5 452,-282.5 199,-282.5"/>
<text text-anchor="start" x="206" y="-293.9" font-family="Arial" font-size="14.00" fill="#000000">created_at </text>
<text text-anchor="start" x="276.028" y="-293.9" font-family="Arial" font-size="14.00" fill="#666666">[timestamp with time zone]</text>
<polygon fill="none" stroke="#000000" points="199,-252.5 199,-282.5 452,-282.5 452,-252.5 199,-252.5"/>
<text text-anchor="start" x="205.6915" y="-263.9" font-family="Arial" font-size="14.00" fill="#000000">updated_at </text>
<text text-anchor="start" x="279.6241" y="-263.9" font-family="Arial" font-size="14.00" fill="#666666">[timestamp with time zone]</text>
</g>
<!-- public.room_read_managements&#45;&gt;public.rooms -->
<g id="edge1" class="edge">
<title>public.room_read_managements:room_id&#45;&gt;public.rooms:id</title>
<path fill="none" stroke="#000000" d="M343.7708,-816.7026C293.1269,-807.954 342.1107,-728.9701 354,-667 376.175,-551.4183 429.825,-536.5817 452,-421 459.8299,-380.1888 493.5556,-327.5 452,-327.5"/>
<polygon fill="#000000" stroke="#000000" points="344.0302,-816.7228 353.6502,-821.9864 349.0151,-817.1114 354,-817.5 354,-817.5 354,-817.5 349.0151,-817.1114 354.3498,-813.0136 344.0302,-816.7228 344.0302,-816.7228"/>
<text text-anchor="start" x="6.7245" y="-827.5" font-family="Arial" font-size="10.00" fill="#000000">FOREIGN KEY (room_id) REFERENCES rooms(id) ON DELETE CASCADE</text>
</g>
<!-- public.users -->
<g id="node3" class="node">
<title>public.users</title>
<polygon fill="#efefef" stroke="transparent" points="556,-552.5 556,-587.5 958,-587.5 958,-552.5 556,-552.5"/>
<polygon fill="none" stroke="#000000" points="556,-552.5 556,-587.5 958,-587.5 958,-552.5 556,-552.5"/>
<text text-anchor="start" x="660.3662" y="-565.3" font-family="Arial Bold" font-size="18.00" fill="#000000">public.users</text>
<text text-anchor="start" x="756.38" y="-565.3" font-family="Arial" font-size="14.00" fill="#000000"> </text>
<text text-anchor="start" x="760.2706" y="-565.3" font-family="Arial" font-size="14.00" fill="#666666">[BASE TABLE]</text>
<polygon fill="none" stroke="#000000" points="556,-522.5 556,-552.5 958,-552.5 958,-522.5 556,-522.5"/>
<text text-anchor="start" x="563" y="-533.9" font-family="Arial" font-size="14.00" fill="#000000">id </text>
<text text-anchor="start" x="577.7798" y="-533.9" font-family="Arial" font-size="14.00" fill="#666666">[bigint]</text>
<polygon fill="none" stroke="#000000" points="556,-492.5 556,-522.5 958,-522.5 958,-492.5 556,-492.5"/>
<text text-anchor="start" x="563" y="-503.9" font-family="Arial" font-size="14.00" fill="#000000">name </text>
<text text-anchor="start" x="601.899" y="-503.9" font-family="Arial" font-size="14.00" fill="#666666">[varchar(50)]</text>
<polygon fill="none" stroke="#000000" points="556,-462.5 556,-492.5 958,-492.5 958,-462.5 556,-462.5"/>
<text text-anchor="start" x="563" y="-473.9" font-family="Arial" font-size="14.00" fill="#000000">email </text>
<text text-anchor="start" x="600.3296" y="-473.9" font-family="Arial" font-size="14.00" fill="#666666">[varchar(100)]</text>
<polygon fill="none" stroke="#000000" points="556,-432.5 556,-462.5 958,-462.5 958,-432.5 556,-432.5"/>
<text text-anchor="start" x="563" y="-443.9" font-family="Arial" font-size="14.00" fill="#000000">role </text>
<text text-anchor="start" x="590.223" y="-443.9" font-family="Arial" font-size="14.00" fill="#666666">[user_role]</text>
<polygon fill="none" stroke="#000000" points="556,-402.5 556,-432.5 958,-432.5 958,-402.5 556,-402.5"/>
<text text-anchor="start" x="563" y="-413.9" font-family="Arial" font-size="14.00" fill="#000000">avatar </text>
<text text-anchor="start" x="605.7896" y="-413.9" font-family="Arial" font-size="14.00" fill="#666666">[varchar]</text>
<polygon fill="none" stroke="#000000" points="556,-372.5 556,-402.5 958,-402.5 958,-372.5 556,-372.5"/>
<text text-anchor="start" x="563" y="-383.9" font-family="Arial" font-size="14.00" fill="#000000">introduction </text>
<text text-anchor="start" x="639.2412" y="-383.9" font-family="Arial" font-size="14.00" fill="#666666">[varchar(160)]</text>
<polygon fill="none" stroke="#000000" points="556,-342.5 556,-372.5 958,-372.5 958,-342.5 556,-342.5"/>
<text text-anchor="start" x="563" y="-353.9" font-family="Arial" font-size="14.00" fill="#000000">email_verification_status </text>
<text text-anchor="start" x="720.1332" y="-353.9" font-family="Arial" font-size="14.00" fill="#666666">[email_verification_status]</text>
<polygon fill="none" stroke="#000000" points="556,-312.5 556,-342.5 958,-342.5 958,-312.5 556,-312.5"/>
<text text-anchor="start" x="563" y="-323.9" font-family="Arial" font-size="14.00" fill="#000000">email_verification_code </text>
<text text-anchor="start" x="713.1346" y="-323.9" font-family="Arial" font-size="14.00" fill="#666666">[varchar]</text>
<polygon fill="none" stroke="#000000" points="556,-282.5 556,-312.5 958,-312.5 958,-282.5 556,-282.5"/>
<text text-anchor="start" x="562.9138" y="-293.9" font-family="Arial" font-size="14.00" fill="#000000">email_verification_code_expires_at </text>
<text text-anchor="start" x="785.4018" y="-293.9" font-family="Arial" font-size="14.00" fill="#666666">[timestamp with time zone]</text>
<polygon fill="none" stroke="#000000" points="556,-252.5 556,-282.5 958,-282.5 958,-252.5 556,-252.5"/>
<text text-anchor="start" x="563" y="-263.9" font-family="Arial" font-size="14.00" fill="#000000">password_digest </text>
<text text-anchor="start" x="671.9158" y="-263.9" font-family="Arial" font-size="14.00" fill="#666666">[varchar]</text>
<polygon fill="none" stroke="#000000" points="556,-222.5 556,-252.5 958,-252.5 958,-222.5 556,-222.5"/>
<text text-anchor="start" x="563" y="-233.9" font-family="Arial" font-size="14.00" fill="#000000">created_at </text>
<text text-anchor="start" x="633.028" y="-233.9" font-family="Arial" font-size="14.00" fill="#666666">[timestamp with time zone]</text>
<polygon fill="none" stroke="#000000" points="556,-192.5 556,-222.5 958,-222.5 958,-192.5 556,-192.5"/>
<text text-anchor="start" x="563" y="-203.9" font-family="Arial" font-size="14.00" fill="#000000">updated_at </text>
<text text-anchor="start" x="636.9326" y="-203.9" font-family="Arial" font-size="14.00" fill="#666666">[timestamp with time zone]</text>
<polygon fill="none" stroke="#000000" points="556,-162.5 556,-192.5 958,-192.5 958,-162.5 556,-162.5"/>
<text text-anchor="start" x="563" y="-173.9" font-family="Arial" font-size="14.00" fill="#000000">last_sign_in_at </text>
<text text-anchor="start" x="660.2524" y="-173.9" font-family="Arial" font-size="14.00" fill="#666666">[timestamp with time zone]</text>
<polygon fill="none" stroke="#000000" points="556,-132.5 556,-162.5 958,-162.5 958,-132.5 556,-132.5"/>
<text text-anchor="start" x="563" y="-143.9" font-family="Arial" font-size="14.00" fill="#000000">unverified_email </text>
<text text-anchor="start" x="668.7896" y="-143.9" font-family="Arial" font-size="14.00" fill="#666666">[varchar(100)]</text>
<polygon fill="none" stroke="#000000" points="556,-102.5 556,-132.5 958,-132.5 958,-102.5 556,-102.5"/>
<text text-anchor="start" x="563" y="-113.9" font-family="Arial" font-size="14.00" fill="#000000">password_reset_token </text>
<text text-anchor="start" x="707.7082" y="-113.9" font-family="Arial" font-size="14.00" fill="#666666">[varchar]</text>
<polygon fill="none" stroke="#000000" points="556,-72.5 556,-102.5 958,-102.5 958,-72.5 556,-72.5"/>
<text text-anchor="start" x="563" y="-83.9" font-family="Arial" font-size="14.00" fill="#000000">password_reset_token_expires_at </text>
<text text-anchor="start" x="780.0616" y="-83.9" font-family="Arial" font-size="14.00" fill="#666666">[timestamp with time zone]</text>
<polygon fill="none" stroke="#000000" points="556,-42.5 556,-72.5 958,-72.5 958,-42.5 556,-42.5"/>
<text text-anchor="start" x="563" y="-53.9" font-family="Arial" font-size="14.00" fill="#000000">website_url </text>
<text text-anchor="start" x="637.6746" y="-53.9" font-family="Arial" font-size="14.00" fill="#666666">[varchar]</text>
</g>
<!-- public.room_read_managements&#45;&gt;public.users -->
<g id="edge2" class="edge">
<title>public.room_read_managements:user_id&#45;&gt;public.users:id</title>
<path fill="none" stroke="#000000" d="M737.9738,-786.4306C778.7849,-776.8831 759.46,-705.7264 728,-667 678.755,-606.3808 605.245,-691.6192 556,-631 529.798,-598.746 514.4444,-537.5 556,-537.5"/>
<polygon fill="#000000" stroke="#000000" points="737.943,-786.4338 727.5202,-783.0256 732.9715,-786.9669 728,-787.5 728,-787.5 728,-787.5 732.9715,-786.9669 728.4798,-791.9744 737.943,-786.4338 737.943,-786.4338"/>
<text text-anchor="start" x="735.329" y="-797.5" font-family="Arial" font-size="10.00" fill="#000000">FOREIGN KEY (user_id) REFERENCES users(id) ON DELETE SET NULL</text>
</g>
</g>
</svg>
