<?xml version="1.0" encoding="UTF-8" standalone="no"?>
<!DOCTYPE svg PUBLIC "-//W3C//DTD SVG 1.1//EN"
 "http://www.w3.org/Graphics/SVG/1.1/DTD/svg11.dtd">
<!-- Generated by graphviz version 2.40.1 (20161225.0304)
 -->
<!-- Title: public.users Pages: 1 -->
<svg width="733pt" height="1252pt"
 viewBox="0.00 0.00 733.00 1252.00" xmlns="http://www.w3.org/2000/svg" xmlns:xlink="http://www.w3.org/1999/xlink">
<g id="graph0" class="graph" transform="scale(1 1) rotate(0) translate(4 1248)">
<title>public.users</title>
<polygon fill="#ffffff" stroke="transparent" points="-4,4 -4,-1248 729,-1248 729,4 -4,4"/>
<!-- public.users -->
<g id="node1" class="node">
<title>public.users</title>
<polygon fill="#efefef" stroke="transparent" points="46,-525.5 46,-560.5 448,-560.5 448,-525.5 46,-525.5"/>
<polygon fill="none" stroke="#000000" points="46,-525.5 46,-560.5 448,-560.5 448,-525.5 46,-525.5"/>
<text text-anchor="start" x="150.3662" y="-538.3" font-family="Arial Bold" font-size="18.00" fill="#000000">public.users</text>
<text text-anchor="start" x="246.38" y="-538.3" font-family="Arial" font-size="14.00" fill="#000000"> </text>
<text text-anchor="start" x="250.2706" y="-538.3" font-family="Arial" font-size="14.00" fill="#666666">[BASE TABLE]</text>
<polygon fill="none" stroke="#000000" points="46,-495.5 46,-525.5 448,-525.5 448,-495.5 46,-495.5"/>
<text text-anchor="start" x="53" y="-506.9" font-family="Arial" font-size="14.00" fill="#000000">id </text>
<text text-anchor="start" x="67.7798" y="-506.9" font-family="Arial" font-size="14.00" fill="#666666">[bigint]</text>
<polygon fill="none" stroke="#000000" points="46,-465.5 46,-495.5 448,-495.5 448,-465.5 46,-465.5"/>
<text text-anchor="start" x="53" y="-476.9" font-family="Arial" font-size="14.00" fill="#000000">name </text>
<text text-anchor="start" x="91.899" y="-476.9" font-family="Arial" font-size="14.00" fill="#666666">[varchar(50)]</text>
<polygon fill="none" stroke="#000000" points="46,-435.5 46,-465.5 448,-465.5 448,-435.5 46,-435.5"/>
<text text-anchor="start" x="53" y="-446.9" font-family="Arial" font-size="14.00" fill="#000000">email </text>
<text text-anchor="start" x="90.3296" y="-446.9" font-family="Arial" font-size="14.00" fill="#666666">[varchar(100)]</text>
<polygon fill="none" stroke="#000000" points="46,-405.5 46,-435.5 448,-435.5 448,-405.5 46,-405.5"/>
<text text-anchor="start" x="53" y="-416.9" font-family="Arial" font-size="14.00" fill="#000000">unverified_email </text>
<text text-anchor="start" x="158.7896" y="-416.9" font-family="Arial" font-size="14.00" fill="#666666">[varchar(100)]</text>
<polygon fill="none" stroke="#000000" points="46,-375.5 46,-405.5 448,-405.5 448,-375.5 46,-375.5"/>
<text text-anchor="start" x="53" y="-386.9" font-family="Arial" font-size="14.00" fill="#000000">role </text>
<text text-anchor="start" x="80.223" y="-386.9" font-family="Arial" font-size="14.00" fill="#666666">[user_role]</text>
<polygon fill="none" stroke="#000000" points="46,-345.5 46,-375.5 448,-375.5 448,-345.5 46,-345.5"/>
<text text-anchor="start" x="53" y="-356.9" font-family="Arial" font-size="14.00" fill="#000000">avatar </text>
<text text-anchor="start" x="95.7896" y="-356.9" font-family="Arial" font-size="14.00" fill="#666666">[varchar]</text>
<polygon fill="none" stroke="#000000" points="46,-315.5 46,-345.5 448,-345.5 448,-315.5 46,-315.5"/>
<text text-anchor="start" x="53" y="-326.9" font-family="Arial" font-size="14.00" fill="#000000">introduction </text>
<text text-anchor="start" x="129.2412" y="-326.9" font-family="Arial" font-size="14.00" fill="#666666">[varchar(160)]</text>
<polygon fill="none" stroke="#000000" points="46,-285.5 46,-315.5 448,-315.5 448,-285.5 46,-285.5"/>
<text text-anchor="start" x="53" y="-296.9" font-family="Arial" font-size="14.00" fill="#000000">email_verification_status </text>
<text text-anchor="start" x="210.1332" y="-296.9" font-family="Arial" font-size="14.00" fill="#666666">[email_verification_status]</text>
<polygon fill="none" stroke="#000000" points="46,-255.5 46,-285.5 448,-285.5 448,-255.5 46,-255.5"/>
<text text-anchor="start" x="53" y="-266.9" font-family="Arial" font-size="14.00" fill="#000000">email_verification_code </text>
<text text-anchor="start" x="203.1346" y="-266.9" font-family="Arial" font-size="14.00" fill="#666666">[varchar]</text>
<polygon fill="none" stroke="#000000" points="46,-225.5 46,-255.5 448,-255.5 448,-225.5 46,-225.5"/>
<text text-anchor="start" x="52.9138" y="-236.9" font-family="Arial" font-size="14.00" fill="#000000">email_verification_code_expires_at </text>
<text text-anchor="start" x="275.4018" y="-236.9" font-family="Arial" font-size="14.00" fill="#666666">[timestamp with time zone]</text>
<polygon fill="none" stroke="#000000" points="46,-195.5 46,-225.5 448,-225.5 448,-195.5 46,-195.5"/>
<text text-anchor="start" x="53" y="-206.9" font-family="Arial" font-size="14.00" fill="#000000">password_digest </text>
<text text-anchor="start" x="161.9158" y="-206.9" font-family="Arial" font-size="14.00" fill="#666666">[varchar]</text>
<polygon fill="none" stroke="#000000" points="46,-165.5 46,-195.5 448,-195.5 448,-165.5 46,-165.5"/>
<text text-anchor="start" x="53" y="-176.9" font-family="Arial" font-size="14.00" fill="#000000">password_reset_token </text>
<text text-anchor="start" x="197.7082" y="-176.9" font-family="Arial" font-size="14.00" fill="#666666">[varchar]</text>
<polygon fill="none" stroke="#000000" points="46,-135.5 46,-165.5 448,-165.5 448,-135.5 46,-135.5"/>
<text text-anchor="start" x="53" y="-146.9" font-family="Arial" font-size="14.00" fill="#000000">password_reset_token_expires_at </text>
<text text-anchor="start" x="270.0616" y="-146.9" font-family="Arial" font-size="14.00" fill="#666666">[timestamp with time zone]</text>
<polygon fill="none" stroke="#000000" points="46,-105.5 46,-135.5 448,-135.5 448,-105.5 46,-105.5"/>
<text text-anchor="start" x="53" y="-116.9" font-family="Arial" font-size="14.00" fill="#000000">last_sign_in_at </text>
<text text-anchor="start" x="150.2524" y="-116.9" font-family="Arial" font-size="14.00" fill="#666666">[timestamp with time zone]</text>
<polygon fill="none" stroke="#000000" points="46,-75.5 46,-105.5 448,-105.5 448,-75.5 46,-75.5"/>
<text text-anchor="start" x="53" y="-86.9" font-family="Arial" font-size="14.00" fill="#000000">created_at </text>
<text text-anchor="start" x="123.028" y="-86.9" font-family="Arial" font-size="14.00" fill="#666666">[timestamp with time zone]</text>
<polygon fill="none" stroke="#000000" points="46,-45.5 46,-75.5 448,-75.5 448,-45.5 46,-45.5"/>
<text text-anchor="start" x="53" y="-56.9" font-family="Arial" font-size="14.00" fill="#000000">updated_at </text>
<text text-anchor="start" x="126.9326" y="-56.9" font-family="Arial" font-size="14.00" fill="#666666">[timestamp with time zone]</text>
<polygon fill="none" stroke="#000000" stroke-width="3" points="44.5,-44.5 44.5,-562.5 449.5,-562.5 449.5,-44.5 44.5,-44.5"/>
</g>
<!-- public.recruitments -->
<g id="node2" class="node">
<title>public.recruitments</title>
<polygon fill="#efefef" stroke="transparent" points="116,-1165.5 116,-1200.5 378,-1200.5 378,-1165.5 116,-1165.5"/>
<polygon fill="none" stroke="#000000" points="116,-1165.5 116,-1200.5 378,-1200.5 378,-1165.5 116,-1165.5"/>
<text text-anchor="start" x="122.8685" y="-1178.3" font-family="Arial Bold" font-size="18.00" fill="#000000">public.recruitments</text>
<text text-anchor="start" x="273.8777" y="-1178.3" font-family="Arial" font-size="14.00" fill="#000000"> </text>
<text text-anchor="start" x="277.7683" y="-1178.3" font-family="Arial" font-size="14.00" fill="#666666">[BASE TABLE]</text>
<polygon fill="none" stroke="#000000" points="116,-1135.5 116,-1165.5 378,-1165.5 378,-1135.5 116,-1135.5"/>
<text text-anchor="start" x="123" y="-1146.9" font-family="Arial" font-size="14.00" fill="#000000">id </text>
<text text-anchor="start" x="137.7798" y="-1146.9" font-family="Arial" font-size="14.00" fill="#666666">[bigint]</text>
<polygon fill="none" stroke="#000000" points="116,-1105.5 116,-1135.5 378,-1135.5 378,-1105.5 116,-1105.5"/>
<text text-anchor="start" x="123" y="-1116.9" font-family="Arial" font-size="14.00" fill="#000000">title </text>
<text text-anchor="start" x="148.6676" y="-1116.9" font-family="Arial" font-size="14.00" fill="#666666">[varchar(60)]</text>
<polygon fill="none" stroke="#000000" points="116,-1075.5 116,-1105.5 378,-1105.5 378,-1075.5 116,-1075.5"/>
<text text-anchor="start" x="123" y="-1086.9" font-family="Arial" font-size="14.00" fill="#000000">category </text>
<text text-anchor="start" x="180.5722" y="-1086.9" font-family="Arial" font-size="14.00" fill="#666666">[recruitment_category]</text>
<polygon fill="none" stroke="#000000" points="116,-1045.5 116,-1075.5 378,-1075.5 378,-1045.5 116,-1045.5"/>
<text text-anchor="start" x="123" y="-1056.9" font-family="Arial" font-size="14.00" fill="#000000">venue </text>
<text text-anchor="start" x="165.021" y="-1056.9" font-family="Arial" font-size="14.00" fill="#666666">[varchar]</text>
<polygon fill="none" stroke="#000000" points="116,-1015.5 116,-1045.5 378,-1045.5 378,-1015.5 116,-1015.5"/>
<text text-anchor="start" x="123" y="-1026.9" font-family="Arial" font-size="14.00" fill="#000000">venue_lat </text>
<text text-anchor="start" x="187.5834" y="-1026.9" font-family="Arial" font-size="14.00" fill="#666666">[double precision]</text>
<polygon fill="none" stroke="#000000" points="116,-985.5 116,-1015.5 378,-1015.5 378,-985.5 116,-985.5"/>
<text text-anchor="start" x="123" y="-996.9" font-family="Arial" font-size="14.00" fill="#000000">venue_lng </text>
<text text-anchor="start" x="191.4754" y="-996.9" font-family="Arial" font-size="14.00" fill="#666666">[double precision]</text>
<polygon fill="none" stroke="#000000" points="116,-955.5 116,-985.5 378,-985.5 378,-955.5 116,-955.5"/>
<text text-anchor="start" x="123" y="-966.9" font-family="Arial" font-size="14.00" fill="#000000">start_at </text>
<text text-anchor="start" x="173.5708" y="-966.9" font-family="Arial" font-size="14.00" fill="#666666">[timestamp with time zone]</text>
<polygon fill="none" stroke="#000000" points="116,-925.5 116,-955.5 378,-955.5 378,-925.5 116,-925.5"/>
<text text-anchor="start" x="123" y="-936.9" font-family="Arial" font-size="14.00" fill="#000000">closing_at </text>
<text text-anchor="start" x="189.9074" y="-936.9" font-family="Arial" font-size="14.00" fill="#666666">[timestamp with time zone]</text>
<polygon fill="none" stroke="#000000" points="116,-895.5 116,-925.5 378,-925.5 378,-895.5 116,-895.5"/>
<text text-anchor="start" x="123" y="-906.9" font-family="Arial" font-size="14.00" fill="#000000">detail </text>
<text text-anchor="start" x="160.3422" y="-906.9" font-family="Arial" font-size="14.00" fill="#666666">[varchar(10000)]</text>
<polygon fill="none" stroke="#000000" points="116,-865.5 116,-895.5 378,-895.5 378,-865.5 116,-865.5"/>
<text text-anchor="start" x="123" y="-876.9" font-family="Arial" font-size="14.00" fill="#000000">sport_id </text>
<text text-anchor="start" x="176.6788" y="-876.9" font-family="Arial" font-size="14.00" fill="#666666">[bigint]</text>
<polygon fill="none" stroke="#000000" points="116,-835.5 116,-865.5 378,-865.5 378,-835.5 116,-835.5"/>
<text text-anchor="start" x="123" y="-846.9" font-family="Arial" font-size="14.00" fill="#000000">prefecture_id </text>
<text text-anchor="start" x="208.5778" y="-846.9" font-family="Arial" font-size="14.00" fill="#666666">[bigint]</text>
<polygon fill="none" stroke="#000000" points="116,-805.5 116,-835.5 378,-835.5 378,-805.5 116,-805.5"/>
<text text-anchor="start" x="123" y="-816.9" font-family="Arial" font-size="14.00" fill="#000000">status </text>
<text text-anchor="start" x="164.237" y="-816.9" font-family="Arial" font-size="14.00" fill="#666666">[recruitment_status]</text>
<polygon fill="none" stroke="#000000" points="116,-775.5 116,-805.5 378,-805.5 378,-775.5 116,-775.5"/>
<text text-anchor="start" x="123" y="-786.9" font-family="Arial" font-size="14.00" fill="#000000">user_id </text>
<text text-anchor="start" x="172.7882" y="-786.9" font-family="Arial" font-size="14.00" fill="#666666">[bigint]</text>
<polygon fill="none" stroke="#000000" points="116,-745.5 116,-775.5 378,-775.5 378,-745.5 116,-745.5"/>
<text text-anchor="start" x="122.5302" y="-756.9" font-family="Arial" font-size="14.00" fill="#000000">published_at </text>
<text text-anchor="start" x="205.7854" y="-756.9" font-family="Arial" font-size="14.00" fill="#666666">[timestamp with time zone]</text>
<polygon fill="none" stroke="#000000" points="116,-715.5 116,-745.5 378,-745.5 378,-715.5 116,-715.5"/>
<text text-anchor="start" x="123" y="-726.9" font-family="Arial" font-size="14.00" fill="#000000">created_at </text>
<text text-anchor="start" x="193.028" y="-726.9" font-family="Arial" font-size="14.00" fill="#666666">[timestamp with time zone]</text>
<polygon fill="none" stroke="#000000" points="116,-685.5 116,-715.5 378,-715.5 378,-685.5 116,-685.5"/>
<text text-anchor="start" x="123" y="-696.9" font-family="Arial" font-size="14.00" fill="#000000">updated_at </text>
<text text-anchor="start" x="196.9326" y="-696.9" font-family="Arial" font-size="14.00" fill="#666666">[timestamp with time zone]</text>
</g>
<!-- public.recruitments&#45;&gt;public.users -->
<g id="edge1" class="edge">
<title>public.recruitments:user_id&#45;&gt;public.users:id</title>
<path fill="none" stroke="#000000" d="M387.7979,-788.4072C448.9007,-762.7845 508.8802,-510.5 448,-510.5"/>
<polygon fill="#000000" stroke="#000000" points="387.7794,-788.4111 377.06,-786.0993 382.8897,-789.4555 378,-790.5 378,-790.5 378,-790.5 382.8897,-789.4555 378.94,-794.9007 387.7794,-788.4111 387.7794,-788.4111"/>
<text text-anchor="start" x="385.0535" y="-800.5" font-family="Arial" font-size="10.00" fill="#000000">FOREIGN KEY (user_id) REFERENCES users(id) ON DELETE CASCADE</text>
</g>
</g>
</svg>
