<?xml version="1.0" encoding="UTF-8" standalone="no"?>
<!DOCTYPE svg PUBLIC "-//W3C//DTD SVG 1.1//EN"
 "http://www.w3.org/Graphics/SVG/1.1/DTD/svg11.dtd">
<!-- Generated by graphviz version 2.40.1 (20161225.0304)
 -->
<!-- Title: public.users Pages: 1 -->
<svg width="1140pt" height="1252pt"
 viewBox="0.00 0.00 1140.00 1252.00" xmlns="http://www.w3.org/2000/svg" xmlns:xlink="http://www.w3.org/1999/xlink">
<g id="graph0" class="graph" transform="scale(1 1) rotate(0) translate(4 1248)">
<title>public.users</title>
<polygon fill="#ffffff" stroke="transparent" points="-4,4 -4,-1248 1136,-1248 1136,4 -4,4"/>
<!-- public.users -->
<g id="node1" class="node">
<title>public.users</title>
<polygon fill="#efefef" stroke="transparent" points="517,-525.5 517,-560.5 919,-560.5 919,-525.5 517,-525.5"/>
<polygon fill="none" stroke="#000000" points="517,-525.5 517,-560.5 919,-560.5 919,-525.5 517,-525.5"/>
<text text-anchor="start" x="621.3662" y="-538.3" font-family="Arial Bold" font-size="18.00" fill="#000000">public.users</text>
<text text-anchor="start" x="717.38" y="-538.3" font-family="Arial" font-size="14.00" fill="#000000"> </text>
<text text-anchor="start" x="721.2706" y="-538.3" font-family="Arial" font-size="14.00" fill="#666666">[BASE TABLE]</text>
<polygon fill="none" stroke="#000000" points="517,-495.5 517,-525.5 919,-525.5 919,-495.5 517,-495.5"/>
<text text-anchor="start" x="524" y="-506.9" font-family="Arial" font-size="14.00" fill="#000000">id </text>
<text text-anchor="start" x="538.7798" y="-506.9" font-family="Arial" font-size="14.00" fill="#666666">[bigint]</text>
<polygon fill="none" stroke="#000000" points="517,-465.5 517,-495.5 919,-495.5 919,-465.5 517,-465.5"/>
<text text-anchor="start" x="524" y="-476.9" font-family="Arial" font-size="14.00" fill="#000000">name </text>
<text text-anchor="start" x="562.899" y="-476.9" font-family="Arial" font-size="14.00" fill="#666666">[varchar(50)]</text>
<polygon fill="none" stroke="#000000" points="517,-435.5 517,-465.5 919,-465.5 919,-435.5 517,-435.5"/>
<text text-anchor="start" x="524" y="-446.9" font-family="Arial" font-size="14.00" fill="#000000">email </text>
<text text-anchor="start" x="561.3296" y="-446.9" font-family="Arial" font-size="14.00" fill="#666666">[varchar(100)]</text>
<polygon fill="none" stroke="#000000" points="517,-405.5 517,-435.5 919,-435.5 919,-405.5 517,-405.5"/>
<text text-anchor="start" x="524" y="-416.9" font-family="Arial" font-size="14.00" fill="#000000">unverified_email </text>
<text text-anchor="start" x="629.7896" y="-416.9" font-family="Arial" font-size="14.00" fill="#666666">[varchar(100)]</text>
<polygon fill="none" stroke="#000000" points="517,-375.5 517,-405.5 919,-405.5 919,-375.5 517,-375.5"/>
<text text-anchor="start" x="524" y="-386.9" font-family="Arial" font-size="14.00" fill="#000000">role </text>
<text text-anchor="start" x="551.223" y="-386.9" font-family="Arial" font-size="14.00" fill="#666666">[user_role]</text>
<polygon fill="none" stroke="#000000" points="517,-345.5 517,-375.5 919,-375.5 919,-345.5 517,-345.5"/>
<text text-anchor="start" x="524" y="-356.9" font-family="Arial" font-size="14.00" fill="#000000">avatar </text>
<text text-anchor="start" x="566.7896" y="-356.9" font-family="Arial" font-size="14.00" fill="#666666">[varchar]</text>
<polygon fill="none" stroke="#000000" points="517,-315.5 517,-345.5 919,-345.5 919,-315.5 517,-315.5"/>
<text text-anchor="start" x="524" y="-326.9" font-family="Arial" font-size="14.00" fill="#000000">introduction </text>
<text text-anchor="start" x="600.2412" y="-326.9" font-family="Arial" font-size="14.00" fill="#666666">[varchar(160)]</text>
<polygon fill="none" stroke="#000000" points="517,-285.5 517,-315.5 919,-315.5 919,-285.5 517,-285.5"/>
<text text-anchor="start" x="524" y="-296.9" font-family="Arial" font-size="14.00" fill="#000000">email_verification_status </text>
<text text-anchor="start" x="681.1332" y="-296.9" font-family="Arial" font-size="14.00" fill="#666666">[email_verification_status]</text>
<polygon fill="none" stroke="#000000" points="517,-255.5 517,-285.5 919,-285.5 919,-255.5 517,-255.5"/>
<text text-anchor="start" x="524" y="-266.9" font-family="Arial" font-size="14.00" fill="#000000">email_verification_code </text>
<text text-anchor="start" x="674.1346" y="-266.9" font-family="Arial" font-size="14.00" fill="#666666">[varchar]</text>
<polygon fill="none" stroke="#000000" points="517,-225.5 517,-255.5 919,-255.5 919,-225.5 517,-225.5"/>
<text text-anchor="start" x="523.9138" y="-236.9" font-family="Arial" font-size="14.00" fill="#000000">email_verification_code_expires_at </text>
<text text-anchor="start" x="746.4018" y="-236.9" font-family="Arial" font-size="14.00" fill="#666666">[timestamp with time zone]</text>
<polygon fill="none" stroke="#000000" points="517,-195.5 517,-225.5 919,-225.5 919,-195.5 517,-195.5"/>
<text text-anchor="start" x="524" y="-206.9" font-family="Arial" font-size="14.00" fill="#000000">password_digest </text>
<text text-anchor="start" x="632.9158" y="-206.9" font-family="Arial" font-size="14.00" fill="#666666">[varchar]</text>
<polygon fill="none" stroke="#000000" points="517,-165.5 517,-195.5 919,-195.5 919,-165.5 517,-165.5"/>
<text text-anchor="start" x="524" y="-176.9" font-family="Arial" font-size="14.00" fill="#000000">password_reset_token </text>
<text text-anchor="start" x="668.7082" y="-176.9" font-family="Arial" font-size="14.00" fill="#666666">[varchar]</text>
<polygon fill="none" stroke="#000000" points="517,-135.5 517,-165.5 919,-165.5 919,-135.5 517,-135.5"/>
<text text-anchor="start" x="524" y="-146.9" font-family="Arial" font-size="14.00" fill="#000000">password_reset_token_expires_at </text>
<text text-anchor="start" x="741.0616" y="-146.9" font-family="Arial" font-size="14.00" fill="#666666">[timestamp with time zone]</text>
<polygon fill="none" stroke="#000000" points="517,-105.5 517,-135.5 919,-135.5 919,-105.5 517,-105.5"/>
<text text-anchor="start" x="524" y="-116.9" font-family="Arial" font-size="14.00" fill="#000000">last_sign_in_at </text>
<text text-anchor="start" x="621.2524" y="-116.9" font-family="Arial" font-size="14.00" fill="#666666">[timestamp with time zone]</text>
<polygon fill="none" stroke="#000000" points="517,-75.5 517,-105.5 919,-105.5 919,-75.5 517,-75.5"/>
<text text-anchor="start" x="524" y="-86.9" font-family="Arial" font-size="14.00" fill="#000000">created_at </text>
<text text-anchor="start" x="594.028" y="-86.9" font-family="Arial" font-size="14.00" fill="#666666">[timestamp with time zone]</text>
<polygon fill="none" stroke="#000000" points="517,-45.5 517,-75.5 919,-75.5 919,-45.5 517,-45.5"/>
<text text-anchor="start" x="524" y="-56.9" font-family="Arial" font-size="14.00" fill="#000000">updated_at </text>
<text text-anchor="start" x="597.9326" y="-56.9" font-family="Arial" font-size="14.00" fill="#666666">[timestamp with time zone]</text>
<polygon fill="none" stroke="#000000" stroke-width="3" points="515.5,-44.5 515.5,-562.5 920.5,-562.5 920.5,-44.5 515.5,-44.5"/>
</g>
<!-- public.recruitments -->
<g id="node2" class="node">
<title>public.recruitments</title>
<polygon fill="#efefef" stroke="transparent" points="43,-1165.5 43,-1200.5 305,-1200.5 305,-1165.5 43,-1165.5"/>
<polygon fill="none" stroke="#000000" points="43,-1165.5 43,-1200.5 305,-1200.5 305,-1165.5 43,-1165.5"/>
<text text-anchor="start" x="49.8685" y="-1178.3" font-family="Arial Bold" font-size="18.00" fill="#000000">public.recruitments</text>
<text text-anchor="start" x="200.8777" y="-1178.3" font-family="Arial" font-size="14.00" fill="#000000"> </text>
<text text-anchor="start" x="204.7683" y="-1178.3" font-family="Arial" font-size="14.00" fill="#666666">[BASE TABLE]</text>
<polygon fill="none" stroke="#000000" points="43,-1135.5 43,-1165.5 305,-1165.5 305,-1135.5 43,-1135.5"/>
<text text-anchor="start" x="50" y="-1146.9" font-family="Arial" font-size="14.00" fill="#000000">id </text>
<text text-anchor="start" x="64.7798" y="-1146.9" font-family="Arial" font-size="14.00" fill="#666666">[bigint]</text>
<polygon fill="none" stroke="#000000" points="43,-1105.5 43,-1135.5 305,-1135.5 305,-1105.5 43,-1105.5"/>
<text text-anchor="start" x="50" y="-1116.9" font-family="Arial" font-size="14.00" fill="#000000">title </text>
<text text-anchor="start" x="75.6676" y="-1116.9" font-family="Arial" font-size="14.00" fill="#666666">[varchar(60)]</text>
<polygon fill="none" stroke="#000000" points="43,-1075.5 43,-1105.5 305,-1105.5 305,-1075.5 43,-1075.5"/>
<text text-anchor="start" x="50" y="-1086.9" font-family="Arial" font-size="14.00" fill="#000000">category </text>
<text text-anchor="start" x="107.5722" y="-1086.9" font-family="Arial" font-size="14.00" fill="#666666">[recruitment_category]</text>
<polygon fill="none" stroke="#000000" points="43,-1045.5 43,-1075.5 305,-1075.5 305,-1045.5 43,-1045.5"/>
<text text-anchor="start" x="50" y="-1056.9" font-family="Arial" font-size="14.00" fill="#000000">venue </text>
<text text-anchor="start" x="92.021" y="-1056.9" font-family="Arial" font-size="14.00" fill="#666666">[varchar]</text>
<polygon fill="none" stroke="#000000" points="43,-1015.5 43,-1045.5 305,-1045.5 305,-1015.5 43,-1015.5"/>
<text text-anchor="start" x="50" y="-1026.9" font-family="Arial" font-size="14.00" fill="#000000">venue_lat </text>
<text text-anchor="start" x="114.5834" y="-1026.9" font-family="Arial" font-size="14.00" fill="#666666">[double precision]</text>
<polygon fill="none" stroke="#000000" points="43,-985.5 43,-1015.5 305,-1015.5 305,-985.5 43,-985.5"/>
<text text-anchor="start" x="50" y="-996.9" font-family="Arial" font-size="14.00" fill="#000000">venue_lng </text>
<text text-anchor="start" x="118.4754" y="-996.9" font-family="Arial" font-size="14.00" fill="#666666">[double precision]</text>
<polygon fill="none" stroke="#000000" points="43,-955.5 43,-985.5 305,-985.5 305,-955.5 43,-955.5"/>
<text text-anchor="start" x="50" y="-966.9" font-family="Arial" font-size="14.00" fill="#000000">start_at </text>
<text text-anchor="start" x="100.5708" y="-966.9" font-family="Arial" font-size="14.00" fill="#666666">[timestamp with time zone]</text>
<polygon fill="none" stroke="#000000" points="43,-925.5 43,-955.5 305,-955.5 305,-925.5 43,-925.5"/>
<text text-anchor="start" x="50" y="-936.9" font-family="Arial" font-size="14.00" fill="#000000">closing_at </text>
<text text-anchor="start" x="116.9074" y="-936.9" font-family="Arial" font-size="14.00" fill="#666666">[timestamp with time zone]</text>
<polygon fill="none" stroke="#000000" points="43,-895.5 43,-925.5 305,-925.5 305,-895.5 43,-895.5"/>
<text text-anchor="start" x="50" y="-906.9" font-family="Arial" font-size="14.00" fill="#000000">detail </text>
<text text-anchor="start" x="87.3422" y="-906.9" font-family="Arial" font-size="14.00" fill="#666666">[varchar(10000)]</text>
<polygon fill="none" stroke="#000000" points="43,-865.5 43,-895.5 305,-895.5 305,-865.5 43,-865.5"/>
<text text-anchor="start" x="50" y="-876.9" font-family="Arial" font-size="14.00" fill="#000000">sport_id </text>
<text text-anchor="start" x="103.6788" y="-876.9" font-family="Arial" font-size="14.00" fill="#666666">[bigint]</text>
<polygon fill="none" stroke="#000000" points="43,-835.5 43,-865.5 305,-865.5 305,-835.5 43,-835.5"/>
<text text-anchor="start" x="50" y="-846.9" font-family="Arial" font-size="14.00" fill="#000000">prefecture_id </text>
<text text-anchor="start" x="135.5778" y="-846.9" font-family="Arial" font-size="14.00" fill="#666666">[bigint]</text>
<polygon fill="none" stroke="#000000" points="43,-805.5 43,-835.5 305,-835.5 305,-805.5 43,-805.5"/>
<text text-anchor="start" x="50" y="-816.9" font-family="Arial" font-size="14.00" fill="#000000">status </text>
<text text-anchor="start" x="91.237" y="-816.9" font-family="Arial" font-size="14.00" fill="#666666">[recruitment_status]</text>
<polygon fill="none" stroke="#000000" points="43,-775.5 43,-805.5 305,-805.5 305,-775.5 43,-775.5"/>
<text text-anchor="start" x="50" y="-786.9" font-family="Arial" font-size="14.00" fill="#000000">user_id </text>
<text text-anchor="start" x="99.7882" y="-786.9" font-family="Arial" font-size="14.00" fill="#666666">[bigint]</text>
<polygon fill="none" stroke="#000000" points="43,-745.5 43,-775.5 305,-775.5 305,-745.5 43,-745.5"/>
<text text-anchor="start" x="49.5302" y="-756.9" font-family="Arial" font-size="14.00" fill="#000000">published_at </text>
<text text-anchor="start" x="132.7854" y="-756.9" font-family="Arial" font-size="14.00" fill="#666666">[timestamp with time zone]</text>
<polygon fill="none" stroke="#000000" points="43,-715.5 43,-745.5 305,-745.5 305,-715.5 43,-715.5"/>
<text text-anchor="start" x="50" y="-726.9" font-family="Arial" font-size="14.00" fill="#000000">created_at </text>
<text text-anchor="start" x="120.028" y="-726.9" font-family="Arial" font-size="14.00" fill="#666666">[timestamp with time zone]</text>
<polygon fill="none" stroke="#000000" points="43,-685.5 43,-715.5 305,-715.5 305,-685.5 43,-685.5"/>
<text text-anchor="start" x="50" y="-696.9" font-family="Arial" font-size="14.00" fill="#000000">updated_at </text>
<text text-anchor="start" x="123.9326" y="-696.9" font-family="Arial" font-size="14.00" fill="#666666">[timestamp with time zone]</text>
</g>
<!-- public.recruitments&#45;&gt;public.users -->
<g id="edge1" class="edge">
<title>public.recruitments:user_id&#45;&gt;public.users:id</title>
<path fill="none" stroke="#000000" d="M315.3031,-789.7084C368.5358,-780.703 319.4094,-696.8942 357,-643 409.8197,-567.2717 424.6707,-510.5 517,-510.5"/>
<polygon fill="#000000" stroke="#000000" points="314.9706,-789.7339 304.6552,-786.0132 309.9853,-790.1169 305,-790.5 305,-790.5 305,-790.5 309.9853,-790.1169 305.3448,-794.9868 314.9706,-789.7339 314.9706,-789.7339"/>
<text text-anchor="start" x="312.0535" y="-774.5" font-family="Arial" font-size="10.00" fill="#000000">FOREIGN KEY (user_id) REFERENCES users(id) ON DELETE CASCADE</text>
</g>
<!-- public.stocks -->
<g id="node3" class="node">
<title>public.stocks</title>
<polygon fill="#efefef" stroke="transparent" points="410,-1000.5 410,-1035.5 663,-1035.5 663,-1000.5 410,-1000.5"/>
<polygon fill="none" stroke="#000000" points="410,-1000.5 410,-1035.5 663,-1035.5 663,-1000.5 410,-1000.5"/>
<text text-anchor="start" x="436.3643" y="-1013.3" font-family="Arial Bold" font-size="18.00" fill="#000000">public.stocks</text>
<text text-anchor="start" x="539.3819" y="-1013.3" font-family="Arial" font-size="14.00" fill="#000000"> </text>
<text text-anchor="start" x="543.2725" y="-1013.3" font-family="Arial" font-size="14.00" fill="#666666">[BASE TABLE]</text>
<polygon fill="none" stroke="#000000" points="410,-970.5 410,-1000.5 663,-1000.5 663,-970.5 410,-970.5"/>
<text text-anchor="start" x="417" y="-981.9" font-family="Arial" font-size="14.00" fill="#000000">id </text>
<text text-anchor="start" x="431.7798" y="-981.9" font-family="Arial" font-size="14.00" fill="#666666">[bigint]</text>
<polygon fill="none" stroke="#000000" points="410,-940.5 410,-970.5 663,-970.5 663,-940.5 410,-940.5"/>
<text text-anchor="start" x="417" y="-951.9" font-family="Arial" font-size="14.00" fill="#000000">user_id </text>
<text text-anchor="start" x="466.7882" y="-951.9" font-family="Arial" font-size="14.00" fill="#666666">[bigint]</text>
<polygon fill="none" stroke="#000000" points="410,-910.5 410,-940.5 663,-940.5 663,-910.5 410,-910.5"/>
<text text-anchor="start" x="417" y="-921.9" font-family="Arial" font-size="14.00" fill="#000000">recruitment_id </text>
<text text-anchor="start" x="509.5624" y="-921.9" font-family="Arial" font-size="14.00" fill="#666666">[bigint]</text>
<polygon fill="none" stroke="#000000" points="410,-880.5 410,-910.5 663,-910.5 663,-880.5 410,-880.5"/>
<text text-anchor="start" x="417" y="-891.9" font-family="Arial" font-size="14.00" fill="#000000">created_at </text>
<text text-anchor="start" x="487.028" y="-891.9" font-family="Arial" font-size="14.00" fill="#666666">[timestamp with time zone]</text>
<polygon fill="none" stroke="#000000" points="410,-850.5 410,-880.5 663,-880.5 663,-850.5 410,-850.5"/>
<text text-anchor="start" x="416.6915" y="-861.9" font-family="Arial" font-size="14.00" fill="#000000">updated_at </text>
<text text-anchor="start" x="490.6241" y="-861.9" font-family="Arial" font-size="14.00" fill="#666666">[timestamp with time zone]</text>
</g>
<!-- public.stocks&#45;&gt;public.users -->
<g id="edge2" class="edge">
<title>public.stocks:user_id&#45;&gt;public.users:id</title>
<path fill="none" stroke="#000000" d="M673.0971,-954.7001C723.5041,-945.9271 682.107,-866.8168 663,-808 628.8865,-702.9891 551.1135,-712.0109 517,-607 503.7489,-566.2095 474.1111,-510.5 517,-510.5"/>
<polygon fill="#000000" stroke="#000000" points="672.9688,-954.7101 662.6446,-951.0141 667.9844,-955.1051 663,-955.5 663,-955.5 663,-955.5 667.9844,-955.1051 663.3554,-959.9859 672.9688,-954.7101 672.9688,-954.7101"/>
<text text-anchor="start" x="323.0535" y="-965.5" font-family="Arial" font-size="10.00" fill="#000000">FOREIGN KEY (user_id) REFERENCES users(id) ON DELETE CASCADE</text>
</g>
<!-- public.relationships -->
<g id="node4" class="node">
<title>public.relationships</title>
<polygon fill="#efefef" stroke="transparent" points="767,-1000.5 767,-1035.5 1031,-1035.5 1031,-1000.5 767,-1000.5"/>
<polygon fill="none" stroke="#000000" points="767,-1000.5 767,-1035.5 1031,-1035.5 1031,-1000.5 767,-1000.5"/>
<text text-anchor="start" x="773.8614" y="-1013.3" font-family="Arial Bold" font-size="18.00" fill="#000000">public.relationships</text>
<text text-anchor="start" x="926.8848" y="-1013.3" font-family="Arial" font-size="14.00" fill="#000000"> </text>
<text text-anchor="start" x="930.7754" y="-1013.3" font-family="Arial" font-size="14.00" fill="#666666">[BASE TABLE]</text>
<polygon fill="none" stroke="#000000" points="767,-970.5 767,-1000.5 1031,-1000.5 1031,-970.5 767,-970.5"/>
<text text-anchor="start" x="774" y="-981.9" font-family="Arial" font-size="14.00" fill="#000000">id </text>
<text text-anchor="start" x="788.7798" y="-981.9" font-family="Arial" font-size="14.00" fill="#666666">[bigint]</text>
<polygon fill="none" stroke="#000000" points="767,-940.5 767,-970.5 1031,-970.5 1031,-940.5 767,-940.5"/>
<text text-anchor="start" x="774" y="-951.9" font-family="Arial" font-size="14.00" fill="#000000">followed_id </text>
<text text-anchor="start" x="847.9032" y="-951.9" font-family="Arial" font-size="14.00" fill="#666666">[bigint]</text>
<polygon fill="none" stroke="#000000" points="767,-910.5 767,-940.5 1031,-940.5 1031,-910.5 767,-910.5"/>
<text text-anchor="start" x="774" y="-921.9" font-family="Arial" font-size="14.00" fill="#000000">follower_id </text>
<text text-anchor="start" x="844.7812" y="-921.9" font-family="Arial" font-size="14.00" fill="#666666">[bigint]</text>
<polygon fill="none" stroke="#000000" points="767,-880.5 767,-910.5 1031,-910.5 1031,-880.5 767,-880.5"/>
<text text-anchor="start" x="774" y="-891.9" font-family="Arial" font-size="14.00" fill="#000000">created_at </text>
<text text-anchor="start" x="844.028" y="-891.9" font-family="Arial" font-size="14.00" fill="#666666">[timestamp with time zone]</text>
<polygon fill="none" stroke="#000000" points="767,-850.5 767,-880.5 1031,-880.5 1031,-850.5 767,-850.5"/>
<text text-anchor="start" x="774" y="-861.9" font-family="Arial" font-size="14.00" fill="#000000">updated_at </text>
<text text-anchor="start" x="847.9326" y="-861.9" font-family="Arial" font-size="14.00" fill="#666666">[timestamp with time zone]</text>
</g>
<!-- public.relationships&#45;&gt;public.users -->
<g id="edge3" class="edge">
<title>public.relationships:followed_id&#45;&gt;public.users:id</title>
<path fill="none" stroke="#000000" d="M756.8975,-954.6983C706.4318,-945.9059 747.3273,-866.63 767,-808 802.6285,-701.8171 883.3715,-713.1829 919,-607 932.6434,-566.339 961.8889,-510.5 919,-510.5"/>
<polygon fill="#000000" stroke="#000000" points="757.0313,-954.7088 766.644,-959.9859 762.0157,-955.1044 767,-955.5 767,-955.5 767,-955.5 762.0157,-955.1044 767.356,-951.0141 757.0313,-954.7088 757.0313,-954.7088"/>
<text text-anchor="start" x="774.441" y="-965.5" font-family="Arial" font-size="10.00" fill="#000000">FOREIGN KEY (followed_id) REFERENCES users(id) ON DELETE CASCADE</text>
</g>
<!-- public.relationships&#45;&gt;public.users -->
<g id="edge4" class="edge">
<title>public.relationships:follower_id&#45;&gt;public.users:id</title>
<path fill="none" stroke="#000000" d="M756.7802,-924.4118C719.959,-915.5095 751.6206,-853.835 767,-808 802.6285,-701.8171 883.3715,-713.1829 919,-607 932.6434,-566.339 961.8889,-510.5 919,-510.5"/>
<polygon fill="#000000" stroke="#000000" points="757.0562,-924.4411 766.5235,-929.9747 762.0281,-924.9705 767,-925.5 767,-925.5 767,-925.5 762.0281,-924.9705 767.4765,-921.0253 757.0562,-924.4411 757.0562,-924.4411"/>
<text text-anchor="start" x="773.556" y="-935.5" font-family="Arial" font-size="10.00" fill="#000000">FOREIGN KEY (follower_id) REFERENCES users(id) ON DELETE CASCADE</text>
</g>
</g>
</svg>
