<?xml version="1.0" encoding="UTF-8" standalone="no"?>
<!DOCTYPE svg PUBLIC "-//W3C//DTD SVG 1.1//EN"
 "http://www.w3.org/Graphics/SVG/1.1/DTD/svg11.dtd">
<!-- Generated by graphviz version 2.40.1 (20161225.0304)
 -->
<!-- Title: public.rooms Pages: 1 -->
<svg width="1240pt" height="592pt"
 viewBox="0.00 0.00 1240.00 592.00" xmlns="http://www.w3.org/2000/svg" xmlns:xlink="http://www.w3.org/1999/xlink">
<g id="graph0" class="graph" transform="scale(1 1) rotate(0) translate(4 588)">
<title>public.rooms</title>
<polygon fill="#ffffff" stroke="transparent" points="-4,4 -4,-588 1236,-588 1236,4 -4,4"/>
<!-- public.rooms -->
<g id="node1" class="node">
<title>public.rooms</title>
<polygon fill="#efefef" stroke="transparent" points="458,-135.5 458,-170.5 711,-170.5 711,-135.5 458,-135.5"/>
<polygon fill="none" stroke="#000000" points="458,-135.5 458,-170.5 711,-170.5 711,-135.5 458,-135.5"/>
<text text-anchor="start" x="484.8701" y="-148.3" font-family="Arial Bold" font-size="18.00" fill="#000000">public.rooms</text>
<text text-anchor="start" x="586.8761" y="-148.3" font-family="Arial" font-size="14.00" fill="#000000"> </text>
<text text-anchor="start" x="590.7667" y="-148.3" font-family="Arial" font-size="14.00" fill="#666666">[BASE TABLE]</text>
<polygon fill="none" stroke="#000000" points="458,-105.5 458,-135.5 711,-135.5 711,-105.5 458,-105.5"/>
<text text-anchor="start" x="465" y="-116.9" font-family="Arial" font-size="14.00" fill="#000000">id </text>
<text text-anchor="start" x="479.7798" y="-116.9" font-family="Arial" font-size="14.00" fill="#666666">[bigint]</text>
<polygon fill="none" stroke="#000000" points="458,-75.5 458,-105.5 711,-105.5 711,-75.5 458,-75.5"/>
<text text-anchor="start" x="465" y="-86.9" font-family="Arial" font-size="14.00" fill="#000000">created_at </text>
<text text-anchor="start" x="535.028" y="-86.9" font-family="Arial" font-size="14.00" fill="#666666">[timestamp with time zone]</text>
<polygon fill="none" stroke="#000000" points="458,-45.5 458,-75.5 711,-75.5 711,-45.5 458,-45.5"/>
<text text-anchor="start" x="464.6915" y="-56.9" font-family="Arial" font-size="14.00" fill="#000000">updated_at </text>
<text text-anchor="start" x="538.6241" y="-56.9" font-family="Arial" font-size="14.00" fill="#666666">[timestamp with time zone]</text>
<polygon fill="none" stroke="#000000" stroke-width="3" points="456,-44.5 456,-172.5 712,-172.5 712,-44.5 456,-44.5"/>
</g>
<!-- public.messages -->
<g id="node2" class="node">
<title>public.messages</title>
<polygon fill="#efefef" stroke="transparent" points="101,-505.5 101,-540.5 354,-540.5 354,-505.5 101,-505.5"/>
<polygon fill="none" stroke="#000000" points="101,-505.5 101,-540.5 354,-540.5 354,-505.5 101,-505.5"/>
<text text-anchor="start" x="111.86" y="-518.3" font-family="Arial Bold" font-size="18.00" fill="#000000">public.messages</text>
<text text-anchor="start" x="245.8862" y="-518.3" font-family="Arial" font-size="14.00" fill="#000000"> </text>
<text text-anchor="start" x="249.7768" y="-518.3" font-family="Arial" font-size="14.00" fill="#666666">[BASE TABLE]</text>
<polygon fill="none" stroke="#000000" points="101,-475.5 101,-505.5 354,-505.5 354,-475.5 101,-475.5"/>
<text text-anchor="start" x="108" y="-486.9" font-family="Arial" font-size="14.00" fill="#000000">id </text>
<text text-anchor="start" x="122.7798" y="-486.9" font-family="Arial" font-size="14.00" fill="#666666">[bigint]</text>
<polygon fill="none" stroke="#000000" points="101,-445.5 101,-475.5 354,-475.5 354,-445.5 101,-445.5"/>
<text text-anchor="start" x="108" y="-456.9" font-family="Arial" font-size="14.00" fill="#000000">content </text>
<text text-anchor="start" x="157.8022" y="-456.9" font-family="Arial" font-size="14.00" fill="#666666">[varchar(1000)]</text>
<polygon fill="none" stroke="#000000" points="101,-415.5 101,-445.5 354,-445.5 354,-415.5 101,-415.5"/>
<text text-anchor="start" x="108" y="-426.9" font-family="Arial" font-size="14.00" fill="#000000">room_id </text>
<text text-anchor="start" x="162.4488" y="-426.9" font-family="Arial" font-size="14.00" fill="#666666">[bigint]</text>
<polygon fill="none" stroke="#000000" points="101,-385.5 101,-415.5 354,-415.5 354,-385.5 101,-385.5"/>
<text text-anchor="start" x="108" y="-396.9" font-family="Arial" font-size="14.00" fill="#000000">user_id </text>
<text text-anchor="start" x="157.7882" y="-396.9" font-family="Arial" font-size="14.00" fill="#666666">[bigint]</text>
<polygon fill="none" stroke="#000000" points="101,-355.5 101,-385.5 354,-385.5 354,-355.5 101,-355.5"/>
<text text-anchor="start" x="108" y="-366.9" font-family="Arial" font-size="14.00" fill="#000000">applicant_id </text>
<text text-anchor="start" x="186.5792" y="-366.9" font-family="Arial" font-size="14.00" fill="#666666">[bigint]</text>
<polygon fill="none" stroke="#000000" points="101,-325.5 101,-355.5 354,-355.5 354,-325.5 101,-325.5"/>
<text text-anchor="start" x="108" y="-336.9" font-family="Arial" font-size="14.00" fill="#000000">created_at </text>
<text text-anchor="start" x="178.028" y="-336.9" font-family="Arial" font-size="14.00" fill="#666666">[timestamp with time zone]</text>
<polygon fill="none" stroke="#000000" points="101,-295.5 101,-325.5 354,-325.5 354,-295.5 101,-295.5"/>
<text text-anchor="start" x="107.6915" y="-306.9" font-family="Arial" font-size="14.00" fill="#000000">updated_at </text>
<text text-anchor="start" x="181.6241" y="-306.9" font-family="Arial" font-size="14.00" fill="#666666">[timestamp with time zone]</text>
</g>
<!-- public.messages&#45;&gt;public.rooms -->
<g id="edge1" class="edge">
<title>public.messages:room_id&#45;&gt;public.rooms:id</title>
<path fill="none" stroke="#000000" d="M364.2358,-429.9066C431.0677,-421.5737 379.5863,-327.1598 405,-253 425.5613,-193 394.5747,-120.5 458,-120.5"/>
<polygon fill="#000000" stroke="#000000" points="363.9832,-429.9211 353.7395,-426.0075 358.9916,-430.2106 354,-430.5 354,-430.5 354,-430.5 358.9916,-430.2106 354.2605,-434.9925 363.9832,-429.9211 363.9832,-429.9211"/>
<text text-anchor="start" x="6.7245" y="-440.5" font-family="Arial" font-size="10.00" fill="#000000">FOREIGN KEY (room_id) REFERENCES rooms(id) ON DELETE CASCADE</text>
</g>
<!-- public.entries -->
<g id="node3" class="node">
<title>public.entries</title>
<polygon fill="#efefef" stroke="transparent" points="458,-475.5 458,-510.5 711,-510.5 711,-475.5 458,-475.5"/>
<polygon fill="none" stroke="#000000" points="458,-475.5 458,-510.5 711,-510.5 711,-475.5 458,-475.5"/>
<text text-anchor="start" x="482.8649" y="-488.3" font-family="Arial Bold" font-size="18.00" fill="#000000">public.entries</text>
<text text-anchor="start" x="588.8813" y="-488.3" font-family="Arial" font-size="14.00" fill="#000000"> </text>
<text text-anchor="start" x="592.7719" y="-488.3" font-family="Arial" font-size="14.00" fill="#666666">[BASE TABLE]</text>
<polygon fill="none" stroke="#000000" points="458,-445.5 458,-475.5 711,-475.5 711,-445.5 458,-445.5"/>
<text text-anchor="start" x="465" y="-456.9" font-family="Arial" font-size="14.00" fill="#000000">id </text>
<text text-anchor="start" x="479.7798" y="-456.9" font-family="Arial" font-size="14.00" fill="#666666">[bigint]</text>
<polygon fill="none" stroke="#000000" points="458,-415.5 458,-445.5 711,-445.5 711,-415.5 458,-415.5"/>
<text text-anchor="start" x="465" y="-426.9" font-family="Arial" font-size="14.00" fill="#000000">room_id </text>
<text text-anchor="start" x="519.4488" y="-426.9" font-family="Arial" font-size="14.00" fill="#666666">[bigint]</text>
<polygon fill="none" stroke="#000000" points="458,-385.5 458,-415.5 711,-415.5 711,-385.5 458,-385.5"/>
<text text-anchor="start" x="465" y="-396.9" font-family="Arial" font-size="14.00" fill="#000000">user_id </text>
<text text-anchor="start" x="514.7882" y="-396.9" font-family="Arial" font-size="14.00" fill="#666666">[bigint]</text>
<polygon fill="none" stroke="#000000" points="458,-355.5 458,-385.5 711,-385.5 711,-355.5 458,-355.5"/>
<text text-anchor="start" x="465" y="-366.9" font-family="Arial" font-size="14.00" fill="#000000">created_at </text>
<text text-anchor="start" x="535.028" y="-366.9" font-family="Arial" font-size="14.00" fill="#666666">[timestamp with time zone]</text>
<polygon fill="none" stroke="#000000" points="458,-325.5 458,-355.5 711,-355.5 711,-325.5 458,-325.5"/>
<text text-anchor="start" x="464.6915" y="-336.9" font-family="Arial" font-size="14.00" fill="#000000">updated_at </text>
<text text-anchor="start" x="538.6241" y="-336.9" font-family="Arial" font-size="14.00" fill="#666666">[timestamp with time zone]</text>
</g>
<!-- public.entries&#45;&gt;public.rooms -->
<g id="edge2" class="edge">
<title>public.entries:room_id&#45;&gt;public.rooms:id</title>
<path fill="none" stroke="#000000" d="M448.0381,-428.183C389.2888,-399.815 392.6094,-120.5 458,-120.5"/>
<polygon fill="#000000" stroke="#000000" points="448.26,-428.2345 456.9805,-434.883 453.13,-429.3672 458,-430.5 458,-430.5 458,-430.5 453.13,-429.3672 459.0195,-426.117 448.26,-428.2345 448.26,-428.2345"/>
<text text-anchor="start" x="199.2245" y="-414.5" font-family="Arial" font-size="10.00" fill="#000000">FOREIGN KEY (room_id) REFERENCES rooms(id) ON DELETE CASCADE</text>
</g>
<!-- public.room_read_managements -->
<g id="node4" class="node">
<title>public.room_read_managements</title>
<polygon fill="#efefef" stroke="transparent" points="815,-490.5 815,-525.5 1189,-525.5 1189,-490.5 815,-490.5"/>
<polygon fill="none" stroke="#000000" points="815,-490.5 815,-525.5 1189,-525.5 1189,-490.5 815,-490.5"/>
<text text-anchor="start" x="821.8435" y="-503.3" font-family="Arial Bold" font-size="18.00" fill="#000000">public.room_read_managements</text>
<text text-anchor="start" x="1084.9027" y="-503.3" font-family="Arial" font-size="14.00" fill="#000000"> </text>
<text text-anchor="start" x="1088.7933" y="-503.3" font-family="Arial" font-size="14.00" fill="#666666">[BASE TABLE]</text>
<polygon fill="none" stroke="#000000" points="815,-460.5 815,-490.5 1189,-490.5 1189,-460.5 815,-460.5"/>
<text text-anchor="start" x="822" y="-471.9" font-family="Arial" font-size="14.00" fill="#000000">id </text>
<text text-anchor="start" x="836.7798" y="-471.9" font-family="Arial" font-size="14.00" fill="#666666">[bigint]</text>
<polygon fill="none" stroke="#000000" points="815,-430.5 815,-460.5 1189,-460.5 1189,-430.5 815,-430.5"/>
<text text-anchor="start" x="822" y="-441.9" font-family="Arial" font-size="14.00" fill="#000000">last_read_at </text>
<text text-anchor="start" x="902.9172" y="-441.9" font-family="Arial" font-size="14.00" fill="#666666">[timestamp with time zone]</text>
<polygon fill="none" stroke="#000000" points="815,-400.5 815,-430.5 1189,-430.5 1189,-400.5 815,-400.5"/>
<text text-anchor="start" x="822" y="-411.9" font-family="Arial" font-size="14.00" fill="#000000">room_id </text>
<text text-anchor="start" x="876.4488" y="-411.9" font-family="Arial" font-size="14.00" fill="#666666">[bigint]</text>
<polygon fill="none" stroke="#000000" points="815,-370.5 815,-400.5 1189,-400.5 1189,-370.5 815,-370.5"/>
<text text-anchor="start" x="822" y="-381.9" font-family="Arial" font-size="14.00" fill="#000000">user_id </text>
<text text-anchor="start" x="871.7882" y="-381.9" font-family="Arial" font-size="14.00" fill="#666666">[bigint]</text>
<polygon fill="none" stroke="#000000" points="815,-340.5 815,-370.5 1189,-370.5 1189,-340.5 815,-340.5"/>
<text text-anchor="start" x="822" y="-351.9" font-family="Arial" font-size="14.00" fill="#000000">created_at </text>
<text text-anchor="start" x="892.028" y="-351.9" font-family="Arial" font-size="14.00" fill="#666666">[timestamp with time zone]</text>
<polygon fill="none" stroke="#000000" points="815,-310.5 815,-340.5 1189,-340.5 1189,-310.5 815,-310.5"/>
<text text-anchor="start" x="822" y="-321.9" font-family="Arial" font-size="14.00" fill="#000000">updated_at </text>
<text text-anchor="start" x="895.9326" y="-321.9" font-family="Arial" font-size="14.00" fill="#666666">[timestamp with time zone]</text>
</g>
<!-- public.room_read_managements&#45;&gt;public.rooms -->
<g id="edge3" class="edge">
<title>public.room_read_managements:room_id&#45;&gt;public.rooms:id</title>
<path fill="none" stroke="#000000" d="M804.7635,-414.8616C743.8016,-406.6544 787.1788,-320.9539 763,-253 741.7932,-193.3989 774.2616,-120.5 711,-120.5"/>
<polygon fill="#000000" stroke="#000000" points="805.0194,-414.8775 814.7199,-419.9913 810.0097,-415.1887 815,-415.5 815,-415.5 815,-415.5 810.0097,-415.1887 815.2801,-411.0087 805.0194,-414.8775 805.0194,-414.8775"/>
<text text-anchor="start" x="821.7245" y="-425.5" font-family="Arial" font-size="10.00" fill="#000000">FOREIGN KEY (room_id) REFERENCES rooms(id) ON DELETE CASCADE</text>
</g>
</g>
</svg>
