<?xml version="1.0" encoding="UTF-8" standalone="no"?>
<!DOCTYPE svg PUBLIC "-//W3C//DTD SVG 1.1//EN"
 "http://www.w3.org/Graphics/SVG/1.1/DTD/svg11.dtd">
<!-- Generated by graphviz version 2.40.1 (20161225.0304)
 -->
<!-- Title: public.messages Pages: 1 -->
<svg width="1211pt" height="1012pt"
 viewBox="0.00 0.00 1211.00 1012.00" xmlns="http://www.w3.org/2000/svg" xmlns:xlink="http://www.w3.org/1999/xlink">
<g id="graph0" class="graph" transform="scale(1 1) rotate(0) translate(4 1008)">
<title>public.messages</title>
<polygon fill="#ffffff" stroke="transparent" points="-4,4 -4,-1008 1207,-1008 1207,4 -4,4"/>
<!-- public.messages -->
<g id="node1" class="node">
<title>public.messages</title>
<polygon fill="#efefef" stroke="transparent" points="474.5,-922.5 474.5,-957.5 727.5,-957.5 727.5,-922.5 474.5,-922.5"/>
<polygon fill="none" stroke="#000000" points="474.5,-922.5 474.5,-957.5 727.5,-957.5 727.5,-922.5 474.5,-922.5"/>
<text text-anchor="start" x="485.36" y="-935.3" font-family="Arial Bold" font-size="18.00" fill="#000000">public.messages</text>
<text text-anchor="start" x="619.3862" y="-935.3" font-family="Arial" font-size="14.00" fill="#000000"> </text>
<text text-anchor="start" x="623.2768" y="-935.3" font-family="Arial" font-size="14.00" fill="#666666">[BASE TABLE]</text>
<polygon fill="none" stroke="#000000" points="474.5,-892.5 474.5,-922.5 727.5,-922.5 727.5,-892.5 474.5,-892.5"/>
<text text-anchor="start" x="481.5" y="-903.9" font-family="Arial" font-size="14.00" fill="#000000">id </text>
<text text-anchor="start" x="496.2798" y="-903.9" font-family="Arial" font-size="14.00" fill="#666666">[bigint]</text>
<polygon fill="none" stroke="#000000" points="474.5,-862.5 474.5,-892.5 727.5,-892.5 727.5,-862.5 474.5,-862.5"/>
<text text-anchor="start" x="481.5" y="-873.9" font-family="Arial" font-size="14.00" fill="#000000">content </text>
<text text-anchor="start" x="531.3022" y="-873.9" font-family="Arial" font-size="14.00" fill="#666666">[varchar(1000)]</text>
<polygon fill="none" stroke="#000000" points="474.5,-832.5 474.5,-862.5 727.5,-862.5 727.5,-832.5 474.5,-832.5"/>
<text text-anchor="start" x="481.5" y="-843.9" font-family="Arial" font-size="14.00" fill="#000000">room_id </text>
<text text-anchor="start" x="535.9488" y="-843.9" font-family="Arial" font-size="14.00" fill="#666666">[bigint]</text>
<polygon fill="none" stroke="#000000" points="474.5,-802.5 474.5,-832.5 727.5,-832.5 727.5,-802.5 474.5,-802.5"/>
<text text-anchor="start" x="481.5" y="-813.9" font-family="Arial" font-size="14.00" fill="#000000">user_id </text>
<text text-anchor="start" x="531.2882" y="-813.9" font-family="Arial" font-size="14.00" fill="#666666">[bigint]</text>
<polygon fill="none" stroke="#000000" points="474.5,-772.5 474.5,-802.5 727.5,-802.5 727.5,-772.5 474.5,-772.5"/>
<text text-anchor="start" x="481.5" y="-783.9" font-family="Arial" font-size="14.00" fill="#000000">applicant_id </text>
<text text-anchor="start" x="560.0792" y="-783.9" font-family="Arial" font-size="14.00" fill="#666666">[bigint]</text>
<polygon fill="none" stroke="#000000" points="474.5,-742.5 474.5,-772.5 727.5,-772.5 727.5,-742.5 474.5,-742.5"/>
<text text-anchor="start" x="481.5" y="-753.9" font-family="Arial" font-size="14.00" fill="#000000">created_at </text>
<text text-anchor="start" x="551.528" y="-753.9" font-family="Arial" font-size="14.00" fill="#666666">[timestamp with time zone]</text>
<polygon fill="none" stroke="#000000" points="474.5,-712.5 474.5,-742.5 727.5,-742.5 727.5,-712.5 474.5,-712.5"/>
<text text-anchor="start" x="481.1915" y="-723.9" font-family="Arial" font-size="14.00" fill="#000000">updated_at </text>
<text text-anchor="start" x="555.1241" y="-723.9" font-family="Arial" font-size="14.00" fill="#666666">[timestamp with time zone]</text>
<polygon fill="none" stroke="#000000" stroke-width="3" points="472.5,-711.5 472.5,-959.5 728.5,-959.5 728.5,-711.5 472.5,-711.5"/>
</g>
<!-- public.rooms -->
<g id="node2" class="node">
<title>public.rooms</title>
<polygon fill="#efefef" stroke="transparent" points="43.5,-342.5 43.5,-377.5 296.5,-377.5 296.5,-342.5 43.5,-342.5"/>
<polygon fill="none" stroke="#000000" points="43.5,-342.5 43.5,-377.5 296.5,-377.5 296.5,-342.5 43.5,-342.5"/>
<text text-anchor="start" x="70.3701" y="-355.3" font-family="Arial Bold" font-size="18.00" fill="#000000">public.rooms</text>
<text text-anchor="start" x="172.3761" y="-355.3" font-family="Arial" font-size="14.00" fill="#000000"> </text>
<text text-anchor="start" x="176.2667" y="-355.3" font-family="Arial" font-size="14.00" fill="#666666">[BASE TABLE]</text>
<polygon fill="none" stroke="#000000" points="43.5,-312.5 43.5,-342.5 296.5,-342.5 296.5,-312.5 43.5,-312.5"/>
<text text-anchor="start" x="50.5" y="-323.9" font-family="Arial" font-size="14.00" fill="#000000">id </text>
<text text-anchor="start" x="65.2798" y="-323.9" font-family="Arial" font-size="14.00" fill="#666666">[bigint]</text>
<polygon fill="none" stroke="#000000" points="43.5,-282.5 43.5,-312.5 296.5,-312.5 296.5,-282.5 43.5,-282.5"/>
<text text-anchor="start" x="50.5" y="-293.9" font-family="Arial" font-size="14.00" fill="#000000">created_at </text>
<text text-anchor="start" x="120.528" y="-293.9" font-family="Arial" font-size="14.00" fill="#666666">[timestamp with time zone]</text>
<polygon fill="none" stroke="#000000" points="43.5,-252.5 43.5,-282.5 296.5,-282.5 296.5,-252.5 43.5,-252.5"/>
<text text-anchor="start" x="50.1915" y="-263.9" font-family="Arial" font-size="14.00" fill="#000000">updated_at </text>
<text text-anchor="start" x="124.1241" y="-263.9" font-family="Arial" font-size="14.00" fill="#666666">[timestamp with time zone]</text>
</g>
<!-- public.messages&#45;&gt;public.rooms -->
<g id="edge1" class="edge">
<title>public.messages:room_id&#45;&gt;public.rooms:id</title>
<path fill="none" stroke="#000000" d="M464.4512,-847.1759C364.5671,-840.516 385.318,-732.3735 348.5,-631 325.1408,-566.6834 364.9272,-327.5 296.5,-327.5"/>
<polygon fill="#000000" stroke="#000000" points="464.5052,-847.1776 474.3549,-851.9977 469.5026,-847.3388 474.5,-847.5 474.5,-847.5 474.5,-847.5 469.5026,-847.3388 474.6451,-843.0023 464.5052,-847.1776 464.5052,-847.1776"/>
<text text-anchor="start" x="127.2245" y="-857.5" font-family="Arial" font-size="10.00" fill="#000000">FOREIGN KEY (room_id) REFERENCES rooms(id) ON DELETE CASCADE</text>
</g>
<!-- public.users -->
<g id="node3" class="node">
<title>public.users</title>
<polygon fill="#efefef" stroke="transparent" points="400.5,-552.5 400.5,-587.5 802.5,-587.5 802.5,-552.5 400.5,-552.5"/>
<polygon fill="none" stroke="#000000" points="400.5,-552.5 400.5,-587.5 802.5,-587.5 802.5,-552.5 400.5,-552.5"/>
<text text-anchor="start" x="504.8662" y="-565.3" font-family="Arial Bold" font-size="18.00" fill="#000000">public.users</text>
<text text-anchor="start" x="600.88" y="-565.3" font-family="Arial" font-size="14.00" fill="#000000"> </text>
<text text-anchor="start" x="604.7706" y="-565.3" font-family="Arial" font-size="14.00" fill="#666666">[BASE TABLE]</text>
<polygon fill="none" stroke="#000000" points="400.5,-522.5 400.5,-552.5 802.5,-552.5 802.5,-522.5 400.5,-522.5"/>
<text text-anchor="start" x="407.5" y="-533.9" font-family="Arial" font-size="14.00" fill="#000000">id </text>
<text text-anchor="start" x="422.2798" y="-533.9" font-family="Arial" font-size="14.00" fill="#666666">[bigint]</text>
<polygon fill="none" stroke="#000000" points="400.5,-492.5 400.5,-522.5 802.5,-522.5 802.5,-492.5 400.5,-492.5"/>
<text text-anchor="start" x="407.5" y="-503.9" font-family="Arial" font-size="14.00" fill="#000000">name </text>
<text text-anchor="start" x="446.399" y="-503.9" font-family="Arial" font-size="14.00" fill="#666666">[varchar(50)]</text>
<polygon fill="none" stroke="#000000" points="400.5,-462.5 400.5,-492.5 802.5,-492.5 802.5,-462.5 400.5,-462.5"/>
<text text-anchor="start" x="407.5" y="-473.9" font-family="Arial" font-size="14.00" fill="#000000">email </text>
<text text-anchor="start" x="444.8296" y="-473.9" font-family="Arial" font-size="14.00" fill="#666666">[varchar(100)]</text>
<polygon fill="none" stroke="#000000" points="400.5,-432.5 400.5,-462.5 802.5,-462.5 802.5,-432.5 400.5,-432.5"/>
<text text-anchor="start" x="407.5" y="-443.9" font-family="Arial" font-size="14.00" fill="#000000">role </text>
<text text-anchor="start" x="434.723" y="-443.9" font-family="Arial" font-size="14.00" fill="#666666">[user_role]</text>
<polygon fill="none" stroke="#000000" points="400.5,-402.5 400.5,-432.5 802.5,-432.5 802.5,-402.5 400.5,-402.5"/>
<text text-anchor="start" x="407.5" y="-413.9" font-family="Arial" font-size="14.00" fill="#000000">avatar </text>
<text text-anchor="start" x="450.2896" y="-413.9" font-family="Arial" font-size="14.00" fill="#666666">[varchar]</text>
<polygon fill="none" stroke="#000000" points="400.5,-372.5 400.5,-402.5 802.5,-402.5 802.5,-372.5 400.5,-372.5"/>
<text text-anchor="start" x="407.5" y="-383.9" font-family="Arial" font-size="14.00" fill="#000000">introduction </text>
<text text-anchor="start" x="483.7412" y="-383.9" font-family="Arial" font-size="14.00" fill="#666666">[varchar(160)]</text>
<polygon fill="none" stroke="#000000" points="400.5,-342.5 400.5,-372.5 802.5,-372.5 802.5,-342.5 400.5,-342.5"/>
<text text-anchor="start" x="407.5" y="-353.9" font-family="Arial" font-size="14.00" fill="#000000">email_verification_status </text>
<text text-anchor="start" x="564.6332" y="-353.9" font-family="Arial" font-size="14.00" fill="#666666">[email_verification_status]</text>
<polygon fill="none" stroke="#000000" points="400.5,-312.5 400.5,-342.5 802.5,-342.5 802.5,-312.5 400.5,-312.5"/>
<text text-anchor="start" x="407.5" y="-323.9" font-family="Arial" font-size="14.00" fill="#000000">email_verification_code </text>
<text text-anchor="start" x="557.6346" y="-323.9" font-family="Arial" font-size="14.00" fill="#666666">[varchar]</text>
<polygon fill="none" stroke="#000000" points="400.5,-282.5 400.5,-312.5 802.5,-312.5 802.5,-282.5 400.5,-282.5"/>
<text text-anchor="start" x="407.4138" y="-293.9" font-family="Arial" font-size="14.00" fill="#000000">email_verification_code_expires_at </text>
<text text-anchor="start" x="629.9018" y="-293.9" font-family="Arial" font-size="14.00" fill="#666666">[timestamp with time zone]</text>
<polygon fill="none" stroke="#000000" points="400.5,-252.5 400.5,-282.5 802.5,-282.5 802.5,-252.5 400.5,-252.5"/>
<text text-anchor="start" x="407.5" y="-263.9" font-family="Arial" font-size="14.00" fill="#000000">password_digest </text>
<text text-anchor="start" x="516.4158" y="-263.9" font-family="Arial" font-size="14.00" fill="#666666">[varchar]</text>
<polygon fill="none" stroke="#000000" points="400.5,-222.5 400.5,-252.5 802.5,-252.5 802.5,-222.5 400.5,-222.5"/>
<text text-anchor="start" x="407.5" y="-233.9" font-family="Arial" font-size="14.00" fill="#000000">created_at </text>
<text text-anchor="start" x="477.528" y="-233.9" font-family="Arial" font-size="14.00" fill="#666666">[timestamp with time zone]</text>
<polygon fill="none" stroke="#000000" points="400.5,-192.5 400.5,-222.5 802.5,-222.5 802.5,-192.5 400.5,-192.5"/>
<text text-anchor="start" x="407.5" y="-203.9" font-family="Arial" font-size="14.00" fill="#000000">updated_at </text>
<text text-anchor="start" x="481.4326" y="-203.9" font-family="Arial" font-size="14.00" fill="#666666">[timestamp with time zone]</text>
<polygon fill="none" stroke="#000000" points="400.5,-162.5 400.5,-192.5 802.5,-192.5 802.5,-162.5 400.5,-162.5"/>
<text text-anchor="start" x="407.5" y="-173.9" font-family="Arial" font-size="14.00" fill="#000000">last_sign_in_at </text>
<text text-anchor="start" x="504.7524" y="-173.9" font-family="Arial" font-size="14.00" fill="#666666">[timestamp with time zone]</text>
<polygon fill="none" stroke="#000000" points="400.5,-132.5 400.5,-162.5 802.5,-162.5 802.5,-132.5 400.5,-132.5"/>
<text text-anchor="start" x="407.5" y="-143.9" font-family="Arial" font-size="14.00" fill="#000000">unverified_email </text>
<text text-anchor="start" x="513.2896" y="-143.9" font-family="Arial" font-size="14.00" fill="#666666">[varchar(100)]</text>
<polygon fill="none" stroke="#000000" points="400.5,-102.5 400.5,-132.5 802.5,-132.5 802.5,-102.5 400.5,-102.5"/>
<text text-anchor="start" x="407.5" y="-113.9" font-family="Arial" font-size="14.00" fill="#000000">password_reset_token </text>
<text text-anchor="start" x="552.2082" y="-113.9" font-family="Arial" font-size="14.00" fill="#666666">[varchar]</text>
<polygon fill="none" stroke="#000000" points="400.5,-72.5 400.5,-102.5 802.5,-102.5 802.5,-72.5 400.5,-72.5"/>
<text text-anchor="start" x="407.5" y="-83.9" font-family="Arial" font-size="14.00" fill="#000000">password_reset_token_expires_at </text>
<text text-anchor="start" x="624.5616" y="-83.9" font-family="Arial" font-size="14.00" fill="#666666">[timestamp with time zone]</text>
<polygon fill="none" stroke="#000000" points="400.5,-42.5 400.5,-72.5 802.5,-72.5 802.5,-42.5 400.5,-42.5"/>
<text text-anchor="start" x="407.5" y="-53.9" font-family="Arial" font-size="14.00" fill="#000000">website_url </text>
<text text-anchor="start" x="482.1746" y="-53.9" font-family="Arial" font-size="14.00" fill="#666666">[varchar]</text>
</g>
<!-- public.messages&#45;&gt;public.users -->
<g id="edge2" class="edge">
<title>public.messages:user_id&#45;&gt;public.users:id</title>
<path fill="none" stroke="#000000" d="M737.6851,-816.6215C791.8879,-806.6401 769.6938,-714.0939 727.5,-667 678.7168,-612.5514 449.2832,-685.4486 400.5,-631 372.7701,-600.0498 358.9444,-537.5 400.5,-537.5"/>
<polygon fill="#000000" stroke="#000000" points="737.463,-816.6405 727.1132,-813.0166 732.4815,-817.0703 727.5,-817.5 727.5,-817.5 727.5,-817.5 732.4815,-817.0703 727.8868,-821.9834 737.463,-816.6405 737.463,-816.6405"/>
<text text-anchor="start" x="734.829" y="-827.5" font-family="Arial" font-size="10.00" fill="#000000">FOREIGN KEY (user_id) REFERENCES users(id) ON DELETE SET NULL</text>
</g>
<!-- public.applicants -->
<g id="node4" class="node">
<title>public.applicants</title>
<polygon fill="#efefef" stroke="transparent" points="907.5,-387.5 907.5,-422.5 1160.5,-422.5 1160.5,-387.5 907.5,-387.5"/>
<polygon fill="none" stroke="#000000" points="907.5,-387.5 907.5,-422.5 1160.5,-422.5 1160.5,-387.5 907.5,-387.5"/>
<text text-anchor="start" x="918.8577" y="-400.3" font-family="Arial Bold" font-size="18.00" fill="#000000">public.applicants</text>
<text text-anchor="start" x="1051.8885" y="-400.3" font-family="Arial" font-size="14.00" fill="#000000"> </text>
<text text-anchor="start" x="1055.7791" y="-400.3" font-family="Arial" font-size="14.00" fill="#666666">[BASE TABLE]</text>
<polygon fill="none" stroke="#000000" points="907.5,-357.5 907.5,-387.5 1160.5,-387.5 1160.5,-357.5 907.5,-357.5"/>
<text text-anchor="start" x="914.5" y="-368.9" font-family="Arial" font-size="14.00" fill="#000000">id </text>
<text text-anchor="start" x="929.2798" y="-368.9" font-family="Arial" font-size="14.00" fill="#666666">[bigint]</text>
<polygon fill="none" stroke="#000000" points="907.5,-327.5 907.5,-357.5 1160.5,-357.5 1160.5,-327.5 907.5,-327.5"/>
<text text-anchor="start" x="914.5" y="-338.9" font-family="Arial" font-size="14.00" fill="#000000">recruitment_id </text>
<text text-anchor="start" x="1007.0624" y="-338.9" font-family="Arial" font-size="14.00" fill="#666666">[bigint]</text>
<polygon fill="none" stroke="#000000" points="907.5,-297.5 907.5,-327.5 1160.5,-327.5 1160.5,-297.5 907.5,-297.5"/>
<text text-anchor="start" x="914.5" y="-308.9" font-family="Arial" font-size="14.00" fill="#000000">user_id </text>
<text text-anchor="start" x="964.2882" y="-308.9" font-family="Arial" font-size="14.00" fill="#666666">[bigint]</text>
<polygon fill="none" stroke="#000000" points="907.5,-267.5 907.5,-297.5 1160.5,-297.5 1160.5,-267.5 907.5,-267.5"/>
<text text-anchor="start" x="914.5" y="-278.9" font-family="Arial" font-size="14.00" fill="#000000">created_at </text>
<text text-anchor="start" x="984.528" y="-278.9" font-family="Arial" font-size="14.00" fill="#666666">[timestamp with time zone]</text>
<polygon fill="none" stroke="#000000" points="907.5,-237.5 907.5,-267.5 1160.5,-267.5 1160.5,-237.5 907.5,-237.5"/>
<text text-anchor="start" x="914.1915" y="-248.9" font-family="Arial" font-size="14.00" fill="#000000">updated_at </text>
<text text-anchor="start" x="988.1241" y="-248.9" font-family="Arial" font-size="14.00" fill="#666666">[timestamp with time zone]</text>
<polygon fill="none" stroke="#000000" points="907.5,-207.5 907.5,-237.5 1160.5,-237.5 1160.5,-207.5 907.5,-207.5"/>
<text text-anchor="start" x="914.5" y="-218.9" font-family="Arial" font-size="14.00" fill="#000000">message </text>
<text text-anchor="start" x="975.1816" y="-218.9" font-family="Arial" font-size="14.00" fill="#666666">[varchar(1000)]</text>
</g>
<!-- public.messages&#45;&gt;public.applicants -->
<g id="edge3" class="edge">
<title>public.messages:applicant_id&#45;&gt;public.applicants:id</title>
<path fill="none" stroke="#000000" d="M737.5909,-787.1584C817.0668,-781.5909 817.6828,-708.8063 854.5,-631 879.5813,-577.9952 848.8606,-372.5 907.5,-372.5"/>
<polygon fill="#000000" stroke="#000000" points="737.4943,-787.1616 727.3477,-783.0026 732.4971,-787.3308 727.5,-787.5 727.5,-787.5 727.5,-787.5 732.4971,-787.3308 727.6523,-791.9974 737.4943,-787.1616 737.4943,-787.1616"/>
<text text-anchor="start" x="734.9885" y="-797.5" font-family="Arial" font-size="10.00" fill="#000000">FOREIGN KEY (applicant_id) REFERENCES applicants(id) ON DELETE CASCADE</text>
</g>
</g>
</svg>
