<?xml version="1.0" encoding="UTF-8" standalone="no"?>
<!DOCTYPE svg PUBLIC "-//W3C//DTD SVG 1.1//EN"
 "http://www.w3.org/Graphics/SVG/1.1/DTD/svg11.dtd">
<!-- Generated by graphviz version 2.40.1 (20161225.0304)
 -->
<!-- Title: public.recruitments Pages: 1 -->
<svg width="1214pt" height="1559pt"
 viewBox="0.00 0.00 1214.00 1559.00" xmlns="http://www.w3.org/2000/svg" xmlns:xlink="http://www.w3.org/1999/xlink">
<g id="graph0" class="graph" transform="scale(1 1) rotate(0) translate(4 1555)">
<title>public.recruitments</title>
<polygon fill="#ffffff" stroke="transparent" points="-4,4 -4,-1555 1210,-1555 1210,4 -4,4"/>
<!-- public.recruitments -->
<g id="node1" class="node">
<title>public.recruitments</title>
<polygon fill="#efefef" stroke="transparent" points="400,-1162.5 400,-1197.5 662,-1197.5 662,-1162.5 400,-1162.5"/>
<polygon fill="none" stroke="#000000" points="400,-1162.5 400,-1197.5 662,-1197.5 662,-1162.5 400,-1162.5"/>
<text text-anchor="start" x="406.8685" y="-1175.3" font-family="Arial Bold" font-size="18.00" fill="#000000">public.recruitments</text>
<text text-anchor="start" x="557.8777" y="-1175.3" font-family="Arial" font-size="14.00" fill="#000000"> </text>
<text text-anchor="start" x="561.7683" y="-1175.3" font-family="Arial" font-size="14.00" fill="#666666">[BASE TABLE]</text>
<polygon fill="none" stroke="#000000" points="400,-1132.5 400,-1162.5 662,-1162.5 662,-1132.5 400,-1132.5"/>
<text text-anchor="start" x="407" y="-1143.9" font-family="Arial" font-size="14.00" fill="#000000">id </text>
<text text-anchor="start" x="421.7798" y="-1143.9" font-family="Arial" font-size="14.00" fill="#666666">[bigint]</text>
<polygon fill="none" stroke="#000000" points="400,-1102.5 400,-1132.5 662,-1132.5 662,-1102.5 400,-1102.5"/>
<text text-anchor="start" x="407" y="-1113.9" font-family="Arial" font-size="14.00" fill="#000000">title </text>
<text text-anchor="start" x="432.6676" y="-1113.9" font-family="Arial" font-size="14.00" fill="#666666">[varchar(60)]</text>
<polygon fill="none" stroke="#000000" points="400,-1072.5 400,-1102.5 662,-1102.5 662,-1072.5 400,-1072.5"/>
<text text-anchor="start" x="407" y="-1083.9" font-family="Arial" font-size="14.00" fill="#000000">category </text>
<text text-anchor="start" x="464.5722" y="-1083.9" font-family="Arial" font-size="14.00" fill="#666666">[recruitment_category]</text>
<polygon fill="none" stroke="#000000" points="400,-1042.5 400,-1072.5 662,-1072.5 662,-1042.5 400,-1042.5"/>
<text text-anchor="start" x="407" y="-1053.9" font-family="Arial" font-size="14.00" fill="#000000">venue </text>
<text text-anchor="start" x="449.021" y="-1053.9" font-family="Arial" font-size="14.00" fill="#666666">[varchar]</text>
<polygon fill="none" stroke="#000000" points="400,-1012.5 400,-1042.5 662,-1042.5 662,-1012.5 400,-1012.5"/>
<text text-anchor="start" x="407" y="-1023.9" font-family="Arial" font-size="14.00" fill="#000000">venue_lat </text>
<text text-anchor="start" x="471.5834" y="-1023.9" font-family="Arial" font-size="14.00" fill="#666666">[double precision]</text>
<polygon fill="none" stroke="#000000" points="400,-982.5 400,-1012.5 662,-1012.5 662,-982.5 400,-982.5"/>
<text text-anchor="start" x="407" y="-993.9" font-family="Arial" font-size="14.00" fill="#000000">venue_lng </text>
<text text-anchor="start" x="475.4754" y="-993.9" font-family="Arial" font-size="14.00" fill="#666666">[double precision]</text>
<polygon fill="none" stroke="#000000" points="400,-952.5 400,-982.5 662,-982.5 662,-952.5 400,-952.5"/>
<text text-anchor="start" x="407" y="-963.9" font-family="Arial" font-size="14.00" fill="#000000">start_at </text>
<text text-anchor="start" x="457.5708" y="-963.9" font-family="Arial" font-size="14.00" fill="#666666">[timestamp with time zone]</text>
<polygon fill="none" stroke="#000000" points="400,-922.5 400,-952.5 662,-952.5 662,-922.5 400,-922.5"/>
<text text-anchor="start" x="407" y="-933.9" font-family="Arial" font-size="14.00" fill="#000000">closing_at </text>
<text text-anchor="start" x="473.9074" y="-933.9" font-family="Arial" font-size="14.00" fill="#666666">[timestamp with time zone]</text>
<polygon fill="none" stroke="#000000" points="400,-892.5 400,-922.5 662,-922.5 662,-892.5 400,-892.5"/>
<text text-anchor="start" x="407" y="-903.9" font-family="Arial" font-size="14.00" fill="#000000">detail </text>
<text text-anchor="start" x="444.3422" y="-903.9" font-family="Arial" font-size="14.00" fill="#666666">[varchar(10000)]</text>
<polygon fill="none" stroke="#000000" points="400,-862.5 400,-892.5 662,-892.5 662,-862.5 400,-862.5"/>
<text text-anchor="start" x="407" y="-873.9" font-family="Arial" font-size="14.00" fill="#000000">sport_id </text>
<text text-anchor="start" x="460.6788" y="-873.9" font-family="Arial" font-size="14.00" fill="#666666">[bigint]</text>
<polygon fill="none" stroke="#000000" points="400,-832.5 400,-862.5 662,-862.5 662,-832.5 400,-832.5"/>
<text text-anchor="start" x="407" y="-843.9" font-family="Arial" font-size="14.00" fill="#000000">prefecture_id </text>
<text text-anchor="start" x="492.5778" y="-843.9" font-family="Arial" font-size="14.00" fill="#666666">[bigint]</text>
<polygon fill="none" stroke="#000000" points="400,-802.5 400,-832.5 662,-832.5 662,-802.5 400,-802.5"/>
<text text-anchor="start" x="407" y="-813.9" font-family="Arial" font-size="14.00" fill="#000000">status </text>
<text text-anchor="start" x="448.237" y="-813.9" font-family="Arial" font-size="14.00" fill="#666666">[recruitment_status]</text>
<polygon fill="none" stroke="#000000" points="400,-772.5 400,-802.5 662,-802.5 662,-772.5 400,-772.5"/>
<text text-anchor="start" x="407" y="-783.9" font-family="Arial" font-size="14.00" fill="#000000">user_id </text>
<text text-anchor="start" x="456.7882" y="-783.9" font-family="Arial" font-size="14.00" fill="#666666">[bigint]</text>
<polygon fill="none" stroke="#000000" points="400,-742.5 400,-772.5 662,-772.5 662,-742.5 400,-742.5"/>
<text text-anchor="start" x="406.5302" y="-753.9" font-family="Arial" font-size="14.00" fill="#000000">published_at </text>
<text text-anchor="start" x="489.7854" y="-753.9" font-family="Arial" font-size="14.00" fill="#666666">[timestamp with time zone]</text>
<polygon fill="none" stroke="#000000" points="400,-712.5 400,-742.5 662,-742.5 662,-712.5 400,-712.5"/>
<text text-anchor="start" x="407" y="-723.9" font-family="Arial" font-size="14.00" fill="#000000">created_at </text>
<text text-anchor="start" x="477.028" y="-723.9" font-family="Arial" font-size="14.00" fill="#666666">[timestamp with time zone]</text>
<polygon fill="none" stroke="#000000" points="400,-682.5 400,-712.5 662,-712.5 662,-682.5 400,-682.5"/>
<text text-anchor="start" x="407" y="-693.9" font-family="Arial" font-size="14.00" fill="#000000">updated_at </text>
<text text-anchor="start" x="480.9326" y="-693.9" font-family="Arial" font-size="14.00" fill="#666666">[timestamp with time zone]</text>
<polygon fill="none" stroke="#000000" stroke-width="3" points="398.5,-681.5 398.5,-1199.5 663.5,-1199.5 663.5,-681.5 398.5,-681.5"/>
</g>
<!-- public.sports -->
<g id="node3" class="node">
<title>public.sports</title>
<polygon fill="#efefef" stroke="transparent" points="47,-342.5 47,-377.5 300,-377.5 300,-342.5 47,-342.5"/>
<polygon fill="none" stroke="#000000" points="47,-342.5 47,-377.5 300,-377.5 300,-342.5 47,-342.5"/>
<text text-anchor="start" x="74.3651" y="-355.3" font-family="Arial Bold" font-size="18.00" fill="#000000">public.sports</text>
<text text-anchor="start" x="175.3811" y="-355.3" font-family="Arial" font-size="14.00" fill="#000000"> </text>
<text text-anchor="start" x="179.2717" y="-355.3" font-family="Arial" font-size="14.00" fill="#666666">[BASE TABLE]</text>
<polygon fill="none" stroke="#000000" points="47,-312.5 47,-342.5 300,-342.5 300,-312.5 47,-312.5"/>
<text text-anchor="start" x="54" y="-323.9" font-family="Arial" font-size="14.00" fill="#000000">id </text>
<text text-anchor="start" x="68.7798" y="-323.9" font-family="Arial" font-size="14.00" fill="#666666">[bigint]</text>
<polygon fill="none" stroke="#000000" points="47,-282.5 47,-312.5 300,-312.5 300,-282.5 47,-282.5"/>
<text text-anchor="start" x="54" y="-293.9" font-family="Arial" font-size="14.00" fill="#000000">name </text>
<text text-anchor="start" x="92.899" y="-293.9" font-family="Arial" font-size="14.00" fill="#666666">[varchar]</text>
<polygon fill="none" stroke="#000000" points="47,-252.5 47,-282.5 300,-282.5 300,-252.5 47,-252.5"/>
<text text-anchor="start" x="54" y="-263.9" font-family="Arial" font-size="14.00" fill="#000000">created_at </text>
<text text-anchor="start" x="124.028" y="-263.9" font-family="Arial" font-size="14.00" fill="#666666">[timestamp with time zone]</text>
<polygon fill="none" stroke="#000000" points="47,-222.5 47,-252.5 300,-252.5 300,-222.5 47,-222.5"/>
<text text-anchor="start" x="53.6915" y="-233.9" font-family="Arial" font-size="14.00" fill="#000000">updated_at </text>
<text text-anchor="start" x="127.6241" y="-233.9" font-family="Arial" font-size="14.00" fill="#666666">[timestamp with time zone]</text>
</g>
<!-- public.recruitments&#45;&gt;public.sports -->
<g id="edge2" class="edge">
<title>public.recruitments:sport_id&#45;&gt;public.sports:id</title>
<path fill="none" stroke="#000000" d="M390.8685,-873.0728C340.202,-821.0217 358.8375,-327.5 300,-327.5"/>
<polygon fill="#000000" stroke="#000000" points="391.0018,-873.1374 398.0368,-881.5492 395.5009,-875.3187 400,-877.5 400,-877.5 400,-877.5 395.5009,-875.3187 401.9632,-873.4508 391.0018,-873.1374 391.0018,-873.1374"/>
<text text-anchor="start" x="52.445" y="-887.5" font-family="Arial" font-size="10.00" fill="#000000">FOREIGN KEY (sport_id) REFERENCES sports(id) ON DELETE RESTRICT</text>
</g>
<!-- public.prefectures -->
<g id="node4" class="node">
<title>public.prefectures</title>
<polygon fill="#efefef" stroke="transparent" points="404,-342.5 404,-377.5 657,-377.5 657,-342.5 404,-342.5"/>
<polygon fill="none" stroke="#000000" points="404,-342.5 404,-377.5 657,-377.5 657,-342.5 404,-342.5"/>
<text text-anchor="start" x="410.8586" y="-355.3" font-family="Arial Bold" font-size="18.00" fill="#000000">public.prefectures</text>
<text text-anchor="start" x="552.8876" y="-355.3" font-family="Arial" font-size="14.00" fill="#000000"> </text>
<text text-anchor="start" x="556.7782" y="-355.3" font-family="Arial" font-size="14.00" fill="#666666">[BASE TABLE]</text>
<polygon fill="none" stroke="#000000" points="404,-312.5 404,-342.5 657,-342.5 657,-312.5 404,-312.5"/>
<text text-anchor="start" x="411" y="-323.9" font-family="Arial" font-size="14.00" fill="#000000">id </text>
<text text-anchor="start" x="425.7798" y="-323.9" font-family="Arial" font-size="14.00" fill="#666666">[bigint]</text>
<polygon fill="none" stroke="#000000" points="404,-282.5 404,-312.5 657,-312.5 657,-282.5 404,-282.5"/>
<text text-anchor="start" x="411" y="-293.9" font-family="Arial" font-size="14.00" fill="#000000">name </text>
<text text-anchor="start" x="449.899" y="-293.9" font-family="Arial" font-size="14.00" fill="#666666">[varchar]</text>
<polygon fill="none" stroke="#000000" points="404,-252.5 404,-282.5 657,-282.5 657,-252.5 404,-252.5"/>
<text text-anchor="start" x="411" y="-263.9" font-family="Arial" font-size="14.00" fill="#000000">created_at </text>
<text text-anchor="start" x="481.028" y="-263.9" font-family="Arial" font-size="14.00" fill="#666666">[timestamp with time zone]</text>
<polygon fill="none" stroke="#000000" points="404,-222.5 404,-252.5 657,-252.5 657,-222.5 404,-222.5"/>
<text text-anchor="start" x="410.6915" y="-233.9" font-family="Arial" font-size="14.00" fill="#000000">updated_at </text>
<text text-anchor="start" x="484.6241" y="-233.9" font-family="Arial" font-size="14.00" fill="#666666">[timestamp with time zone]</text>
</g>
<!-- public.recruitments&#45;&gt;public.prefectures -->
<g id="edge3" class="edge">
<title>public.recruitments:prefecture_id&#45;&gt;public.prefectures:id</title>
<path fill="none" stroke="#000000" d="M389.7025,-846.9345C310.645,-837.7425 362.0388,-718.4932 400,-637 463.0034,-501.7473 593.9966,-556.2527 657,-421 674.547,-383.3308 698.5556,-327.5 657,-327.5"/>
<polygon fill="#000000" stroke="#000000" points="390.015,-846.9516 399.7532,-851.9932 395.0075,-847.2258 400,-847.5 400,-847.5 400,-847.5 395.0075,-847.2258 400.2468,-843.0068 390.015,-846.9516 390.015,-846.9516"/>
<text text-anchor="start" x="6.66" y="-857.5" font-family="Arial" font-size="10.00" fill="#000000">FOREIGN KEY (prefecture_id) REFERENCES prefectures(id) ON DELETE RESTRICT</text>
</g>
<!-- public.users -->
<g id="node5" class="node">
<title>public.users</title>
<polygon fill="#efefef" stroke="transparent" points="761,-522.5 761,-557.5 1163,-557.5 1163,-522.5 761,-522.5"/>
<polygon fill="none" stroke="#000000" points="761,-522.5 761,-557.5 1163,-557.5 1163,-522.5 761,-522.5"/>
<text text-anchor="start" x="865.3662" y="-535.3" font-family="Arial Bold" font-size="18.00" fill="#000000">public.users</text>
<text text-anchor="start" x="961.38" y="-535.3" font-family="Arial" font-size="14.00" fill="#000000"> </text>
<text text-anchor="start" x="965.2706" y="-535.3" font-family="Arial" font-size="14.00" fill="#666666">[BASE TABLE]</text>
<polygon fill="none" stroke="#000000" points="761,-492.5 761,-522.5 1163,-522.5 1163,-492.5 761,-492.5"/>
<text text-anchor="start" x="768" y="-503.9" font-family="Arial" font-size="14.00" fill="#000000">id </text>
<text text-anchor="start" x="782.7798" y="-503.9" font-family="Arial" font-size="14.00" fill="#666666">[bigint]</text>
<polygon fill="none" stroke="#000000" points="761,-462.5 761,-492.5 1163,-492.5 1163,-462.5 761,-462.5"/>
<text text-anchor="start" x="768" y="-473.9" font-family="Arial" font-size="14.00" fill="#000000">name </text>
<text text-anchor="start" x="806.899" y="-473.9" font-family="Arial" font-size="14.00" fill="#666666">[varchar(50)]</text>
<polygon fill="none" stroke="#000000" points="761,-432.5 761,-462.5 1163,-462.5 1163,-432.5 761,-432.5"/>
<text text-anchor="start" x="768" y="-443.9" font-family="Arial" font-size="14.00" fill="#000000">email </text>
<text text-anchor="start" x="805.3296" y="-443.9" font-family="Arial" font-size="14.00" fill="#666666">[varchar(100)]</text>
<polygon fill="none" stroke="#000000" points="761,-402.5 761,-432.5 1163,-432.5 1163,-402.5 761,-402.5"/>
<text text-anchor="start" x="768" y="-413.9" font-family="Arial" font-size="14.00" fill="#000000">unverified_email </text>
<text text-anchor="start" x="873.7896" y="-413.9" font-family="Arial" font-size="14.00" fill="#666666">[varchar(100)]</text>
<polygon fill="none" stroke="#000000" points="761,-372.5 761,-402.5 1163,-402.5 1163,-372.5 761,-372.5"/>
<text text-anchor="start" x="768" y="-383.9" font-family="Arial" font-size="14.00" fill="#000000">role </text>
<text text-anchor="start" x="795.223" y="-383.9" font-family="Arial" font-size="14.00" fill="#666666">[user_role]</text>
<polygon fill="none" stroke="#000000" points="761,-342.5 761,-372.5 1163,-372.5 1163,-342.5 761,-342.5"/>
<text text-anchor="start" x="768" y="-353.9" font-family="Arial" font-size="14.00" fill="#000000">avatar </text>
<text text-anchor="start" x="810.7896" y="-353.9" font-family="Arial" font-size="14.00" fill="#666666">[varchar]</text>
<polygon fill="none" stroke="#000000" points="761,-312.5 761,-342.5 1163,-342.5 1163,-312.5 761,-312.5"/>
<text text-anchor="start" x="768" y="-323.9" font-family="Arial" font-size="14.00" fill="#000000">introduction </text>
<text text-anchor="start" x="844.2412" y="-323.9" font-family="Arial" font-size="14.00" fill="#666666">[varchar(160)]</text>
<polygon fill="none" stroke="#000000" points="761,-282.5 761,-312.5 1163,-312.5 1163,-282.5 761,-282.5"/>
<text text-anchor="start" x="768" y="-293.9" font-family="Arial" font-size="14.00" fill="#000000">email_verification_status </text>
<text text-anchor="start" x="925.1332" y="-293.9" font-family="Arial" font-size="14.00" fill="#666666">[email_verification_status]</text>
<polygon fill="none" stroke="#000000" points="761,-252.5 761,-282.5 1163,-282.5 1163,-252.5 761,-252.5"/>
<text text-anchor="start" x="768" y="-263.9" font-family="Arial" font-size="14.00" fill="#000000">email_verification_code </text>
<text text-anchor="start" x="918.1346" y="-263.9" font-family="Arial" font-size="14.00" fill="#666666">[varchar]</text>
<polygon fill="none" stroke="#000000" points="761,-222.5 761,-252.5 1163,-252.5 1163,-222.5 761,-222.5"/>
<text text-anchor="start" x="767.9138" y="-233.9" font-family="Arial" font-size="14.00" fill="#000000">email_verification_code_expires_at </text>
<text text-anchor="start" x="990.4018" y="-233.9" font-family="Arial" font-size="14.00" fill="#666666">[timestamp with time zone]</text>
<polygon fill="none" stroke="#000000" points="761,-192.5 761,-222.5 1163,-222.5 1163,-192.5 761,-192.5"/>
<text text-anchor="start" x="768" y="-203.9" font-family="Arial" font-size="14.00" fill="#000000">password_digest </text>
<text text-anchor="start" x="876.9158" y="-203.9" font-family="Arial" font-size="14.00" fill="#666666">[varchar]</text>
<polygon fill="none" stroke="#000000" points="761,-162.5 761,-192.5 1163,-192.5 1163,-162.5 761,-162.5"/>
<text text-anchor="start" x="768" y="-173.9" font-family="Arial" font-size="14.00" fill="#000000">password_reset_token </text>
<text text-anchor="start" x="912.7082" y="-173.9" font-family="Arial" font-size="14.00" fill="#666666">[varchar]</text>
<polygon fill="none" stroke="#000000" points="761,-132.5 761,-162.5 1163,-162.5 1163,-132.5 761,-132.5"/>
<text text-anchor="start" x="768" y="-143.9" font-family="Arial" font-size="14.00" fill="#000000">password_reset_token_expires_at </text>
<text text-anchor="start" x="985.0616" y="-143.9" font-family="Arial" font-size="14.00" fill="#666666">[timestamp with time zone]</text>
<polygon fill="none" stroke="#000000" points="761,-102.5 761,-132.5 1163,-132.5 1163,-102.5 761,-102.5"/>
<text text-anchor="start" x="768" y="-113.9" font-family="Arial" font-size="14.00" fill="#000000">last_sign_in_at </text>
<text text-anchor="start" x="865.2524" y="-113.9" font-family="Arial" font-size="14.00" fill="#666666">[timestamp with time zone]</text>
<polygon fill="none" stroke="#000000" points="761,-72.5 761,-102.5 1163,-102.5 1163,-72.5 761,-72.5"/>
<text text-anchor="start" x="768" y="-83.9" font-family="Arial" font-size="14.00" fill="#000000">created_at </text>
<text text-anchor="start" x="838.028" y="-83.9" font-family="Arial" font-size="14.00" fill="#666666">[timestamp with time zone]</text>
<polygon fill="none" stroke="#000000" points="761,-42.5 761,-72.5 1163,-72.5 1163,-42.5 761,-42.5"/>
<text text-anchor="start" x="768" y="-53.9" font-family="Arial" font-size="14.00" fill="#000000">updated_at </text>
<text text-anchor="start" x="841.9326" y="-53.9" font-family="Arial" font-size="14.00" fill="#666666">[timestamp with time zone]</text>
</g>
<!-- public.recruitments&#45;&gt;public.users -->
<g id="edge4" class="edge">
<title>public.recruitments:user_id&#45;&gt;public.users:id</title>
<path fill="none" stroke="#000000" d="M671.9719,-785.0794C724.6843,-757.7124 698.6122,-507.5 761,-507.5"/>
<polygon fill="#000000" stroke="#000000" points="671.7178,-785.141 660.9384,-783.127 666.8589,-786.3205 662,-787.5 662,-787.5 662,-787.5 666.8589,-786.3205 663.0616,-791.873 671.7178,-785.141 671.7178,-785.141"/>
<text text-anchor="start" x="669.0535" y="-797.5" font-family="Arial" font-size="10.00" fill="#000000">FOREIGN KEY (user_id) REFERENCES users(id) ON DELETE CASCADE</text>
</g>
<!-- public.recruitment_tags -->
<g id="node2" class="node">
<title>public.recruitment_tags</title>
<polygon fill="#efefef" stroke="transparent" points="382,-1472.5 382,-1507.5 679,-1507.5 679,-1472.5 382,-1472.5"/>
<polygon fill="none" stroke="#000000" points="382,-1472.5 382,-1507.5 679,-1507.5 679,-1472.5 382,-1472.5"/>
<text text-anchor="start" x="388.8581" y="-1485.3" font-family="Arial Bold" font-size="18.00" fill="#000000">public.recruitment_tags</text>
<text text-anchor="start" x="574.8881" y="-1485.3" font-family="Arial" font-size="14.00" fill="#000000"> </text>
<text text-anchor="start" x="578.7787" y="-1485.3" font-family="Arial" font-size="14.00" fill="#666666">[BASE TABLE]</text>
<polygon fill="none" stroke="#000000" points="382,-1442.5 382,-1472.5 679,-1472.5 679,-1442.5 382,-1442.5"/>
<text text-anchor="start" x="389" y="-1453.9" font-family="Arial" font-size="14.00" fill="#000000">id </text>
<text text-anchor="start" x="403.7798" y="-1453.9" font-family="Arial" font-size="14.00" fill="#666666">[bigint]</text>
<polygon fill="none" stroke="#000000" points="382,-1412.5 382,-1442.5 679,-1442.5 679,-1412.5 382,-1412.5"/>
<text text-anchor="start" x="389" y="-1423.9" font-family="Arial" font-size="14.00" fill="#000000">tag_id </text>
<text text-anchor="start" x="431.0182" y="-1423.9" font-family="Arial" font-size="14.00" fill="#666666">[bigint]</text>
<polygon fill="none" stroke="#000000" points="382,-1382.5 382,-1412.5 679,-1412.5 679,-1382.5 382,-1382.5"/>
<text text-anchor="start" x="389" y="-1393.9" font-family="Arial" font-size="14.00" fill="#000000">recruitment_id </text>
<text text-anchor="start" x="481.5624" y="-1393.9" font-family="Arial" font-size="14.00" fill="#666666">[bigint]</text>
<polygon fill="none" stroke="#000000" points="382,-1352.5 382,-1382.5 679,-1382.5 679,-1352.5 382,-1352.5"/>
<text text-anchor="start" x="389" y="-1363.9" font-family="Arial" font-size="14.00" fill="#000000">created_at </text>
<text text-anchor="start" x="459.028" y="-1363.9" font-family="Arial" font-size="14.00" fill="#666666">[timestamp with time zone]</text>
<polygon fill="none" stroke="#000000" points="382,-1322.5 382,-1352.5 679,-1352.5 679,-1322.5 382,-1322.5"/>
<text text-anchor="start" x="389" y="-1333.9" font-family="Arial" font-size="14.00" fill="#000000">updated_at </text>
<text text-anchor="start" x="462.9326" y="-1333.9" font-family="Arial" font-size="14.00" fill="#666666">[timestamp with time zone]</text>
</g>
<!-- public.recruitment_tags&#45;&gt;public.recruitments -->
<g id="edge1" class="edge">
<title>public.recruitment_tags:recruitment_id&#45;&gt;public.recruitments:id</title>
<path fill="none" stroke="#000000" d="M688.9965,-1396.3798C728.6449,-1386.6848 711.0585,-1316.4608 679,-1280 596.4423,-1186.1053 482.5577,-1337.8947 400,-1244 371.6799,-1211.7909 357.1111,-1147.5 400,-1147.5"/>
<polygon fill="#000000" stroke="#000000" points="688.9378,-1396.3862 678.4988,-1393.028 683.9689,-1396.9431 679,-1397.5 679,-1397.5 679,-1397.5 683.9689,-1396.9431 679.5012,-1401.972 688.9378,-1396.3862 688.9378,-1396.3862"/>
<text text-anchor="start" x="685.5005" y="-1407.5" font-family="Arial" font-size="10.00" fill="#000000">FOREIGN KEY (recruitment_id) REFERENCES recruitments(id) ON DELETE CASCADE</text>
</g>
</g>
</svg>
