<?xml version="1.0" encoding="UTF-8" standalone="no"?>
<!DOCTYPE svg PUBLIC "-//W3C//DTD SVG 1.1//EN"
 "http://www.w3.org/Graphics/SVG/1.1/DTD/svg11.dtd">
<!-- Generated by graphviz version 2.40.1 (20161225.0304)
 -->
<!-- Title: public.users Pages: 1 -->
<svg width="3891pt" height="1282pt"
 viewBox="0.00 0.00 3891.00 1282.00" xmlns="http://www.w3.org/2000/svg" xmlns:xlink="http://www.w3.org/1999/xlink">
<g id="graph0" class="graph" transform="scale(1 1) rotate(0) translate(4 1278)">
<title>public.users</title>
<polygon fill="#ffffff" stroke="transparent" points="-4,4 -4,-1278 3887,-1278 3887,4 -4,4"/>
<!-- public.users -->
<g id="node1" class="node">
<title>public.users</title>
<polygon fill="#efefef" stroke="transparent" points="1866,-555.5 1866,-590.5 2268,-590.5 2268,-555.5 1866,-555.5"/>
<polygon fill="none" stroke="#000000" points="1866,-555.5 1866,-590.5 2268,-590.5 2268,-555.5 1866,-555.5"/>
<text text-anchor="start" x="1970.3662" y="-568.3" font-family="Arial Bold" font-size="18.00" fill="#000000">public.users</text>
<text text-anchor="start" x="2066.38" y="-568.3" font-family="Arial" font-size="14.00" fill="#000000"> </text>
<text text-anchor="start" x="2070.2706" y="-568.3" font-family="Arial" font-size="14.00" fill="#666666">[BASE TABLE]</text>
<polygon fill="none" stroke="#000000" points="1866,-525.5 1866,-555.5 2268,-555.5 2268,-525.5 1866,-525.5"/>
<text text-anchor="start" x="1873" y="-536.9" font-family="Arial" font-size="14.00" fill="#000000">id </text>
<text text-anchor="start" x="1887.7798" y="-536.9" font-family="Arial" font-size="14.00" fill="#666666">[bigint]</text>
<polygon fill="none" stroke="#000000" points="1866,-495.5 1866,-525.5 2268,-525.5 2268,-495.5 1866,-495.5"/>
<text text-anchor="start" x="1873" y="-506.9" font-family="Arial" font-size="14.00" fill="#000000">name </text>
<text text-anchor="start" x="1911.899" y="-506.9" font-family="Arial" font-size="14.00" fill="#666666">[varchar(50)]</text>
<polygon fill="none" stroke="#000000" points="1866,-465.5 1866,-495.5 2268,-495.5 2268,-465.5 1866,-465.5"/>
<text text-anchor="start" x="1873" y="-476.9" font-family="Arial" font-size="14.00" fill="#000000">email </text>
<text text-anchor="start" x="1910.3296" y="-476.9" font-family="Arial" font-size="14.00" fill="#666666">[varchar(100)]</text>
<polygon fill="none" stroke="#000000" points="1866,-435.5 1866,-465.5 2268,-465.5 2268,-435.5 1866,-435.5"/>
<text text-anchor="start" x="1873" y="-446.9" font-family="Arial" font-size="14.00" fill="#000000">role </text>
<text text-anchor="start" x="1900.223" y="-446.9" font-family="Arial" font-size="14.00" fill="#666666">[user_role]</text>
<polygon fill="none" stroke="#000000" points="1866,-405.5 1866,-435.5 2268,-435.5 2268,-405.5 1866,-405.5"/>
<text text-anchor="start" x="1873" y="-416.9" font-family="Arial" font-size="14.00" fill="#000000">avatar </text>
<text text-anchor="start" x="1915.7896" y="-416.9" font-family="Arial" font-size="14.00" fill="#666666">[varchar]</text>
<polygon fill="none" stroke="#000000" points="1866,-375.5 1866,-405.5 2268,-405.5 2268,-375.5 1866,-375.5"/>
<text text-anchor="start" x="1873" y="-386.9" font-family="Arial" font-size="14.00" fill="#000000">introduction </text>
<text text-anchor="start" x="1949.2412" y="-386.9" font-family="Arial" font-size="14.00" fill="#666666">[varchar(160)]</text>
<polygon fill="none" stroke="#000000" points="1866,-345.5 1866,-375.5 2268,-375.5 2268,-345.5 1866,-345.5"/>
<text text-anchor="start" x="1873" y="-356.9" font-family="Arial" font-size="14.00" fill="#000000">email_verification_status </text>
<text text-anchor="start" x="2030.1332" y="-356.9" font-family="Arial" font-size="14.00" fill="#666666">[email_verification_status]</text>
<polygon fill="none" stroke="#000000" points="1866,-315.5 1866,-345.5 2268,-345.5 2268,-315.5 1866,-315.5"/>
<text text-anchor="start" x="1873" y="-326.9" font-family="Arial" font-size="14.00" fill="#000000">email_verification_code </text>
<text text-anchor="start" x="2023.1346" y="-326.9" font-family="Arial" font-size="14.00" fill="#666666">[varchar]</text>
<polygon fill="none" stroke="#000000" points="1866,-285.5 1866,-315.5 2268,-315.5 2268,-285.5 1866,-285.5"/>
<text text-anchor="start" x="1872.9138" y="-296.9" font-family="Arial" font-size="14.00" fill="#000000">email_verification_code_expires_at </text>
<text text-anchor="start" x="2095.4018" y="-296.9" font-family="Arial" font-size="14.00" fill="#666666">[timestamp with time zone]</text>
<polygon fill="none" stroke="#000000" points="1866,-255.5 1866,-285.5 2268,-285.5 2268,-255.5 1866,-255.5"/>
<text text-anchor="start" x="1873" y="-266.9" font-family="Arial" font-size="14.00" fill="#000000">password_digest </text>
<text text-anchor="start" x="1981.9158" y="-266.9" font-family="Arial" font-size="14.00" fill="#666666">[varchar]</text>
<polygon fill="none" stroke="#000000" points="1866,-225.5 1866,-255.5 2268,-255.5 2268,-225.5 1866,-225.5"/>
<text text-anchor="start" x="1873" y="-236.9" font-family="Arial" font-size="14.00" fill="#000000">created_at </text>
<text text-anchor="start" x="1943.028" y="-236.9" font-family="Arial" font-size="14.00" fill="#666666">[timestamp with time zone]</text>
<polygon fill="none" stroke="#000000" points="1866,-195.5 1866,-225.5 2268,-225.5 2268,-195.5 1866,-195.5"/>
<text text-anchor="start" x="1873" y="-206.9" font-family="Arial" font-size="14.00" fill="#000000">updated_at </text>
<text text-anchor="start" x="1946.9326" y="-206.9" font-family="Arial" font-size="14.00" fill="#666666">[timestamp with time zone]</text>
<polygon fill="none" stroke="#000000" points="1866,-165.5 1866,-195.5 2268,-195.5 2268,-165.5 1866,-165.5"/>
<text text-anchor="start" x="1873" y="-176.9" font-family="Arial" font-size="14.00" fill="#000000">last_sign_in_at </text>
<text text-anchor="start" x="1970.2524" y="-176.9" font-family="Arial" font-size="14.00" fill="#666666">[timestamp with time zone]</text>
<polygon fill="none" stroke="#000000" points="1866,-135.5 1866,-165.5 2268,-165.5 2268,-135.5 1866,-135.5"/>
<text text-anchor="start" x="1873" y="-146.9" font-family="Arial" font-size="14.00" fill="#000000">unverified_email </text>
<text text-anchor="start" x="1978.7896" y="-146.9" font-family="Arial" font-size="14.00" fill="#666666">[varchar(100)]</text>
<polygon fill="none" stroke="#000000" points="1866,-105.5 1866,-135.5 2268,-135.5 2268,-105.5 1866,-105.5"/>
<text text-anchor="start" x="1873" y="-116.9" font-family="Arial" font-size="14.00" fill="#000000">password_reset_token </text>
<text text-anchor="start" x="2017.7082" y="-116.9" font-family="Arial" font-size="14.00" fill="#666666">[varchar]</text>
<polygon fill="none" stroke="#000000" points="1866,-75.5 1866,-105.5 2268,-105.5 2268,-75.5 1866,-75.5"/>
<text text-anchor="start" x="1873" y="-86.9" font-family="Arial" font-size="14.00" fill="#000000">password_reset_token_expires_at </text>
<text text-anchor="start" x="2090.0616" y="-86.9" font-family="Arial" font-size="14.00" fill="#666666">[timestamp with time zone]</text>
<polygon fill="none" stroke="#000000" points="1866,-45.5 1866,-75.5 2268,-75.5 2268,-45.5 1866,-45.5"/>
<text text-anchor="start" x="1873" y="-56.9" font-family="Arial" font-size="14.00" fill="#000000">website_url </text>
<text text-anchor="start" x="1947.6746" y="-56.9" font-family="Arial" font-size="14.00" fill="#666666">[varchar]</text>
<polygon fill="none" stroke="#000000" stroke-width="3" points="1864.5,-44.5 1864.5,-592.5 2269.5,-592.5 2269.5,-44.5 1864.5,-44.5"/>
</g>
<!-- public.recruitments -->
<g id="node2" class="node">
<title>public.recruitments</title>
<polygon fill="#efefef" stroke="transparent" points="85,-1195.5 85,-1230.5 347,-1230.5 347,-1195.5 85,-1195.5"/>
<polygon fill="none" stroke="#000000" points="85,-1195.5 85,-1230.5 347,-1230.5 347,-1195.5 85,-1195.5"/>
<text text-anchor="start" x="91.8685" y="-1208.3" font-family="Arial Bold" font-size="18.00" fill="#000000">public.recruitments</text>
<text text-anchor="start" x="242.8777" y="-1208.3" font-family="Arial" font-size="14.00" fill="#000000"> </text>
<text text-anchor="start" x="246.7683" y="-1208.3" font-family="Arial" font-size="14.00" fill="#666666">[BASE TABLE]</text>
<polygon fill="none" stroke="#000000" points="85,-1165.5 85,-1195.5 347,-1195.5 347,-1165.5 85,-1165.5"/>
<text text-anchor="start" x="92" y="-1176.9" font-family="Arial" font-size="14.00" fill="#000000">id </text>
<text text-anchor="start" x="106.7798" y="-1176.9" font-family="Arial" font-size="14.00" fill="#666666">[bigint]</text>
<polygon fill="none" stroke="#000000" points="85,-1135.5 85,-1165.5 347,-1165.5 347,-1135.5 85,-1135.5"/>
<text text-anchor="start" x="92" y="-1146.9" font-family="Arial" font-size="14.00" fill="#000000">title </text>
<text text-anchor="start" x="117.6676" y="-1146.9" font-family="Arial" font-size="14.00" fill="#666666">[varchar(60)]</text>
<polygon fill="none" stroke="#000000" points="85,-1105.5 85,-1135.5 347,-1135.5 347,-1105.5 85,-1105.5"/>
<text text-anchor="start" x="92" y="-1116.9" font-family="Arial" font-size="14.00" fill="#000000">type </text>
<text text-anchor="start" x="122.3464" y="-1116.9" font-family="Arial" font-size="14.00" fill="#666666">[varchar]</text>
<polygon fill="none" stroke="#000000" points="85,-1075.5 85,-1105.5 347,-1105.5 347,-1075.5 85,-1075.5"/>
<text text-anchor="start" x="92" y="-1086.9" font-family="Arial" font-size="14.00" fill="#000000">venue </text>
<text text-anchor="start" x="134.021" y="-1086.9" font-family="Arial" font-size="14.00" fill="#666666">[varchar]</text>
<polygon fill="none" stroke="#000000" points="85,-1045.5 85,-1075.5 347,-1075.5 347,-1045.5 85,-1045.5"/>
<text text-anchor="start" x="92" y="-1056.9" font-family="Arial" font-size="14.00" fill="#000000">start_at </text>
<text text-anchor="start" x="142.5708" y="-1056.9" font-family="Arial" font-size="14.00" fill="#666666">[timestamp with time zone]</text>
<polygon fill="none" stroke="#000000" points="85,-1015.5 85,-1045.5 347,-1045.5 347,-1015.5 85,-1015.5"/>
<text text-anchor="start" x="92" y="-1026.9" font-family="Arial" font-size="14.00" fill="#000000">detail </text>
<text text-anchor="start" x="129.3422" y="-1026.9" font-family="Arial" font-size="14.00" fill="#666666">[varchar(10000)]</text>
<polygon fill="none" stroke="#000000" points="85,-985.5 85,-1015.5 347,-1015.5 347,-985.5 85,-985.5"/>
<text text-anchor="start" x="92" y="-996.9" font-family="Arial" font-size="14.00" fill="#000000">closing_at </text>
<text text-anchor="start" x="158.9074" y="-996.9" font-family="Arial" font-size="14.00" fill="#666666">[timestamp with time zone]</text>
<polygon fill="none" stroke="#000000" points="85,-955.5 85,-985.5 347,-985.5 347,-955.5 85,-955.5"/>
<text text-anchor="start" x="92" y="-966.9" font-family="Arial" font-size="14.00" fill="#000000">prefecture_id </text>
<text text-anchor="start" x="177.5778" y="-966.9" font-family="Arial" font-size="14.00" fill="#666666">[bigint]</text>
<polygon fill="none" stroke="#000000" points="85,-925.5 85,-955.5 347,-955.5 347,-925.5 85,-925.5"/>
<text text-anchor="start" x="92" y="-936.9" font-family="Arial" font-size="14.00" fill="#000000">user_id </text>
<text text-anchor="start" x="141.7882" y="-936.9" font-family="Arial" font-size="14.00" fill="#666666">[bigint]</text>
<polygon fill="none" stroke="#000000" points="85,-895.5 85,-925.5 347,-925.5 347,-895.5 85,-895.5"/>
<text text-anchor="start" x="92" y="-906.9" font-family="Arial" font-size="14.00" fill="#000000">created_at </text>
<text text-anchor="start" x="162.028" y="-906.9" font-family="Arial" font-size="14.00" fill="#666666">[timestamp with time zone]</text>
<polygon fill="none" stroke="#000000" points="85,-865.5 85,-895.5 347,-895.5 347,-865.5 85,-865.5"/>
<text text-anchor="start" x="92" y="-876.9" font-family="Arial" font-size="14.00" fill="#000000">updated_at </text>
<text text-anchor="start" x="165.9326" y="-876.9" font-family="Arial" font-size="14.00" fill="#666666">[timestamp with time zone]</text>
<polygon fill="none" stroke="#000000" points="85,-835.5 85,-865.5 347,-865.5 347,-835.5 85,-835.5"/>
<text text-anchor="start" x="92" y="-846.9" font-family="Arial" font-size="14.00" fill="#000000">location_lat </text>
<text text-anchor="start" x="166.6872" y="-846.9" font-family="Arial" font-size="14.00" fill="#666666">[double precision]</text>
<polygon fill="none" stroke="#000000" points="85,-805.5 85,-835.5 347,-835.5 347,-805.5 85,-805.5"/>
<text text-anchor="start" x="92" y="-816.9" font-family="Arial" font-size="14.00" fill="#000000">location_lng </text>
<text text-anchor="start" x="170.5792" y="-816.9" font-family="Arial" font-size="14.00" fill="#666666">[double precision]</text>
<polygon fill="none" stroke="#000000" points="85,-775.5 85,-805.5 347,-805.5 347,-775.5 85,-775.5"/>
<text text-anchor="start" x="92" y="-786.9" font-family="Arial" font-size="14.00" fill="#000000">status </text>
<text text-anchor="start" x="133.237" y="-786.9" font-family="Arial" font-size="14.00" fill="#666666">[recruitment_status]</text>
<polygon fill="none" stroke="#000000" points="85,-745.5 85,-775.5 347,-775.5 347,-745.5 85,-745.5"/>
<text text-anchor="start" x="91.5302" y="-756.9" font-family="Arial" font-size="14.00" fill="#000000">published_at </text>
<text text-anchor="start" x="174.7854" y="-756.9" font-family="Arial" font-size="14.00" fill="#666666">[timestamp with time zone]</text>
<polygon fill="none" stroke="#000000" points="85,-715.5 85,-745.5 347,-745.5 347,-715.5 85,-715.5"/>
<text text-anchor="start" x="92" y="-726.9" font-family="Arial" font-size="14.00" fill="#000000">sport_id </text>
<text text-anchor="start" x="145.6788" y="-726.9" font-family="Arial" font-size="14.00" fill="#666666">[bigint]</text>
</g>
<!-- public.recruitments&#45;&gt;public.users -->
<g id="edge1" class="edge">
<title>public.recruitments:user_id&#45;&gt;public.users:id</title>
<path fill="none" stroke="#000000" d="M357.2441,-939.9958C458.7151,-929.3145 311.8293,-751.71 399,-673 520.4724,-563.3177 1702.3365,-540.5 1866,-540.5"/>
<polygon fill="#000000" stroke="#000000" points="356.9879,-940.0083 346.7787,-936.0054 351.994,-940.2541 347,-940.5 347,-940.5 347,-940.5 351.994,-940.2541 347.2213,-944.9946 356.9879,-940.0083 356.9879,-940.0083"/>
<text text-anchor="start" x="7.0535" y="-950.5" font-family="Arial" font-size="10.00" fill="#000000">FOREIGN KEY (user_id) REFERENCES users(id) ON DELETE CASCADE</text>
</g>
<!-- public.stocks -->
<g id="node3" class="node">
<title>public.stocks</title>
<polygon fill="#efefef" stroke="transparent" points="452,-1030.5 452,-1065.5 705,-1065.5 705,-1030.5 452,-1030.5"/>
<polygon fill="none" stroke="#000000" points="452,-1030.5 452,-1065.5 705,-1065.5 705,-1030.5 452,-1030.5"/>
<text text-anchor="start" x="478.3643" y="-1043.3" font-family="Arial Bold" font-size="18.00" fill="#000000">public.stocks</text>
<text text-anchor="start" x="581.3819" y="-1043.3" font-family="Arial" font-size="14.00" fill="#000000"> </text>
<text text-anchor="start" x="585.2725" y="-1043.3" font-family="Arial" font-size="14.00" fill="#666666">[BASE TABLE]</text>
<polygon fill="none" stroke="#000000" points="452,-1000.5 452,-1030.5 705,-1030.5 705,-1000.5 452,-1000.5"/>
<text text-anchor="start" x="459" y="-1011.9" font-family="Arial" font-size="14.00" fill="#000000">id </text>
<text text-anchor="start" x="473.7798" y="-1011.9" font-family="Arial" font-size="14.00" fill="#666666">[bigint]</text>
<polygon fill="none" stroke="#000000" points="452,-970.5 452,-1000.5 705,-1000.5 705,-970.5 452,-970.5"/>
<text text-anchor="start" x="459" y="-981.9" font-family="Arial" font-size="14.00" fill="#000000">recruitment_id </text>
<text text-anchor="start" x="551.5624" y="-981.9" font-family="Arial" font-size="14.00" fill="#666666">[bigint]</text>
<polygon fill="none" stroke="#000000" points="452,-940.5 452,-970.5 705,-970.5 705,-940.5 452,-940.5"/>
<text text-anchor="start" x="459" y="-951.9" font-family="Arial" font-size="14.00" fill="#000000">user_id </text>
<text text-anchor="start" x="508.7882" y="-951.9" font-family="Arial" font-size="14.00" fill="#666666">[bigint]</text>
<polygon fill="none" stroke="#000000" points="452,-910.5 452,-940.5 705,-940.5 705,-910.5 452,-910.5"/>
<text text-anchor="start" x="459" y="-921.9" font-family="Arial" font-size="14.00" fill="#000000">created_at </text>
<text text-anchor="start" x="529.028" y="-921.9" font-family="Arial" font-size="14.00" fill="#666666">[timestamp with time zone]</text>
<polygon fill="none" stroke="#000000" points="452,-880.5 452,-910.5 705,-910.5 705,-880.5 452,-880.5"/>
<text text-anchor="start" x="458.6915" y="-891.9" font-family="Arial" font-size="14.00" fill="#000000">updated_at </text>
<text text-anchor="start" x="532.6241" y="-891.9" font-family="Arial" font-size="14.00" fill="#666666">[timestamp with time zone]</text>
</g>
<!-- public.stocks&#45;&gt;public.users -->
<g id="edge2" class="edge">
<title>public.stocks:user_id&#45;&gt;public.users:id</title>
<path fill="none" stroke="#000000" d="M715.1377,-955.0376C823.1973,-944.5401 665.7571,-758.0015 756,-673 846.4154,-587.836 1741.7911,-540.5 1866,-540.5"/>
<polygon fill="#000000" stroke="#000000" points="714.9896,-955.0443 704.7949,-951.0047 709.9948,-955.2721 705,-955.5 705,-955.5 705,-955.5 709.9948,-955.2721 705.2051,-959.9953 714.9896,-955.0443 714.9896,-955.0443"/>
<text text-anchor="start" x="365.0535" y="-965.5" font-family="Arial" font-size="10.00" fill="#000000">FOREIGN KEY (user_id) REFERENCES users(id) ON DELETE CASCADE</text>
</g>
<!-- public.applicants -->
<g id="node4" class="node">
<title>public.applicants</title>
<polygon fill="#efefef" stroke="transparent" points="809,-1045.5 809,-1080.5 1062,-1080.5 1062,-1045.5 809,-1045.5"/>
<polygon fill="none" stroke="#000000" points="809,-1045.5 809,-1080.5 1062,-1080.5 1062,-1045.5 809,-1045.5"/>
<text text-anchor="start" x="820.3577" y="-1058.3" font-family="Arial Bold" font-size="18.00" fill="#000000">public.applicants</text>
<text text-anchor="start" x="953.3885" y="-1058.3" font-family="Arial" font-size="14.00" fill="#000000"> </text>
<text text-anchor="start" x="957.2791" y="-1058.3" font-family="Arial" font-size="14.00" fill="#666666">[BASE TABLE]</text>
<polygon fill="none" stroke="#000000" points="809,-1015.5 809,-1045.5 1062,-1045.5 1062,-1015.5 809,-1015.5"/>
<text text-anchor="start" x="816" y="-1026.9" font-family="Arial" font-size="14.00" fill="#000000">id </text>
<text text-anchor="start" x="830.7798" y="-1026.9" font-family="Arial" font-size="14.00" fill="#666666">[bigint]</text>
<polygon fill="none" stroke="#000000" points="809,-985.5 809,-1015.5 1062,-1015.5 1062,-985.5 809,-985.5"/>
<text text-anchor="start" x="816" y="-996.9" font-family="Arial" font-size="14.00" fill="#000000">recruitment_id </text>
<text text-anchor="start" x="908.5624" y="-996.9" font-family="Arial" font-size="14.00" fill="#666666">[bigint]</text>
<polygon fill="none" stroke="#000000" points="809,-955.5 809,-985.5 1062,-985.5 1062,-955.5 809,-955.5"/>
<text text-anchor="start" x="816" y="-966.9" font-family="Arial" font-size="14.00" fill="#000000">user_id </text>
<text text-anchor="start" x="865.7882" y="-966.9" font-family="Arial" font-size="14.00" fill="#666666">[bigint]</text>
<polygon fill="none" stroke="#000000" points="809,-925.5 809,-955.5 1062,-955.5 1062,-925.5 809,-925.5"/>
<text text-anchor="start" x="816" y="-936.9" font-family="Arial" font-size="14.00" fill="#000000">created_at </text>
<text text-anchor="start" x="886.028" y="-936.9" font-family="Arial" font-size="14.00" fill="#666666">[timestamp with time zone]</text>
<polygon fill="none" stroke="#000000" points="809,-895.5 809,-925.5 1062,-925.5 1062,-895.5 809,-895.5"/>
<text text-anchor="start" x="815.6915" y="-906.9" font-family="Arial" font-size="14.00" fill="#000000">updated_at </text>
<text text-anchor="start" x="889.6241" y="-906.9" font-family="Arial" font-size="14.00" fill="#666666">[timestamp with time zone]</text>
<polygon fill="none" stroke="#000000" points="809,-865.5 809,-895.5 1062,-895.5 1062,-865.5 809,-865.5"/>
<text text-anchor="start" x="816" y="-876.9" font-family="Arial" font-size="14.00" fill="#000000">message </text>
<text text-anchor="start" x="876.6816" y="-876.9" font-family="Arial" font-size="14.00" fill="#666666">[varchar(1000)]</text>
</g>
<!-- public.applicants&#45;&gt;public.users -->
<g id="edge3" class="edge">
<title>public.applicants:user_id&#45;&gt;public.users:id</title>
<path fill="none" stroke="#000000" d="M1071.8734,-968.3313C1122.4722,-943.7654 1068.263,-717.9343 1113,-673 1232.8757,-552.5955 1696.0959,-540.5 1866,-540.5"/>
<polygon fill="#000000" stroke="#000000" points="1071.7672,-968.3545 1061.0345,-966.1048 1066.8836,-969.4273 1062,-970.5 1062,-970.5 1062,-970.5 1066.8836,-969.4273 1062.9655,-974.8952 1071.7672,-968.3545 1071.7672,-968.3545"/>
<text text-anchor="start" x="722.0535" y="-980.5" font-family="Arial" font-size="10.00" fill="#000000">FOREIGN KEY (user_id) REFERENCES users(id) ON DELETE CASCADE</text>
</g>
<!-- public.messages -->
<g id="node5" class="node">
<title>public.messages</title>
<polygon fill="#efefef" stroke="transparent" points="1166,-1060.5 1166,-1095.5 1419,-1095.5 1419,-1060.5 1166,-1060.5"/>
<polygon fill="none" stroke="#000000" points="1166,-1060.5 1166,-1095.5 1419,-1095.5 1419,-1060.5 1166,-1060.5"/>
<text text-anchor="start" x="1176.86" y="-1073.3" font-family="Arial Bold" font-size="18.00" fill="#000000">public.messages</text>
<text text-anchor="start" x="1310.8862" y="-1073.3" font-family="Arial" font-size="14.00" fill="#000000"> </text>
<text text-anchor="start" x="1314.7768" y="-1073.3" font-family="Arial" font-size="14.00" fill="#666666">[BASE TABLE]</text>
<polygon fill="none" stroke="#000000" points="1166,-1030.5 1166,-1060.5 1419,-1060.5 1419,-1030.5 1166,-1030.5"/>
<text text-anchor="start" x="1173" y="-1041.9" font-family="Arial" font-size="14.00" fill="#000000">id </text>
<text text-anchor="start" x="1187.7798" y="-1041.9" font-family="Arial" font-size="14.00" fill="#666666">[bigint]</text>
<polygon fill="none" stroke="#000000" points="1166,-1000.5 1166,-1030.5 1419,-1030.5 1419,-1000.5 1166,-1000.5"/>
<text text-anchor="start" x="1173" y="-1011.9" font-family="Arial" font-size="14.00" fill="#000000">content </text>
<text text-anchor="start" x="1222.8022" y="-1011.9" font-family="Arial" font-size="14.00" fill="#666666">[varchar(1000)]</text>
<polygon fill="none" stroke="#000000" points="1166,-970.5 1166,-1000.5 1419,-1000.5 1419,-970.5 1166,-970.5"/>
<text text-anchor="start" x="1173" y="-981.9" font-family="Arial" font-size="14.00" fill="#000000">room_id </text>
<text text-anchor="start" x="1227.4488" y="-981.9" font-family="Arial" font-size="14.00" fill="#666666">[bigint]</text>
<polygon fill="none" stroke="#000000" points="1166,-940.5 1166,-970.5 1419,-970.5 1419,-940.5 1166,-940.5"/>
<text text-anchor="start" x="1173" y="-951.9" font-family="Arial" font-size="14.00" fill="#000000">user_id </text>
<text text-anchor="start" x="1222.7882" y="-951.9" font-family="Arial" font-size="14.00" fill="#666666">[bigint]</text>
<polygon fill="none" stroke="#000000" points="1166,-910.5 1166,-940.5 1419,-940.5 1419,-910.5 1166,-910.5"/>
<text text-anchor="start" x="1173" y="-921.9" font-family="Arial" font-size="14.00" fill="#000000">applicant_id </text>
<text text-anchor="start" x="1251.5792" y="-921.9" font-family="Arial" font-size="14.00" fill="#666666">[bigint]</text>
<polygon fill="none" stroke="#000000" points="1166,-880.5 1166,-910.5 1419,-910.5 1419,-880.5 1166,-880.5"/>
<text text-anchor="start" x="1173" y="-891.9" font-family="Arial" font-size="14.00" fill="#000000">created_at </text>
<text text-anchor="start" x="1243.028" y="-891.9" font-family="Arial" font-size="14.00" fill="#666666">[timestamp with time zone]</text>
<polygon fill="none" stroke="#000000" points="1166,-850.5 1166,-880.5 1419,-880.5 1419,-850.5 1166,-850.5"/>
<text text-anchor="start" x="1172.6915" y="-861.9" font-family="Arial" font-size="14.00" fill="#000000">updated_at </text>
<text text-anchor="start" x="1246.6241" y="-861.9" font-family="Arial" font-size="14.00" fill="#666666">[timestamp with time zone]</text>
</g>
<!-- public.messages&#45;&gt;public.users -->
<g id="edge4" class="edge">
<title>public.messages:user_id&#45;&gt;public.users:id</title>
<path fill="none" stroke="#000000" d="M1429.038,-953.1718C1476.7326,-928.6865 1430.7061,-718.4154 1470,-673 1530.7161,-602.825 1773.2047,-540.5 1866,-540.5"/>
<polygon fill="#000000" stroke="#000000" points="1428.7414,-953.2405 1417.9832,-951.1164 1423.8707,-954.3702 1419,-955.5 1419,-955.5 1419,-955.5 1423.8707,-954.3702 1420.0168,-959.8836 1428.7414,-953.2405 1428.7414,-953.2405"/>
<text text-anchor="start" x="1426.329" y="-965.5" font-family="Arial" font-size="10.00" fill="#000000">FOREIGN KEY (user_id) REFERENCES users(id) ON DELETE SET NULL</text>
</g>
<!-- public.entries -->
<g id="node6" class="node">
<title>public.entries</title>
<polygon fill="#efefef" stroke="transparent" points="1523,-1030.5 1523,-1065.5 1776,-1065.5 1776,-1030.5 1523,-1030.5"/>
<polygon fill="none" stroke="#000000" points="1523,-1030.5 1523,-1065.5 1776,-1065.5 1776,-1030.5 1523,-1030.5"/>
<text text-anchor="start" x="1547.8649" y="-1043.3" font-family="Arial Bold" font-size="18.00" fill="#000000">public.entries</text>
<text text-anchor="start" x="1653.8813" y="-1043.3" font-family="Arial" font-size="14.00" fill="#000000"> </text>
<text text-anchor="start" x="1657.7719" y="-1043.3" font-family="Arial" font-size="14.00" fill="#666666">[BASE TABLE]</text>
<polygon fill="none" stroke="#000000" points="1523,-1000.5 1523,-1030.5 1776,-1030.5 1776,-1000.5 1523,-1000.5"/>
<text text-anchor="start" x="1530" y="-1011.9" font-family="Arial" font-size="14.00" fill="#000000">id </text>
<text text-anchor="start" x="1544.7798" y="-1011.9" font-family="Arial" font-size="14.00" fill="#666666">[bigint]</text>
<polygon fill="none" stroke="#000000" points="1523,-970.5 1523,-1000.5 1776,-1000.5 1776,-970.5 1523,-970.5"/>
<text text-anchor="start" x="1530" y="-981.9" font-family="Arial" font-size="14.00" fill="#000000">room_id </text>
<text text-anchor="start" x="1584.4488" y="-981.9" font-family="Arial" font-size="14.00" fill="#666666">[bigint]</text>
<polygon fill="none" stroke="#000000" points="1523,-940.5 1523,-970.5 1776,-970.5 1776,-940.5 1523,-940.5"/>
<text text-anchor="start" x="1530" y="-951.9" font-family="Arial" font-size="14.00" fill="#000000">user_id </text>
<text text-anchor="start" x="1579.7882" y="-951.9" font-family="Arial" font-size="14.00" fill="#666666">[bigint]</text>
<polygon fill="none" stroke="#000000" points="1523,-910.5 1523,-940.5 1776,-940.5 1776,-910.5 1523,-910.5"/>
<text text-anchor="start" x="1530" y="-921.9" font-family="Arial" font-size="14.00" fill="#000000">created_at </text>
<text text-anchor="start" x="1600.028" y="-921.9" font-family="Arial" font-size="14.00" fill="#666666">[timestamp with time zone]</text>
<polygon fill="none" stroke="#000000" points="1523,-880.5 1523,-910.5 1776,-910.5 1776,-880.5 1523,-880.5"/>
<text text-anchor="start" x="1529.6915" y="-891.9" font-family="Arial" font-size="14.00" fill="#000000">updated_at </text>
<text text-anchor="start" x="1603.6241" y="-891.9" font-family="Arial" font-size="14.00" fill="#666666">[timestamp with time zone]</text>
</g>
<!-- public.entries&#45;&gt;public.users -->
<g id="edge5" class="edge">
<title>public.entries:user_id&#45;&gt;public.users:id</title>
<path fill="none" stroke="#000000" d="M1786.1976,-953.6498C1862.9472,-923.7114 1775.3202,-540.5 1866,-540.5"/>
<polygon fill="#000000" stroke="#000000" points="1785.8394,-953.7147 1775.1966,-951.0723 1780.9197,-954.6073 1776,-955.5 1776,-955.5 1776,-955.5 1780.9197,-954.6073 1776.8034,-959.9277 1785.8394,-953.7147 1785.8394,-953.7147"/>
<text text-anchor="start" x="1436.329" y="-939.5" font-family="Arial" font-size="10.00" fill="#000000">FOREIGN KEY (user_id) REFERENCES users(id) ON DELETE SET NULL</text>
</g>
<!-- public.room_read_managements -->
<g id="node7" class="node">
<title>public.room_read_managements</title>
<polygon fill="#efefef" stroke="transparent" points="1880,-1045.5 1880,-1080.5 2254,-1080.5 2254,-1045.5 1880,-1045.5"/>
<polygon fill="none" stroke="#000000" points="1880,-1045.5 1880,-1080.5 2254,-1080.5 2254,-1045.5 1880,-1045.5"/>
<text text-anchor="start" x="1886.8435" y="-1058.3" font-family="Arial Bold" font-size="18.00" fill="#000000">public.room_read_managements</text>
<text text-anchor="start" x="2149.9027" y="-1058.3" font-family="Arial" font-size="14.00" fill="#000000"> </text>
<text text-anchor="start" x="2153.7933" y="-1058.3" font-family="Arial" font-size="14.00" fill="#666666">[BASE TABLE]</text>
<polygon fill="none" stroke="#000000" points="1880,-1015.5 1880,-1045.5 2254,-1045.5 2254,-1015.5 1880,-1015.5"/>
<text text-anchor="start" x="1887" y="-1026.9" font-family="Arial" font-size="14.00" fill="#000000">id </text>
<text text-anchor="start" x="1901.7798" y="-1026.9" font-family="Arial" font-size="14.00" fill="#666666">[bigint]</text>
<polygon fill="none" stroke="#000000" points="1880,-985.5 1880,-1015.5 2254,-1015.5 2254,-985.5 1880,-985.5"/>
<text text-anchor="start" x="1887" y="-996.9" font-family="Arial" font-size="14.00" fill="#000000">last_read_at </text>
<text text-anchor="start" x="1967.9172" y="-996.9" font-family="Arial" font-size="14.00" fill="#666666">[timestamp with time zone]</text>
<polygon fill="none" stroke="#000000" points="1880,-955.5 1880,-985.5 2254,-985.5 2254,-955.5 1880,-955.5"/>
<text text-anchor="start" x="1887" y="-966.9" font-family="Arial" font-size="14.00" fill="#000000">room_id </text>
<text text-anchor="start" x="1941.4488" y="-966.9" font-family="Arial" font-size="14.00" fill="#666666">[bigint]</text>
<polygon fill="none" stroke="#000000" points="1880,-925.5 1880,-955.5 2254,-955.5 2254,-925.5 1880,-925.5"/>
<text text-anchor="start" x="1887" y="-936.9" font-family="Arial" font-size="14.00" fill="#000000">user_id </text>
<text text-anchor="start" x="1936.7882" y="-936.9" font-family="Arial" font-size="14.00" fill="#666666">[bigint]</text>
<polygon fill="none" stroke="#000000" points="1880,-895.5 1880,-925.5 2254,-925.5 2254,-895.5 1880,-895.5"/>
<text text-anchor="start" x="1887" y="-906.9" font-family="Arial" font-size="14.00" fill="#000000">created_at </text>
<text text-anchor="start" x="1957.028" y="-906.9" font-family="Arial" font-size="14.00" fill="#666666">[timestamp with time zone]</text>
<polygon fill="none" stroke="#000000" points="1880,-865.5 1880,-895.5 2254,-895.5 2254,-865.5 1880,-865.5"/>
<text text-anchor="start" x="1887" y="-876.9" font-family="Arial" font-size="14.00" fill="#000000">updated_at </text>
<text text-anchor="start" x="1960.9326" y="-876.9" font-family="Arial" font-size="14.00" fill="#666666">[timestamp with time zone]</text>
</g>
<!-- public.room_read_managements&#45;&gt;public.users -->
<g id="edge6" class="edge">
<title>public.room_read_managements:user_id&#45;&gt;public.users:id</title>
<path fill="none" stroke="#000000" d="M2262.684,-935.1479C2300.1125,-887.6817 2309.4316,-540.5 2268,-540.5"/>
<polygon fill="#000000" stroke="#000000" points="2262.5131,-935.2533 2251.639,-936.6691 2258.2565,-937.8766 2254,-940.5 2254,-940.5 2254,-940.5 2258.2565,-937.8766 2256.361,-944.3309 2262.5131,-935.2533 2262.5131,-935.2533"/>
<text text-anchor="start" x="2261.329" y="-950.5" font-family="Arial" font-size="10.00" fill="#000000">FOREIGN KEY (user_id) REFERENCES users(id) ON DELETE SET NULL</text>
</g>
<!-- public.relationships -->
<g id="node8" class="node">
<title>public.relationships</title>
<polygon fill="#efefef" stroke="transparent" points="2358,-1030.5 2358,-1065.5 2622,-1065.5 2622,-1030.5 2358,-1030.5"/>
<polygon fill="none" stroke="#000000" points="2358,-1030.5 2358,-1065.5 2622,-1065.5 2622,-1030.5 2358,-1030.5"/>
<text text-anchor="start" x="2364.8614" y="-1043.3" font-family="Arial Bold" font-size="18.00" fill="#000000">public.relationships</text>
<text text-anchor="start" x="2517.8848" y="-1043.3" font-family="Arial" font-size="14.00" fill="#000000"> </text>
<text text-anchor="start" x="2521.7754" y="-1043.3" font-family="Arial" font-size="14.00" fill="#666666">[BASE TABLE]</text>
<polygon fill="none" stroke="#000000" points="2358,-1000.5 2358,-1030.5 2622,-1030.5 2622,-1000.5 2358,-1000.5"/>
<text text-anchor="start" x="2365" y="-1011.9" font-family="Arial" font-size="14.00" fill="#000000">id </text>
<text text-anchor="start" x="2379.7798" y="-1011.9" font-family="Arial" font-size="14.00" fill="#666666">[bigint]</text>
<polygon fill="none" stroke="#000000" points="2358,-970.5 2358,-1000.5 2622,-1000.5 2622,-970.5 2358,-970.5"/>
<text text-anchor="start" x="2365" y="-981.9" font-family="Arial" font-size="14.00" fill="#000000">follower_id </text>
<text text-anchor="start" x="2435.7812" y="-981.9" font-family="Arial" font-size="14.00" fill="#666666">[bigint]</text>
<polygon fill="none" stroke="#000000" points="2358,-940.5 2358,-970.5 2622,-970.5 2622,-940.5 2358,-940.5"/>
<text text-anchor="start" x="2365" y="-951.9" font-family="Arial" font-size="14.00" fill="#000000">followed_id </text>
<text text-anchor="start" x="2438.9032" y="-951.9" font-family="Arial" font-size="14.00" fill="#666666">[bigint]</text>
<polygon fill="none" stroke="#000000" points="2358,-910.5 2358,-940.5 2622,-940.5 2622,-910.5 2358,-910.5"/>
<text text-anchor="start" x="2365" y="-921.9" font-family="Arial" font-size="14.00" fill="#000000">created_at </text>
<text text-anchor="start" x="2435.028" y="-921.9" font-family="Arial" font-size="14.00" fill="#666666">[timestamp with time zone]</text>
<polygon fill="none" stroke="#000000" points="2358,-880.5 2358,-910.5 2622,-910.5 2622,-880.5 2358,-880.5"/>
<text text-anchor="start" x="2365" y="-891.9" font-family="Arial" font-size="14.00" fill="#000000">updated_at </text>
<text text-anchor="start" x="2438.9326" y="-891.9" font-family="Arial" font-size="14.00" fill="#666666">[timestamp with time zone]</text>
</g>
<!-- public.relationships&#45;&gt;public.users -->
<g id="edge7" class="edge">
<title>public.relationships:followed_id&#45;&gt;public.users:id</title>
<path fill="none" stroke="#000000" d="M2347.8024,-953.6498C2271.0528,-923.7114 2358.6798,-540.5 2268,-540.5"/>
<polygon fill="#000000" stroke="#000000" points="2348.1606,-953.7147 2357.1966,-959.9277 2353.0803,-954.6073 2358,-955.5 2358,-955.5 2358,-955.5 2353.0803,-954.6073 2358.8034,-951.0723 2348.1606,-953.7147 2348.1606,-953.7147"/>
<text text-anchor="start" x="2091.691" y="-939.5" font-family="Arial" font-size="10.00" fill="#000000">FOREIGN KEY (followed_id) REFERENCES users(id) ON DELETE CASCADE</text>
</g>
<!-- public.relationships&#45;&gt;public.users -->
<g id="edge8" class="edge">
<title>public.relationships:follower_id&#45;&gt;public.users:id</title>
<path fill="none" stroke="#000000" d="M2348.1292,-983.8887C2264.7057,-954.7609 2365.3441,-540.5 2268,-540.5"/>
<polygon fill="#000000" stroke="#000000" points="2348.1306,-983.8888 2357.275,-989.9412 2353.0653,-984.6944 2358,-985.5 2358,-985.5 2358,-985.5 2353.0653,-984.6944 2358.725,-981.0588 2348.1306,-983.8888 2348.1306,-983.8888"/>
<text text-anchor="start" x="2002.556" y="-995.5" font-family="Arial" font-size="10.00" fill="#000000">FOREIGN KEY (follower_id) REFERENCES users(id) ON DELETE CASCADE</text>
</g>
<!-- public.authentications -->
<g id="node9" class="node">
<title>public.authentications</title>
<polygon fill="#efefef" stroke="transparent" points="2726,-1045.5 2726,-1080.5 3010,-1080.5 3010,-1045.5 2726,-1045.5"/>
<polygon fill="none" stroke="#000000" points="2726,-1045.5 2726,-1080.5 3010,-1080.5 3010,-1045.5 2726,-1045.5"/>
<text text-anchor="start" x="2732.8462" y="-1058.3" font-family="Arial Bold" font-size="18.00" fill="#000000">public.authentications</text>
<text text-anchor="start" x="2905.9" y="-1058.3" font-family="Arial" font-size="14.00" fill="#000000"> </text>
<text text-anchor="start" x="2909.7906" y="-1058.3" font-family="Arial" font-size="14.00" fill="#666666">[BASE TABLE]</text>
<polygon fill="none" stroke="#000000" points="2726,-1015.5 2726,-1045.5 3010,-1045.5 3010,-1015.5 2726,-1015.5"/>
<text text-anchor="start" x="2733" y="-1026.9" font-family="Arial" font-size="14.00" fill="#000000">id </text>
<text text-anchor="start" x="2747.7798" y="-1026.9" font-family="Arial" font-size="14.00" fill="#666666">[bigint]</text>
<polygon fill="none" stroke="#000000" points="2726,-985.5 2726,-1015.5 3010,-1015.5 3010,-985.5 2726,-985.5"/>
<text text-anchor="start" x="2733" y="-996.9" font-family="Arial" font-size="14.00" fill="#000000">provider </text>
<text text-anchor="start" x="2787.4488" y="-996.9" font-family="Arial" font-size="14.00" fill="#666666">[auth_provider]</text>
<polygon fill="none" stroke="#000000" points="2726,-955.5 2726,-985.5 3010,-985.5 3010,-955.5 2726,-955.5"/>
<text text-anchor="start" x="2733" y="-966.9" font-family="Arial" font-size="14.00" fill="#000000">uid </text>
<text text-anchor="start" x="2755.5624" y="-966.9" font-family="Arial" font-size="14.00" fill="#666666">[varchar]</text>
<polygon fill="none" stroke="#000000" points="2726,-925.5 2726,-955.5 3010,-955.5 3010,-925.5 2726,-925.5"/>
<text text-anchor="start" x="2733" y="-936.9" font-family="Arial" font-size="14.00" fill="#000000">user_id </text>
<text text-anchor="start" x="2782.7882" y="-936.9" font-family="Arial" font-size="14.00" fill="#666666">[bigint]</text>
<polygon fill="none" stroke="#000000" points="2726,-895.5 2726,-925.5 3010,-925.5 3010,-895.5 2726,-895.5"/>
<text text-anchor="start" x="2733" y="-906.9" font-family="Arial" font-size="14.00" fill="#000000">created_at </text>
<text text-anchor="start" x="2803.028" y="-906.9" font-family="Arial" font-size="14.00" fill="#666666">[timestamp with time zone]</text>
<polygon fill="none" stroke="#000000" points="2726,-865.5 2726,-895.5 3010,-895.5 3010,-865.5 2726,-865.5"/>
<text text-anchor="start" x="2733" y="-876.9" font-family="Arial" font-size="14.00" fill="#000000">updated_at </text>
<text text-anchor="start" x="2806.9326" y="-876.9" font-family="Arial" font-size="14.00" fill="#666666">[timestamp with time zone]</text>
</g>
<!-- public.authentications&#45;&gt;public.users -->
<g id="edge9" class="edge">
<title>public.authentications:user_id&#45;&gt;public.users:id</title>
<path fill="none" stroke="#000000" d="M2715.73,-940.0214C2613.7155,-929.8778 2751.7667,-761.0132 2674,-673 2611.1595,-601.8797 2362.9053,-540.5 2268,-540.5"/>
<polygon fill="#000000" stroke="#000000" points="2716.0108,-940.0344 2725.7905,-944.9951 2721.0054,-940.2672 2726,-940.5 2726,-940.5 2726,-940.5 2721.0054,-940.2672 2726.2095,-936.0049 2716.0108,-940.0344 2716.0108,-940.0344"/>
<text text-anchor="start" x="2733.0535" y="-950.5" font-family="Arial" font-size="10.00" fill="#000000">FOREIGN KEY (user_id) REFERENCES users(id) ON DELETE CASCADE</text>
</g>
<!-- public.user_activity_areas -->
<g id="node10" class="node">
<title>public.user_activity_areas</title>
<polygon fill="#efefef" stroke="transparent" points="3114,-1030.5 3114,-1065.5 3432,-1065.5 3432,-1030.5 3114,-1030.5"/>
<polygon fill="none" stroke="#000000" points="3114,-1030.5 3114,-1065.5 3432,-1065.5 3432,-1030.5 3114,-1030.5"/>
<text text-anchor="start" x="3120.8551" y="-1043.3" font-family="Arial Bold" font-size="18.00" fill="#000000">public.user_activity_areas</text>
<text text-anchor="start" x="3327.8911" y="-1043.3" font-family="Arial" font-size="14.00" fill="#000000"> </text>
<text text-anchor="start" x="3331.7817" y="-1043.3" font-family="Arial" font-size="14.00" fill="#666666">[BASE TABLE]</text>
<polygon fill="none" stroke="#000000" points="3114,-1000.5 3114,-1030.5 3432,-1030.5 3432,-1000.5 3114,-1000.5"/>
<text text-anchor="start" x="3121" y="-1011.9" font-family="Arial" font-size="14.00" fill="#000000">id </text>
<text text-anchor="start" x="3135.7798" y="-1011.9" font-family="Arial" font-size="14.00" fill="#666666">[bigint]</text>
<polygon fill="none" stroke="#000000" points="3114,-970.5 3114,-1000.5 3432,-1000.5 3432,-970.5 3114,-970.5"/>
<text text-anchor="start" x="3121" y="-981.9" font-family="Arial" font-size="14.00" fill="#000000">user_id </text>
<text text-anchor="start" x="3170.7882" y="-981.9" font-family="Arial" font-size="14.00" fill="#666666">[bigint]</text>
<polygon fill="none" stroke="#000000" points="3114,-940.5 3114,-970.5 3432,-970.5 3432,-940.5 3114,-940.5"/>
<text text-anchor="start" x="3121" y="-951.9" font-family="Arial" font-size="14.00" fill="#000000">prefecture_id </text>
<text text-anchor="start" x="3206.5778" y="-951.9" font-family="Arial" font-size="14.00" fill="#666666">[bigint]</text>
<polygon fill="none" stroke="#000000" points="3114,-910.5 3114,-940.5 3432,-940.5 3432,-910.5 3114,-910.5"/>
<text text-anchor="start" x="3121" y="-921.9" font-family="Arial" font-size="14.00" fill="#000000">created_at </text>
<text text-anchor="start" x="3191.028" y="-921.9" font-family="Arial" font-size="14.00" fill="#666666">[timestamp with time zone]</text>
<polygon fill="none" stroke="#000000" points="3114,-880.5 3114,-910.5 3432,-910.5 3432,-880.5 3114,-880.5"/>
<text text-anchor="start" x="3121" y="-891.9" font-family="Arial" font-size="14.00" fill="#000000">updated_at </text>
<text text-anchor="start" x="3194.9326" y="-891.9" font-family="Arial" font-size="14.00" fill="#666666">[timestamp with time zone]</text>
</g>
<!-- public.user_activity_areas&#45;&gt;public.users -->
<g id="edge10" class="edge">
<title>public.user_activity_areas:user_id&#45;&gt;public.users:id</title>
<path fill="none" stroke="#000000" d="M3103.981,-983.378C3050.4623,-958.3846 3109.1438,-720.1656 3062,-673 2935.539,-546.4803 2446.8844,-540.5 2268,-540.5"/>
<polygon fill="#000000" stroke="#000000" points="3104.217,-983.4279 3113.0676,-989.9023 3109.1085,-984.464 3114,-985.5 3114,-985.5 3114,-985.5 3109.1085,-984.464 3114.9324,-981.0977 3104.217,-983.4279 3104.217,-983.4279"/>
<text text-anchor="start" x="2774.0535" y="-995.5" font-family="Arial" font-size="10.00" fill="#000000">FOREIGN KEY (user_id) REFERENCES users(id) ON DELETE CASCADE</text>
</g>
<!-- public.user_play_sports -->
<g id="node11" class="node">
<title>public.user_play_sports</title>
<polygon fill="#efefef" stroke="transparent" points="3536,-1030.5 3536,-1065.5 3836,-1065.5 3836,-1030.5 3536,-1030.5"/>
<polygon fill="none" stroke="#000000" points="3536,-1030.5 3536,-1065.5 3836,-1065.5 3836,-1030.5 3536,-1030.5"/>
<text text-anchor="start" x="3542.8533" y="-1043.3" font-family="Arial Bold" font-size="18.00" fill="#000000">public.user_play_sports</text>
<text text-anchor="start" x="3731.8929" y="-1043.3" font-family="Arial" font-size="14.00" fill="#000000"> </text>
<text text-anchor="start" x="3735.7835" y="-1043.3" font-family="Arial" font-size="14.00" fill="#666666">[BASE TABLE]</text>
<polygon fill="none" stroke="#000000" points="3536,-1000.5 3536,-1030.5 3836,-1030.5 3836,-1000.5 3536,-1000.5"/>
<text text-anchor="start" x="3543" y="-1011.9" font-family="Arial" font-size="14.00" fill="#000000">id </text>
<text text-anchor="start" x="3557.7798" y="-1011.9" font-family="Arial" font-size="14.00" fill="#666666">[bigint]</text>
<polygon fill="none" stroke="#000000" points="3536,-970.5 3536,-1000.5 3836,-1000.5 3836,-970.5 3536,-970.5"/>
<text text-anchor="start" x="3543" y="-981.9" font-family="Arial" font-size="14.00" fill="#000000">user_id </text>
<text text-anchor="start" x="3592.7882" y="-981.9" font-family="Arial" font-size="14.00" fill="#666666">[bigint]</text>
<polygon fill="none" stroke="#000000" points="3536,-940.5 3536,-970.5 3836,-970.5 3836,-940.5 3536,-940.5"/>
<text text-anchor="start" x="3543" y="-951.9" font-family="Arial" font-size="14.00" fill="#000000">sport_id </text>
<text text-anchor="start" x="3596.6788" y="-951.9" font-family="Arial" font-size="14.00" fill="#666666">[bigint]</text>
<polygon fill="none" stroke="#000000" points="3536,-910.5 3536,-940.5 3836,-940.5 3836,-910.5 3536,-910.5"/>
<text text-anchor="start" x="3543" y="-921.9" font-family="Arial" font-size="14.00" fill="#000000">created_at </text>
<text text-anchor="start" x="3613.028" y="-921.9" font-family="Arial" font-size="14.00" fill="#666666">[timestamp with time zone]</text>
<polygon fill="none" stroke="#000000" points="3536,-880.5 3536,-910.5 3836,-910.5 3836,-880.5 3536,-880.5"/>
<text text-anchor="start" x="3543" y="-891.9" font-family="Arial" font-size="14.00" fill="#000000">updated_at </text>
<text text-anchor="start" x="3616.9326" y="-891.9" font-family="Arial" font-size="14.00" fill="#666666">[timestamp with time zone]</text>
</g>
<!-- public.user_play_sports&#45;&gt;public.users -->
<g id="edge11" class="edge">
<title>public.user_play_sports:user_id&#45;&gt;public.users:id</title>
<path fill="none" stroke="#000000" d="M3525.992,-983.3667C3472.6016,-958.2413 3532.4645,-718.8075 3484,-673 3385.2271,-579.6422 2403.9108,-540.5 2268,-540.5"/>
<polygon fill="#000000" stroke="#000000" points="3526.2197,-983.4152 3535.0618,-989.9011 3531.1099,-984.4576 3536,-985.5 3536,-985.5 3536,-985.5 3531.1099,-984.4576 3536.9382,-981.0989 3526.2197,-983.4152 3526.2197,-983.4152"/>
<text text-anchor="start" x="3543.0535" y="-995.5" font-family="Arial" font-size="10.00" fill="#000000">FOREIGN KEY (user_id) REFERENCES users(id) ON DELETE CASCADE</text>
</g>
</g>
</svg>
