<?xml version="1.0" encoding="UTF-8" standalone="no"?>
<!DOCTYPE svg PUBLIC "-//W3C//DTD SVG 1.1//EN"
 "http://www.w3.org/Graphics/SVG/1.1/DTD/svg11.dtd">
<!-- Generated by graphviz version 2.40.1 (20161225.0304)
 -->
<!-- Title: public.user_play_sports Pages: 1 -->
<svg width="1008pt" height="952pt"
 viewBox="0.00 0.00 1008.00 952.00" xmlns="http://www.w3.org/2000/svg" xmlns:xlink="http://www.w3.org/1999/xlink">
<g id="graph0" class="graph" transform="scale(1 1) rotate(0) translate(4 948)">
<title>public.user_play_sports</title>
<polygon fill="#ffffff" stroke="transparent" points="-4,4 -4,-948 1004,-948 1004,4 -4,4"/>
<!-- public.user_play_sports -->
<g id="node1" class="node">
<title>public.user_play_sports</title>
<polygon fill="#efefef" stroke="transparent" points="347,-862.5 347,-897.5 647,-897.5 647,-862.5 347,-862.5"/>
<polygon fill="none" stroke="#000000" points="347,-862.5 347,-897.5 647,-897.5 647,-862.5 347,-862.5"/>
<text text-anchor="start" x="353.8533" y="-875.3" font-family="Arial Bold" font-size="18.00" fill="#000000">public.user_play_sports</text>
<text text-anchor="start" x="542.8929" y="-875.3" font-family="Arial" font-size="14.00" fill="#000000"> </text>
<text text-anchor="start" x="546.7835" y="-875.3" font-family="Arial" font-size="14.00" fill="#666666">[BASE TABLE]</text>
<polygon fill="none" stroke="#000000" points="347,-832.5 347,-862.5 647,-862.5 647,-832.5 347,-832.5"/>
<text text-anchor="start" x="354" y="-843.9" font-family="Arial" font-size="14.00" fill="#000000">id </text>
<text text-anchor="start" x="368.7798" y="-843.9" font-family="Arial" font-size="14.00" fill="#666666">[bigint]</text>
<polygon fill="none" stroke="#000000" points="347,-802.5 347,-832.5 647,-832.5 647,-802.5 347,-802.5"/>
<text text-anchor="start" x="354" y="-813.9" font-family="Arial" font-size="14.00" fill="#000000">user_id </text>
<text text-anchor="start" x="403.7882" y="-813.9" font-family="Arial" font-size="14.00" fill="#666666">[bigint]</text>
<polygon fill="none" stroke="#000000" points="347,-772.5 347,-802.5 647,-802.5 647,-772.5 347,-772.5"/>
<text text-anchor="start" x="354" y="-783.9" font-family="Arial" font-size="14.00" fill="#000000">sport_id </text>
<text text-anchor="start" x="407.6788" y="-783.9" font-family="Arial" font-size="14.00" fill="#666666">[bigint]</text>
<polygon fill="none" stroke="#000000" points="347,-742.5 347,-772.5 647,-772.5 647,-742.5 347,-742.5"/>
<text text-anchor="start" x="354" y="-753.9" font-family="Arial" font-size="14.00" fill="#000000">created_at </text>
<text text-anchor="start" x="424.028" y="-753.9" font-family="Arial" font-size="14.00" fill="#666666">[timestamp with time zone]</text>
<polygon fill="none" stroke="#000000" points="347,-712.5 347,-742.5 647,-742.5 647,-712.5 347,-712.5"/>
<text text-anchor="start" x="354" y="-723.9" font-family="Arial" font-size="14.00" fill="#000000">updated_at </text>
<text text-anchor="start" x="427.9326" y="-723.9" font-family="Arial" font-size="14.00" fill="#666666">[timestamp with time zone]</text>
<polygon fill="none" stroke="#000000" stroke-width="3" points="345.5,-711.5 345.5,-899.5 648.5,-899.5 648.5,-711.5 345.5,-711.5"/>
</g>
<!-- public.users -->
<g id="node2" class="node">
<title>public.users</title>
<polygon fill="#efefef" stroke="transparent" points="80,-552.5 80,-587.5 482,-587.5 482,-552.5 80,-552.5"/>
<polygon fill="none" stroke="#000000" points="80,-552.5 80,-587.5 482,-587.5 482,-552.5 80,-552.5"/>
<text text-anchor="start" x="184.3662" y="-565.3" font-family="Arial Bold" font-size="18.00" fill="#000000">public.users</text>
<text text-anchor="start" x="280.38" y="-565.3" font-family="Arial" font-size="14.00" fill="#000000"> </text>
<text text-anchor="start" x="284.2706" y="-565.3" font-family="Arial" font-size="14.00" fill="#666666">[BASE TABLE]</text>
<polygon fill="none" stroke="#000000" points="80,-522.5 80,-552.5 482,-552.5 482,-522.5 80,-522.5"/>
<text text-anchor="start" x="87" y="-533.9" font-family="Arial" font-size="14.00" fill="#000000">id </text>
<text text-anchor="start" x="101.7798" y="-533.9" font-family="Arial" font-size="14.00" fill="#666666">[bigint]</text>
<polygon fill="none" stroke="#000000" points="80,-492.5 80,-522.5 482,-522.5 482,-492.5 80,-492.5"/>
<text text-anchor="start" x="87" y="-503.9" font-family="Arial" font-size="14.00" fill="#000000">name </text>
<text text-anchor="start" x="125.899" y="-503.9" font-family="Arial" font-size="14.00" fill="#666666">[varchar(50)]</text>
<polygon fill="none" stroke="#000000" points="80,-462.5 80,-492.5 482,-492.5 482,-462.5 80,-462.5"/>
<text text-anchor="start" x="87" y="-473.9" font-family="Arial" font-size="14.00" fill="#000000">email </text>
<text text-anchor="start" x="124.3296" y="-473.9" font-family="Arial" font-size="14.00" fill="#666666">[varchar(100)]</text>
<polygon fill="none" stroke="#000000" points="80,-432.5 80,-462.5 482,-462.5 482,-432.5 80,-432.5"/>
<text text-anchor="start" x="87" y="-443.9" font-family="Arial" font-size="14.00" fill="#000000">role </text>
<text text-anchor="start" x="114.223" y="-443.9" font-family="Arial" font-size="14.00" fill="#666666">[user_role]</text>
<polygon fill="none" stroke="#000000" points="80,-402.5 80,-432.5 482,-432.5 482,-402.5 80,-402.5"/>
<text text-anchor="start" x="87" y="-413.9" font-family="Arial" font-size="14.00" fill="#000000">avatar </text>
<text text-anchor="start" x="129.7896" y="-413.9" font-family="Arial" font-size="14.00" fill="#666666">[varchar]</text>
<polygon fill="none" stroke="#000000" points="80,-372.5 80,-402.5 482,-402.5 482,-372.5 80,-372.5"/>
<text text-anchor="start" x="87" y="-383.9" font-family="Arial" font-size="14.00" fill="#000000">introduction </text>
<text text-anchor="start" x="163.2412" y="-383.9" font-family="Arial" font-size="14.00" fill="#666666">[varchar(160)]</text>
<polygon fill="none" stroke="#000000" points="80,-342.5 80,-372.5 482,-372.5 482,-342.5 80,-342.5"/>
<text text-anchor="start" x="87" y="-353.9" font-family="Arial" font-size="14.00" fill="#000000">email_verification_status </text>
<text text-anchor="start" x="244.1332" y="-353.9" font-family="Arial" font-size="14.00" fill="#666666">[email_verification_status]</text>
<polygon fill="none" stroke="#000000" points="80,-312.5 80,-342.5 482,-342.5 482,-312.5 80,-312.5"/>
<text text-anchor="start" x="87" y="-323.9" font-family="Arial" font-size="14.00" fill="#000000">email_verification_code </text>
<text text-anchor="start" x="237.1346" y="-323.9" font-family="Arial" font-size="14.00" fill="#666666">[varchar]</text>
<polygon fill="none" stroke="#000000" points="80,-282.5 80,-312.5 482,-312.5 482,-282.5 80,-282.5"/>
<text text-anchor="start" x="86.9138" y="-293.9" font-family="Arial" font-size="14.00" fill="#000000">email_verification_code_expires_at </text>
<text text-anchor="start" x="309.4018" y="-293.9" font-family="Arial" font-size="14.00" fill="#666666">[timestamp with time zone]</text>
<polygon fill="none" stroke="#000000" points="80,-252.5 80,-282.5 482,-282.5 482,-252.5 80,-252.5"/>
<text text-anchor="start" x="87" y="-263.9" font-family="Arial" font-size="14.00" fill="#000000">password_digest </text>
<text text-anchor="start" x="195.9158" y="-263.9" font-family="Arial" font-size="14.00" fill="#666666">[varchar]</text>
<polygon fill="none" stroke="#000000" points="80,-222.5 80,-252.5 482,-252.5 482,-222.5 80,-222.5"/>
<text text-anchor="start" x="87" y="-233.9" font-family="Arial" font-size="14.00" fill="#000000">created_at </text>
<text text-anchor="start" x="157.028" y="-233.9" font-family="Arial" font-size="14.00" fill="#666666">[timestamp with time zone]</text>
<polygon fill="none" stroke="#000000" points="80,-192.5 80,-222.5 482,-222.5 482,-192.5 80,-192.5"/>
<text text-anchor="start" x="87" y="-203.9" font-family="Arial" font-size="14.00" fill="#000000">updated_at </text>
<text text-anchor="start" x="160.9326" y="-203.9" font-family="Arial" font-size="14.00" fill="#666666">[timestamp with time zone]</text>
<polygon fill="none" stroke="#000000" points="80,-162.5 80,-192.5 482,-192.5 482,-162.5 80,-162.5"/>
<text text-anchor="start" x="87" y="-173.9" font-family="Arial" font-size="14.00" fill="#000000">last_sign_in_at </text>
<text text-anchor="start" x="184.2524" y="-173.9" font-family="Arial" font-size="14.00" fill="#666666">[timestamp with time zone]</text>
<polygon fill="none" stroke="#000000" points="80,-132.5 80,-162.5 482,-162.5 482,-132.5 80,-132.5"/>
<text text-anchor="start" x="87" y="-143.9" font-family="Arial" font-size="14.00" fill="#000000">unverified_email </text>
<text text-anchor="start" x="192.7896" y="-143.9" font-family="Arial" font-size="14.00" fill="#666666">[varchar(100)]</text>
<polygon fill="none" stroke="#000000" points="80,-102.5 80,-132.5 482,-132.5 482,-102.5 80,-102.5"/>
<text text-anchor="start" x="87" y="-113.9" font-family="Arial" font-size="14.00" fill="#000000">password_reset_token </text>
<text text-anchor="start" x="231.7082" y="-113.9" font-family="Arial" font-size="14.00" fill="#666666">[varchar]</text>
<polygon fill="none" stroke="#000000" points="80,-72.5 80,-102.5 482,-102.5 482,-72.5 80,-72.5"/>
<text text-anchor="start" x="87" y="-83.9" font-family="Arial" font-size="14.00" fill="#000000">password_reset_token_expires_at </text>
<text text-anchor="start" x="304.0616" y="-83.9" font-family="Arial" font-size="14.00" fill="#666666">[timestamp with time zone]</text>
<polygon fill="none" stroke="#000000" points="80,-42.5 80,-72.5 482,-72.5 482,-42.5 80,-42.5"/>
<text text-anchor="start" x="87" y="-53.9" font-family="Arial" font-size="14.00" fill="#000000">website_url </text>
<text text-anchor="start" x="161.6746" y="-53.9" font-family="Arial" font-size="14.00" fill="#666666">[varchar]</text>
</g>
<!-- public.user_play_sports&#45;&gt;public.users -->
<g id="edge1" class="edge">
<title>public.user_play_sports:user_id&#45;&gt;public.users:id</title>
<path fill="none" stroke="#000000" d="M336.8479,-816.6488C283.0136,-806.9734 308.4774,-717.1414 347,-667 384.8316,-617.758 444.1684,-680.242 482,-631 507.3171,-598.0469 523.5556,-537.5 482,-537.5"/>
<polygon fill="#000000" stroke="#000000" points="337.035,-816.6644 346.624,-821.9843 342.0175,-817.0822 347,-817.5 347,-817.5 347,-817.5 342.0175,-817.0822 347.376,-813.0157 337.035,-816.6644 337.035,-816.6644"/>
<text text-anchor="start" x="7.0535" y="-827.5" font-family="Arial" font-size="10.00" fill="#000000">FOREIGN KEY (user_id) REFERENCES users(id) ON DELETE CASCADE</text>
</g>
<!-- public.sports -->
<g id="node3" class="node">
<title>public.sports</title>
<polygon fill="#efefef" stroke="transparent" points="587,-357.5 587,-392.5 840,-392.5 840,-357.5 587,-357.5"/>
<polygon fill="none" stroke="#000000" points="587,-357.5 587,-392.5 840,-392.5 840,-357.5 587,-357.5"/>
<text text-anchor="start" x="614.3651" y="-370.3" font-family="Arial Bold" font-size="18.00" fill="#000000">public.sports</text>
<text text-anchor="start" x="715.3811" y="-370.3" font-family="Arial" font-size="14.00" fill="#000000"> </text>
<text text-anchor="start" x="719.2717" y="-370.3" font-family="Arial" font-size="14.00" fill="#666666">[BASE TABLE]</text>
<polygon fill="none" stroke="#000000" points="587,-327.5 587,-357.5 840,-357.5 840,-327.5 587,-327.5"/>
<text text-anchor="start" x="594" y="-338.9" font-family="Arial" font-size="14.00" fill="#000000">id </text>
<text text-anchor="start" x="608.7798" y="-338.9" font-family="Arial" font-size="14.00" fill="#666666">[bigint]</text>
<polygon fill="none" stroke="#000000" points="587,-297.5 587,-327.5 840,-327.5 840,-297.5 587,-297.5"/>
<text text-anchor="start" x="594" y="-308.9" font-family="Arial" font-size="14.00" fill="#000000">name </text>
<text text-anchor="start" x="632.899" y="-308.9" font-family="Arial" font-size="14.00" fill="#666666">[varchar]</text>
<polygon fill="none" stroke="#000000" points="587,-267.5 587,-297.5 840,-297.5 840,-267.5 587,-267.5"/>
<text text-anchor="start" x="594" y="-278.9" font-family="Arial" font-size="14.00" fill="#000000">created_at </text>
<text text-anchor="start" x="664.028" y="-278.9" font-family="Arial" font-size="14.00" fill="#666666">[timestamp with time zone]</text>
<polygon fill="none" stroke="#000000" points="587,-237.5 587,-267.5 840,-267.5 840,-237.5 587,-237.5"/>
<text text-anchor="start" x="593.6915" y="-248.9" font-family="Arial" font-size="14.00" fill="#000000">updated_at </text>
<text text-anchor="start" x="667.6241" y="-248.9" font-family="Arial" font-size="14.00" fill="#666666">[timestamp with time zone]</text>
</g>
<!-- public.user_play_sports&#45;&gt;public.sports -->
<g id="edge2" class="edge">
<title>public.user_play_sports:sport_id&#45;&gt;public.sports:id</title>
<path fill="none" stroke="#000000" d="M657.1792,-787.0695C830.1926,-771.5661 391.038,-342.5 587,-342.5"/>
<polygon fill="#000000" stroke="#000000" points="656.9911,-787.0774 646.8098,-783.004 651.9955,-787.2887 647,-787.5 647,-787.5 647,-787.5 651.9955,-787.2887 647.1902,-791.996 656.9911,-787.0774 656.9911,-787.0774"/>
<text text-anchor="start" x="654.2745" y="-797.5" font-family="Arial" font-size="10.00" fill="#000000">FOREIGN KEY (sport_id) REFERENCES sports(id) ON DELETE CASCADE</text>
</g>
</g>
</svg>
