<?xml version="1.0" encoding="UTF-8" standalone="no"?>
<!DOCTYPE svg PUBLIC "-//W3C//DTD SVG 1.1//EN"
 "http://www.w3.org/Graphics/SVG/1.1/DTD/svg11.dtd">
<!-- Generated by graphviz version 2.40.1 (20161225.0304)
 -->
<!-- Title: public.tags Pages: 1 -->
<svg width="684pt" height="562pt"
 viewBox="0.00 0.00 683.50 562.00" xmlns="http://www.w3.org/2000/svg" xmlns:xlink="http://www.w3.org/1999/xlink">
<g id="graph0" class="graph" transform="scale(1 1) rotate(0) translate(4 558)">
<title>public.tags</title>
<polygon fill="#ffffff" stroke="transparent" points="-4,4 -4,-558 679.5,-558 679.5,4 -4,4"/>
<!-- public.tags -->
<g id="node1" class="node">
<title>public.tags</title>
<polygon fill="#efefef" stroke="transparent" points="358,-165.5 358,-200.5 611,-200.5 611,-165.5 358,-165.5"/>
<polygon fill="none" stroke="#000000" points="358,-165.5 358,-200.5 611,-200.5 611,-165.5 358,-165.5"/>
<text text-anchor="start" x="392.8612" y="-178.3" font-family="Arial Bold" font-size="18.00" fill="#000000">public.tags</text>
<text text-anchor="start" x="478.885" y="-178.3" font-family="Arial" font-size="14.00" fill="#000000"> </text>
<text text-anchor="start" x="482.7756" y="-178.3" font-family="Arial" font-size="14.00" fill="#666666">[BASE TABLE]</text>
<polygon fill="none" stroke="#000000" points="358,-135.5 358,-165.5 611,-165.5 611,-135.5 358,-135.5"/>
<text text-anchor="start" x="365" y="-146.9" font-family="Arial" font-size="14.00" fill="#000000">id </text>
<text text-anchor="start" x="379.7798" y="-146.9" font-family="Arial" font-size="14.00" fill="#666666">[bigint]</text>
<polygon fill="none" stroke="#000000" points="358,-105.5 358,-135.5 611,-135.5 611,-105.5 358,-105.5"/>
<text text-anchor="start" x="365" y="-116.9" font-family="Arial" font-size="14.00" fill="#000000">name </text>
<text text-anchor="start" x="403.899" y="-116.9" font-family="Arial" font-size="14.00" fill="#666666">[varchar]</text>
<polygon fill="none" stroke="#000000" points="358,-75.5 358,-105.5 611,-105.5 611,-75.5 358,-75.5"/>
<text text-anchor="start" x="365" y="-86.9" font-family="Arial" font-size="14.00" fill="#000000">created_at </text>
<text text-anchor="start" x="435.028" y="-86.9" font-family="Arial" font-size="14.00" fill="#666666">[timestamp with time zone]</text>
<polygon fill="none" stroke="#000000" points="358,-45.5 358,-75.5 611,-75.5 611,-45.5 358,-45.5"/>
<text text-anchor="start" x="364.6915" y="-56.9" font-family="Arial" font-size="14.00" fill="#000000">updated_at </text>
<text text-anchor="start" x="438.6241" y="-56.9" font-family="Arial" font-size="14.00" fill="#666666">[timestamp with time zone]</text>
<polygon fill="none" stroke="#000000" stroke-width="3" points="356,-44.5 356,-202.5 612,-202.5 612,-44.5 356,-44.5"/>
</g>
<!-- public.recruitment_tags -->
<g id="node2" class="node">
<title>public.recruitment_tags</title>
<polygon fill="#efefef" stroke="transparent" points="336,-475.5 336,-510.5 633,-510.5 633,-475.5 336,-475.5"/>
<polygon fill="none" stroke="#000000" points="336,-475.5 336,-510.5 633,-510.5 633,-475.5 336,-475.5"/>
<text text-anchor="start" x="342.8581" y="-488.3" font-family="Arial Bold" font-size="18.00" fill="#000000">public.recruitment_tags</text>
<text text-anchor="start" x="528.8881" y="-488.3" font-family="Arial" font-size="14.00" fill="#000000"> </text>
<text text-anchor="start" x="532.7787" y="-488.3" font-family="Arial" font-size="14.00" fill="#666666">[BASE TABLE]</text>
<polygon fill="none" stroke="#000000" points="336,-445.5 336,-475.5 633,-475.5 633,-445.5 336,-445.5"/>
<text text-anchor="start" x="343" y="-456.9" font-family="Arial" font-size="14.00" fill="#000000">id </text>
<text text-anchor="start" x="357.7798" y="-456.9" font-family="Arial" font-size="14.00" fill="#666666">[bigint]</text>
<polygon fill="none" stroke="#000000" points="336,-415.5 336,-445.5 633,-445.5 633,-415.5 336,-415.5"/>
<text text-anchor="start" x="343" y="-426.9" font-family="Arial" font-size="14.00" fill="#000000">recruitment_id </text>
<text text-anchor="start" x="435.5624" y="-426.9" font-family="Arial" font-size="14.00" fill="#666666">[bigint]</text>
<polygon fill="none" stroke="#000000" points="336,-385.5 336,-415.5 633,-415.5 633,-385.5 336,-385.5"/>
<text text-anchor="start" x="343" y="-396.9" font-family="Arial" font-size="14.00" fill="#000000">tag_id </text>
<text text-anchor="start" x="385.0182" y="-396.9" font-family="Arial" font-size="14.00" fill="#666666">[bigint]</text>
<polygon fill="none" stroke="#000000" points="336,-355.5 336,-385.5 633,-385.5 633,-355.5 336,-355.5"/>
<text text-anchor="start" x="343" y="-366.9" font-family="Arial" font-size="14.00" fill="#000000">created_at </text>
<text text-anchor="start" x="413.028" y="-366.9" font-family="Arial" font-size="14.00" fill="#666666">[timestamp with time zone]</text>
<polygon fill="none" stroke="#000000" points="336,-325.5 336,-355.5 633,-355.5 633,-325.5 336,-325.5"/>
<text text-anchor="start" x="343" y="-336.9" font-family="Arial" font-size="14.00" fill="#000000">updated_at </text>
<text text-anchor="start" x="416.9326" y="-336.9" font-family="Arial" font-size="14.00" fill="#666666">[timestamp with time zone]</text>
</g>
<!-- public.recruitment_tags&#45;&gt;public.tags -->
<g id="edge1" class="edge">
<title>public.recruitment_tags:tag_id&#45;&gt;public.tags:id</title>
<path fill="none" stroke="#000000" d="M325.933,-399.7828C225.9219,-385.1191 249.9451,-150.5 358,-150.5"/>
<polygon fill="#000000" stroke="#000000" points="326.0253,-399.7893 335.6802,-404.9886 331.0126,-400.1447 336,-400.5 336,-400.5 336,-400.5 331.0126,-400.1447 336.3198,-396.0114 326.0253,-399.7893 326.0253,-399.7893"/>
<text text-anchor="start" x="6.6035" y="-410.5" font-family="Arial" font-size="10.00" fill="#000000">FOREIGN KEY (tag_id) REFERENCES tags(id) ON DELETE CASCADE</text>
</g>
</g>
</svg>
