<?xml version="1.0" encoding="UTF-8" standalone="no"?>
<!DOCTYPE svg PUBLIC "-//W3C//DTD SVG 1.1//EN"
 "http://www.w3.org/Graphics/SVG/1.1/DTD/svg11.dtd">
<!-- Generated by graphviz version 2.40.1 (20161225.0304)
 -->
<!-- Title: public.prefectures Pages: 1 -->
<svg width="911pt" height="892pt"
 viewBox="0.00 0.00 911.00 892.00" xmlns="http://www.w3.org/2000/svg" xmlns:xlink="http://www.w3.org/1999/xlink">
<g id="graph0" class="graph" transform="scale(1 1) rotate(0) translate(4 888)">
<title>public.prefectures</title>
<polygon fill="#ffffff" stroke="transparent" points="-4,4 -4,-888 907,-888 907,4 -4,4"/>
<!-- public.prefectures -->
<g id="node1" class="node">
<title>public.prefectures</title>
<polygon fill="#efefef" stroke="transparent" points="339,-165.5 339,-200.5 592,-200.5 592,-165.5 339,-165.5"/>
<polygon fill="none" stroke="#000000" points="339,-165.5 339,-200.5 592,-200.5 592,-165.5 339,-165.5"/>
<text text-anchor="start" x="345.8586" y="-178.3" font-family="Arial Bold" font-size="18.00" fill="#000000">public.prefectures</text>
<text text-anchor="start" x="487.8876" y="-178.3" font-family="Arial" font-size="14.00" fill="#000000"> </text>
<text text-anchor="start" x="491.7782" y="-178.3" font-family="Arial" font-size="14.00" fill="#666666">[BASE TABLE]</text>
<polygon fill="none" stroke="#000000" points="339,-135.5 339,-165.5 592,-165.5 592,-135.5 339,-135.5"/>
<text text-anchor="start" x="346" y="-146.9" font-family="Arial" font-size="14.00" fill="#000000">id </text>
<text text-anchor="start" x="360.7798" y="-146.9" font-family="Arial" font-size="14.00" fill="#666666">[bigint]</text>
<polygon fill="none" stroke="#000000" points="339,-105.5 339,-135.5 592,-135.5 592,-105.5 339,-105.5"/>
<text text-anchor="start" x="346" y="-116.9" font-family="Arial" font-size="14.00" fill="#000000">name </text>
<text text-anchor="start" x="384.899" y="-116.9" font-family="Arial" font-size="14.00" fill="#666666">[varchar]</text>
<polygon fill="none" stroke="#000000" points="339,-75.5 339,-105.5 592,-105.5 592,-75.5 339,-75.5"/>
<text text-anchor="start" x="346" y="-86.9" font-family="Arial" font-size="14.00" fill="#000000">created_at </text>
<text text-anchor="start" x="416.028" y="-86.9" font-family="Arial" font-size="14.00" fill="#666666">[timestamp with time zone]</text>
<polygon fill="none" stroke="#000000" points="339,-45.5 339,-75.5 592,-75.5 592,-45.5 339,-45.5"/>
<text text-anchor="start" x="345.6915" y="-56.9" font-family="Arial" font-size="14.00" fill="#000000">updated_at </text>
<text text-anchor="start" x="419.6241" y="-56.9" font-family="Arial" font-size="14.00" fill="#666666">[timestamp with time zone]</text>
<polygon fill="none" stroke="#000000" stroke-width="3" points="337,-44.5 337,-202.5 593,-202.5 593,-44.5 337,-44.5"/>
</g>
<!-- public.recruitments -->
<g id="node2" class="node">
<title>public.recruitments</title>
<polygon fill="#efefef" stroke="transparent" points="138,-805.5 138,-840.5 400,-840.5 400,-805.5 138,-805.5"/>
<polygon fill="none" stroke="#000000" points="138,-805.5 138,-840.5 400,-840.5 400,-805.5 138,-805.5"/>
<text text-anchor="start" x="144.8685" y="-818.3" font-family="Arial Bold" font-size="18.00" fill="#000000">public.recruitments</text>
<text text-anchor="start" x="295.8777" y="-818.3" font-family="Arial" font-size="14.00" fill="#000000"> </text>
<text text-anchor="start" x="299.7683" y="-818.3" font-family="Arial" font-size="14.00" fill="#666666">[BASE TABLE]</text>
<polygon fill="none" stroke="#000000" points="138,-775.5 138,-805.5 400,-805.5 400,-775.5 138,-775.5"/>
<text text-anchor="start" x="145" y="-786.9" font-family="Arial" font-size="14.00" fill="#000000">id </text>
<text text-anchor="start" x="159.7798" y="-786.9" font-family="Arial" font-size="14.00" fill="#666666">[bigint]</text>
<polygon fill="none" stroke="#000000" points="138,-745.5 138,-775.5 400,-775.5 400,-745.5 138,-745.5"/>
<text text-anchor="start" x="145" y="-756.9" font-family="Arial" font-size="14.00" fill="#000000">title </text>
<text text-anchor="start" x="170.6676" y="-756.9" font-family="Arial" font-size="14.00" fill="#666666">[varchar(60)]</text>
<polygon fill="none" stroke="#000000" points="138,-715.5 138,-745.5 400,-745.5 400,-715.5 138,-715.5"/>
<text text-anchor="start" x="145" y="-726.9" font-family="Arial" font-size="14.00" fill="#000000">type </text>
<text text-anchor="start" x="175.3464" y="-726.9" font-family="Arial" font-size="14.00" fill="#666666">[varchar]</text>
<polygon fill="none" stroke="#000000" points="138,-685.5 138,-715.5 400,-715.5 400,-685.5 138,-685.5"/>
<text text-anchor="start" x="145" y="-696.9" font-family="Arial" font-size="14.00" fill="#000000">venue </text>
<text text-anchor="start" x="187.021" y="-696.9" font-family="Arial" font-size="14.00" fill="#666666">[varchar]</text>
<polygon fill="none" stroke="#000000" points="138,-655.5 138,-685.5 400,-685.5 400,-655.5 138,-655.5"/>
<text text-anchor="start" x="145" y="-666.9" font-family="Arial" font-size="14.00" fill="#000000">start_at </text>
<text text-anchor="start" x="195.5708" y="-666.9" font-family="Arial" font-size="14.00" fill="#666666">[timestamp with time zone]</text>
<polygon fill="none" stroke="#000000" points="138,-625.5 138,-655.5 400,-655.5 400,-625.5 138,-625.5"/>
<text text-anchor="start" x="145" y="-636.9" font-family="Arial" font-size="14.00" fill="#000000">detail </text>
<text text-anchor="start" x="182.3422" y="-636.9" font-family="Arial" font-size="14.00" fill="#666666">[varchar(10000)]</text>
<polygon fill="none" stroke="#000000" points="138,-595.5 138,-625.5 400,-625.5 400,-595.5 138,-595.5"/>
<text text-anchor="start" x="145" y="-606.9" font-family="Arial" font-size="14.00" fill="#000000">closing_at </text>
<text text-anchor="start" x="211.9074" y="-606.9" font-family="Arial" font-size="14.00" fill="#666666">[timestamp with time zone]</text>
<polygon fill="none" stroke="#000000" points="138,-565.5 138,-595.5 400,-595.5 400,-565.5 138,-565.5"/>
<text text-anchor="start" x="145" y="-576.9" font-family="Arial" font-size="14.00" fill="#000000">prefecture_id </text>
<text text-anchor="start" x="230.5778" y="-576.9" font-family="Arial" font-size="14.00" fill="#666666">[bigint]</text>
<polygon fill="none" stroke="#000000" points="138,-535.5 138,-565.5 400,-565.5 400,-535.5 138,-535.5"/>
<text text-anchor="start" x="145" y="-546.9" font-family="Arial" font-size="14.00" fill="#000000">user_id </text>
<text text-anchor="start" x="194.7882" y="-546.9" font-family="Arial" font-size="14.00" fill="#666666">[bigint]</text>
<polygon fill="none" stroke="#000000" points="138,-505.5 138,-535.5 400,-535.5 400,-505.5 138,-505.5"/>
<text text-anchor="start" x="145" y="-516.9" font-family="Arial" font-size="14.00" fill="#000000">created_at </text>
<text text-anchor="start" x="215.028" y="-516.9" font-family="Arial" font-size="14.00" fill="#666666">[timestamp with time zone]</text>
<polygon fill="none" stroke="#000000" points="138,-475.5 138,-505.5 400,-505.5 400,-475.5 138,-475.5"/>
<text text-anchor="start" x="145" y="-486.9" font-family="Arial" font-size="14.00" fill="#000000">updated_at </text>
<text text-anchor="start" x="218.9326" y="-486.9" font-family="Arial" font-size="14.00" fill="#666666">[timestamp with time zone]</text>
<polygon fill="none" stroke="#000000" points="138,-445.5 138,-475.5 400,-475.5 400,-445.5 138,-445.5"/>
<text text-anchor="start" x="145" y="-456.9" font-family="Arial" font-size="14.00" fill="#000000">location_lat </text>
<text text-anchor="start" x="219.6872" y="-456.9" font-family="Arial" font-size="14.00" fill="#666666">[double precision]</text>
<polygon fill="none" stroke="#000000" points="138,-415.5 138,-445.5 400,-445.5 400,-415.5 138,-415.5"/>
<text text-anchor="start" x="145" y="-426.9" font-family="Arial" font-size="14.00" fill="#000000">location_lng </text>
<text text-anchor="start" x="223.5792" y="-426.9" font-family="Arial" font-size="14.00" fill="#666666">[double precision]</text>
<polygon fill="none" stroke="#000000" points="138,-385.5 138,-415.5 400,-415.5 400,-385.5 138,-385.5"/>
<text text-anchor="start" x="145" y="-396.9" font-family="Arial" font-size="14.00" fill="#000000">status </text>
<text text-anchor="start" x="186.237" y="-396.9" font-family="Arial" font-size="14.00" fill="#666666">[recruitment_status]</text>
<polygon fill="none" stroke="#000000" points="138,-355.5 138,-385.5 400,-385.5 400,-355.5 138,-355.5"/>
<text text-anchor="start" x="144.5302" y="-366.9" font-family="Arial" font-size="14.00" fill="#000000">published_at </text>
<text text-anchor="start" x="227.7854" y="-366.9" font-family="Arial" font-size="14.00" fill="#666666">[timestamp with time zone]</text>
<polygon fill="none" stroke="#000000" points="138,-325.5 138,-355.5 400,-355.5 400,-325.5 138,-325.5"/>
<text text-anchor="start" x="145" y="-336.9" font-family="Arial" font-size="14.00" fill="#000000">sport_id </text>
<text text-anchor="start" x="198.6788" y="-336.9" font-family="Arial" font-size="14.00" fill="#666666">[bigint]</text>
</g>
<!-- public.recruitments&#45;&gt;public.prefectures -->
<g id="edge1" class="edge">
<title>public.recruitments:prefecture_id&#45;&gt;public.prefectures:id</title>
<path fill="none" stroke="#000000" d="M409.9705,-578.415C462.4673,-554.7866 430.9889,-337.2715 400,-283 384.3903,-255.6623 354.6097,-274.3377 339,-247 317.7333,-209.7551 296.1111,-150.5 339,-150.5"/>
<polygon fill="#000000" stroke="#000000" points="409.7883,-578.4531 399.0789,-576.0953 404.8941,-579.4765 400,-580.5 400,-580.5 400,-580.5 404.8941,-579.4765 400.9211,-584.9047 409.7883,-578.4531 409.7883,-578.4531"/>
<text text-anchor="start" x="6.66" y="-590.5" font-family="Arial" font-size="10.00" fill="#000000">FOREIGN KEY (prefecture_id) REFERENCES prefectures(id) ON DELETE RESTRICT</text>
</g>
<!-- public.user_activity_areas -->
<g id="node3" class="node">
<title>public.user_activity_areas</title>
<polygon fill="#efefef" stroke="transparent" points="504,-640.5 504,-675.5 822,-675.5 822,-640.5 504,-640.5"/>
<polygon fill="none" stroke="#000000" points="504,-640.5 504,-675.5 822,-675.5 822,-640.5 504,-640.5"/>
<text text-anchor="start" x="510.8551" y="-653.3" font-family="Arial Bold" font-size="18.00" fill="#000000">public.user_activity_areas</text>
<text text-anchor="start" x="717.8911" y="-653.3" font-family="Arial" font-size="14.00" fill="#000000"> </text>
<text text-anchor="start" x="721.7817" y="-653.3" font-family="Arial" font-size="14.00" fill="#666666">[BASE TABLE]</text>
<polygon fill="none" stroke="#000000" points="504,-610.5 504,-640.5 822,-640.5 822,-610.5 504,-610.5"/>
<text text-anchor="start" x="511" y="-621.9" font-family="Arial" font-size="14.00" fill="#000000">id </text>
<text text-anchor="start" x="525.7798" y="-621.9" font-family="Arial" font-size="14.00" fill="#666666">[bigint]</text>
<polygon fill="none" stroke="#000000" points="504,-580.5 504,-610.5 822,-610.5 822,-580.5 504,-580.5"/>
<text text-anchor="start" x="511" y="-591.9" font-family="Arial" font-size="14.00" fill="#000000">user_id </text>
<text text-anchor="start" x="560.7882" y="-591.9" font-family="Arial" font-size="14.00" fill="#666666">[bigint]</text>
<polygon fill="none" stroke="#000000" points="504,-550.5 504,-580.5 822,-580.5 822,-550.5 504,-550.5"/>
<text text-anchor="start" x="511" y="-561.9" font-family="Arial" font-size="14.00" fill="#000000">prefecture_id </text>
<text text-anchor="start" x="596.5778" y="-561.9" font-family="Arial" font-size="14.00" fill="#666666">[bigint]</text>
<polygon fill="none" stroke="#000000" points="504,-520.5 504,-550.5 822,-550.5 822,-520.5 504,-520.5"/>
<text text-anchor="start" x="511" y="-531.9" font-family="Arial" font-size="14.00" fill="#000000">created_at </text>
<text text-anchor="start" x="581.028" y="-531.9" font-family="Arial" font-size="14.00" fill="#666666">[timestamp with time zone]</text>
<polygon fill="none" stroke="#000000" points="504,-490.5 504,-520.5 822,-520.5 822,-490.5 504,-490.5"/>
<text text-anchor="start" x="511" y="-501.9" font-family="Arial" font-size="14.00" fill="#000000">updated_at </text>
<text text-anchor="start" x="584.9326" y="-501.9" font-family="Arial" font-size="14.00" fill="#666666">[timestamp with time zone]</text>
</g>
<!-- public.user_activity_areas&#45;&gt;public.prefectures -->
<g id="edge2" class="edge">
<title>public.user_activity_areas:prefecture_id&#45;&gt;public.prefectures:id</title>
<path fill="none" stroke="#000000" d="M493.6907,-565.0313C333.3727,-549.4474 776.863,-150.5 592,-150.5"/>
<polygon fill="#000000" stroke="#000000" points="494.0103,-565.0457 503.7956,-569.9954 499.0052,-565.2728 504,-565.5 504,-565.5 504,-565.5 499.0052,-565.2728 504.2044,-561.0046 494.0103,-565.0457 494.0103,-565.0457"/>
<text text-anchor="start" x="511.4895" y="-575.5" font-family="Arial" font-size="10.00" fill="#000000">FOREIGN KEY (prefecture_id) REFERENCES prefectures(id) ON DELETE CASCADE</text>
</g>
</g>
</svg>
