<?xml version="1.0" encoding="UTF-8" standalone="no"?>
<!DOCTYPE svg PUBLIC "-//W3C//DTD SVG 1.1//EN"
 "http://www.w3.org/Graphics/SVG/1.1/DTD/svg11.dtd">
<!-- Generated by graphviz version 2.40.1 (20161225.0304)
 -->
<!-- Title: public.sports Pages: 1 -->
<svg width="770pt" height="892pt"
 viewBox="0.00 0.00 770.00 892.00" xmlns="http://www.w3.org/2000/svg" xmlns:xlink="http://www.w3.org/1999/xlink">
<g id="graph0" class="graph" transform="scale(1 1) rotate(0) translate(4 888)">
<title>public.sports</title>
<polygon fill="#ffffff" stroke="transparent" points="-4,4 -4,-888 766,-888 766,4 -4,4"/>
<!-- public.sports -->
<g id="node1" class="node">
<title>public.sports</title>
<polygon fill="#efefef" stroke="transparent" points="239,-165.5 239,-200.5 492,-200.5 492,-165.5 239,-165.5"/>
<polygon fill="none" stroke="#000000" points="239,-165.5 239,-200.5 492,-200.5 492,-165.5 239,-165.5"/>
<text text-anchor="start" x="266.3651" y="-178.3" font-family="Arial Bold" font-size="18.00" fill="#000000">public.sports</text>
<text text-anchor="start" x="367.3811" y="-178.3" font-family="Arial" font-size="14.00" fill="#000000"> </text>
<text text-anchor="start" x="371.2717" y="-178.3" font-family="Arial" font-size="14.00" fill="#666666">[BASE TABLE]</text>
<polygon fill="none" stroke="#000000" points="239,-135.5 239,-165.5 492,-165.5 492,-135.5 239,-135.5"/>
<text text-anchor="start" x="246" y="-146.9" font-family="Arial" font-size="14.00" fill="#000000">id </text>
<text text-anchor="start" x="260.7798" y="-146.9" font-family="Arial" font-size="14.00" fill="#666666">[bigint]</text>
<polygon fill="none" stroke="#000000" points="239,-105.5 239,-135.5 492,-135.5 492,-105.5 239,-105.5"/>
<text text-anchor="start" x="246" y="-116.9" font-family="Arial" font-size="14.00" fill="#000000">name </text>
<text text-anchor="start" x="284.899" y="-116.9" font-family="Arial" font-size="14.00" fill="#666666">[varchar]</text>
<polygon fill="none" stroke="#000000" points="239,-75.5 239,-105.5 492,-105.5 492,-75.5 239,-75.5"/>
<text text-anchor="start" x="246" y="-86.9" font-family="Arial" font-size="14.00" fill="#000000">created_at </text>
<text text-anchor="start" x="316.028" y="-86.9" font-family="Arial" font-size="14.00" fill="#666666">[timestamp with time zone]</text>
<polygon fill="none" stroke="#000000" points="239,-45.5 239,-75.5 492,-75.5 492,-45.5 239,-45.5"/>
<text text-anchor="start" x="245.6915" y="-56.9" font-family="Arial" font-size="14.00" fill="#000000">updated_at </text>
<text text-anchor="start" x="319.6241" y="-56.9" font-family="Arial" font-size="14.00" fill="#666666">[timestamp with time zone]</text>
<polygon fill="none" stroke="#000000" stroke-width="3" points="237,-44.5 237,-202.5 493,-202.5 493,-44.5 237,-44.5"/>
</g>
<!-- public.recruitments -->
<g id="node2" class="node">
<title>public.recruitments</title>
<polygon fill="#efefef" stroke="transparent" points="43,-805.5 43,-840.5 305,-840.5 305,-805.5 43,-805.5"/>
<polygon fill="none" stroke="#000000" points="43,-805.5 43,-840.5 305,-840.5 305,-805.5 43,-805.5"/>
<text text-anchor="start" x="49.8685" y="-818.3" font-family="Arial Bold" font-size="18.00" fill="#000000">public.recruitments</text>
<text text-anchor="start" x="200.8777" y="-818.3" font-family="Arial" font-size="14.00" fill="#000000"> </text>
<text text-anchor="start" x="204.7683" y="-818.3" font-family="Arial" font-size="14.00" fill="#666666">[BASE TABLE]</text>
<polygon fill="none" stroke="#000000" points="43,-775.5 43,-805.5 305,-805.5 305,-775.5 43,-775.5"/>
<text text-anchor="start" x="50" y="-786.9" font-family="Arial" font-size="14.00" fill="#000000">id </text>
<text text-anchor="start" x="64.7798" y="-786.9" font-family="Arial" font-size="14.00" fill="#666666">[bigint]</text>
<polygon fill="none" stroke="#000000" points="43,-745.5 43,-775.5 305,-775.5 305,-745.5 43,-745.5"/>
<text text-anchor="start" x="50" y="-756.9" font-family="Arial" font-size="14.00" fill="#000000">title </text>
<text text-anchor="start" x="75.6676" y="-756.9" font-family="Arial" font-size="14.00" fill="#666666">[varchar(60)]</text>
<polygon fill="none" stroke="#000000" points="43,-715.5 43,-745.5 305,-745.5 305,-715.5 43,-715.5"/>
<text text-anchor="start" x="50" y="-726.9" font-family="Arial" font-size="14.00" fill="#000000">type </text>
<text text-anchor="start" x="80.3464" y="-726.9" font-family="Arial" font-size="14.00" fill="#666666">[varchar]</text>
<polygon fill="none" stroke="#000000" points="43,-685.5 43,-715.5 305,-715.5 305,-685.5 43,-685.5"/>
<text text-anchor="start" x="50" y="-696.9" font-family="Arial" font-size="14.00" fill="#000000">venue </text>
<text text-anchor="start" x="92.021" y="-696.9" font-family="Arial" font-size="14.00" fill="#666666">[varchar]</text>
<polygon fill="none" stroke="#000000" points="43,-655.5 43,-685.5 305,-685.5 305,-655.5 43,-655.5"/>
<text text-anchor="start" x="50" y="-666.9" font-family="Arial" font-size="14.00" fill="#000000">start_at </text>
<text text-anchor="start" x="100.5708" y="-666.9" font-family="Arial" font-size="14.00" fill="#666666">[timestamp with time zone]</text>
<polygon fill="none" stroke="#000000" points="43,-625.5 43,-655.5 305,-655.5 305,-625.5 43,-625.5"/>
<text text-anchor="start" x="50" y="-636.9" font-family="Arial" font-size="14.00" fill="#000000">detail </text>
<text text-anchor="start" x="87.3422" y="-636.9" font-family="Arial" font-size="14.00" fill="#666666">[varchar(10000)]</text>
<polygon fill="none" stroke="#000000" points="43,-595.5 43,-625.5 305,-625.5 305,-595.5 43,-595.5"/>
<text text-anchor="start" x="50" y="-606.9" font-family="Arial" font-size="14.00" fill="#000000">closing_at </text>
<text text-anchor="start" x="116.9074" y="-606.9" font-family="Arial" font-size="14.00" fill="#666666">[timestamp with time zone]</text>
<polygon fill="none" stroke="#000000" points="43,-565.5 43,-595.5 305,-595.5 305,-565.5 43,-565.5"/>
<text text-anchor="start" x="50" y="-576.9" font-family="Arial" font-size="14.00" fill="#000000">prefecture_id </text>
<text text-anchor="start" x="135.5778" y="-576.9" font-family="Arial" font-size="14.00" fill="#666666">[bigint]</text>
<polygon fill="none" stroke="#000000" points="43,-535.5 43,-565.5 305,-565.5 305,-535.5 43,-535.5"/>
<text text-anchor="start" x="50" y="-546.9" font-family="Arial" font-size="14.00" fill="#000000">user_id </text>
<text text-anchor="start" x="99.7882" y="-546.9" font-family="Arial" font-size="14.00" fill="#666666">[bigint]</text>
<polygon fill="none" stroke="#000000" points="43,-505.5 43,-535.5 305,-535.5 305,-505.5 43,-505.5"/>
<text text-anchor="start" x="50" y="-516.9" font-family="Arial" font-size="14.00" fill="#000000">created_at </text>
<text text-anchor="start" x="120.028" y="-516.9" font-family="Arial" font-size="14.00" fill="#666666">[timestamp with time zone]</text>
<polygon fill="none" stroke="#000000" points="43,-475.5 43,-505.5 305,-505.5 305,-475.5 43,-475.5"/>
<text text-anchor="start" x="50" y="-486.9" font-family="Arial" font-size="14.00" fill="#000000">updated_at </text>
<text text-anchor="start" x="123.9326" y="-486.9" font-family="Arial" font-size="14.00" fill="#666666">[timestamp with time zone]</text>
<polygon fill="none" stroke="#000000" points="43,-445.5 43,-475.5 305,-475.5 305,-445.5 43,-445.5"/>
<text text-anchor="start" x="50" y="-456.9" font-family="Arial" font-size="14.00" fill="#000000">location_lat </text>
<text text-anchor="start" x="124.6872" y="-456.9" font-family="Arial" font-size="14.00" fill="#666666">[double precision]</text>
<polygon fill="none" stroke="#000000" points="43,-415.5 43,-445.5 305,-445.5 305,-415.5 43,-415.5"/>
<text text-anchor="start" x="50" y="-426.9" font-family="Arial" font-size="14.00" fill="#000000">location_lng </text>
<text text-anchor="start" x="128.5792" y="-426.9" font-family="Arial" font-size="14.00" fill="#666666">[double precision]</text>
<polygon fill="none" stroke="#000000" points="43,-385.5 43,-415.5 305,-415.5 305,-385.5 43,-385.5"/>
<text text-anchor="start" x="50" y="-396.9" font-family="Arial" font-size="14.00" fill="#000000">status </text>
<text text-anchor="start" x="91.237" y="-396.9" font-family="Arial" font-size="14.00" fill="#666666">[recruitment_status]</text>
<polygon fill="none" stroke="#000000" points="43,-355.5 43,-385.5 305,-385.5 305,-355.5 43,-355.5"/>
<text text-anchor="start" x="49.5302" y="-366.9" font-family="Arial" font-size="14.00" fill="#000000">published_at </text>
<text text-anchor="start" x="132.7854" y="-366.9" font-family="Arial" font-size="14.00" fill="#666666">[timestamp with time zone]</text>
<polygon fill="none" stroke="#000000" points="43,-325.5 43,-355.5 305,-355.5 305,-325.5 43,-325.5"/>
<text text-anchor="start" x="50" y="-336.9" font-family="Arial" font-size="14.00" fill="#000000">sport_id </text>
<text text-anchor="start" x="103.6788" y="-336.9" font-family="Arial" font-size="14.00" fill="#666666">[bigint]</text>
</g>
<!-- public.recruitments&#45;&gt;public.sports -->
<g id="edge1" class="edge">
<title>public.recruitments:sport_id&#45;&gt;public.sports:id</title>
<path fill="none" stroke="#000000" d="M314.6701,-337.8481C326.4362,-329.2081 315.905,-301.3699 305,-283 287.9437,-254.268 256.0563,-275.732 239,-247 217.1067,-210.1199 196.1111,-150.5 239,-150.5"/>
<polygon fill="#000000" stroke="#000000" points="314.6439,-337.8552 303.8098,-336.1602 309.822,-339.1776 305,-340.5 305,-340.5 305,-340.5 309.822,-339.1776 306.1902,-344.8398 314.6439,-337.8552 314.6439,-337.8552"/>
<text text-anchor="start" x="312.445" y="-350.5" font-family="Arial" font-size="10.00" fill="#000000">FOREIGN KEY (sport_id) REFERENCES sports(id) ON DELETE RESTRICT</text>
</g>
<!-- public.user_play_sports -->
<g id="node3" class="node">
<title>public.user_play_sports</title>
<polygon fill="#efefef" stroke="transparent" points="409,-640.5 409,-675.5 709,-675.5 709,-640.5 409,-640.5"/>
<polygon fill="none" stroke="#000000" points="409,-640.5 409,-675.5 709,-675.5 709,-640.5 409,-640.5"/>
<text text-anchor="start" x="415.8533" y="-653.3" font-family="Arial Bold" font-size="18.00" fill="#000000">public.user_play_sports</text>
<text text-anchor="start" x="604.8929" y="-653.3" font-family="Arial" font-size="14.00" fill="#000000"> </text>
<text text-anchor="start" x="608.7835" y="-653.3" font-family="Arial" font-size="14.00" fill="#666666">[BASE TABLE]</text>
<polygon fill="none" stroke="#000000" points="409,-610.5 409,-640.5 709,-640.5 709,-610.5 409,-610.5"/>
<text text-anchor="start" x="416" y="-621.9" font-family="Arial" font-size="14.00" fill="#000000">id </text>
<text text-anchor="start" x="430.7798" y="-621.9" font-family="Arial" font-size="14.00" fill="#666666">[bigint]</text>
<polygon fill="none" stroke="#000000" points="409,-580.5 409,-610.5 709,-610.5 709,-580.5 409,-580.5"/>
<text text-anchor="start" x="416" y="-591.9" font-family="Arial" font-size="14.00" fill="#000000">user_id </text>
<text text-anchor="start" x="465.7882" y="-591.9" font-family="Arial" font-size="14.00" fill="#666666">[bigint]</text>
<polygon fill="none" stroke="#000000" points="409,-550.5 409,-580.5 709,-580.5 709,-550.5 409,-550.5"/>
<text text-anchor="start" x="416" y="-561.9" font-family="Arial" font-size="14.00" fill="#000000">sport_id </text>
<text text-anchor="start" x="469.6788" y="-561.9" font-family="Arial" font-size="14.00" fill="#666666">[bigint]</text>
<polygon fill="none" stroke="#000000" points="409,-520.5 409,-550.5 709,-550.5 709,-520.5 409,-520.5"/>
<text text-anchor="start" x="416" y="-531.9" font-family="Arial" font-size="14.00" fill="#000000">created_at </text>
<text text-anchor="start" x="486.028" y="-531.9" font-family="Arial" font-size="14.00" fill="#666666">[timestamp with time zone]</text>
<polygon fill="none" stroke="#000000" points="409,-490.5 409,-520.5 709,-520.5 709,-490.5 409,-490.5"/>
<text text-anchor="start" x="416" y="-501.9" font-family="Arial" font-size="14.00" fill="#000000">updated_at </text>
<text text-anchor="start" x="489.9326" y="-501.9" font-family="Arial" font-size="14.00" fill="#666666">[timestamp with time zone]</text>
</g>
<!-- public.user_play_sports&#45;&gt;public.sports -->
<g id="edge2" class="edge">
<title>public.user_play_sports:sport_id&#45;&gt;public.sports:id</title>
<path fill="none" stroke="#000000" d="M398.7098,-565.0313C238.5932,-549.4474 676.4234,-150.5 492,-150.5"/>
<polygon fill="#000000" stroke="#000000" points="399.0104,-565.0449 408.7952,-569.9953 404.0052,-565.2724 409,-565.5 409,-565.5 409,-565.5 404.0052,-565.2724 409.2048,-561.0047 399.0104,-565.0449 399.0104,-565.0449"/>
<text text-anchor="start" x="416.2745" y="-575.5" font-family="Arial" font-size="10.00" fill="#000000">FOREIGN KEY (sport_id) REFERENCES sports(id) ON DELETE CASCADE</text>
</g>
</g>
</svg>
