<?xml version="1.0" encoding="UTF-8" standalone="no"?>
<!DOCTYPE svg PUBLIC "-//W3C//DTD SVG 1.1//EN"
 "http://www.w3.org/Graphics/SVG/1.1/DTD/svg11.dtd">
<!-- Generated by graphviz version 2.40.1 (20161225.0304)
 -->
<!-- Title: public.sports Pages: 1 -->
<svg width="668pt" height="892pt"
 viewBox="0.00 0.00 668.00 892.00" xmlns="http://www.w3.org/2000/svg" xmlns:xlink="http://www.w3.org/1999/xlink">
<g id="graph0" class="graph" transform="scale(1 1) rotate(0) translate(4 888)">
<title>public.sports</title>
<polygon fill="#ffffff" stroke="transparent" points="-4,4 -4,-888 664,-888 664,4 -4,4"/>
<!-- public.sports -->
<g id="node1" class="node">
<title>public.sports</title>
<polygon fill="#efefef" stroke="transparent" points="359,-165.5 359,-200.5 612,-200.5 612,-165.5 359,-165.5"/>
<polygon fill="none" stroke="#000000" points="359,-165.5 359,-200.5 612,-200.5 612,-165.5 359,-165.5"/>
<text text-anchor="start" x="386.3651" y="-178.3" font-family="Arial Bold" font-size="18.00" fill="#000000">public.sports</text>
<text text-anchor="start" x="487.3811" y="-178.3" font-family="Arial" font-size="14.00" fill="#000000"> </text>
<text text-anchor="start" x="491.2717" y="-178.3" font-family="Arial" font-size="14.00" fill="#666666">[BASE TABLE]</text>
<polygon fill="none" stroke="#000000" points="359,-135.5 359,-165.5 612,-165.5 612,-135.5 359,-135.5"/>
<text text-anchor="start" x="366" y="-146.9" font-family="Arial" font-size="14.00" fill="#000000">id </text>
<text text-anchor="start" x="380.7798" y="-146.9" font-family="Arial" font-size="14.00" fill="#666666">[bigint]</text>
<polygon fill="none" stroke="#000000" points="359,-105.5 359,-135.5 612,-135.5 612,-105.5 359,-105.5"/>
<text text-anchor="start" x="366" y="-116.9" font-family="Arial" font-size="14.00" fill="#000000">name </text>
<text text-anchor="start" x="404.899" y="-116.9" font-family="Arial" font-size="14.00" fill="#666666">[varchar]</text>
<polygon fill="none" stroke="#000000" points="359,-75.5 359,-105.5 612,-105.5 612,-75.5 359,-75.5"/>
<text text-anchor="start" x="366" y="-86.9" font-family="Arial" font-size="14.00" fill="#000000">created_at </text>
<text text-anchor="start" x="436.028" y="-86.9" font-family="Arial" font-size="14.00" fill="#666666">[timestamp with time zone]</text>
<polygon fill="none" stroke="#000000" points="359,-45.5 359,-75.5 612,-75.5 612,-45.5 359,-45.5"/>
<text text-anchor="start" x="365.6915" y="-56.9" font-family="Arial" font-size="14.00" fill="#000000">updated_at </text>
<text text-anchor="start" x="439.6241" y="-56.9" font-family="Arial" font-size="14.00" fill="#666666">[timestamp with time zone]</text>
<polygon fill="none" stroke="#000000" stroke-width="3" points="357,-44.5 357,-202.5 613,-202.5 613,-44.5 357,-44.5"/>
</g>
<!-- public.recruitments -->
<g id="node2" class="node">
<title>public.recruitments</title>
<polygon fill="#efefef" stroke="transparent" points="355,-805.5 355,-840.5 617,-840.5 617,-805.5 355,-805.5"/>
<polygon fill="none" stroke="#000000" points="355,-805.5 355,-840.5 617,-840.5 617,-805.5 355,-805.5"/>
<text text-anchor="start" x="361.8685" y="-818.3" font-family="Arial Bold" font-size="18.00" fill="#000000">public.recruitments</text>
<text text-anchor="start" x="512.8777" y="-818.3" font-family="Arial" font-size="14.00" fill="#000000"> </text>
<text text-anchor="start" x="516.7683" y="-818.3" font-family="Arial" font-size="14.00" fill="#666666">[BASE TABLE]</text>
<polygon fill="none" stroke="#000000" points="355,-775.5 355,-805.5 617,-805.5 617,-775.5 355,-775.5"/>
<text text-anchor="start" x="362" y="-786.9" font-family="Arial" font-size="14.00" fill="#000000">id </text>
<text text-anchor="start" x="376.7798" y="-786.9" font-family="Arial" font-size="14.00" fill="#666666">[bigint]</text>
<polygon fill="none" stroke="#000000" points="355,-745.5 355,-775.5 617,-775.5 617,-745.5 355,-745.5"/>
<text text-anchor="start" x="362" y="-756.9" font-family="Arial" font-size="14.00" fill="#000000">title </text>
<text text-anchor="start" x="387.6676" y="-756.9" font-family="Arial" font-size="14.00" fill="#666666">[varchar(60)]</text>
<polygon fill="none" stroke="#000000" points="355,-715.5 355,-745.5 617,-745.5 617,-715.5 355,-715.5"/>
<text text-anchor="start" x="362" y="-726.9" font-family="Arial" font-size="14.00" fill="#000000">category </text>
<text text-anchor="start" x="419.5722" y="-726.9" font-family="Arial" font-size="14.00" fill="#666666">[recruitment_category]</text>
<polygon fill="none" stroke="#000000" points="355,-685.5 355,-715.5 617,-715.5 617,-685.5 355,-685.5"/>
<text text-anchor="start" x="362" y="-696.9" font-family="Arial" font-size="14.00" fill="#000000">venue </text>
<text text-anchor="start" x="404.021" y="-696.9" font-family="Arial" font-size="14.00" fill="#666666">[varchar]</text>
<polygon fill="none" stroke="#000000" points="355,-655.5 355,-685.5 617,-685.5 617,-655.5 355,-655.5"/>
<text text-anchor="start" x="362" y="-666.9" font-family="Arial" font-size="14.00" fill="#000000">venue_lat </text>
<text text-anchor="start" x="426.5834" y="-666.9" font-family="Arial" font-size="14.00" fill="#666666">[double precision]</text>
<polygon fill="none" stroke="#000000" points="355,-625.5 355,-655.5 617,-655.5 617,-625.5 355,-625.5"/>
<text text-anchor="start" x="362" y="-636.9" font-family="Arial" font-size="14.00" fill="#000000">venue_lng </text>
<text text-anchor="start" x="430.4754" y="-636.9" font-family="Arial" font-size="14.00" fill="#666666">[double precision]</text>
<polygon fill="none" stroke="#000000" points="355,-595.5 355,-625.5 617,-625.5 617,-595.5 355,-595.5"/>
<text text-anchor="start" x="362" y="-606.9" font-family="Arial" font-size="14.00" fill="#000000">start_at </text>
<text text-anchor="start" x="412.5708" y="-606.9" font-family="Arial" font-size="14.00" fill="#666666">[timestamp with time zone]</text>
<polygon fill="none" stroke="#000000" points="355,-565.5 355,-595.5 617,-595.5 617,-565.5 355,-565.5"/>
<text text-anchor="start" x="362" y="-576.9" font-family="Arial" font-size="14.00" fill="#000000">closing_at </text>
<text text-anchor="start" x="428.9074" y="-576.9" font-family="Arial" font-size="14.00" fill="#666666">[timestamp with time zone]</text>
<polygon fill="none" stroke="#000000" points="355,-535.5 355,-565.5 617,-565.5 617,-535.5 355,-535.5"/>
<text text-anchor="start" x="362" y="-546.9" font-family="Arial" font-size="14.00" fill="#000000">detail </text>
<text text-anchor="start" x="399.3422" y="-546.9" font-family="Arial" font-size="14.00" fill="#666666">[varchar(10000)]</text>
<polygon fill="none" stroke="#000000" points="355,-505.5 355,-535.5 617,-535.5 617,-505.5 355,-505.5"/>
<text text-anchor="start" x="362" y="-516.9" font-family="Arial" font-size="14.00" fill="#000000">sport_id </text>
<text text-anchor="start" x="415.6788" y="-516.9" font-family="Arial" font-size="14.00" fill="#666666">[bigint]</text>
<polygon fill="none" stroke="#000000" points="355,-475.5 355,-505.5 617,-505.5 617,-475.5 355,-475.5"/>
<text text-anchor="start" x="362" y="-486.9" font-family="Arial" font-size="14.00" fill="#000000">prefecture_id </text>
<text text-anchor="start" x="447.5778" y="-486.9" font-family="Arial" font-size="14.00" fill="#666666">[bigint]</text>
<polygon fill="none" stroke="#000000" points="355,-445.5 355,-475.5 617,-475.5 617,-445.5 355,-445.5"/>
<text text-anchor="start" x="362" y="-456.9" font-family="Arial" font-size="14.00" fill="#000000">status </text>
<text text-anchor="start" x="403.237" y="-456.9" font-family="Arial" font-size="14.00" fill="#666666">[recruitment_status]</text>
<polygon fill="none" stroke="#000000" points="355,-415.5 355,-445.5 617,-445.5 617,-415.5 355,-415.5"/>
<text text-anchor="start" x="362" y="-426.9" font-family="Arial" font-size="14.00" fill="#000000">user_id </text>
<text text-anchor="start" x="411.7882" y="-426.9" font-family="Arial" font-size="14.00" fill="#666666">[bigint]</text>
<polygon fill="none" stroke="#000000" points="355,-385.5 355,-415.5 617,-415.5 617,-385.5 355,-385.5"/>
<text text-anchor="start" x="361.5302" y="-396.9" font-family="Arial" font-size="14.00" fill="#000000">published_at </text>
<text text-anchor="start" x="444.7854" y="-396.9" font-family="Arial" font-size="14.00" fill="#666666">[timestamp with time zone]</text>
<polygon fill="none" stroke="#000000" points="355,-355.5 355,-385.5 617,-385.5 617,-355.5 355,-355.5"/>
<text text-anchor="start" x="362" y="-366.9" font-family="Arial" font-size="14.00" fill="#000000">created_at </text>
<text text-anchor="start" x="432.028" y="-366.9" font-family="Arial" font-size="14.00" fill="#666666">[timestamp with time zone]</text>
<polygon fill="none" stroke="#000000" points="355,-325.5 355,-355.5 617,-355.5 617,-325.5 355,-325.5"/>
<text text-anchor="start" x="362" y="-336.9" font-family="Arial" font-size="14.00" fill="#000000">updated_at </text>
<text text-anchor="start" x="435.9326" y="-336.9" font-family="Arial" font-size="14.00" fill="#666666">[timestamp with time zone]</text>
</g>
<!-- public.recruitments&#45;&gt;public.sports -->
<g id="edge1" class="edge">
<title>public.recruitments:sport_id&#45;&gt;public.sports:id</title>
<path fill="none" stroke="#000000" d="M344.9508,-519.9866C251.8905,-510.1039 288.0312,-360.0035 355,-283 430.6879,-195.9709 536.3121,-334.0291 612,-247 640.145,-214.6377 654.8889,-150.5 612,-150.5"/>
<polygon fill="#000000" stroke="#000000" points="345.013,-519.9897 354.7703,-524.9941 350.0065,-520.2448 355,-520.5 355,-520.5 355,-520.5 350.0065,-520.2448 355.2297,-516.0059 345.013,-519.9897 345.013,-519.9897"/>
<text text-anchor="start" x="7.445" y="-530.5" font-family="Arial" font-size="10.00" fill="#000000">FOREIGN KEY (sport_id) REFERENCES sports(id) ON DELETE RESTRICT</text>
</g>
</g>
</svg>
