<?xml version="1.0" encoding="UTF-8" standalone="no"?>
<!DOCTYPE svg PUBLIC "-//W3C//DTD SVG 1.1//EN"
 "http://www.w3.org/Graphics/SVG/1.1/DTD/svg11.dtd">
<!-- Generated by graphviz version 2.40.1 (20161225.0304)
 -->
<!-- Title: public.user_activity_areas Pages: 1 -->
<svg width="1072pt" height="952pt"
 viewBox="0.00 0.00 1072.00 952.00" xmlns="http://www.w3.org/2000/svg" xmlns:xlink="http://www.w3.org/1999/xlink">
<g id="graph0" class="graph" transform="scale(1 1) rotate(0) translate(4 948)">
<title>public.user_activity_areas</title>
<polygon fill="#ffffff" stroke="transparent" points="-4,4 -4,-948 1068,-948 1068,4 -4,4"/>
<!-- public.user_activity_areas -->
<g id="node1" class="node">
<title>public.user_activity_areas</title>
<polygon fill="#efefef" stroke="transparent" points="347,-862.5 347,-897.5 665,-897.5 665,-862.5 347,-862.5"/>
<polygon fill="none" stroke="#000000" points="347,-862.5 347,-897.5 665,-897.5 665,-862.5 347,-862.5"/>
<text text-anchor="start" x="353.8551" y="-875.3" font-family="Arial Bold" font-size="18.00" fill="#000000">public.user_activity_areas</text>
<text text-anchor="start" x="560.8911" y="-875.3" font-family="Arial" font-size="14.00" fill="#000000"> </text>
<text text-anchor="start" x="564.7817" y="-875.3" font-family="Arial" font-size="14.00" fill="#666666">[BASE TABLE]</text>
<polygon fill="none" stroke="#000000" points="347,-832.5 347,-862.5 665,-862.5 665,-832.5 347,-832.5"/>
<text text-anchor="start" x="354" y="-843.9" font-family="Arial" font-size="14.00" fill="#000000">id </text>
<text text-anchor="start" x="368.7798" y="-843.9" font-family="Arial" font-size="14.00" fill="#666666">[bigint]</text>
<polygon fill="none" stroke="#000000" points="347,-802.5 347,-832.5 665,-832.5 665,-802.5 347,-802.5"/>
<text text-anchor="start" x="354" y="-813.9" font-family="Arial" font-size="14.00" fill="#000000">user_id </text>
<text text-anchor="start" x="403.7882" y="-813.9" font-family="Arial" font-size="14.00" fill="#666666">[bigint]</text>
<polygon fill="none" stroke="#000000" points="347,-772.5 347,-802.5 665,-802.5 665,-772.5 347,-772.5"/>
<text text-anchor="start" x="354" y="-783.9" font-family="Arial" font-size="14.00" fill="#000000">prefecture_id </text>
<text text-anchor="start" x="439.5778" y="-783.9" font-family="Arial" font-size="14.00" fill="#666666">[bigint]</text>
<polygon fill="none" stroke="#000000" points="347,-742.5 347,-772.5 665,-772.5 665,-742.5 347,-742.5"/>
<text text-anchor="start" x="354" y="-753.9" font-family="Arial" font-size="14.00" fill="#000000">created_at </text>
<text text-anchor="start" x="424.028" y="-753.9" font-family="Arial" font-size="14.00" fill="#666666">[timestamp with time zone]</text>
<polygon fill="none" stroke="#000000" points="347,-712.5 347,-742.5 665,-742.5 665,-712.5 347,-712.5"/>
<text text-anchor="start" x="354" y="-723.9" font-family="Arial" font-size="14.00" fill="#000000">updated_at </text>
<text text-anchor="start" x="427.9326" y="-723.9" font-family="Arial" font-size="14.00" fill="#666666">[timestamp with time zone]</text>
<polygon fill="none" stroke="#000000" stroke-width="3" points="345.5,-711.5 345.5,-899.5 666.5,-899.5 666.5,-711.5 345.5,-711.5"/>
</g>
<!-- public.users -->
<g id="node2" class="node">
<title>public.users</title>
<polygon fill="#efefef" stroke="transparent" points="89,-552.5 89,-587.5 491,-587.5 491,-552.5 89,-552.5"/>
<polygon fill="none" stroke="#000000" points="89,-552.5 89,-587.5 491,-587.5 491,-552.5 89,-552.5"/>
<text text-anchor="start" x="193.3662" y="-565.3" font-family="Arial Bold" font-size="18.00" fill="#000000">public.users</text>
<text text-anchor="start" x="289.38" y="-565.3" font-family="Arial" font-size="14.00" fill="#000000"> </text>
<text text-anchor="start" x="293.2706" y="-565.3" font-family="Arial" font-size="14.00" fill="#666666">[BASE TABLE]</text>
<polygon fill="none" stroke="#000000" points="89,-522.5 89,-552.5 491,-552.5 491,-522.5 89,-522.5"/>
<text text-anchor="start" x="96" y="-533.9" font-family="Arial" font-size="14.00" fill="#000000">id </text>
<text text-anchor="start" x="110.7798" y="-533.9" font-family="Arial" font-size="14.00" fill="#666666">[bigint]</text>
<polygon fill="none" stroke="#000000" points="89,-492.5 89,-522.5 491,-522.5 491,-492.5 89,-492.5"/>
<text text-anchor="start" x="96" y="-503.9" font-family="Arial" font-size="14.00" fill="#000000">name </text>
<text text-anchor="start" x="134.899" y="-503.9" font-family="Arial" font-size="14.00" fill="#666666">[varchar(50)]</text>
<polygon fill="none" stroke="#000000" points="89,-462.5 89,-492.5 491,-492.5 491,-462.5 89,-462.5"/>
<text text-anchor="start" x="96" y="-473.9" font-family="Arial" font-size="14.00" fill="#000000">email </text>
<text text-anchor="start" x="133.3296" y="-473.9" font-family="Arial" font-size="14.00" fill="#666666">[varchar(100)]</text>
<polygon fill="none" stroke="#000000" points="89,-432.5 89,-462.5 491,-462.5 491,-432.5 89,-432.5"/>
<text text-anchor="start" x="96" y="-443.9" font-family="Arial" font-size="14.00" fill="#000000">role </text>
<text text-anchor="start" x="123.223" y="-443.9" font-family="Arial" font-size="14.00" fill="#666666">[user_role]</text>
<polygon fill="none" stroke="#000000" points="89,-402.5 89,-432.5 491,-432.5 491,-402.5 89,-402.5"/>
<text text-anchor="start" x="96" y="-413.9" font-family="Arial" font-size="14.00" fill="#000000">avatar </text>
<text text-anchor="start" x="138.7896" y="-413.9" font-family="Arial" font-size="14.00" fill="#666666">[varchar]</text>
<polygon fill="none" stroke="#000000" points="89,-372.5 89,-402.5 491,-402.5 491,-372.5 89,-372.5"/>
<text text-anchor="start" x="96" y="-383.9" font-family="Arial" font-size="14.00" fill="#000000">introduction </text>
<text text-anchor="start" x="172.2412" y="-383.9" font-family="Arial" font-size="14.00" fill="#666666">[varchar(160)]</text>
<polygon fill="none" stroke="#000000" points="89,-342.5 89,-372.5 491,-372.5 491,-342.5 89,-342.5"/>
<text text-anchor="start" x="96" y="-353.9" font-family="Arial" font-size="14.00" fill="#000000">email_verification_status </text>
<text text-anchor="start" x="253.1332" y="-353.9" font-family="Arial" font-size="14.00" fill="#666666">[email_verification_status]</text>
<polygon fill="none" stroke="#000000" points="89,-312.5 89,-342.5 491,-342.5 491,-312.5 89,-312.5"/>
<text text-anchor="start" x="96" y="-323.9" font-family="Arial" font-size="14.00" fill="#000000">email_verification_code </text>
<text text-anchor="start" x="246.1346" y="-323.9" font-family="Arial" font-size="14.00" fill="#666666">[varchar]</text>
<polygon fill="none" stroke="#000000" points="89,-282.5 89,-312.5 491,-312.5 491,-282.5 89,-282.5"/>
<text text-anchor="start" x="95.9138" y="-293.9" font-family="Arial" font-size="14.00" fill="#000000">email_verification_code_expires_at </text>
<text text-anchor="start" x="318.4018" y="-293.9" font-family="Arial" font-size="14.00" fill="#666666">[timestamp with time zone]</text>
<polygon fill="none" stroke="#000000" points="89,-252.5 89,-282.5 491,-282.5 491,-252.5 89,-252.5"/>
<text text-anchor="start" x="96" y="-263.9" font-family="Arial" font-size="14.00" fill="#000000">password_digest </text>
<text text-anchor="start" x="204.9158" y="-263.9" font-family="Arial" font-size="14.00" fill="#666666">[varchar]</text>
<polygon fill="none" stroke="#000000" points="89,-222.5 89,-252.5 491,-252.5 491,-222.5 89,-222.5"/>
<text text-anchor="start" x="96" y="-233.9" font-family="Arial" font-size="14.00" fill="#000000">created_at </text>
<text text-anchor="start" x="166.028" y="-233.9" font-family="Arial" font-size="14.00" fill="#666666">[timestamp with time zone]</text>
<polygon fill="none" stroke="#000000" points="89,-192.5 89,-222.5 491,-222.5 491,-192.5 89,-192.5"/>
<text text-anchor="start" x="96" y="-203.9" font-family="Arial" font-size="14.00" fill="#000000">updated_at </text>
<text text-anchor="start" x="169.9326" y="-203.9" font-family="Arial" font-size="14.00" fill="#666666">[timestamp with time zone]</text>
<polygon fill="none" stroke="#000000" points="89,-162.5 89,-192.5 491,-192.5 491,-162.5 89,-162.5"/>
<text text-anchor="start" x="96" y="-173.9" font-family="Arial" font-size="14.00" fill="#000000">last_sign_in_at </text>
<text text-anchor="start" x="193.2524" y="-173.9" font-family="Arial" font-size="14.00" fill="#666666">[timestamp with time zone]</text>
<polygon fill="none" stroke="#000000" points="89,-132.5 89,-162.5 491,-162.5 491,-132.5 89,-132.5"/>
<text text-anchor="start" x="96" y="-143.9" font-family="Arial" font-size="14.00" fill="#000000">unverified_email </text>
<text text-anchor="start" x="201.7896" y="-143.9" font-family="Arial" font-size="14.00" fill="#666666">[varchar(100)]</text>
<polygon fill="none" stroke="#000000" points="89,-102.5 89,-132.5 491,-132.5 491,-102.5 89,-102.5"/>
<text text-anchor="start" x="96" y="-113.9" font-family="Arial" font-size="14.00" fill="#000000">password_reset_token </text>
<text text-anchor="start" x="240.7082" y="-113.9" font-family="Arial" font-size="14.00" fill="#666666">[varchar]</text>
<polygon fill="none" stroke="#000000" points="89,-72.5 89,-102.5 491,-102.5 491,-72.5 89,-72.5"/>
<text text-anchor="start" x="96" y="-83.9" font-family="Arial" font-size="14.00" fill="#000000">password_reset_token_expires_at </text>
<text text-anchor="start" x="313.0616" y="-83.9" font-family="Arial" font-size="14.00" fill="#666666">[timestamp with time zone]</text>
<polygon fill="none" stroke="#000000" points="89,-42.5 89,-72.5 491,-72.5 491,-42.5 89,-42.5"/>
<text text-anchor="start" x="96" y="-53.9" font-family="Arial" font-size="14.00" fill="#000000">website_url </text>
<text text-anchor="start" x="170.6746" y="-53.9" font-family="Arial" font-size="14.00" fill="#666666">[varchar]</text>
</g>
<!-- public.user_activity_areas&#45;&gt;public.users -->
<g id="edge1" class="edge">
<title>public.user_activity_areas:user_id&#45;&gt;public.users:id</title>
<path fill="none" stroke="#000000" d="M336.8444,-816.6461C282.9709,-806.9403 308.0869,-716.8389 347,-667 387.5986,-615.0023 450.4014,-682.9977 491,-631 516.5738,-598.2457 532.5556,-537.5 491,-537.5"/>
<polygon fill="#000000" stroke="#000000" points="337.0352,-816.662 346.6229,-821.9842 342.0176,-817.081 347,-817.5 347,-817.5 347,-817.5 342.0176,-817.081 347.3771,-813.0158 337.0352,-816.662 337.0352,-816.662"/>
<text text-anchor="start" x="7.0535" y="-827.5" font-family="Arial" font-size="10.00" fill="#000000">FOREIGN KEY (user_id) REFERENCES users(id) ON DELETE CASCADE</text>
</g>
<!-- public.prefectures -->
<g id="node3" class="node">
<title>public.prefectures</title>
<polygon fill="#efefef" stroke="transparent" points="596,-357.5 596,-392.5 849,-392.5 849,-357.5 596,-357.5"/>
<polygon fill="none" stroke="#000000" points="596,-357.5 596,-392.5 849,-392.5 849,-357.5 596,-357.5"/>
<text text-anchor="start" x="602.8586" y="-370.3" font-family="Arial Bold" font-size="18.00" fill="#000000">public.prefectures</text>
<text text-anchor="start" x="744.8876" y="-370.3" font-family="Arial" font-size="14.00" fill="#000000"> </text>
<text text-anchor="start" x="748.7782" y="-370.3" font-family="Arial" font-size="14.00" fill="#666666">[BASE TABLE]</text>
<polygon fill="none" stroke="#000000" points="596,-327.5 596,-357.5 849,-357.5 849,-327.5 596,-327.5"/>
<text text-anchor="start" x="603" y="-338.9" font-family="Arial" font-size="14.00" fill="#000000">id </text>
<text text-anchor="start" x="617.7798" y="-338.9" font-family="Arial" font-size="14.00" fill="#666666">[bigint]</text>
<polygon fill="none" stroke="#000000" points="596,-297.5 596,-327.5 849,-327.5 849,-297.5 596,-297.5"/>
<text text-anchor="start" x="603" y="-308.9" font-family="Arial" font-size="14.00" fill="#000000">name </text>
<text text-anchor="start" x="641.899" y="-308.9" font-family="Arial" font-size="14.00" fill="#666666">[varchar]</text>
<polygon fill="none" stroke="#000000" points="596,-267.5 596,-297.5 849,-297.5 849,-267.5 596,-267.5"/>
<text text-anchor="start" x="603" y="-278.9" font-family="Arial" font-size="14.00" fill="#000000">created_at </text>
<text text-anchor="start" x="673.028" y="-278.9" font-family="Arial" font-size="14.00" fill="#666666">[timestamp with time zone]</text>
<polygon fill="none" stroke="#000000" points="596,-237.5 596,-267.5 849,-267.5 849,-237.5 596,-237.5"/>
<text text-anchor="start" x="602.6915" y="-248.9" font-family="Arial" font-size="14.00" fill="#000000">updated_at </text>
<text text-anchor="start" x="676.6241" y="-248.9" font-family="Arial" font-size="14.00" fill="#666666">[timestamp with time zone]</text>
</g>
<!-- public.user_activity_areas&#45;&gt;public.prefectures -->
<g id="edge2" class="edge">
<title>public.user_activity_areas:prefecture_id&#45;&gt;public.prefectures:id</title>
<path fill="none" stroke="#000000" d="M675.1999,-787.0695C848.4032,-771.5661 399.4746,-342.5 596,-342.5"/>
<polygon fill="#000000" stroke="#000000" points="674.9911,-787.0782 664.8102,-783.004 669.9956,-787.2891 665,-787.5 665,-787.5 665,-787.5 669.9956,-787.2891 665.1898,-791.996 674.9911,-787.0782 674.9911,-787.0782"/>
<text text-anchor="start" x="672.4895" y="-797.5" font-family="Arial" font-size="10.00" fill="#000000">FOREIGN KEY (prefecture_id) REFERENCES prefectures(id) ON DELETE CASCADE</text>
</g>
</g>
</svg>
