<?xml version="1.0" encoding="UTF-8" standalone="no"?>
<!DOCTYPE svg PUBLIC "-//W3C//DTD SVG 1.1//EN"
 "http://www.w3.org/Graphics/SVG/1.1/DTD/svg11.dtd">
<!-- Generated by graphviz version 2.40.1 (20161225.0304)
 -->
<!-- Title: public.stocks Pages: 1 -->
<svg width="1016pt" height="952pt"
 viewBox="0.00 0.00 1016.00 952.00" xmlns="http://www.w3.org/2000/svg" xmlns:xlink="http://www.w3.org/1999/xlink">
<g id="graph0" class="graph" transform="scale(1 1) rotate(0) translate(4 948)">
<title>public.stocks</title>
<polygon fill="#ffffff" stroke="transparent" points="-4,4 -4,-948 1012,-948 1012,4 -4,4"/>
<!-- public.stocks -->
<g id="node1" class="node">
<title>public.stocks</title>
<polygon fill="#efefef" stroke="transparent" points="408,-862.5 408,-897.5 661,-897.5 661,-862.5 408,-862.5"/>
<polygon fill="none" stroke="#000000" points="408,-862.5 408,-897.5 661,-897.5 661,-862.5 408,-862.5"/>
<text text-anchor="start" x="434.3643" y="-875.3" font-family="Arial Bold" font-size="18.00" fill="#000000">public.stocks</text>
<text text-anchor="start" x="537.3819" y="-875.3" font-family="Arial" font-size="14.00" fill="#000000"> </text>
<text text-anchor="start" x="541.2725" y="-875.3" font-family="Arial" font-size="14.00" fill="#666666">[BASE TABLE]</text>
<polygon fill="none" stroke="#000000" points="408,-832.5 408,-862.5 661,-862.5 661,-832.5 408,-832.5"/>
<text text-anchor="start" x="415" y="-843.9" font-family="Arial" font-size="14.00" fill="#000000">id </text>
<text text-anchor="start" x="429.7798" y="-843.9" font-family="Arial" font-size="14.00" fill="#666666">[bigint]</text>
<polygon fill="none" stroke="#000000" points="408,-802.5 408,-832.5 661,-832.5 661,-802.5 408,-802.5"/>
<text text-anchor="start" x="415" y="-813.9" font-family="Arial" font-size="14.00" fill="#000000">recruitment_id </text>
<text text-anchor="start" x="507.5624" y="-813.9" font-family="Arial" font-size="14.00" fill="#666666">[bigint]</text>
<polygon fill="none" stroke="#000000" points="408,-772.5 408,-802.5 661,-802.5 661,-772.5 408,-772.5"/>
<text text-anchor="start" x="415" y="-783.9" font-family="Arial" font-size="14.00" fill="#000000">user_id </text>
<text text-anchor="start" x="464.7882" y="-783.9" font-family="Arial" font-size="14.00" fill="#666666">[bigint]</text>
<polygon fill="none" stroke="#000000" points="408,-742.5 408,-772.5 661,-772.5 661,-742.5 408,-742.5"/>
<text text-anchor="start" x="415" y="-753.9" font-family="Arial" font-size="14.00" fill="#000000">created_at </text>
<text text-anchor="start" x="485.028" y="-753.9" font-family="Arial" font-size="14.00" fill="#666666">[timestamp with time zone]</text>
<polygon fill="none" stroke="#000000" points="408,-712.5 408,-742.5 661,-742.5 661,-712.5 408,-712.5"/>
<text text-anchor="start" x="414.6915" y="-723.9" font-family="Arial" font-size="14.00" fill="#000000">updated_at </text>
<text text-anchor="start" x="488.6241" y="-723.9" font-family="Arial" font-size="14.00" fill="#666666">[timestamp with time zone]</text>
<polygon fill="none" stroke="#000000" stroke-width="3" points="406,-711.5 406,-899.5 662,-899.5 662,-711.5 406,-711.5"/>
</g>
<!-- public.recruitments -->
<g id="node2" class="node">
<title>public.recruitments</title>
<polygon fill="#efefef" stroke="transparent" points="186,-537.5 186,-572.5 448,-572.5 448,-537.5 186,-537.5"/>
<polygon fill="none" stroke="#000000" points="186,-537.5 186,-572.5 448,-572.5 448,-537.5 186,-537.5"/>
<text text-anchor="start" x="192.8685" y="-550.3" font-family="Arial Bold" font-size="18.00" fill="#000000">public.recruitments</text>
<text text-anchor="start" x="343.8777" y="-550.3" font-family="Arial" font-size="14.00" fill="#000000"> </text>
<text text-anchor="start" x="347.7683" y="-550.3" font-family="Arial" font-size="14.00" fill="#666666">[BASE TABLE]</text>
<polygon fill="none" stroke="#000000" points="186,-507.5 186,-537.5 448,-537.5 448,-507.5 186,-507.5"/>
<text text-anchor="start" x="193" y="-518.9" font-family="Arial" font-size="14.00" fill="#000000">id </text>
<text text-anchor="start" x="207.7798" y="-518.9" font-family="Arial" font-size="14.00" fill="#666666">[bigint]</text>
<polygon fill="none" stroke="#000000" points="186,-477.5 186,-507.5 448,-507.5 448,-477.5 186,-477.5"/>
<text text-anchor="start" x="193" y="-488.9" font-family="Arial" font-size="14.00" fill="#000000">title </text>
<text text-anchor="start" x="218.6676" y="-488.9" font-family="Arial" font-size="14.00" fill="#666666">[varchar(60)]</text>
<polygon fill="none" stroke="#000000" points="186,-447.5 186,-477.5 448,-477.5 448,-447.5 186,-447.5"/>
<text text-anchor="start" x="193" y="-458.9" font-family="Arial" font-size="14.00" fill="#000000">type </text>
<text text-anchor="start" x="223.3464" y="-458.9" font-family="Arial" font-size="14.00" fill="#666666">[varchar]</text>
<polygon fill="none" stroke="#000000" points="186,-417.5 186,-447.5 448,-447.5 448,-417.5 186,-417.5"/>
<text text-anchor="start" x="193" y="-428.9" font-family="Arial" font-size="14.00" fill="#000000">venue </text>
<text text-anchor="start" x="235.021" y="-428.9" font-family="Arial" font-size="14.00" fill="#666666">[varchar]</text>
<polygon fill="none" stroke="#000000" points="186,-387.5 186,-417.5 448,-417.5 448,-387.5 186,-387.5"/>
<text text-anchor="start" x="193" y="-398.9" font-family="Arial" font-size="14.00" fill="#000000">start_at </text>
<text text-anchor="start" x="243.5708" y="-398.9" font-family="Arial" font-size="14.00" fill="#666666">[timestamp with time zone]</text>
<polygon fill="none" stroke="#000000" points="186,-357.5 186,-387.5 448,-387.5 448,-357.5 186,-357.5"/>
<text text-anchor="start" x="193" y="-368.9" font-family="Arial" font-size="14.00" fill="#000000">detail </text>
<text text-anchor="start" x="230.3422" y="-368.9" font-family="Arial" font-size="14.00" fill="#666666">[varchar(10000)]</text>
<polygon fill="none" stroke="#000000" points="186,-327.5 186,-357.5 448,-357.5 448,-327.5 186,-327.5"/>
<text text-anchor="start" x="193" y="-338.9" font-family="Arial" font-size="14.00" fill="#000000">closing_at </text>
<text text-anchor="start" x="259.9074" y="-338.9" font-family="Arial" font-size="14.00" fill="#666666">[timestamp with time zone]</text>
<polygon fill="none" stroke="#000000" points="186,-297.5 186,-327.5 448,-327.5 448,-297.5 186,-297.5"/>
<text text-anchor="start" x="193" y="-308.9" font-family="Arial" font-size="14.00" fill="#000000">prefecture_id </text>
<text text-anchor="start" x="278.5778" y="-308.9" font-family="Arial" font-size="14.00" fill="#666666">[bigint]</text>
<polygon fill="none" stroke="#000000" points="186,-267.5 186,-297.5 448,-297.5 448,-267.5 186,-267.5"/>
<text text-anchor="start" x="193" y="-278.9" font-family="Arial" font-size="14.00" fill="#000000">user_id </text>
<text text-anchor="start" x="242.7882" y="-278.9" font-family="Arial" font-size="14.00" fill="#666666">[bigint]</text>
<polygon fill="none" stroke="#000000" points="186,-237.5 186,-267.5 448,-267.5 448,-237.5 186,-237.5"/>
<text text-anchor="start" x="193" y="-248.9" font-family="Arial" font-size="14.00" fill="#000000">created_at </text>
<text text-anchor="start" x="263.028" y="-248.9" font-family="Arial" font-size="14.00" fill="#666666">[timestamp with time zone]</text>
<polygon fill="none" stroke="#000000" points="186,-207.5 186,-237.5 448,-237.5 448,-207.5 186,-207.5"/>
<text text-anchor="start" x="193" y="-218.9" font-family="Arial" font-size="14.00" fill="#000000">updated_at </text>
<text text-anchor="start" x="266.9326" y="-218.9" font-family="Arial" font-size="14.00" fill="#666666">[timestamp with time zone]</text>
<polygon fill="none" stroke="#000000" points="186,-177.5 186,-207.5 448,-207.5 448,-177.5 186,-177.5"/>
<text text-anchor="start" x="193" y="-188.9" font-family="Arial" font-size="14.00" fill="#000000">location_lat </text>
<text text-anchor="start" x="267.6872" y="-188.9" font-family="Arial" font-size="14.00" fill="#666666">[double precision]</text>
<polygon fill="none" stroke="#000000" points="186,-147.5 186,-177.5 448,-177.5 448,-147.5 186,-147.5"/>
<text text-anchor="start" x="193" y="-158.9" font-family="Arial" font-size="14.00" fill="#000000">location_lng </text>
<text text-anchor="start" x="271.5792" y="-158.9" font-family="Arial" font-size="14.00" fill="#666666">[double precision]</text>
<polygon fill="none" stroke="#000000" points="186,-117.5 186,-147.5 448,-147.5 448,-117.5 186,-117.5"/>
<text text-anchor="start" x="193" y="-128.9" font-family="Arial" font-size="14.00" fill="#000000">status </text>
<text text-anchor="start" x="234.237" y="-128.9" font-family="Arial" font-size="14.00" fill="#666666">[recruitment_status]</text>
<polygon fill="none" stroke="#000000" points="186,-87.5 186,-117.5 448,-117.5 448,-87.5 186,-87.5"/>
<text text-anchor="start" x="192.5302" y="-98.9" font-family="Arial" font-size="14.00" fill="#000000">published_at </text>
<text text-anchor="start" x="275.7854" y="-98.9" font-family="Arial" font-size="14.00" fill="#666666">[timestamp with time zone]</text>
<polygon fill="none" stroke="#000000" points="186,-57.5 186,-87.5 448,-87.5 448,-57.5 186,-57.5"/>
<text text-anchor="start" x="193" y="-68.9" font-family="Arial" font-size="14.00" fill="#000000">sport_id </text>
<text text-anchor="start" x="246.6788" y="-68.9" font-family="Arial" font-size="14.00" fill="#666666">[bigint]</text>
</g>
<!-- public.stocks&#45;&gt;public.recruitments -->
<g id="edge1" class="edge">
<title>public.stocks:recruitment_id&#45;&gt;public.recruitments:id</title>
<path fill="none" stroke="#000000" d="M398.0083,-816.7352C345.9693,-808.0261 387.3579,-726.7666 408,-667 417.4041,-639.7715 438.5959,-643.2285 448,-616 461.566,-576.7212 489.5556,-522.5 448,-522.5"/>
<polygon fill="#000000" stroke="#000000" points="398.0292,-816.7367 407.6565,-821.9869 403.0146,-817.1183 408,-817.5 408,-817.5 408,-817.5 403.0146,-817.1183 408.3435,-813.0131 398.0292,-816.7367 398.0292,-816.7367"/>
<text text-anchor="start" x="6.5005" y="-827.5" font-family="Arial" font-size="10.00" fill="#000000">FOREIGN KEY (recruitment_id) REFERENCES recruitments(id) ON DELETE CASCADE</text>
</g>
<!-- public.users -->
<g id="node3" class="node">
<title>public.users</title>
<polygon fill="#efefef" stroke="transparent" points="552,-552.5 552,-587.5 954,-587.5 954,-552.5 552,-552.5"/>
<polygon fill="none" stroke="#000000" points="552,-552.5 552,-587.5 954,-587.5 954,-552.5 552,-552.5"/>
<text text-anchor="start" x="656.3662" y="-565.3" font-family="Arial Bold" font-size="18.00" fill="#000000">public.users</text>
<text text-anchor="start" x="752.38" y="-565.3" font-family="Arial" font-size="14.00" fill="#000000"> </text>
<text text-anchor="start" x="756.2706" y="-565.3" font-family="Arial" font-size="14.00" fill="#666666">[BASE TABLE]</text>
<polygon fill="none" stroke="#000000" points="552,-522.5 552,-552.5 954,-552.5 954,-522.5 552,-522.5"/>
<text text-anchor="start" x="559" y="-533.9" font-family="Arial" font-size="14.00" fill="#000000">id </text>
<text text-anchor="start" x="573.7798" y="-533.9" font-family="Arial" font-size="14.00" fill="#666666">[bigint]</text>
<polygon fill="none" stroke="#000000" points="552,-492.5 552,-522.5 954,-522.5 954,-492.5 552,-492.5"/>
<text text-anchor="start" x="559" y="-503.9" font-family="Arial" font-size="14.00" fill="#000000">name </text>
<text text-anchor="start" x="597.899" y="-503.9" font-family="Arial" font-size="14.00" fill="#666666">[varchar(50)]</text>
<polygon fill="none" stroke="#000000" points="552,-462.5 552,-492.5 954,-492.5 954,-462.5 552,-462.5"/>
<text text-anchor="start" x="559" y="-473.9" font-family="Arial" font-size="14.00" fill="#000000">email </text>
<text text-anchor="start" x="596.3296" y="-473.9" font-family="Arial" font-size="14.00" fill="#666666">[varchar(100)]</text>
<polygon fill="none" stroke="#000000" points="552,-432.5 552,-462.5 954,-462.5 954,-432.5 552,-432.5"/>
<text text-anchor="start" x="559" y="-443.9" font-family="Arial" font-size="14.00" fill="#000000">role </text>
<text text-anchor="start" x="586.223" y="-443.9" font-family="Arial" font-size="14.00" fill="#666666">[user_role]</text>
<polygon fill="none" stroke="#000000" points="552,-402.5 552,-432.5 954,-432.5 954,-402.5 552,-402.5"/>
<text text-anchor="start" x="559" y="-413.9" font-family="Arial" font-size="14.00" fill="#000000">avatar </text>
<text text-anchor="start" x="601.7896" y="-413.9" font-family="Arial" font-size="14.00" fill="#666666">[varchar]</text>
<polygon fill="none" stroke="#000000" points="552,-372.5 552,-402.5 954,-402.5 954,-372.5 552,-372.5"/>
<text text-anchor="start" x="559" y="-383.9" font-family="Arial" font-size="14.00" fill="#000000">introduction </text>
<text text-anchor="start" x="635.2412" y="-383.9" font-family="Arial" font-size="14.00" fill="#666666">[varchar(160)]</text>
<polygon fill="none" stroke="#000000" points="552,-342.5 552,-372.5 954,-372.5 954,-342.5 552,-342.5"/>
<text text-anchor="start" x="559" y="-353.9" font-family="Arial" font-size="14.00" fill="#000000">email_verification_status </text>
<text text-anchor="start" x="716.1332" y="-353.9" font-family="Arial" font-size="14.00" fill="#666666">[email_verification_status]</text>
<polygon fill="none" stroke="#000000" points="552,-312.5 552,-342.5 954,-342.5 954,-312.5 552,-312.5"/>
<text text-anchor="start" x="559" y="-323.9" font-family="Arial" font-size="14.00" fill="#000000">email_verification_code </text>
<text text-anchor="start" x="709.1346" y="-323.9" font-family="Arial" font-size="14.00" fill="#666666">[varchar]</text>
<polygon fill="none" stroke="#000000" points="552,-282.5 552,-312.5 954,-312.5 954,-282.5 552,-282.5"/>
<text text-anchor="start" x="558.9138" y="-293.9" font-family="Arial" font-size="14.00" fill="#000000">email_verification_code_expires_at </text>
<text text-anchor="start" x="781.4018" y="-293.9" font-family="Arial" font-size="14.00" fill="#666666">[timestamp with time zone]</text>
<polygon fill="none" stroke="#000000" points="552,-252.5 552,-282.5 954,-282.5 954,-252.5 552,-252.5"/>
<text text-anchor="start" x="559" y="-263.9" font-family="Arial" font-size="14.00" fill="#000000">password_digest </text>
<text text-anchor="start" x="667.9158" y="-263.9" font-family="Arial" font-size="14.00" fill="#666666">[varchar]</text>
<polygon fill="none" stroke="#000000" points="552,-222.5 552,-252.5 954,-252.5 954,-222.5 552,-222.5"/>
<text text-anchor="start" x="559" y="-233.9" font-family="Arial" font-size="14.00" fill="#000000">created_at </text>
<text text-anchor="start" x="629.028" y="-233.9" font-family="Arial" font-size="14.00" fill="#666666">[timestamp with time zone]</text>
<polygon fill="none" stroke="#000000" points="552,-192.5 552,-222.5 954,-222.5 954,-192.5 552,-192.5"/>
<text text-anchor="start" x="559" y="-203.9" font-family="Arial" font-size="14.00" fill="#000000">updated_at </text>
<text text-anchor="start" x="632.9326" y="-203.9" font-family="Arial" font-size="14.00" fill="#666666">[timestamp with time zone]</text>
<polygon fill="none" stroke="#000000" points="552,-162.5 552,-192.5 954,-192.5 954,-162.5 552,-162.5"/>
<text text-anchor="start" x="559" y="-173.9" font-family="Arial" font-size="14.00" fill="#000000">last_sign_in_at </text>
<text text-anchor="start" x="656.2524" y="-173.9" font-family="Arial" font-size="14.00" fill="#666666">[timestamp with time zone]</text>
<polygon fill="none" stroke="#000000" points="552,-132.5 552,-162.5 954,-162.5 954,-132.5 552,-132.5"/>
<text text-anchor="start" x="559" y="-143.9" font-family="Arial" font-size="14.00" fill="#000000">unverified_email </text>
<text text-anchor="start" x="664.7896" y="-143.9" font-family="Arial" font-size="14.00" fill="#666666">[varchar(100)]</text>
<polygon fill="none" stroke="#000000" points="552,-102.5 552,-132.5 954,-132.5 954,-102.5 552,-102.5"/>
<text text-anchor="start" x="559" y="-113.9" font-family="Arial" font-size="14.00" fill="#000000">password_reset_token </text>
<text text-anchor="start" x="703.7082" y="-113.9" font-family="Arial" font-size="14.00" fill="#666666">[varchar]</text>
<polygon fill="none" stroke="#000000" points="552,-72.5 552,-102.5 954,-102.5 954,-72.5 552,-72.5"/>
<text text-anchor="start" x="559" y="-83.9" font-family="Arial" font-size="14.00" fill="#000000">password_reset_token_expires_at </text>
<text text-anchor="start" x="776.0616" y="-83.9" font-family="Arial" font-size="14.00" fill="#666666">[timestamp with time zone]</text>
<polygon fill="none" stroke="#000000" points="552,-42.5 552,-72.5 954,-72.5 954,-42.5 552,-42.5"/>
<text text-anchor="start" x="559" y="-53.9" font-family="Arial" font-size="14.00" fill="#000000">website_url </text>
<text text-anchor="start" x="633.6746" y="-53.9" font-family="Arial" font-size="14.00" fill="#666666">[varchar]</text>
</g>
<!-- public.stocks&#45;&gt;public.users -->
<g id="edge2" class="edge">
<title>public.stocks:user_id&#45;&gt;public.users:id</title>
<path fill="none" stroke="#000000" d="M671.1967,-786.395C711.3909,-776.8249 690.1683,-707.3516 661,-667 631.1121,-625.653 581.8879,-672.347 552,-631 527.6556,-597.3219 510.4444,-537.5 552,-537.5"/>
<polygon fill="#000000" stroke="#000000" points="670.9418,-786.4226 660.5152,-783.0262 665.9709,-786.9613 661,-787.5 661,-787.5 661,-787.5 665.9709,-786.9613 661.4848,-791.9738 670.9418,-786.4226 670.9418,-786.4226"/>
<text text-anchor="start" x="668.0535" y="-797.5" font-family="Arial" font-size="10.00" fill="#000000">FOREIGN KEY (user_id) REFERENCES users(id) ON DELETE CASCADE</text>
</g>
</g>
</svg>
