<?xml version="1.0" encoding="UTF-8" standalone="no"?>
<!DOCTYPE svg PUBLIC "-//W3C//DTD SVG 1.1//EN"
 "http://www.w3.org/Graphics/SVG/1.1/DTD/svg11.dtd">
<!-- Generated by graphviz version 2.40.1 (20161225.0304)
 -->
<!-- Title: public.entries Pages: 1 -->
<svg width="962pt" height="952pt"
 viewBox="0.00 0.00 962.00 952.00" xmlns="http://www.w3.org/2000/svg" xmlns:xlink="http://www.w3.org/1999/xlink">
<g id="graph0" class="graph" transform="scale(1 1) rotate(0) translate(4 948)">
<title>public.entries</title>
<polygon fill="#ffffff" stroke="transparent" points="-4,4 -4,-948 958,-948 958,4 -4,4"/>
<!-- public.entries -->
<g id="node1" class="node">
<title>public.entries</title>
<polygon fill="#efefef" stroke="transparent" points="354,-862.5 354,-897.5 607,-897.5 607,-862.5 354,-862.5"/>
<polygon fill="none" stroke="#000000" points="354,-862.5 354,-897.5 607,-897.5 607,-862.5 354,-862.5"/>
<text text-anchor="start" x="378.8649" y="-875.3" font-family="Arial Bold" font-size="18.00" fill="#000000">public.entries</text>
<text text-anchor="start" x="484.8813" y="-875.3" font-family="Arial" font-size="14.00" fill="#000000"> </text>
<text text-anchor="start" x="488.7719" y="-875.3" font-family="Arial" font-size="14.00" fill="#666666">[BASE TABLE]</text>
<polygon fill="none" stroke="#000000" points="354,-832.5 354,-862.5 607,-862.5 607,-832.5 354,-832.5"/>
<text text-anchor="start" x="361" y="-843.9" font-family="Arial" font-size="14.00" fill="#000000">id </text>
<text text-anchor="start" x="375.7798" y="-843.9" font-family="Arial" font-size="14.00" fill="#666666">[bigint]</text>
<polygon fill="none" stroke="#000000" points="354,-802.5 354,-832.5 607,-832.5 607,-802.5 354,-802.5"/>
<text text-anchor="start" x="361" y="-813.9" font-family="Arial" font-size="14.00" fill="#000000">room_id </text>
<text text-anchor="start" x="415.4488" y="-813.9" font-family="Arial" font-size="14.00" fill="#666666">[bigint]</text>
<polygon fill="none" stroke="#000000" points="354,-772.5 354,-802.5 607,-802.5 607,-772.5 354,-772.5"/>
<text text-anchor="start" x="361" y="-783.9" font-family="Arial" font-size="14.00" fill="#000000">user_id </text>
<text text-anchor="start" x="410.7882" y="-783.9" font-family="Arial" font-size="14.00" fill="#666666">[bigint]</text>
<polygon fill="none" stroke="#000000" points="354,-742.5 354,-772.5 607,-772.5 607,-742.5 354,-742.5"/>
<text text-anchor="start" x="361" y="-753.9" font-family="Arial" font-size="14.00" fill="#000000">created_at </text>
<text text-anchor="start" x="431.028" y="-753.9" font-family="Arial" font-size="14.00" fill="#666666">[timestamp with time zone]</text>
<polygon fill="none" stroke="#000000" points="354,-712.5 354,-742.5 607,-742.5 607,-712.5 354,-712.5"/>
<text text-anchor="start" x="360.6915" y="-723.9" font-family="Arial" font-size="14.00" fill="#000000">updated_at </text>
<text text-anchor="start" x="434.6241" y="-723.9" font-family="Arial" font-size="14.00" fill="#666666">[timestamp with time zone]</text>
<polygon fill="none" stroke="#000000" stroke-width="3" points="352,-711.5 352,-899.5 608,-899.5 608,-711.5 352,-711.5"/>
</g>
<!-- public.rooms -->
<g id="node2" class="node">
<title>public.rooms</title>
<polygon fill="#efefef" stroke="transparent" points="139,-342.5 139,-377.5 392,-377.5 392,-342.5 139,-342.5"/>
<polygon fill="none" stroke="#000000" points="139,-342.5 139,-377.5 392,-377.5 392,-342.5 139,-342.5"/>
<text text-anchor="start" x="165.8701" y="-355.3" font-family="Arial Bold" font-size="18.00" fill="#000000">public.rooms</text>
<text text-anchor="start" x="267.8761" y="-355.3" font-family="Arial" font-size="14.00" fill="#000000"> </text>
<text text-anchor="start" x="271.7667" y="-355.3" font-family="Arial" font-size="14.00" fill="#666666">[BASE TABLE]</text>
<polygon fill="none" stroke="#000000" points="139,-312.5 139,-342.5 392,-342.5 392,-312.5 139,-312.5"/>
<text text-anchor="start" x="146" y="-323.9" font-family="Arial" font-size="14.00" fill="#000000">id </text>
<text text-anchor="start" x="160.7798" y="-323.9" font-family="Arial" font-size="14.00" fill="#666666">[bigint]</text>
<polygon fill="none" stroke="#000000" points="139,-282.5 139,-312.5 392,-312.5 392,-282.5 139,-282.5"/>
<text text-anchor="start" x="146" y="-293.9" font-family="Arial" font-size="14.00" fill="#000000">created_at </text>
<text text-anchor="start" x="216.028" y="-293.9" font-family="Arial" font-size="14.00" fill="#666666">[timestamp with time zone]</text>
<polygon fill="none" stroke="#000000" points="139,-252.5 139,-282.5 392,-282.5 392,-252.5 139,-252.5"/>
<text text-anchor="start" x="145.6915" y="-263.9" font-family="Arial" font-size="14.00" fill="#000000">updated_at </text>
<text text-anchor="start" x="219.6241" y="-263.9" font-family="Arial" font-size="14.00" fill="#666666">[timestamp with time zone]</text>
</g>
<!-- public.entries&#45;&gt;public.rooms -->
<g id="edge1" class="edge">
<title>public.entries:room_id&#45;&gt;public.rooms:id</title>
<path fill="none" stroke="#000000" d="M343.8051,-815.7257C262.3626,-783.6525 497.3762,-327.5 392,-327.5"/>
<polygon fill="#000000" stroke="#000000" points="344.1481,-815.7853 353.2284,-821.9334 349.074,-816.6427 354,-817.5 354,-817.5 354,-817.5 349.074,-816.6427 354.7716,-813.0666 344.1481,-815.7853 344.1481,-815.7853"/>
<text text-anchor="start" x="6.7245" y="-827.5" font-family="Arial" font-size="10.00" fill="#000000">FOREIGN KEY (room_id) REFERENCES rooms(id) ON DELETE CASCADE</text>
</g>
<!-- public.users -->
<g id="node3" class="node">
<title>public.users</title>
<polygon fill="#efefef" stroke="transparent" points="496,-552.5 496,-587.5 898,-587.5 898,-552.5 496,-552.5"/>
<polygon fill="none" stroke="#000000" points="496,-552.5 496,-587.5 898,-587.5 898,-552.5 496,-552.5"/>
<text text-anchor="start" x="600.3662" y="-565.3" font-family="Arial Bold" font-size="18.00" fill="#000000">public.users</text>
<text text-anchor="start" x="696.38" y="-565.3" font-family="Arial" font-size="14.00" fill="#000000"> </text>
<text text-anchor="start" x="700.2706" y="-565.3" font-family="Arial" font-size="14.00" fill="#666666">[BASE TABLE]</text>
<polygon fill="none" stroke="#000000" points="496,-522.5 496,-552.5 898,-552.5 898,-522.5 496,-522.5"/>
<text text-anchor="start" x="503" y="-533.9" font-family="Arial" font-size="14.00" fill="#000000">id </text>
<text text-anchor="start" x="517.7798" y="-533.9" font-family="Arial" font-size="14.00" fill="#666666">[bigint]</text>
<polygon fill="none" stroke="#000000" points="496,-492.5 496,-522.5 898,-522.5 898,-492.5 496,-492.5"/>
<text text-anchor="start" x="503" y="-503.9" font-family="Arial" font-size="14.00" fill="#000000">name </text>
<text text-anchor="start" x="541.899" y="-503.9" font-family="Arial" font-size="14.00" fill="#666666">[varchar(50)]</text>
<polygon fill="none" stroke="#000000" points="496,-462.5 496,-492.5 898,-492.5 898,-462.5 496,-462.5"/>
<text text-anchor="start" x="503" y="-473.9" font-family="Arial" font-size="14.00" fill="#000000">email </text>
<text text-anchor="start" x="540.3296" y="-473.9" font-family="Arial" font-size="14.00" fill="#666666">[varchar(100)]</text>
<polygon fill="none" stroke="#000000" points="496,-432.5 496,-462.5 898,-462.5 898,-432.5 496,-432.5"/>
<text text-anchor="start" x="503" y="-443.9" font-family="Arial" font-size="14.00" fill="#000000">role </text>
<text text-anchor="start" x="530.223" y="-443.9" font-family="Arial" font-size="14.00" fill="#666666">[user_role]</text>
<polygon fill="none" stroke="#000000" points="496,-402.5 496,-432.5 898,-432.5 898,-402.5 496,-402.5"/>
<text text-anchor="start" x="503" y="-413.9" font-family="Arial" font-size="14.00" fill="#000000">avatar </text>
<text text-anchor="start" x="545.7896" y="-413.9" font-family="Arial" font-size="14.00" fill="#666666">[varchar]</text>
<polygon fill="none" stroke="#000000" points="496,-372.5 496,-402.5 898,-402.5 898,-372.5 496,-372.5"/>
<text text-anchor="start" x="503" y="-383.9" font-family="Arial" font-size="14.00" fill="#000000">introduction </text>
<text text-anchor="start" x="579.2412" y="-383.9" font-family="Arial" font-size="14.00" fill="#666666">[varchar(160)]</text>
<polygon fill="none" stroke="#000000" points="496,-342.5 496,-372.5 898,-372.5 898,-342.5 496,-342.5"/>
<text text-anchor="start" x="503" y="-353.9" font-family="Arial" font-size="14.00" fill="#000000">email_verification_status </text>
<text text-anchor="start" x="660.1332" y="-353.9" font-family="Arial" font-size="14.00" fill="#666666">[email_verification_status]</text>
<polygon fill="none" stroke="#000000" points="496,-312.5 496,-342.5 898,-342.5 898,-312.5 496,-312.5"/>
<text text-anchor="start" x="503" y="-323.9" font-family="Arial" font-size="14.00" fill="#000000">email_verification_code </text>
<text text-anchor="start" x="653.1346" y="-323.9" font-family="Arial" font-size="14.00" fill="#666666">[varchar]</text>
<polygon fill="none" stroke="#000000" points="496,-282.5 496,-312.5 898,-312.5 898,-282.5 496,-282.5"/>
<text text-anchor="start" x="502.9138" y="-293.9" font-family="Arial" font-size="14.00" fill="#000000">email_verification_code_expires_at </text>
<text text-anchor="start" x="725.4018" y="-293.9" font-family="Arial" font-size="14.00" fill="#666666">[timestamp with time zone]</text>
<polygon fill="none" stroke="#000000" points="496,-252.5 496,-282.5 898,-282.5 898,-252.5 496,-252.5"/>
<text text-anchor="start" x="503" y="-263.9" font-family="Arial" font-size="14.00" fill="#000000">password_digest </text>
<text text-anchor="start" x="611.9158" y="-263.9" font-family="Arial" font-size="14.00" fill="#666666">[varchar]</text>
<polygon fill="none" stroke="#000000" points="496,-222.5 496,-252.5 898,-252.5 898,-222.5 496,-222.5"/>
<text text-anchor="start" x="503" y="-233.9" font-family="Arial" font-size="14.00" fill="#000000">created_at </text>
<text text-anchor="start" x="573.028" y="-233.9" font-family="Arial" font-size="14.00" fill="#666666">[timestamp with time zone]</text>
<polygon fill="none" stroke="#000000" points="496,-192.5 496,-222.5 898,-222.5 898,-192.5 496,-192.5"/>
<text text-anchor="start" x="503" y="-203.9" font-family="Arial" font-size="14.00" fill="#000000">updated_at </text>
<text text-anchor="start" x="576.9326" y="-203.9" font-family="Arial" font-size="14.00" fill="#666666">[timestamp with time zone]</text>
<polygon fill="none" stroke="#000000" points="496,-162.5 496,-192.5 898,-192.5 898,-162.5 496,-162.5"/>
<text text-anchor="start" x="503" y="-173.9" font-family="Arial" font-size="14.00" fill="#000000">last_sign_in_at </text>
<text text-anchor="start" x="600.2524" y="-173.9" font-family="Arial" font-size="14.00" fill="#666666">[timestamp with time zone]</text>
<polygon fill="none" stroke="#000000" points="496,-132.5 496,-162.5 898,-162.5 898,-132.5 496,-132.5"/>
<text text-anchor="start" x="503" y="-143.9" font-family="Arial" font-size="14.00" fill="#000000">unverified_email </text>
<text text-anchor="start" x="608.7896" y="-143.9" font-family="Arial" font-size="14.00" fill="#666666">[varchar(100)]</text>
<polygon fill="none" stroke="#000000" points="496,-102.5 496,-132.5 898,-132.5 898,-102.5 496,-102.5"/>
<text text-anchor="start" x="503" y="-113.9" font-family="Arial" font-size="14.00" fill="#000000">password_reset_token </text>
<text text-anchor="start" x="647.7082" y="-113.9" font-family="Arial" font-size="14.00" fill="#666666">[varchar]</text>
<polygon fill="none" stroke="#000000" points="496,-72.5 496,-102.5 898,-102.5 898,-72.5 496,-72.5"/>
<text text-anchor="start" x="503" y="-83.9" font-family="Arial" font-size="14.00" fill="#000000">password_reset_token_expires_at </text>
<text text-anchor="start" x="720.0616" y="-83.9" font-family="Arial" font-size="14.00" fill="#666666">[timestamp with time zone]</text>
<polygon fill="none" stroke="#000000" points="496,-42.5 496,-72.5 898,-72.5 898,-42.5 496,-42.5"/>
<text text-anchor="start" x="503" y="-53.9" font-family="Arial" font-size="14.00" fill="#000000">website_url </text>
<text text-anchor="start" x="577.6746" y="-53.9" font-family="Arial" font-size="14.00" fill="#666666">[varchar]</text>
</g>
<!-- public.entries&#45;&gt;public.users -->
<g id="edge2" class="edge">
<title>public.entries:user_id&#45;&gt;public.users:id</title>
<path fill="none" stroke="#000000" d="M617.1983,-786.3939C657.4061,-776.8138 636.2766,-707.273 607,-667 576.5044,-625.0501 526.4956,-672.9499 496,-631 471.5652,-597.3874 454.4444,-537.5 496,-537.5"/>
<polygon fill="#000000" stroke="#000000" points="616.9417,-786.4216 606.5147,-783.0262 611.9708,-786.9608 607,-787.5 607,-787.5 607,-787.5 611.9708,-786.9608 607.4853,-791.9738 616.9417,-786.4216 616.9417,-786.4216"/>
<text text-anchor="start" x="614.329" y="-797.5" font-family="Arial" font-size="10.00" fill="#000000">FOREIGN KEY (user_id) REFERENCES users(id) ON DELETE SET NULL</text>
</g>
</g>
</svg>
