<?xml version="1.0" encoding="UTF-8" standalone="no"?>
<!DOCTYPE svg PUBLIC "-//W3C//DTD SVG 1.1//EN"
 "http://www.w3.org/Graphics/SVG/1.1/DTD/svg11.dtd">
<!-- Generated by graphviz version 2.40.1 (20161225.0304)
 -->
<!-- Title: public.stocks Pages: 1 -->
<svg width="1016pt" height="922pt"
 viewBox="0.00 0.00 1016.00 922.00" xmlns="http://www.w3.org/2000/svg" xmlns:xlink="http://www.w3.org/1999/xlink">
<g id="graph0" class="graph" transform="scale(1 1) rotate(0) translate(4 918)">
<title>public.stocks</title>
<polygon fill="#ffffff" stroke="transparent" points="-4,4 -4,-918 1012,-918 1012,4 -4,4"/>
<!-- public.stocks -->
<g id="node1" class="node">
<title>public.stocks</title>
<polygon fill="#efefef" stroke="transparent" points="347,-832.5 347,-867.5 600,-867.5 600,-832.5 347,-832.5"/>
<polygon fill="none" stroke="#000000" points="347,-832.5 347,-867.5 600,-867.5 600,-832.5 347,-832.5"/>
<text text-anchor="start" x="373.3643" y="-845.3" font-family="Arial Bold" font-size="18.00" fill="#000000">public.stocks</text>
<text text-anchor="start" x="476.3819" y="-845.3" font-family="Arial" font-size="14.00" fill="#000000"> </text>
<text text-anchor="start" x="480.2725" y="-845.3" font-family="Arial" font-size="14.00" fill="#666666">[BASE TABLE]</text>
<polygon fill="none" stroke="#000000" points="347,-802.5 347,-832.5 600,-832.5 600,-802.5 347,-802.5"/>
<text text-anchor="start" x="354" y="-813.9" font-family="Arial" font-size="14.00" fill="#000000">id </text>
<text text-anchor="start" x="368.7798" y="-813.9" font-family="Arial" font-size="14.00" fill="#666666">[bigint]</text>
<polygon fill="none" stroke="#000000" points="347,-772.5 347,-802.5 600,-802.5 600,-772.5 347,-772.5"/>
<text text-anchor="start" x="354" y="-783.9" font-family="Arial" font-size="14.00" fill="#000000">user_id </text>
<text text-anchor="start" x="403.7882" y="-783.9" font-family="Arial" font-size="14.00" fill="#666666">[bigint]</text>
<polygon fill="none" stroke="#000000" points="347,-742.5 347,-772.5 600,-772.5 600,-742.5 347,-742.5"/>
<text text-anchor="start" x="354" y="-753.9" font-family="Arial" font-size="14.00" fill="#000000">recruitment_id </text>
<text text-anchor="start" x="446.5624" y="-753.9" font-family="Arial" font-size="14.00" fill="#666666">[bigint]</text>
<polygon fill="none" stroke="#000000" points="347,-712.5 347,-742.5 600,-742.5 600,-712.5 347,-712.5"/>
<text text-anchor="start" x="354" y="-723.9" font-family="Arial" font-size="14.00" fill="#000000">created_at </text>
<text text-anchor="start" x="424.028" y="-723.9" font-family="Arial" font-size="14.00" fill="#666666">[timestamp with time zone]</text>
<polygon fill="none" stroke="#000000" points="347,-682.5 347,-712.5 600,-712.5 600,-682.5 347,-682.5"/>
<text text-anchor="start" x="353.6915" y="-693.9" font-family="Arial" font-size="14.00" fill="#000000">updated_at </text>
<text text-anchor="start" x="427.6241" y="-693.9" font-family="Arial" font-size="14.00" fill="#666666">[timestamp with time zone]</text>
<polygon fill="none" stroke="#000000" stroke-width="3" points="345,-681.5 345,-869.5 601,-869.5 601,-681.5 345,-681.5"/>
</g>
<!-- public.users -->
<g id="node2" class="node">
<title>public.users</title>
<polygon fill="#efefef" stroke="transparent" points="55,-522.5 55,-557.5 457,-557.5 457,-522.5 55,-522.5"/>
<polygon fill="none" stroke="#000000" points="55,-522.5 55,-557.5 457,-557.5 457,-522.5 55,-522.5"/>
<text text-anchor="start" x="159.3662" y="-535.3" font-family="Arial Bold" font-size="18.00" fill="#000000">public.users</text>
<text text-anchor="start" x="255.38" y="-535.3" font-family="Arial" font-size="14.00" fill="#000000"> </text>
<text text-anchor="start" x="259.2706" y="-535.3" font-family="Arial" font-size="14.00" fill="#666666">[BASE TABLE]</text>
<polygon fill="none" stroke="#000000" points="55,-492.5 55,-522.5 457,-522.5 457,-492.5 55,-492.5"/>
<text text-anchor="start" x="62" y="-503.9" font-family="Arial" font-size="14.00" fill="#000000">id </text>
<text text-anchor="start" x="76.7798" y="-503.9" font-family="Arial" font-size="14.00" fill="#666666">[bigint]</text>
<polygon fill="none" stroke="#000000" points="55,-462.5 55,-492.5 457,-492.5 457,-462.5 55,-462.5"/>
<text text-anchor="start" x="62" y="-473.9" font-family="Arial" font-size="14.00" fill="#000000">name </text>
<text text-anchor="start" x="100.899" y="-473.9" font-family="Arial" font-size="14.00" fill="#666666">[varchar(50)]</text>
<polygon fill="none" stroke="#000000" points="55,-432.5 55,-462.5 457,-462.5 457,-432.5 55,-432.5"/>
<text text-anchor="start" x="62" y="-443.9" font-family="Arial" font-size="14.00" fill="#000000">email </text>
<text text-anchor="start" x="99.3296" y="-443.9" font-family="Arial" font-size="14.00" fill="#666666">[varchar(100)]</text>
<polygon fill="none" stroke="#000000" points="55,-402.5 55,-432.5 457,-432.5 457,-402.5 55,-402.5"/>
<text text-anchor="start" x="62" y="-413.9" font-family="Arial" font-size="14.00" fill="#000000">unverified_email </text>
<text text-anchor="start" x="167.7896" y="-413.9" font-family="Arial" font-size="14.00" fill="#666666">[varchar(100)]</text>
<polygon fill="none" stroke="#000000" points="55,-372.5 55,-402.5 457,-402.5 457,-372.5 55,-372.5"/>
<text text-anchor="start" x="62" y="-383.9" font-family="Arial" font-size="14.00" fill="#000000">role </text>
<text text-anchor="start" x="89.223" y="-383.9" font-family="Arial" font-size="14.00" fill="#666666">[user_role]</text>
<polygon fill="none" stroke="#000000" points="55,-342.5 55,-372.5 457,-372.5 457,-342.5 55,-342.5"/>
<text text-anchor="start" x="62" y="-353.9" font-family="Arial" font-size="14.00" fill="#000000">avatar </text>
<text text-anchor="start" x="104.7896" y="-353.9" font-family="Arial" font-size="14.00" fill="#666666">[varchar]</text>
<polygon fill="none" stroke="#000000" points="55,-312.5 55,-342.5 457,-342.5 457,-312.5 55,-312.5"/>
<text text-anchor="start" x="62" y="-323.9" font-family="Arial" font-size="14.00" fill="#000000">introduction </text>
<text text-anchor="start" x="138.2412" y="-323.9" font-family="Arial" font-size="14.00" fill="#666666">[varchar(160)]</text>
<polygon fill="none" stroke="#000000" points="55,-282.5 55,-312.5 457,-312.5 457,-282.5 55,-282.5"/>
<text text-anchor="start" x="62" y="-293.9" font-family="Arial" font-size="14.00" fill="#000000">email_verification_status </text>
<text text-anchor="start" x="219.1332" y="-293.9" font-family="Arial" font-size="14.00" fill="#666666">[email_verification_status]</text>
<polygon fill="none" stroke="#000000" points="55,-252.5 55,-282.5 457,-282.5 457,-252.5 55,-252.5"/>
<text text-anchor="start" x="62" y="-263.9" font-family="Arial" font-size="14.00" fill="#000000">email_verification_code </text>
<text text-anchor="start" x="212.1346" y="-263.9" font-family="Arial" font-size="14.00" fill="#666666">[varchar]</text>
<polygon fill="none" stroke="#000000" points="55,-222.5 55,-252.5 457,-252.5 457,-222.5 55,-222.5"/>
<text text-anchor="start" x="61.9138" y="-233.9" font-family="Arial" font-size="14.00" fill="#000000">email_verification_code_expires_at </text>
<text text-anchor="start" x="284.4018" y="-233.9" font-family="Arial" font-size="14.00" fill="#666666">[timestamp with time zone]</text>
<polygon fill="none" stroke="#000000" points="55,-192.5 55,-222.5 457,-222.5 457,-192.5 55,-192.5"/>
<text text-anchor="start" x="62" y="-203.9" font-family="Arial" font-size="14.00" fill="#000000">password_digest </text>
<text text-anchor="start" x="170.9158" y="-203.9" font-family="Arial" font-size="14.00" fill="#666666">[varchar]</text>
<polygon fill="none" stroke="#000000" points="55,-162.5 55,-192.5 457,-192.5 457,-162.5 55,-162.5"/>
<text text-anchor="start" x="62" y="-173.9" font-family="Arial" font-size="14.00" fill="#000000">password_reset_token </text>
<text text-anchor="start" x="206.7082" y="-173.9" font-family="Arial" font-size="14.00" fill="#666666">[varchar]</text>
<polygon fill="none" stroke="#000000" points="55,-132.5 55,-162.5 457,-162.5 457,-132.5 55,-132.5"/>
<text text-anchor="start" x="62" y="-143.9" font-family="Arial" font-size="14.00" fill="#000000">password_reset_token_expires_at </text>
<text text-anchor="start" x="279.0616" y="-143.9" font-family="Arial" font-size="14.00" fill="#666666">[timestamp with time zone]</text>
<polygon fill="none" stroke="#000000" points="55,-102.5 55,-132.5 457,-132.5 457,-102.5 55,-102.5"/>
<text text-anchor="start" x="62" y="-113.9" font-family="Arial" font-size="14.00" fill="#000000">last_sign_in_at </text>
<text text-anchor="start" x="159.2524" y="-113.9" font-family="Arial" font-size="14.00" fill="#666666">[timestamp with time zone]</text>
<polygon fill="none" stroke="#000000" points="55,-72.5 55,-102.5 457,-102.5 457,-72.5 55,-72.5"/>
<text text-anchor="start" x="62" y="-83.9" font-family="Arial" font-size="14.00" fill="#000000">created_at </text>
<text text-anchor="start" x="132.028" y="-83.9" font-family="Arial" font-size="14.00" fill="#666666">[timestamp with time zone]</text>
<polygon fill="none" stroke="#000000" points="55,-42.5 55,-72.5 457,-72.5 457,-42.5 55,-42.5"/>
<text text-anchor="start" x="62" y="-53.9" font-family="Arial" font-size="14.00" fill="#000000">updated_at </text>
<text text-anchor="start" x="135.9326" y="-53.9" font-family="Arial" font-size="14.00" fill="#666666">[timestamp with time zone]</text>
</g>
<!-- public.stocks&#45;&gt;public.users -->
<g id="edge1" class="edge">
<title>public.stocks:user_id&#45;&gt;public.users:id</title>
<path fill="none" stroke="#000000" d="M336.8605,-786.6582C283.1679,-777.0886 309.8882,-688.1944 347,-637 377.1917,-595.3516 426.8083,-642.6484 457,-601 481.39,-567.3549 498.5556,-507.5 457,-507.5"/>
<polygon fill="#000000" stroke="#000000" points="337.0343,-786.6726 346.6277,-791.9846 342.0171,-787.0863 347,-787.5 347,-787.5 347,-787.5 342.0171,-787.0863 347.3723,-783.0154 337.0343,-786.6726 337.0343,-786.6726"/>
<text text-anchor="start" x="7.0535" y="-797.5" font-family="Arial" font-size="10.00" fill="#000000">FOREIGN KEY (user_id) REFERENCES users(id) ON DELETE CASCADE</text>
</g>
<!-- public.recruitments -->
<g id="node3" class="node">
<title>public.recruitments</title>
<polygon fill="#efefef" stroke="transparent" points="561,-522.5 561,-557.5 823,-557.5 823,-522.5 561,-522.5"/>
<polygon fill="none" stroke="#000000" points="561,-522.5 561,-557.5 823,-557.5 823,-522.5 561,-522.5"/>
<text text-anchor="start" x="567.8685" y="-535.3" font-family="Arial Bold" font-size="18.00" fill="#000000">public.recruitments</text>
<text text-anchor="start" x="718.8777" y="-535.3" font-family="Arial" font-size="14.00" fill="#000000"> </text>
<text text-anchor="start" x="722.7683" y="-535.3" font-family="Arial" font-size="14.00" fill="#666666">[BASE TABLE]</text>
<polygon fill="none" stroke="#000000" points="561,-492.5 561,-522.5 823,-522.5 823,-492.5 561,-492.5"/>
<text text-anchor="start" x="568" y="-503.9" font-family="Arial" font-size="14.00" fill="#000000">id </text>
<text text-anchor="start" x="582.7798" y="-503.9" font-family="Arial" font-size="14.00" fill="#666666">[bigint]</text>
<polygon fill="none" stroke="#000000" points="561,-462.5 561,-492.5 823,-492.5 823,-462.5 561,-462.5"/>
<text text-anchor="start" x="568" y="-473.9" font-family="Arial" font-size="14.00" fill="#000000">title </text>
<text text-anchor="start" x="593.6676" y="-473.9" font-family="Arial" font-size="14.00" fill="#666666">[varchar(60)]</text>
<polygon fill="none" stroke="#000000" points="561,-432.5 561,-462.5 823,-462.5 823,-432.5 561,-432.5"/>
<text text-anchor="start" x="568" y="-443.9" font-family="Arial" font-size="14.00" fill="#000000">category </text>
<text text-anchor="start" x="625.5722" y="-443.9" font-family="Arial" font-size="14.00" fill="#666666">[recruitment_category]</text>
<polygon fill="none" stroke="#000000" points="561,-402.5 561,-432.5 823,-432.5 823,-402.5 561,-402.5"/>
<text text-anchor="start" x="568" y="-413.9" font-family="Arial" font-size="14.00" fill="#000000">venue </text>
<text text-anchor="start" x="610.021" y="-413.9" font-family="Arial" font-size="14.00" fill="#666666">[varchar]</text>
<polygon fill="none" stroke="#000000" points="561,-372.5 561,-402.5 823,-402.5 823,-372.5 561,-372.5"/>
<text text-anchor="start" x="568" y="-383.9" font-family="Arial" font-size="14.00" fill="#000000">venue_lat </text>
<text text-anchor="start" x="632.5834" y="-383.9" font-family="Arial" font-size="14.00" fill="#666666">[double precision]</text>
<polygon fill="none" stroke="#000000" points="561,-342.5 561,-372.5 823,-372.5 823,-342.5 561,-342.5"/>
<text text-anchor="start" x="568" y="-353.9" font-family="Arial" font-size="14.00" fill="#000000">venue_lng </text>
<text text-anchor="start" x="636.4754" y="-353.9" font-family="Arial" font-size="14.00" fill="#666666">[double precision]</text>
<polygon fill="none" stroke="#000000" points="561,-312.5 561,-342.5 823,-342.5 823,-312.5 561,-312.5"/>
<text text-anchor="start" x="568" y="-323.9" font-family="Arial" font-size="14.00" fill="#000000">start_at </text>
<text text-anchor="start" x="618.5708" y="-323.9" font-family="Arial" font-size="14.00" fill="#666666">[timestamp with time zone]</text>
<polygon fill="none" stroke="#000000" points="561,-282.5 561,-312.5 823,-312.5 823,-282.5 561,-282.5"/>
<text text-anchor="start" x="568" y="-293.9" font-family="Arial" font-size="14.00" fill="#000000">closing_at </text>
<text text-anchor="start" x="634.9074" y="-293.9" font-family="Arial" font-size="14.00" fill="#666666">[timestamp with time zone]</text>
<polygon fill="none" stroke="#000000" points="561,-252.5 561,-282.5 823,-282.5 823,-252.5 561,-252.5"/>
<text text-anchor="start" x="568" y="-263.9" font-family="Arial" font-size="14.00" fill="#000000">detail </text>
<text text-anchor="start" x="605.3422" y="-263.9" font-family="Arial" font-size="14.00" fill="#666666">[varchar(10000)]</text>
<polygon fill="none" stroke="#000000" points="561,-222.5 561,-252.5 823,-252.5 823,-222.5 561,-222.5"/>
<text text-anchor="start" x="568" y="-233.9" font-family="Arial" font-size="14.00" fill="#000000">sport_id </text>
<text text-anchor="start" x="621.6788" y="-233.9" font-family="Arial" font-size="14.00" fill="#666666">[bigint]</text>
<polygon fill="none" stroke="#000000" points="561,-192.5 561,-222.5 823,-222.5 823,-192.5 561,-192.5"/>
<text text-anchor="start" x="568" y="-203.9" font-family="Arial" font-size="14.00" fill="#000000">prefecture_id </text>
<text text-anchor="start" x="653.5778" y="-203.9" font-family="Arial" font-size="14.00" fill="#666666">[bigint]</text>
<polygon fill="none" stroke="#000000" points="561,-162.5 561,-192.5 823,-192.5 823,-162.5 561,-162.5"/>
<text text-anchor="start" x="568" y="-173.9" font-family="Arial" font-size="14.00" fill="#000000">status </text>
<text text-anchor="start" x="609.237" y="-173.9" font-family="Arial" font-size="14.00" fill="#666666">[recruitment_status]</text>
<polygon fill="none" stroke="#000000" points="561,-132.5 561,-162.5 823,-162.5 823,-132.5 561,-132.5"/>
<text text-anchor="start" x="568" y="-143.9" font-family="Arial" font-size="14.00" fill="#000000">user_id </text>
<text text-anchor="start" x="617.7882" y="-143.9" font-family="Arial" font-size="14.00" fill="#666666">[bigint]</text>
<polygon fill="none" stroke="#000000" points="561,-102.5 561,-132.5 823,-132.5 823,-102.5 561,-102.5"/>
<text text-anchor="start" x="567.5302" y="-113.9" font-family="Arial" font-size="14.00" fill="#000000">published_at </text>
<text text-anchor="start" x="650.7854" y="-113.9" font-family="Arial" font-size="14.00" fill="#666666">[timestamp with time zone]</text>
<polygon fill="none" stroke="#000000" points="561,-72.5 561,-102.5 823,-102.5 823,-72.5 561,-72.5"/>
<text text-anchor="start" x="568" y="-83.9" font-family="Arial" font-size="14.00" fill="#000000">created_at </text>
<text text-anchor="start" x="638.028" y="-83.9" font-family="Arial" font-size="14.00" fill="#666666">[timestamp with time zone]</text>
<polygon fill="none" stroke="#000000" points="561,-42.5 561,-72.5 823,-72.5 823,-42.5 561,-42.5"/>
<text text-anchor="start" x="568" y="-53.9" font-family="Arial" font-size="14.00" fill="#000000">updated_at </text>
<text text-anchor="start" x="641.9326" y="-53.9" font-family="Arial" font-size="14.00" fill="#666666">[timestamp with time zone]</text>
</g>
<!-- public.stocks&#45;&gt;public.recruitments -->
<g id="edge2" class="edge">
<title>public.stocks:recruitment_id&#45;&gt;public.recruitments:id</title>
<path fill="none" stroke="#000000" d="M610.0603,-756.473C649.0973,-747.5643 619.9694,-682.6099 600,-637 590.539,-615.3913 570.461,-622.6087 561,-601 544.3332,-562.9332 519.4444,-507.5 561,-507.5"/>
<polygon fill="#000000" stroke="#000000" points="609.9483,-756.4844 599.543,-753.0233 604.9742,-756.9922 600,-757.5 600,-757.5 600,-757.5 604.9742,-756.9922 600.457,-761.9767 609.9483,-756.4844 609.9483,-756.4844"/>
<text text-anchor="start" x="606.5005" y="-767.5" font-family="Arial" font-size="10.00" fill="#000000">FOREIGN KEY (recruitment_id) REFERENCES recruitments(id) ON DELETE CASCADE</text>
</g>
</g>
</svg>
