<?xml version="1.0" encoding="UTF-8" standalone="no"?>
<!DOCTYPE svg PUBLIC "-//W3C//DTD SVG 1.1//EN"
 "http://www.w3.org/Graphics/SVG/1.1/DTD/svg11.dtd">
<!-- Generated by graphviz version 2.40.1 (20161225.0304)
 -->
<!-- Title: public.prefectures Pages: 1 -->
<svg width="713pt" height="892pt"
 viewBox="0.00 0.00 713.00 892.00" xmlns="http://www.w3.org/2000/svg" xmlns:xlink="http://www.w3.org/1999/xlink">
<g id="graph0" class="graph" transform="scale(1 1) rotate(0) translate(4 888)">
<title>public.prefectures</title>
<polygon fill="#ffffff" stroke="transparent" points="-4,4 -4,-888 709,-888 709,4 -4,4"/>
<!-- public.prefectures -->
<g id="node1" class="node">
<title>public.prefectures</title>
<polygon fill="#efefef" stroke="transparent" points="404,-165.5 404,-200.5 657,-200.5 657,-165.5 404,-165.5"/>
<polygon fill="none" stroke="#000000" points="404,-165.5 404,-200.5 657,-200.5 657,-165.5 404,-165.5"/>
<text text-anchor="start" x="410.8586" y="-178.3" font-family="Arial Bold" font-size="18.00" fill="#000000">public.prefectures</text>
<text text-anchor="start" x="552.8876" y="-178.3" font-family="Arial" font-size="14.00" fill="#000000"> </text>
<text text-anchor="start" x="556.7782" y="-178.3" font-family="Arial" font-size="14.00" fill="#666666">[BASE TABLE]</text>
<polygon fill="none" stroke="#000000" points="404,-135.5 404,-165.5 657,-165.5 657,-135.5 404,-135.5"/>
<text text-anchor="start" x="411" y="-146.9" font-family="Arial" font-size="14.00" fill="#000000">id </text>
<text text-anchor="start" x="425.7798" y="-146.9" font-family="Arial" font-size="14.00" fill="#666666">[bigint]</text>
<polygon fill="none" stroke="#000000" points="404,-105.5 404,-135.5 657,-135.5 657,-105.5 404,-105.5"/>
<text text-anchor="start" x="411" y="-116.9" font-family="Arial" font-size="14.00" fill="#000000">name </text>
<text text-anchor="start" x="449.899" y="-116.9" font-family="Arial" font-size="14.00" fill="#666666">[varchar]</text>
<polygon fill="none" stroke="#000000" points="404,-75.5 404,-105.5 657,-105.5 657,-75.5 404,-75.5"/>
<text text-anchor="start" x="411" y="-86.9" font-family="Arial" font-size="14.00" fill="#000000">created_at </text>
<text text-anchor="start" x="481.028" y="-86.9" font-family="Arial" font-size="14.00" fill="#666666">[timestamp with time zone]</text>
<polygon fill="none" stroke="#000000" points="404,-45.5 404,-75.5 657,-75.5 657,-45.5 404,-45.5"/>
<text text-anchor="start" x="410.6915" y="-56.9" font-family="Arial" font-size="14.00" fill="#000000">updated_at </text>
<text text-anchor="start" x="484.6241" y="-56.9" font-family="Arial" font-size="14.00" fill="#666666">[timestamp with time zone]</text>
<polygon fill="none" stroke="#000000" stroke-width="3" points="402,-44.5 402,-202.5 658,-202.5 658,-44.5 402,-44.5"/>
</g>
<!-- public.recruitments -->
<g id="node2" class="node">
<title>public.recruitments</title>
<polygon fill="#efefef" stroke="transparent" points="400,-805.5 400,-840.5 662,-840.5 662,-805.5 400,-805.5"/>
<polygon fill="none" stroke="#000000" points="400,-805.5 400,-840.5 662,-840.5 662,-805.5 400,-805.5"/>
<text text-anchor="start" x="406.8685" y="-818.3" font-family="Arial Bold" font-size="18.00" fill="#000000">public.recruitments</text>
<text text-anchor="start" x="557.8777" y="-818.3" font-family="Arial" font-size="14.00" fill="#000000"> </text>
<text text-anchor="start" x="561.7683" y="-818.3" font-family="Arial" font-size="14.00" fill="#666666">[BASE TABLE]</text>
<polygon fill="none" stroke="#000000" points="400,-775.5 400,-805.5 662,-805.5 662,-775.5 400,-775.5"/>
<text text-anchor="start" x="407" y="-786.9" font-family="Arial" font-size="14.00" fill="#000000">id </text>
<text text-anchor="start" x="421.7798" y="-786.9" font-family="Arial" font-size="14.00" fill="#666666">[bigint]</text>
<polygon fill="none" stroke="#000000" points="400,-745.5 400,-775.5 662,-775.5 662,-745.5 400,-745.5"/>
<text text-anchor="start" x="407" y="-756.9" font-family="Arial" font-size="14.00" fill="#000000">title </text>
<text text-anchor="start" x="432.6676" y="-756.9" font-family="Arial" font-size="14.00" fill="#666666">[varchar(60)]</text>
<polygon fill="none" stroke="#000000" points="400,-715.5 400,-745.5 662,-745.5 662,-715.5 400,-715.5"/>
<text text-anchor="start" x="407" y="-726.9" font-family="Arial" font-size="14.00" fill="#000000">category </text>
<text text-anchor="start" x="464.5722" y="-726.9" font-family="Arial" font-size="14.00" fill="#666666">[recruitment_category]</text>
<polygon fill="none" stroke="#000000" points="400,-685.5 400,-715.5 662,-715.5 662,-685.5 400,-685.5"/>
<text text-anchor="start" x="407" y="-696.9" font-family="Arial" font-size="14.00" fill="#000000">venue </text>
<text text-anchor="start" x="449.021" y="-696.9" font-family="Arial" font-size="14.00" fill="#666666">[varchar]</text>
<polygon fill="none" stroke="#000000" points="400,-655.5 400,-685.5 662,-685.5 662,-655.5 400,-655.5"/>
<text text-anchor="start" x="407" y="-666.9" font-family="Arial" font-size="14.00" fill="#000000">venue_lat </text>
<text text-anchor="start" x="471.5834" y="-666.9" font-family="Arial" font-size="14.00" fill="#666666">[double precision]</text>
<polygon fill="none" stroke="#000000" points="400,-625.5 400,-655.5 662,-655.5 662,-625.5 400,-625.5"/>
<text text-anchor="start" x="407" y="-636.9" font-family="Arial" font-size="14.00" fill="#000000">venue_lng </text>
<text text-anchor="start" x="475.4754" y="-636.9" font-family="Arial" font-size="14.00" fill="#666666">[double precision]</text>
<polygon fill="none" stroke="#000000" points="400,-595.5 400,-625.5 662,-625.5 662,-595.5 400,-595.5"/>
<text text-anchor="start" x="407" y="-606.9" font-family="Arial" font-size="14.00" fill="#000000">start_at </text>
<text text-anchor="start" x="457.5708" y="-606.9" font-family="Arial" font-size="14.00" fill="#666666">[timestamp with time zone]</text>
<polygon fill="none" stroke="#000000" points="400,-565.5 400,-595.5 662,-595.5 662,-565.5 400,-565.5"/>
<text text-anchor="start" x="407" y="-576.9" font-family="Arial" font-size="14.00" fill="#000000">closing_at </text>
<text text-anchor="start" x="473.9074" y="-576.9" font-family="Arial" font-size="14.00" fill="#666666">[timestamp with time zone]</text>
<polygon fill="none" stroke="#000000" points="400,-535.5 400,-565.5 662,-565.5 662,-535.5 400,-535.5"/>
<text text-anchor="start" x="407" y="-546.9" font-family="Arial" font-size="14.00" fill="#000000">detail </text>
<text text-anchor="start" x="444.3422" y="-546.9" font-family="Arial" font-size="14.00" fill="#666666">[varchar(10000)]</text>
<polygon fill="none" stroke="#000000" points="400,-505.5 400,-535.5 662,-535.5 662,-505.5 400,-505.5"/>
<text text-anchor="start" x="407" y="-516.9" font-family="Arial" font-size="14.00" fill="#000000">sport_id </text>
<text text-anchor="start" x="460.6788" y="-516.9" font-family="Arial" font-size="14.00" fill="#666666">[bigint]</text>
<polygon fill="none" stroke="#000000" points="400,-475.5 400,-505.5 662,-505.5 662,-475.5 400,-475.5"/>
<text text-anchor="start" x="407" y="-486.9" font-family="Arial" font-size="14.00" fill="#000000">prefecture_id </text>
<text text-anchor="start" x="492.5778" y="-486.9" font-family="Arial" font-size="14.00" fill="#666666">[bigint]</text>
<polygon fill="none" stroke="#000000" points="400,-445.5 400,-475.5 662,-475.5 662,-445.5 400,-445.5"/>
<text text-anchor="start" x="407" y="-456.9" font-family="Arial" font-size="14.00" fill="#000000">status </text>
<text text-anchor="start" x="448.237" y="-456.9" font-family="Arial" font-size="14.00" fill="#666666">[recruitment_status]</text>
<polygon fill="none" stroke="#000000" points="400,-415.5 400,-445.5 662,-445.5 662,-415.5 400,-415.5"/>
<text text-anchor="start" x="407" y="-426.9" font-family="Arial" font-size="14.00" fill="#000000">user_id </text>
<text text-anchor="start" x="456.7882" y="-426.9" font-family="Arial" font-size="14.00" fill="#666666">[bigint]</text>
<polygon fill="none" stroke="#000000" points="400,-385.5 400,-415.5 662,-415.5 662,-385.5 400,-385.5"/>
<text text-anchor="start" x="406.5302" y="-396.9" font-family="Arial" font-size="14.00" fill="#000000">published_at </text>
<text text-anchor="start" x="489.7854" y="-396.9" font-family="Arial" font-size="14.00" fill="#666666">[timestamp with time zone]</text>
<polygon fill="none" stroke="#000000" points="400,-355.5 400,-385.5 662,-385.5 662,-355.5 400,-355.5"/>
<text text-anchor="start" x="407" y="-366.9" font-family="Arial" font-size="14.00" fill="#000000">created_at </text>
<text text-anchor="start" x="477.028" y="-366.9" font-family="Arial" font-size="14.00" fill="#666666">[timestamp with time zone]</text>
<polygon fill="none" stroke="#000000" points="400,-325.5 400,-355.5 662,-355.5 662,-325.5 400,-325.5"/>
<text text-anchor="start" x="407" y="-336.9" font-family="Arial" font-size="14.00" fill="#000000">updated_at </text>
<text text-anchor="start" x="480.9326" y="-336.9" font-family="Arial" font-size="14.00" fill="#666666">[timestamp with time zone]</text>
</g>
<!-- public.recruitments&#45;&gt;public.prefectures -->
<g id="edge1" class="edge">
<title>public.recruitments:prefecture_id&#45;&gt;public.prefectures:id</title>
<path fill="none" stroke="#000000" d="M389.7543,-489.881C310.2986,-479.8298 341.845,-349.869 400,-283 475.6879,-195.9709 581.3121,-334.0291 657,-247 685.145,-214.6377 699.8889,-150.5 657,-150.5"/>
<polygon fill="#000000" stroke="#000000" points="390.0182,-489.8968 399.7286,-494.9918 395.0091,-490.1984 400,-490.5 400,-490.5 400,-490.5 395.0091,-490.1984 400.2714,-486.0082 390.0182,-489.8968 390.0182,-489.8968"/>
<text text-anchor="start" x="6.66" y="-500.5" font-family="Arial" font-size="10.00" fill="#000000">FOREIGN KEY (prefecture_id) REFERENCES prefectures(id) ON DELETE RESTRICT</text>
</g>
</g>
</svg>
