<?xml version="1.0" encoding="UTF-8" standalone="no"?>
<!DOCTYPE svg PUBLIC "-//W3C//DTD SVG 1.1//EN"
 "http://www.w3.org/Graphics/SVG/1.1/DTD/svg11.dtd">
<!-- Generated by graphviz version 2.40.1 (20161225.0304)
 -->
<!-- Title: connefut_db Pages: 1 -->
<svg width="1335pt" height="1553pt"
 viewBox="0.00 0.00 1334.50 1553.00" xmlns="http://www.w3.org/2000/svg" xmlns:xlink="http://www.w3.org/1999/xlink">
<g id="graph0" class="graph" transform="scale(1 1) rotate(0) translate(4 1549)">
<title>connefut_db</title>
<polygon fill="#ffffff" stroke="transparent" points="-4,4 -4,-1549 1330.5,-1549 1330.5,4 -4,4"/>
<!-- public.schema_migrations -->
<g id="node1" class="node">
<title>public.schema_migrations</title>
<polygon fill="#efefef" stroke="transparent" points="43.5,-1421.5 43.5,-1456.5 362.5,-1456.5 362.5,-1421.5 43.5,-1421.5"/>
<polygon fill="none" stroke="#000000" points="43.5,-1421.5 43.5,-1456.5 362.5,-1456.5 362.5,-1421.5 43.5,-1421.5"/>
<text text-anchor="start" x="50.3601" y="-1434.3" font-family="Arial Bold" font-size="18.00" fill="#000000">public.schema_migrations</text>
<text text-anchor="start" x="258.3861" y="-1434.3" font-family="Arial" font-size="14.00" fill="#000000"> </text>
<text text-anchor="start" x="262.2767" y="-1434.3" font-family="Arial" font-size="14.00" fill="#666666">[BASE TABLE]</text>
<polygon fill="none" stroke="#000000" points="43.5,-1391.5 43.5,-1421.5 362.5,-1421.5 362.5,-1391.5 43.5,-1391.5"/>
<text text-anchor="start" x="50.5" y="-1402.9" font-family="Arial" font-size="14.00" fill="#000000">version </text>
<text text-anchor="start" x="99.5056" y="-1402.9" font-family="Arial" font-size="14.00" fill="#666666">[bigint]</text>
<polygon fill="none" stroke="#000000" points="43.5,-1361.5 43.5,-1391.5 362.5,-1391.5 362.5,-1361.5 43.5,-1361.5"/>
<text text-anchor="start" x="50.5" y="-1372.9" font-family="Arial" font-size="14.00" fill="#000000">dirty </text>
<text text-anchor="start" x="80.831" y="-1372.9" font-family="Arial" font-size="14.00" fill="#666666">[boolean]</text>
</g>
<!-- public.users -->
<g id="node2" class="node">
<title>public.users</title>
<polygon fill="#efefef" stroke="transparent" points="161.5,-522.5 161.5,-557.5 563.5,-557.5 563.5,-522.5 161.5,-522.5"/>
<polygon fill="none" stroke="#000000" points="161.5,-522.5 161.5,-557.5 563.5,-557.5 563.5,-522.5 161.5,-522.5"/>
<text text-anchor="start" x="265.8662" y="-535.3" font-family="Arial Bold" font-size="18.00" fill="#000000">public.users</text>
<text text-anchor="start" x="361.88" y="-535.3" font-family="Arial" font-size="14.00" fill="#000000"> </text>
<text text-anchor="start" x="365.7706" y="-535.3" font-family="Arial" font-size="14.00" fill="#666666">[BASE TABLE]</text>
<polygon fill="none" stroke="#000000" points="161.5,-492.5 161.5,-522.5 563.5,-522.5 563.5,-492.5 161.5,-492.5"/>
<text text-anchor="start" x="168.5" y="-503.9" font-family="Arial" font-size="14.00" fill="#000000">id </text>
<text text-anchor="start" x="183.2798" y="-503.9" font-family="Arial" font-size="14.00" fill="#666666">[bigint]</text>
<polygon fill="none" stroke="#000000" points="161.5,-462.5 161.5,-492.5 563.5,-492.5 563.5,-462.5 161.5,-462.5"/>
<text text-anchor="start" x="168.5" y="-473.9" font-family="Arial" font-size="14.00" fill="#000000">name </text>
<text text-anchor="start" x="207.399" y="-473.9" font-family="Arial" font-size="14.00" fill="#666666">[varchar(50)]</text>
<polygon fill="none" stroke="#000000" points="161.5,-432.5 161.5,-462.5 563.5,-462.5 563.5,-432.5 161.5,-432.5"/>
<text text-anchor="start" x="168.5" y="-443.9" font-family="Arial" font-size="14.00" fill="#000000">email </text>
<text text-anchor="start" x="205.8296" y="-443.9" font-family="Arial" font-size="14.00" fill="#666666">[varchar(100)]</text>
<polygon fill="none" stroke="#000000" points="161.5,-402.5 161.5,-432.5 563.5,-432.5 563.5,-402.5 161.5,-402.5"/>
<text text-anchor="start" x="168.5" y="-413.9" font-family="Arial" font-size="14.00" fill="#000000">unverified_email </text>
<text text-anchor="start" x="274.2896" y="-413.9" font-family="Arial" font-size="14.00" fill="#666666">[varchar(100)]</text>
<polygon fill="none" stroke="#000000" points="161.5,-372.5 161.5,-402.5 563.5,-402.5 563.5,-372.5 161.5,-372.5"/>
<text text-anchor="start" x="168.5" y="-383.9" font-family="Arial" font-size="14.00" fill="#000000">role </text>
<text text-anchor="start" x="195.723" y="-383.9" font-family="Arial" font-size="14.00" fill="#666666">[user_role]</text>
<polygon fill="none" stroke="#000000" points="161.5,-342.5 161.5,-372.5 563.5,-372.5 563.5,-342.5 161.5,-342.5"/>
<text text-anchor="start" x="168.5" y="-353.9" font-family="Arial" font-size="14.00" fill="#000000">avatar </text>
<text text-anchor="start" x="211.2896" y="-353.9" font-family="Arial" font-size="14.00" fill="#666666">[varchar]</text>
<polygon fill="none" stroke="#000000" points="161.5,-312.5 161.5,-342.5 563.5,-342.5 563.5,-312.5 161.5,-312.5"/>
<text text-anchor="start" x="168.5" y="-323.9" font-family="Arial" font-size="14.00" fill="#000000">introduction </text>
<text text-anchor="start" x="244.7412" y="-323.9" font-family="Arial" font-size="14.00" fill="#666666">[varchar(160)]</text>
<polygon fill="none" stroke="#000000" points="161.5,-282.5 161.5,-312.5 563.5,-312.5 563.5,-282.5 161.5,-282.5"/>
<text text-anchor="start" x="168.5" y="-293.9" font-family="Arial" font-size="14.00" fill="#000000">email_verification_status </text>
<text text-anchor="start" x="325.6332" y="-293.9" font-family="Arial" font-size="14.00" fill="#666666">[email_verification_status]</text>
<polygon fill="none" stroke="#000000" points="161.5,-252.5 161.5,-282.5 563.5,-282.5 563.5,-252.5 161.5,-252.5"/>
<text text-anchor="start" x="168.5" y="-263.9" font-family="Arial" font-size="14.00" fill="#000000">email_verification_code </text>
<text text-anchor="start" x="318.6346" y="-263.9" font-family="Arial" font-size="14.00" fill="#666666">[varchar]</text>
<polygon fill="none" stroke="#000000" points="161.5,-222.5 161.5,-252.5 563.5,-252.5 563.5,-222.5 161.5,-222.5"/>
<text text-anchor="start" x="168.4138" y="-233.9" font-family="Arial" font-size="14.00" fill="#000000">email_verification_code_expires_at </text>
<text text-anchor="start" x="390.9018" y="-233.9" font-family="Arial" font-size="14.00" fill="#666666">[timestamp with time zone]</text>
<polygon fill="none" stroke="#000000" points="161.5,-192.5 161.5,-222.5 563.5,-222.5 563.5,-192.5 161.5,-192.5"/>
<text text-anchor="start" x="168.5" y="-203.9" font-family="Arial" font-size="14.00" fill="#000000">password_digest </text>
<text text-anchor="start" x="277.4158" y="-203.9" font-family="Arial" font-size="14.00" fill="#666666">[varchar]</text>
<polygon fill="none" stroke="#000000" points="161.5,-162.5 161.5,-192.5 563.5,-192.5 563.5,-162.5 161.5,-162.5"/>
<text text-anchor="start" x="168.5" y="-173.9" font-family="Arial" font-size="14.00" fill="#000000">password_reset_token </text>
<text text-anchor="start" x="313.2082" y="-173.9" font-family="Arial" font-size="14.00" fill="#666666">[varchar]</text>
<polygon fill="none" stroke="#000000" points="161.5,-132.5 161.5,-162.5 563.5,-162.5 563.5,-132.5 161.5,-132.5"/>
<text text-anchor="start" x="168.5" y="-143.9" font-family="Arial" font-size="14.00" fill="#000000">password_reset_token_expires_at </text>
<text text-anchor="start" x="385.5616" y="-143.9" font-family="Arial" font-size="14.00" fill="#666666">[timestamp with time zone]</text>
<polygon fill="none" stroke="#000000" points="161.5,-102.5 161.5,-132.5 563.5,-132.5 563.5,-102.5 161.5,-102.5"/>
<text text-anchor="start" x="168.5" y="-113.9" font-family="Arial" font-size="14.00" fill="#000000">last_sign_in_at </text>
<text text-anchor="start" x="265.7524" y="-113.9" font-family="Arial" font-size="14.00" fill="#666666">[timestamp with time zone]</text>
<polygon fill="none" stroke="#000000" points="161.5,-72.5 161.5,-102.5 563.5,-102.5 563.5,-72.5 161.5,-72.5"/>
<text text-anchor="start" x="168.5" y="-83.9" font-family="Arial" font-size="14.00" fill="#000000">created_at </text>
<text text-anchor="start" x="238.528" y="-83.9" font-family="Arial" font-size="14.00" fill="#666666">[timestamp with time zone]</text>
<polygon fill="none" stroke="#000000" points="161.5,-42.5 161.5,-72.5 563.5,-72.5 563.5,-42.5 161.5,-42.5"/>
<text text-anchor="start" x="168.5" y="-53.9" font-family="Arial" font-size="14.00" fill="#000000">updated_at </text>
<text text-anchor="start" x="242.4326" y="-53.9" font-family="Arial" font-size="14.00" fill="#666666">[timestamp with time zone]</text>
</g>
<!-- public.sports -->
<g id="node3" class="node">
<title>public.sports</title>
<polygon fill="#efefef" stroke="transparent" points="668.5,-342.5 668.5,-377.5 921.5,-377.5 921.5,-342.5 668.5,-342.5"/>
<polygon fill="none" stroke="#000000" points="668.5,-342.5 668.5,-377.5 921.5,-377.5 921.5,-342.5 668.5,-342.5"/>
<text text-anchor="start" x="695.8651" y="-355.3" font-family="Arial Bold" font-size="18.00" fill="#000000">public.sports</text>
<text text-anchor="start" x="796.8811" y="-355.3" font-family="Arial" font-size="14.00" fill="#000000"> </text>
<text text-anchor="start" x="800.7717" y="-355.3" font-family="Arial" font-size="14.00" fill="#666666">[BASE TABLE]</text>
<polygon fill="none" stroke="#000000" points="668.5,-312.5 668.5,-342.5 921.5,-342.5 921.5,-312.5 668.5,-312.5"/>
<text text-anchor="start" x="675.5" y="-323.9" font-family="Arial" font-size="14.00" fill="#000000">id </text>
<text text-anchor="start" x="690.2798" y="-323.9" font-family="Arial" font-size="14.00" fill="#666666">[bigint]</text>
<polygon fill="none" stroke="#000000" points="668.5,-282.5 668.5,-312.5 921.5,-312.5 921.5,-282.5 668.5,-282.5"/>
<text text-anchor="start" x="675.5" y="-293.9" font-family="Arial" font-size="14.00" fill="#000000">name </text>
<text text-anchor="start" x="714.399" y="-293.9" font-family="Arial" font-size="14.00" fill="#666666">[varchar]</text>
<polygon fill="none" stroke="#000000" points="668.5,-252.5 668.5,-282.5 921.5,-282.5 921.5,-252.5 668.5,-252.5"/>
<text text-anchor="start" x="675.5" y="-263.9" font-family="Arial" font-size="14.00" fill="#000000">created_at </text>
<text text-anchor="start" x="745.528" y="-263.9" font-family="Arial" font-size="14.00" fill="#666666">[timestamp with time zone]</text>
<polygon fill="none" stroke="#000000" points="668.5,-222.5 668.5,-252.5 921.5,-252.5 921.5,-222.5 668.5,-222.5"/>
<text text-anchor="start" x="675.1915" y="-233.9" font-family="Arial" font-size="14.00" fill="#000000">updated_at </text>
<text text-anchor="start" x="749.1241" y="-233.9" font-family="Arial" font-size="14.00" fill="#666666">[timestamp with time zone]</text>
</g>
<!-- public.prefectures -->
<g id="node4" class="node">
<title>public.prefectures</title>
<polygon fill="#efefef" stroke="transparent" points="1025.5,-342.5 1025.5,-377.5 1278.5,-377.5 1278.5,-342.5 1025.5,-342.5"/>
<polygon fill="none" stroke="#000000" points="1025.5,-342.5 1025.5,-377.5 1278.5,-377.5 1278.5,-342.5 1025.5,-342.5"/>
<text text-anchor="start" x="1032.3586" y="-355.3" font-family="Arial Bold" font-size="18.00" fill="#000000">public.prefectures</text>
<text text-anchor="start" x="1174.3876" y="-355.3" font-family="Arial" font-size="14.00" fill="#000000"> </text>
<text text-anchor="start" x="1178.2782" y="-355.3" font-family="Arial" font-size="14.00" fill="#666666">[BASE TABLE]</text>
<polygon fill="none" stroke="#000000" points="1025.5,-312.5 1025.5,-342.5 1278.5,-342.5 1278.5,-312.5 1025.5,-312.5"/>
<text text-anchor="start" x="1032.5" y="-323.9" font-family="Arial" font-size="14.00" fill="#000000">id </text>
<text text-anchor="start" x="1047.2798" y="-323.9" font-family="Arial" font-size="14.00" fill="#666666">[bigint]</text>
<polygon fill="none" stroke="#000000" points="1025.5,-282.5 1025.5,-312.5 1278.5,-312.5 1278.5,-282.5 1025.5,-282.5"/>
<text text-anchor="start" x="1032.5" y="-293.9" font-family="Arial" font-size="14.00" fill="#000000">name </text>
<text text-anchor="start" x="1071.399" y="-293.9" font-family="Arial" font-size="14.00" fill="#666666">[varchar]</text>
<polygon fill="none" stroke="#000000" points="1025.5,-252.5 1025.5,-282.5 1278.5,-282.5 1278.5,-252.5 1025.5,-252.5"/>
<text text-anchor="start" x="1032.5" y="-263.9" font-family="Arial" font-size="14.00" fill="#000000">created_at </text>
<text text-anchor="start" x="1102.528" y="-263.9" font-family="Arial" font-size="14.00" fill="#666666">[timestamp with time zone]</text>
<polygon fill="none" stroke="#000000" points="1025.5,-222.5 1025.5,-252.5 1278.5,-252.5 1278.5,-222.5 1025.5,-222.5"/>
<text text-anchor="start" x="1032.1915" y="-233.9" font-family="Arial" font-size="14.00" fill="#000000">updated_at </text>
<text text-anchor="start" x="1106.1241" y="-233.9" font-family="Arial" font-size="14.00" fill="#666666">[timestamp with time zone]</text>
</g>
<!-- public.tags -->
<g id="node5" class="node">
<title>public.tags</title>
<polygon fill="#efefef" stroke="transparent" points="307.5,-979.5 307.5,-1014.5 560.5,-1014.5 560.5,-979.5 307.5,-979.5"/>
<polygon fill="none" stroke="#000000" points="307.5,-979.5 307.5,-1014.5 560.5,-1014.5 560.5,-979.5 307.5,-979.5"/>
<text text-anchor="start" x="342.3612" y="-992.3" font-family="Arial Bold" font-size="18.00" fill="#000000">public.tags</text>
<text text-anchor="start" x="428.385" y="-992.3" font-family="Arial" font-size="14.00" fill="#000000"> </text>
<text text-anchor="start" x="432.2756" y="-992.3" font-family="Arial" font-size="14.00" fill="#666666">[BASE TABLE]</text>
<polygon fill="none" stroke="#000000" points="307.5,-949.5 307.5,-979.5 560.5,-979.5 560.5,-949.5 307.5,-949.5"/>
<text text-anchor="start" x="314.5" y="-960.9" font-family="Arial" font-size="14.00" fill="#000000">id </text>
<text text-anchor="start" x="329.2798" y="-960.9" font-family="Arial" font-size="14.00" fill="#666666">[bigint]</text>
<polygon fill="none" stroke="#000000" points="307.5,-919.5 307.5,-949.5 560.5,-949.5 560.5,-919.5 307.5,-919.5"/>
<text text-anchor="start" x="314.5" y="-930.9" font-family="Arial" font-size="14.00" fill="#000000">name </text>
<text text-anchor="start" x="353.399" y="-930.9" font-family="Arial" font-size="14.00" fill="#666666">[varchar]</text>
<polygon fill="none" stroke="#000000" points="307.5,-889.5 307.5,-919.5 560.5,-919.5 560.5,-889.5 307.5,-889.5"/>
<text text-anchor="start" x="314.5" y="-900.9" font-family="Arial" font-size="14.00" fill="#000000">created_at </text>
<text text-anchor="start" x="384.528" y="-900.9" font-family="Arial" font-size="14.00" fill="#666666">[timestamp with time zone]</text>
<polygon fill="none" stroke="#000000" points="307.5,-859.5 307.5,-889.5 560.5,-889.5 560.5,-859.5 307.5,-859.5"/>
<text text-anchor="start" x="314.1915" y="-870.9" font-family="Arial" font-size="14.00" fill="#000000">updated_at </text>
<text text-anchor="start" x="388.1241" y="-870.9" font-family="Arial" font-size="14.00" fill="#666666">[timestamp with time zone]</text>
</g>
<!-- public.recruitments -->
<g id="node6" class="node">
<title>public.recruitments</title>
<polygon fill="#efefef" stroke="transparent" points="664.5,-1159.5 664.5,-1194.5 926.5,-1194.5 926.5,-1159.5 664.5,-1159.5"/>
<polygon fill="none" stroke="#000000" points="664.5,-1159.5 664.5,-1194.5 926.5,-1194.5 926.5,-1159.5 664.5,-1159.5"/>
<text text-anchor="start" x="671.3685" y="-1172.3" font-family="Arial Bold" font-size="18.00" fill="#000000">public.recruitments</text>
<text text-anchor="start" x="822.3777" y="-1172.3" font-family="Arial" font-size="14.00" fill="#000000"> </text>
<text text-anchor="start" x="826.2683" y="-1172.3" font-family="Arial" font-size="14.00" fill="#666666">[BASE TABLE]</text>
<polygon fill="none" stroke="#000000" points="664.5,-1129.5 664.5,-1159.5 926.5,-1159.5 926.5,-1129.5 664.5,-1129.5"/>
<text text-anchor="start" x="671.5" y="-1140.9" font-family="Arial" font-size="14.00" fill="#000000">id </text>
<text text-anchor="start" x="686.2798" y="-1140.9" font-family="Arial" font-size="14.00" fill="#666666">[bigint]</text>
<polygon fill="none" stroke="#000000" points="664.5,-1099.5 664.5,-1129.5 926.5,-1129.5 926.5,-1099.5 664.5,-1099.5"/>
<text text-anchor="start" x="671.5" y="-1110.9" font-family="Arial" font-size="14.00" fill="#000000">title </text>
<text text-anchor="start" x="697.1676" y="-1110.9" font-family="Arial" font-size="14.00" fill="#666666">[varchar(60)]</text>
<polygon fill="none" stroke="#000000" points="664.5,-1069.5 664.5,-1099.5 926.5,-1099.5 926.5,-1069.5 664.5,-1069.5"/>
<text text-anchor="start" x="671.5" y="-1080.9" font-family="Arial" font-size="14.00" fill="#000000">category </text>
<text text-anchor="start" x="729.0722" y="-1080.9" font-family="Arial" font-size="14.00" fill="#666666">[recruitment_category]</text>
<polygon fill="none" stroke="#000000" points="664.5,-1039.5 664.5,-1069.5 926.5,-1069.5 926.5,-1039.5 664.5,-1039.5"/>
<text text-anchor="start" x="671.5" y="-1050.9" font-family="Arial" font-size="14.00" fill="#000000">venue </text>
<text text-anchor="start" x="713.521" y="-1050.9" font-family="Arial" font-size="14.00" fill="#666666">[varchar]</text>
<polygon fill="none" stroke="#000000" points="664.5,-1009.5 664.5,-1039.5 926.5,-1039.5 926.5,-1009.5 664.5,-1009.5"/>
<text text-anchor="start" x="671.5" y="-1020.9" font-family="Arial" font-size="14.00" fill="#000000">venue_lat </text>
<text text-anchor="start" x="736.0834" y="-1020.9" font-family="Arial" font-size="14.00" fill="#666666">[double precision]</text>
<polygon fill="none" stroke="#000000" points="664.5,-979.5 664.5,-1009.5 926.5,-1009.5 926.5,-979.5 664.5,-979.5"/>
<text text-anchor="start" x="671.5" y="-990.9" font-family="Arial" font-size="14.00" fill="#000000">venue_lng </text>
<text text-anchor="start" x="739.9754" y="-990.9" font-family="Arial" font-size="14.00" fill="#666666">[double precision]</text>
<polygon fill="none" stroke="#000000" points="664.5,-949.5 664.5,-979.5 926.5,-979.5 926.5,-949.5 664.5,-949.5"/>
<text text-anchor="start" x="671.5" y="-960.9" font-family="Arial" font-size="14.00" fill="#000000">start_at </text>
<text text-anchor="start" x="722.0708" y="-960.9" font-family="Arial" font-size="14.00" fill="#666666">[timestamp with time zone]</text>
<polygon fill="none" stroke="#000000" points="664.5,-919.5 664.5,-949.5 926.5,-949.5 926.5,-919.5 664.5,-919.5"/>
<text text-anchor="start" x="671.5" y="-930.9" font-family="Arial" font-size="14.00" fill="#000000">closing_at </text>
<text text-anchor="start" x="738.4074" y="-930.9" font-family="Arial" font-size="14.00" fill="#666666">[timestamp with time zone]</text>
<polygon fill="none" stroke="#000000" points="664.5,-889.5 664.5,-919.5 926.5,-919.5 926.5,-889.5 664.5,-889.5"/>
<text text-anchor="start" x="671.5" y="-900.9" font-family="Arial" font-size="14.00" fill="#000000">detail </text>
<text text-anchor="start" x="708.8422" y="-900.9" font-family="Arial" font-size="14.00" fill="#666666">[varchar(10000)]</text>
<polygon fill="none" stroke="#000000" points="664.5,-859.5 664.5,-889.5 926.5,-889.5 926.5,-859.5 664.5,-859.5"/>
<text text-anchor="start" x="671.5" y="-870.9" font-family="Arial" font-size="14.00" fill="#000000">sport_id </text>
<text text-anchor="start" x="725.1788" y="-870.9" font-family="Arial" font-size="14.00" fill="#666666">[bigint]</text>
<polygon fill="none" stroke="#000000" points="664.5,-829.5 664.5,-859.5 926.5,-859.5 926.5,-829.5 664.5,-829.5"/>
<text text-anchor="start" x="671.5" y="-840.9" font-family="Arial" font-size="14.00" fill="#000000">prefecture_id </text>
<text text-anchor="start" x="757.0778" y="-840.9" font-family="Arial" font-size="14.00" fill="#666666">[bigint]</text>
<polygon fill="none" stroke="#000000" points="664.5,-799.5 664.5,-829.5 926.5,-829.5 926.5,-799.5 664.5,-799.5"/>
<text text-anchor="start" x="671.5" y="-810.9" font-family="Arial" font-size="14.00" fill="#000000">status </text>
<text text-anchor="start" x="712.737" y="-810.9" font-family="Arial" font-size="14.00" fill="#666666">[recruitment_status]</text>
<polygon fill="none" stroke="#000000" points="664.5,-769.5 664.5,-799.5 926.5,-799.5 926.5,-769.5 664.5,-769.5"/>
<text text-anchor="start" x="671.5" y="-780.9" font-family="Arial" font-size="14.00" fill="#000000">user_id </text>
<text text-anchor="start" x="721.2882" y="-780.9" font-family="Arial" font-size="14.00" fill="#666666">[bigint]</text>
<polygon fill="none" stroke="#000000" points="664.5,-739.5 664.5,-769.5 926.5,-769.5 926.5,-739.5 664.5,-739.5"/>
<text text-anchor="start" x="671.0302" y="-750.9" font-family="Arial" font-size="14.00" fill="#000000">published_at </text>
<text text-anchor="start" x="754.2854" y="-750.9" font-family="Arial" font-size="14.00" fill="#666666">[timestamp with time zone]</text>
<polygon fill="none" stroke="#000000" points="664.5,-709.5 664.5,-739.5 926.5,-739.5 926.5,-709.5 664.5,-709.5"/>
<text text-anchor="start" x="671.5" y="-720.9" font-family="Arial" font-size="14.00" fill="#000000">created_at </text>
<text text-anchor="start" x="741.528" y="-720.9" font-family="Arial" font-size="14.00" fill="#666666">[timestamp with time zone]</text>
<polygon fill="none" stroke="#000000" points="664.5,-679.5 664.5,-709.5 926.5,-709.5 926.5,-679.5 664.5,-679.5"/>
<text text-anchor="start" x="671.5" y="-690.9" font-family="Arial" font-size="14.00" fill="#000000">updated_at </text>
<text text-anchor="start" x="745.4326" y="-690.9" font-family="Arial" font-size="14.00" fill="#666666">[timestamp with time zone]</text>
</g>
<!-- public.recruitments&#45;&gt;public.users -->
<g id="edge1" class="edge">
<title>public.recruitments:user_id&#45;&gt;public.users:id</title>
<path fill="none" stroke="#000000" d="M654.5768,-782.1053C601.98,-755.0316 625.4367,-507.5 563.5,-507.5"/>
<polygon fill="#000000" stroke="#000000" points="654.779,-782.1541 663.4443,-788.8744 659.6395,-783.327 664.5,-784.5 664.5,-784.5 664.5,-784.5 659.6395,-783.327 665.5557,-780.1256 654.779,-782.1541 654.779,-782.1541"/>
<text text-anchor="start" x="324.5535" y="-794.5" font-family="Arial" font-size="10.00" fill="#000000">FOREIGN KEY (user_id) REFERENCES users(id) ON DELETE CASCADE</text>
</g>
<!-- public.recruitments&#45;&gt;public.sports -->
<g id="edge2" class="edge">
<title>public.recruitments:sport_id&#45;&gt;public.sports:id</title>
<path fill="none" stroke="#000000" d="M654.5704,-871.8023C615.9696,-848.5304 643.7813,-681.478 664.5,-637 727.5034,-501.7473 858.4966,-556.2527 921.5,-421 939.047,-383.3308 963.0556,-327.5 921.5,-327.5"/>
<polygon fill="#000000" stroke="#000000" points="654.8498,-871.8781 663.3202,-878.8426 659.6749,-873.1891 664.5,-874.5 664.5,-874.5 664.5,-874.5 659.6749,-873.1891 665.6798,-870.1574 654.8498,-871.8781 654.8498,-871.8781"/>
<text text-anchor="start" x="671.945" y="-884.5" font-family="Arial" font-size="10.00" fill="#000000">FOREIGN KEY (sport_id) REFERENCES sports(id) ON DELETE RESTRICT</text>
</g>
<!-- public.recruitments&#45;&gt;public.prefectures -->
<g id="edge3" class="edge">
<title>public.recruitments:prefecture_id&#45;&gt;public.prefectures:id</title>
<path fill="none" stroke="#000000" d="M936.4451,-843.1072C1035.5362,-813.6711 912.065,-327.5 1025.5,-327.5"/>
<polygon fill="#000000" stroke="#000000" points="936.4034,-843.113 925.8758,-840.0435 931.4517,-843.8065 926.5,-844.5 926.5,-844.5 926.5,-844.5 931.4517,-843.8065 927.1242,-848.9565 936.4034,-843.113 936.4034,-843.113"/>
<text text-anchor="start" x="933.16" y="-854.5" font-family="Arial" font-size="10.00" fill="#000000">FOREIGN KEY (prefecture_id) REFERENCES prefectures(id) ON DELETE RESTRICT</text>
</g>
<!-- public.recruitment_tags -->
<g id="node7" class="node">
<title>public.recruitment_tags</title>
<polygon fill="#efefef" stroke="transparent" points="466.5,-1466.5 466.5,-1501.5 763.5,-1501.5 763.5,-1466.5 466.5,-1466.5"/>
<polygon fill="none" stroke="#000000" points="466.5,-1466.5 466.5,-1501.5 763.5,-1501.5 763.5,-1466.5 466.5,-1466.5"/>
<text text-anchor="start" x="473.3581" y="-1479.3" font-family="Arial Bold" font-size="18.00" fill="#000000">public.recruitment_tags</text>
<text text-anchor="start" x="659.3881" y="-1479.3" font-family="Arial" font-size="14.00" fill="#000000"> </text>
<text text-anchor="start" x="663.2787" y="-1479.3" font-family="Arial" font-size="14.00" fill="#666666">[BASE TABLE]</text>
<polygon fill="none" stroke="#000000" points="466.5,-1436.5 466.5,-1466.5 763.5,-1466.5 763.5,-1436.5 466.5,-1436.5"/>
<text text-anchor="start" x="473.5" y="-1447.9" font-family="Arial" font-size="14.00" fill="#000000">id </text>
<text text-anchor="start" x="488.2798" y="-1447.9" font-family="Arial" font-size="14.00" fill="#666666">[bigint]</text>
<polygon fill="none" stroke="#000000" points="466.5,-1406.5 466.5,-1436.5 763.5,-1436.5 763.5,-1406.5 466.5,-1406.5"/>
<text text-anchor="start" x="473.5" y="-1417.9" font-family="Arial" font-size="14.00" fill="#000000">tag_id </text>
<text text-anchor="start" x="515.5182" y="-1417.9" font-family="Arial" font-size="14.00" fill="#666666">[bigint]</text>
<polygon fill="none" stroke="#000000" points="466.5,-1376.5 466.5,-1406.5 763.5,-1406.5 763.5,-1376.5 466.5,-1376.5"/>
<text text-anchor="start" x="473.5" y="-1387.9" font-family="Arial" font-size="14.00" fill="#000000">recruitment_id </text>
<text text-anchor="start" x="566.0624" y="-1387.9" font-family="Arial" font-size="14.00" fill="#666666">[bigint]</text>
<polygon fill="none" stroke="#000000" points="466.5,-1346.5 466.5,-1376.5 763.5,-1376.5 763.5,-1346.5 466.5,-1346.5"/>
<text text-anchor="start" x="473.5" y="-1357.9" font-family="Arial" font-size="14.00" fill="#000000">created_at </text>
<text text-anchor="start" x="543.528" y="-1357.9" font-family="Arial" font-size="14.00" fill="#666666">[timestamp with time zone]</text>
<polygon fill="none" stroke="#000000" points="466.5,-1316.5 466.5,-1346.5 763.5,-1346.5 763.5,-1316.5 466.5,-1316.5"/>
<text text-anchor="start" x="473.5" y="-1327.9" font-family="Arial" font-size="14.00" fill="#000000">updated_at </text>
<text text-anchor="start" x="547.4326" y="-1327.9" font-family="Arial" font-size="14.00" fill="#666666">[timestamp with time zone]</text>
</g>
<!-- public.recruitment_tags&#45;&gt;public.tags -->
<g id="edge4" class="edge">
<title>public.recruitment_tags:tag_id&#45;&gt;public.tags:id</title>
<path fill="none" stroke="#000000" d="M456.4889,-1421.1041C276.3157,-1406.0134 764.3194,-964.5 560.5,-964.5"/>
<polygon fill="#000000" stroke="#000000" points="456.5078,-1421.1048 466.3222,-1425.9965 461.5039,-1421.3024 466.5,-1421.5 466.5,-1421.5 466.5,-1421.5 461.5039,-1421.3024 466.6778,-1417.0035 456.5078,-1421.1048 456.5078,-1421.1048"/>
<text text-anchor="start" x="473.1035" y="-1431.5" font-family="Arial" font-size="10.00" fill="#000000">FOREIGN KEY (tag_id) REFERENCES tags(id) ON DELETE CASCADE</text>
</g>
<!-- public.recruitment_tags&#45;&gt;public.recruitments -->
<g id="edge5" class="edge">
<title>public.recruitment_tags:recruitment_id&#45;&gt;public.recruitments:id</title>
<path fill="none" stroke="#000000" d="M773.924,-1390.3087C812.3752,-1380.5838 791.2362,-1313.5989 763.5,-1274 736.6402,-1235.6522 691.3598,-1276.3478 664.5,-1238 640.6597,-1203.9632 622.9444,-1144.5 664.5,-1144.5"/>
<polygon fill="#000000" stroke="#000000" points="773.4353,-1390.3645 762.989,-1387.0291 768.4677,-1390.9323 763.5,-1391.5 763.5,-1391.5 763.5,-1391.5 768.4677,-1390.9323 764.011,-1395.9709 773.4353,-1390.3645 773.4353,-1390.3645"/>
<text text-anchor="start" x="770.0005" y="-1401.5" font-family="Arial" font-size="10.00" fill="#000000">FOREIGN KEY (recruitment_id) REFERENCES recruitments(id) ON DELETE CASCADE</text>
</g>
</g>
</svg>
