<?xml version="1.0" encoding="UTF-8" standalone="no"?>
<!DOCTYPE svg PUBLIC "-//W3C//DTD SVG 1.1//EN"
 "http://www.w3.org/Graphics/SVG/1.1/DTD/svg11.dtd">
<!-- Generated by graphviz version 2.40.1 (20161225.0304)
 -->
<!-- Title: connefut_db Pages: 1 -->
<svg width="1991pt" height="609pt"
 viewBox="0.00 0.00 1991.00 609.00" xmlns="http://www.w3.org/2000/svg" xmlns:xlink="http://www.w3.org/1999/xlink">
<g id="graph0" class="graph" transform="scale(1 1) rotate(0) translate(4 605)">
<title>connefut_db</title>
<polygon fill="#ffffff" stroke="transparent" points="-4,4 -4,-605 1987,-605 1987,4 -4,4"/>
<!-- public.schema_migrations -->
<g id="node1" class="node">
<title>public.schema_migrations</title>
<polygon fill="#efefef" stroke="transparent" points="43.5,-312.5 43.5,-347.5 362.5,-347.5 362.5,-312.5 43.5,-312.5"/>
<polygon fill="none" stroke="#000000" points="43.5,-312.5 43.5,-347.5 362.5,-347.5 362.5,-312.5 43.5,-312.5"/>
<text text-anchor="start" x="50.3601" y="-325.3" font-family="Arial Bold" font-size="18.00" fill="#000000">public.schema_migrations</text>
<text text-anchor="start" x="258.3861" y="-325.3" font-family="Arial" font-size="14.00" fill="#000000"> </text>
<text text-anchor="start" x="262.2767" y="-325.3" font-family="Arial" font-size="14.00" fill="#666666">[BASE TABLE]</text>
<polygon fill="none" stroke="#000000" points="43.5,-282.5 43.5,-312.5 362.5,-312.5 362.5,-282.5 43.5,-282.5"/>
<text text-anchor="start" x="50.5" y="-293.9" font-family="Arial" font-size="14.00" fill="#000000">version </text>
<text text-anchor="start" x="99.5056" y="-293.9" font-family="Arial" font-size="14.00" fill="#666666">[bigint]</text>
<polygon fill="none" stroke="#000000" points="43.5,-252.5 43.5,-282.5 362.5,-282.5 362.5,-252.5 43.5,-252.5"/>
<text text-anchor="start" x="50.5" y="-263.9" font-family="Arial" font-size="14.00" fill="#000000">dirty </text>
<text text-anchor="start" x="80.831" y="-263.9" font-family="Arial" font-size="14.00" fill="#666666">[boolean]</text>
</g>
<!-- public.users -->
<g id="node2" class="node">
<title>public.users</title>
<polygon fill="#efefef" stroke="transparent" points="466.5,-522.5 466.5,-557.5 868.5,-557.5 868.5,-522.5 466.5,-522.5"/>
<polygon fill="none" stroke="#000000" points="466.5,-522.5 466.5,-557.5 868.5,-557.5 868.5,-522.5 466.5,-522.5"/>
<text text-anchor="start" x="570.8662" y="-535.3" font-family="Arial Bold" font-size="18.00" fill="#000000">public.users</text>
<text text-anchor="start" x="666.88" y="-535.3" font-family="Arial" font-size="14.00" fill="#000000"> </text>
<text text-anchor="start" x="670.7706" y="-535.3" font-family="Arial" font-size="14.00" fill="#666666">[BASE TABLE]</text>
<polygon fill="none" stroke="#000000" points="466.5,-492.5 466.5,-522.5 868.5,-522.5 868.5,-492.5 466.5,-492.5"/>
<text text-anchor="start" x="473.5" y="-503.9" font-family="Arial" font-size="14.00" fill="#000000">id </text>
<text text-anchor="start" x="488.2798" y="-503.9" font-family="Arial" font-size="14.00" fill="#666666">[bigint]</text>
<polygon fill="none" stroke="#000000" points="466.5,-462.5 466.5,-492.5 868.5,-492.5 868.5,-462.5 466.5,-462.5"/>
<text text-anchor="start" x="473.5" y="-473.9" font-family="Arial" font-size="14.00" fill="#000000">name </text>
<text text-anchor="start" x="512.399" y="-473.9" font-family="Arial" font-size="14.00" fill="#666666">[varchar(50)]</text>
<polygon fill="none" stroke="#000000" points="466.5,-432.5 466.5,-462.5 868.5,-462.5 868.5,-432.5 466.5,-432.5"/>
<text text-anchor="start" x="473.5" y="-443.9" font-family="Arial" font-size="14.00" fill="#000000">email </text>
<text text-anchor="start" x="510.8296" y="-443.9" font-family="Arial" font-size="14.00" fill="#666666">[varchar(100)]</text>
<polygon fill="none" stroke="#000000" points="466.5,-402.5 466.5,-432.5 868.5,-432.5 868.5,-402.5 466.5,-402.5"/>
<text text-anchor="start" x="473.5" y="-413.9" font-family="Arial" font-size="14.00" fill="#000000">unverified_email </text>
<text text-anchor="start" x="579.2896" y="-413.9" font-family="Arial" font-size="14.00" fill="#666666">[varchar(100)]</text>
<polygon fill="none" stroke="#000000" points="466.5,-372.5 466.5,-402.5 868.5,-402.5 868.5,-372.5 466.5,-372.5"/>
<text text-anchor="start" x="473.5" y="-383.9" font-family="Arial" font-size="14.00" fill="#000000">role </text>
<text text-anchor="start" x="500.723" y="-383.9" font-family="Arial" font-size="14.00" fill="#666666">[user_role]</text>
<polygon fill="none" stroke="#000000" points="466.5,-342.5 466.5,-372.5 868.5,-372.5 868.5,-342.5 466.5,-342.5"/>
<text text-anchor="start" x="473.5" y="-353.9" font-family="Arial" font-size="14.00" fill="#000000">avatar </text>
<text text-anchor="start" x="516.2896" y="-353.9" font-family="Arial" font-size="14.00" fill="#666666">[varchar]</text>
<polygon fill="none" stroke="#000000" points="466.5,-312.5 466.5,-342.5 868.5,-342.5 868.5,-312.5 466.5,-312.5"/>
<text text-anchor="start" x="473.5" y="-323.9" font-family="Arial" font-size="14.00" fill="#000000">introduction </text>
<text text-anchor="start" x="549.7412" y="-323.9" font-family="Arial" font-size="14.00" fill="#666666">[varchar(160)]</text>
<polygon fill="none" stroke="#000000" points="466.5,-282.5 466.5,-312.5 868.5,-312.5 868.5,-282.5 466.5,-282.5"/>
<text text-anchor="start" x="473.5" y="-293.9" font-family="Arial" font-size="14.00" fill="#000000">email_verification_status </text>
<text text-anchor="start" x="630.6332" y="-293.9" font-family="Arial" font-size="14.00" fill="#666666">[email_verification_status]</text>
<polygon fill="none" stroke="#000000" points="466.5,-252.5 466.5,-282.5 868.5,-282.5 868.5,-252.5 466.5,-252.5"/>
<text text-anchor="start" x="473.5" y="-263.9" font-family="Arial" font-size="14.00" fill="#000000">email_verification_code </text>
<text text-anchor="start" x="623.6346" y="-263.9" font-family="Arial" font-size="14.00" fill="#666666">[varchar]</text>
<polygon fill="none" stroke="#000000" points="466.5,-222.5 466.5,-252.5 868.5,-252.5 868.5,-222.5 466.5,-222.5"/>
<text text-anchor="start" x="473.4138" y="-233.9" font-family="Arial" font-size="14.00" fill="#000000">email_verification_code_expires_at </text>
<text text-anchor="start" x="695.9018" y="-233.9" font-family="Arial" font-size="14.00" fill="#666666">[timestamp with time zone]</text>
<polygon fill="none" stroke="#000000" points="466.5,-192.5 466.5,-222.5 868.5,-222.5 868.5,-192.5 466.5,-192.5"/>
<text text-anchor="start" x="473.5" y="-203.9" font-family="Arial" font-size="14.00" fill="#000000">password_digest </text>
<text text-anchor="start" x="582.4158" y="-203.9" font-family="Arial" font-size="14.00" fill="#666666">[varchar]</text>
<polygon fill="none" stroke="#000000" points="466.5,-162.5 466.5,-192.5 868.5,-192.5 868.5,-162.5 466.5,-162.5"/>
<text text-anchor="start" x="473.5" y="-173.9" font-family="Arial" font-size="14.00" fill="#000000">password_reset_token </text>
<text text-anchor="start" x="618.2082" y="-173.9" font-family="Arial" font-size="14.00" fill="#666666">[varchar]</text>
<polygon fill="none" stroke="#000000" points="466.5,-132.5 466.5,-162.5 868.5,-162.5 868.5,-132.5 466.5,-132.5"/>
<text text-anchor="start" x="473.5" y="-143.9" font-family="Arial" font-size="14.00" fill="#000000">password_reset_token_expires_at </text>
<text text-anchor="start" x="690.5616" y="-143.9" font-family="Arial" font-size="14.00" fill="#666666">[timestamp with time zone]</text>
<polygon fill="none" stroke="#000000" points="466.5,-102.5 466.5,-132.5 868.5,-132.5 868.5,-102.5 466.5,-102.5"/>
<text text-anchor="start" x="473.5" y="-113.9" font-family="Arial" font-size="14.00" fill="#000000">last_sign_in_at </text>
<text text-anchor="start" x="570.7524" y="-113.9" font-family="Arial" font-size="14.00" fill="#666666">[timestamp with time zone]</text>
<polygon fill="none" stroke="#000000" points="466.5,-72.5 466.5,-102.5 868.5,-102.5 868.5,-72.5 466.5,-72.5"/>
<text text-anchor="start" x="473.5" y="-83.9" font-family="Arial" font-size="14.00" fill="#000000">created_at </text>
<text text-anchor="start" x="543.528" y="-83.9" font-family="Arial" font-size="14.00" fill="#666666">[timestamp with time zone]</text>
<polygon fill="none" stroke="#000000" points="466.5,-42.5 466.5,-72.5 868.5,-72.5 868.5,-42.5 466.5,-42.5"/>
<text text-anchor="start" x="473.5" y="-53.9" font-family="Arial" font-size="14.00" fill="#000000">updated_at </text>
<text text-anchor="start" x="547.4326" y="-53.9" font-family="Arial" font-size="14.00" fill="#666666">[timestamp with time zone]</text>
</g>
<!-- public.sports -->
<g id="node3" class="node">
<title>public.sports</title>
<polygon fill="#efefef" stroke="transparent" points="973.5,-342.5 973.5,-377.5 1226.5,-377.5 1226.5,-342.5 973.5,-342.5"/>
<polygon fill="none" stroke="#000000" points="973.5,-342.5 973.5,-377.5 1226.5,-377.5 1226.5,-342.5 973.5,-342.5"/>
<text text-anchor="start" x="1000.8651" y="-355.3" font-family="Arial Bold" font-size="18.00" fill="#000000">public.sports</text>
<text text-anchor="start" x="1101.8811" y="-355.3" font-family="Arial" font-size="14.00" fill="#000000"> </text>
<text text-anchor="start" x="1105.7717" y="-355.3" font-family="Arial" font-size="14.00" fill="#666666">[BASE TABLE]</text>
<polygon fill="none" stroke="#000000" points="973.5,-312.5 973.5,-342.5 1226.5,-342.5 1226.5,-312.5 973.5,-312.5"/>
<text text-anchor="start" x="980.5" y="-323.9" font-family="Arial" font-size="14.00" fill="#000000">id </text>
<text text-anchor="start" x="995.2798" y="-323.9" font-family="Arial" font-size="14.00" fill="#666666">[bigint]</text>
<polygon fill="none" stroke="#000000" points="973.5,-282.5 973.5,-312.5 1226.5,-312.5 1226.5,-282.5 973.5,-282.5"/>
<text text-anchor="start" x="980.5" y="-293.9" font-family="Arial" font-size="14.00" fill="#000000">name </text>
<text text-anchor="start" x="1019.399" y="-293.9" font-family="Arial" font-size="14.00" fill="#666666">[varchar]</text>
<polygon fill="none" stroke="#000000" points="973.5,-252.5 973.5,-282.5 1226.5,-282.5 1226.5,-252.5 973.5,-252.5"/>
<text text-anchor="start" x="980.5" y="-263.9" font-family="Arial" font-size="14.00" fill="#000000">created_at </text>
<text text-anchor="start" x="1050.528" y="-263.9" font-family="Arial" font-size="14.00" fill="#666666">[timestamp with time zone]</text>
<polygon fill="none" stroke="#000000" points="973.5,-222.5 973.5,-252.5 1226.5,-252.5 1226.5,-222.5 973.5,-222.5"/>
<text text-anchor="start" x="980.1915" y="-233.9" font-family="Arial" font-size="14.00" fill="#000000">updated_at </text>
<text text-anchor="start" x="1054.1241" y="-233.9" font-family="Arial" font-size="14.00" fill="#666666">[timestamp with time zone]</text>
</g>
<!-- public.prefectures -->
<g id="node4" class="node">
<title>public.prefectures</title>
<polygon fill="#efefef" stroke="transparent" points="1330.5,-342.5 1330.5,-377.5 1583.5,-377.5 1583.5,-342.5 1330.5,-342.5"/>
<polygon fill="none" stroke="#000000" points="1330.5,-342.5 1330.5,-377.5 1583.5,-377.5 1583.5,-342.5 1330.5,-342.5"/>
<text text-anchor="start" x="1337.3586" y="-355.3" font-family="Arial Bold" font-size="18.00" fill="#000000">public.prefectures</text>
<text text-anchor="start" x="1479.3876" y="-355.3" font-family="Arial" font-size="14.00" fill="#000000"> </text>
<text text-anchor="start" x="1483.2782" y="-355.3" font-family="Arial" font-size="14.00" fill="#666666">[BASE TABLE]</text>
<polygon fill="none" stroke="#000000" points="1330.5,-312.5 1330.5,-342.5 1583.5,-342.5 1583.5,-312.5 1330.5,-312.5"/>
<text text-anchor="start" x="1337.5" y="-323.9" font-family="Arial" font-size="14.00" fill="#000000">id </text>
<text text-anchor="start" x="1352.2798" y="-323.9" font-family="Arial" font-size="14.00" fill="#666666">[bigint]</text>
<polygon fill="none" stroke="#000000" points="1330.5,-282.5 1330.5,-312.5 1583.5,-312.5 1583.5,-282.5 1330.5,-282.5"/>
<text text-anchor="start" x="1337.5" y="-293.9" font-family="Arial" font-size="14.00" fill="#000000">name </text>
<text text-anchor="start" x="1376.399" y="-293.9" font-family="Arial" font-size="14.00" fill="#666666">[varchar]</text>
<polygon fill="none" stroke="#000000" points="1330.5,-252.5 1330.5,-282.5 1583.5,-282.5 1583.5,-252.5 1330.5,-252.5"/>
<text text-anchor="start" x="1337.5" y="-263.9" font-family="Arial" font-size="14.00" fill="#000000">created_at </text>
<text text-anchor="start" x="1407.528" y="-263.9" font-family="Arial" font-size="14.00" fill="#666666">[timestamp with time zone]</text>
<polygon fill="none" stroke="#000000" points="1330.5,-222.5 1330.5,-252.5 1583.5,-252.5 1583.5,-222.5 1330.5,-222.5"/>
<text text-anchor="start" x="1337.1915" y="-233.9" font-family="Arial" font-size="14.00" fill="#000000">updated_at </text>
<text text-anchor="start" x="1411.1241" y="-233.9" font-family="Arial" font-size="14.00" fill="#666666">[timestamp with time zone]</text>
</g>
<!-- public.tags -->
<g id="node5" class="node">
<title>public.tags</title>
<polygon fill="#efefef" stroke="transparent" points="1687.5,-342.5 1687.5,-377.5 1940.5,-377.5 1940.5,-342.5 1687.5,-342.5"/>
<polygon fill="none" stroke="#000000" points="1687.5,-342.5 1687.5,-377.5 1940.5,-377.5 1940.5,-342.5 1687.5,-342.5"/>
<text text-anchor="start" x="1722.3612" y="-355.3" font-family="Arial Bold" font-size="18.00" fill="#000000">public.tags</text>
<text text-anchor="start" x="1808.385" y="-355.3" font-family="Arial" font-size="14.00" fill="#000000"> </text>
<text text-anchor="start" x="1812.2756" y="-355.3" font-family="Arial" font-size="14.00" fill="#666666">[BASE TABLE]</text>
<polygon fill="none" stroke="#000000" points="1687.5,-312.5 1687.5,-342.5 1940.5,-342.5 1940.5,-312.5 1687.5,-312.5"/>
<text text-anchor="start" x="1694.5" y="-323.9" font-family="Arial" font-size="14.00" fill="#000000">id </text>
<text text-anchor="start" x="1709.2798" y="-323.9" font-family="Arial" font-size="14.00" fill="#666666">[bigint]</text>
<polygon fill="none" stroke="#000000" points="1687.5,-282.5 1687.5,-312.5 1940.5,-312.5 1940.5,-282.5 1687.5,-282.5"/>
<text text-anchor="start" x="1694.5" y="-293.9" font-family="Arial" font-size="14.00" fill="#000000">name </text>
<text text-anchor="start" x="1733.399" y="-293.9" font-family="Arial" font-size="14.00" fill="#666666">[varchar]</text>
<polygon fill="none" stroke="#000000" points="1687.5,-252.5 1687.5,-282.5 1940.5,-282.5 1940.5,-252.5 1687.5,-252.5"/>
<text text-anchor="start" x="1694.5" y="-263.9" font-family="Arial" font-size="14.00" fill="#000000">created_at </text>
<text text-anchor="start" x="1764.528" y="-263.9" font-family="Arial" font-size="14.00" fill="#666666">[timestamp with time zone]</text>
<polygon fill="none" stroke="#000000" points="1687.5,-222.5 1687.5,-252.5 1940.5,-252.5 1940.5,-222.5 1687.5,-222.5"/>
<text text-anchor="start" x="1694.1915" y="-233.9" font-family="Arial" font-size="14.00" fill="#000000">updated_at </text>
<text text-anchor="start" x="1768.1241" y="-233.9" font-family="Arial" font-size="14.00" fill="#666666">[timestamp with time zone]</text>
</g>
</g>
</svg>
