<?xml version="1.0" encoding="UTF-8" standalone="no"?>
<!DOCTYPE svg PUBLIC "-//W3C//DTD SVG 1.1//EN"
 "http://www.w3.org/Graphics/SVG/1.1/DTD/svg11.dtd">
<!-- Generated by graphviz version 2.40.1 (20161225.0304)
 -->
<!-- Title: connefut_db Pages: 1 -->
<svg width="1768pt" height="1553pt"
 viewBox="0.00 0.00 1767.50 1553.00" xmlns="http://www.w3.org/2000/svg" xmlns:xlink="http://www.w3.org/1999/xlink">
<g id="graph0" class="graph" transform="scale(1 1) rotate(0) translate(4 1549)">
<title>connefut_db</title>
<polygon fill="#ffffff" stroke="transparent" points="-4,4 -4,-1549 1763.5,-1549 1763.5,4 -4,4"/>
<!-- public.schema_migrations -->
<g id="node1" class="node">
<title>public.schema_migrations</title>
<polygon fill="#efefef" stroke="transparent" points="43.5,-1421.5 43.5,-1456.5 362.5,-1456.5 362.5,-1421.5 43.5,-1421.5"/>
<polygon fill="none" stroke="#000000" points="43.5,-1421.5 43.5,-1456.5 362.5,-1456.5 362.5,-1421.5 43.5,-1421.5"/>
<text text-anchor="start" x="50.3601" y="-1434.3" font-family="Arial Bold" font-size="18.00" fill="#000000">public.schema_migrations</text>
<text text-anchor="start" x="258.3861" y="-1434.3" font-family="Arial" font-size="14.00" fill="#000000"> </text>
<text text-anchor="start" x="262.2767" y="-1434.3" font-family="Arial" font-size="14.00" fill="#666666">[BASE TABLE]</text>
<polygon fill="none" stroke="#000000" points="43.5,-1391.5 43.5,-1421.5 362.5,-1421.5 362.5,-1391.5 43.5,-1391.5"/>
<text text-anchor="start" x="50.5" y="-1402.9" font-family="Arial" font-size="14.00" fill="#000000">version </text>
<text text-anchor="start" x="99.5056" y="-1402.9" font-family="Arial" font-size="14.00" fill="#666666">[bigint]</text>
<polygon fill="none" stroke="#000000" points="43.5,-1361.5 43.5,-1391.5 362.5,-1391.5 362.5,-1361.5 43.5,-1361.5"/>
<text text-anchor="start" x="50.5" y="-1372.9" font-family="Arial" font-size="14.00" fill="#000000">dirty </text>
<text text-anchor="start" x="80.831" y="-1372.9" font-family="Arial" font-size="14.00" fill="#666666">[boolean]</text>
</g>
<!-- public.users -->
<g id="node2" class="node">
<title>public.users</title>
<polygon fill="#efefef" stroke="transparent" points="1044.5,-522.5 1044.5,-557.5 1446.5,-557.5 1446.5,-522.5 1044.5,-522.5"/>
<polygon fill="none" stroke="#000000" points="1044.5,-522.5 1044.5,-557.5 1446.5,-557.5 1446.5,-522.5 1044.5,-522.5"/>
<text text-anchor="start" x="1148.8662" y="-535.3" font-family="Arial Bold" font-size="18.00" fill="#000000">public.users</text>
<text text-anchor="start" x="1244.88" y="-535.3" font-family="Arial" font-size="14.00" fill="#000000"> </text>
<text text-anchor="start" x="1248.7706" y="-535.3" font-family="Arial" font-size="14.00" fill="#666666">[BASE TABLE]</text>
<polygon fill="none" stroke="#000000" points="1044.5,-492.5 1044.5,-522.5 1446.5,-522.5 1446.5,-492.5 1044.5,-492.5"/>
<text text-anchor="start" x="1051.5" y="-503.9" font-family="Arial" font-size="14.00" fill="#000000">id </text>
<text text-anchor="start" x="1066.2798" y="-503.9" font-family="Arial" font-size="14.00" fill="#666666">[bigint]</text>
<polygon fill="none" stroke="#000000" points="1044.5,-462.5 1044.5,-492.5 1446.5,-492.5 1446.5,-462.5 1044.5,-462.5"/>
<text text-anchor="start" x="1051.5" y="-473.9" font-family="Arial" font-size="14.00" fill="#000000">name </text>
<text text-anchor="start" x="1090.399" y="-473.9" font-family="Arial" font-size="14.00" fill="#666666">[varchar(50)]</text>
<polygon fill="none" stroke="#000000" points="1044.5,-432.5 1044.5,-462.5 1446.5,-462.5 1446.5,-432.5 1044.5,-432.5"/>
<text text-anchor="start" x="1051.5" y="-443.9" font-family="Arial" font-size="14.00" fill="#000000">email </text>
<text text-anchor="start" x="1088.8296" y="-443.9" font-family="Arial" font-size="14.00" fill="#666666">[varchar(100)]</text>
<polygon fill="none" stroke="#000000" points="1044.5,-402.5 1044.5,-432.5 1446.5,-432.5 1446.5,-402.5 1044.5,-402.5"/>
<text text-anchor="start" x="1051.5" y="-413.9" font-family="Arial" font-size="14.00" fill="#000000">unverified_email </text>
<text text-anchor="start" x="1157.2896" y="-413.9" font-family="Arial" font-size="14.00" fill="#666666">[varchar(100)]</text>
<polygon fill="none" stroke="#000000" points="1044.5,-372.5 1044.5,-402.5 1446.5,-402.5 1446.5,-372.5 1044.5,-372.5"/>
<text text-anchor="start" x="1051.5" y="-383.9" font-family="Arial" font-size="14.00" fill="#000000">role </text>
<text text-anchor="start" x="1078.723" y="-383.9" font-family="Arial" font-size="14.00" fill="#666666">[user_role]</text>
<polygon fill="none" stroke="#000000" points="1044.5,-342.5 1044.5,-372.5 1446.5,-372.5 1446.5,-342.5 1044.5,-342.5"/>
<text text-anchor="start" x="1051.5" y="-353.9" font-family="Arial" font-size="14.00" fill="#000000">avatar </text>
<text text-anchor="start" x="1094.2896" y="-353.9" font-family="Arial" font-size="14.00" fill="#666666">[varchar]</text>
<polygon fill="none" stroke="#000000" points="1044.5,-312.5 1044.5,-342.5 1446.5,-342.5 1446.5,-312.5 1044.5,-312.5"/>
<text text-anchor="start" x="1051.5" y="-323.9" font-family="Arial" font-size="14.00" fill="#000000">introduction </text>
<text text-anchor="start" x="1127.7412" y="-323.9" font-family="Arial" font-size="14.00" fill="#666666">[varchar(160)]</text>
<polygon fill="none" stroke="#000000" points="1044.5,-282.5 1044.5,-312.5 1446.5,-312.5 1446.5,-282.5 1044.5,-282.5"/>
<text text-anchor="start" x="1051.5" y="-293.9" font-family="Arial" font-size="14.00" fill="#000000">email_verification_status </text>
<text text-anchor="start" x="1208.6332" y="-293.9" font-family="Arial" font-size="14.00" fill="#666666">[email_verification_status]</text>
<polygon fill="none" stroke="#000000" points="1044.5,-252.5 1044.5,-282.5 1446.5,-282.5 1446.5,-252.5 1044.5,-252.5"/>
<text text-anchor="start" x="1051.5" y="-263.9" font-family="Arial" font-size="14.00" fill="#000000">email_verification_code </text>
<text text-anchor="start" x="1201.6346" y="-263.9" font-family="Arial" font-size="14.00" fill="#666666">[varchar]</text>
<polygon fill="none" stroke="#000000" points="1044.5,-222.5 1044.5,-252.5 1446.5,-252.5 1446.5,-222.5 1044.5,-222.5"/>
<text text-anchor="start" x="1051.4138" y="-233.9" font-family="Arial" font-size="14.00" fill="#000000">email_verification_code_expires_at </text>
<text text-anchor="start" x="1273.9018" y="-233.9" font-family="Arial" font-size="14.00" fill="#666666">[timestamp with time zone]</text>
<polygon fill="none" stroke="#000000" points="1044.5,-192.5 1044.5,-222.5 1446.5,-222.5 1446.5,-192.5 1044.5,-192.5"/>
<text text-anchor="start" x="1051.5" y="-203.9" font-family="Arial" font-size="14.00" fill="#000000">password_digest </text>
<text text-anchor="start" x="1160.4158" y="-203.9" font-family="Arial" font-size="14.00" fill="#666666">[varchar]</text>
<polygon fill="none" stroke="#000000" points="1044.5,-162.5 1044.5,-192.5 1446.5,-192.5 1446.5,-162.5 1044.5,-162.5"/>
<text text-anchor="start" x="1051.5" y="-173.9" font-family="Arial" font-size="14.00" fill="#000000">password_reset_token </text>
<text text-anchor="start" x="1196.2082" y="-173.9" font-family="Arial" font-size="14.00" fill="#666666">[varchar]</text>
<polygon fill="none" stroke="#000000" points="1044.5,-132.5 1044.5,-162.5 1446.5,-162.5 1446.5,-132.5 1044.5,-132.5"/>
<text text-anchor="start" x="1051.5" y="-143.9" font-family="Arial" font-size="14.00" fill="#000000">password_reset_token_expires_at </text>
<text text-anchor="start" x="1268.5616" y="-143.9" font-family="Arial" font-size="14.00" fill="#666666">[timestamp with time zone]</text>
<polygon fill="none" stroke="#000000" points="1044.5,-102.5 1044.5,-132.5 1446.5,-132.5 1446.5,-102.5 1044.5,-102.5"/>
<text text-anchor="start" x="1051.5" y="-113.9" font-family="Arial" font-size="14.00" fill="#000000">last_sign_in_at </text>
<text text-anchor="start" x="1148.7524" y="-113.9" font-family="Arial" font-size="14.00" fill="#666666">[timestamp with time zone]</text>
<polygon fill="none" stroke="#000000" points="1044.5,-72.5 1044.5,-102.5 1446.5,-102.5 1446.5,-72.5 1044.5,-72.5"/>
<text text-anchor="start" x="1051.5" y="-83.9" font-family="Arial" font-size="14.00" fill="#000000">created_at </text>
<text text-anchor="start" x="1121.528" y="-83.9" font-family="Arial" font-size="14.00" fill="#666666">[timestamp with time zone]</text>
<polygon fill="none" stroke="#000000" points="1044.5,-42.5 1044.5,-72.5 1446.5,-72.5 1446.5,-42.5 1044.5,-42.5"/>
<text text-anchor="start" x="1051.5" y="-53.9" font-family="Arial" font-size="14.00" fill="#000000">updated_at </text>
<text text-anchor="start" x="1125.4326" y="-53.9" font-family="Arial" font-size="14.00" fill="#666666">[timestamp with time zone]</text>
</g>
<!-- public.sports -->
<g id="node3" class="node">
<title>public.sports</title>
<polygon fill="#efefef" stroke="transparent" points="330.5,-342.5 330.5,-377.5 583.5,-377.5 583.5,-342.5 330.5,-342.5"/>
<polygon fill="none" stroke="#000000" points="330.5,-342.5 330.5,-377.5 583.5,-377.5 583.5,-342.5 330.5,-342.5"/>
<text text-anchor="start" x="357.8651" y="-355.3" font-family="Arial Bold" font-size="18.00" fill="#000000">public.sports</text>
<text text-anchor="start" x="458.8811" y="-355.3" font-family="Arial" font-size="14.00" fill="#000000"> </text>
<text text-anchor="start" x="462.7717" y="-355.3" font-family="Arial" font-size="14.00" fill="#666666">[BASE TABLE]</text>
<polygon fill="none" stroke="#000000" points="330.5,-312.5 330.5,-342.5 583.5,-342.5 583.5,-312.5 330.5,-312.5"/>
<text text-anchor="start" x="337.5" y="-323.9" font-family="Arial" font-size="14.00" fill="#000000">id </text>
<text text-anchor="start" x="352.2798" y="-323.9" font-family="Arial" font-size="14.00" fill="#666666">[bigint]</text>
<polygon fill="none" stroke="#000000" points="330.5,-282.5 330.5,-312.5 583.5,-312.5 583.5,-282.5 330.5,-282.5"/>
<text text-anchor="start" x="337.5" y="-293.9" font-family="Arial" font-size="14.00" fill="#000000">name </text>
<text text-anchor="start" x="376.399" y="-293.9" font-family="Arial" font-size="14.00" fill="#666666">[varchar]</text>
<polygon fill="none" stroke="#000000" points="330.5,-252.5 330.5,-282.5 583.5,-282.5 583.5,-252.5 330.5,-252.5"/>
<text text-anchor="start" x="337.5" y="-263.9" font-family="Arial" font-size="14.00" fill="#000000">created_at </text>
<text text-anchor="start" x="407.528" y="-263.9" font-family="Arial" font-size="14.00" fill="#666666">[timestamp with time zone]</text>
<polygon fill="none" stroke="#000000" points="330.5,-222.5 330.5,-252.5 583.5,-252.5 583.5,-222.5 330.5,-222.5"/>
<text text-anchor="start" x="337.1915" y="-233.9" font-family="Arial" font-size="14.00" fill="#000000">updated_at </text>
<text text-anchor="start" x="411.1241" y="-233.9" font-family="Arial" font-size="14.00" fill="#666666">[timestamp with time zone]</text>
</g>
<!-- public.prefectures -->
<g id="node4" class="node">
<title>public.prefectures</title>
<polygon fill="#efefef" stroke="transparent" points="687.5,-342.5 687.5,-377.5 940.5,-377.5 940.5,-342.5 687.5,-342.5"/>
<polygon fill="none" stroke="#000000" points="687.5,-342.5 687.5,-377.5 940.5,-377.5 940.5,-342.5 687.5,-342.5"/>
<text text-anchor="start" x="694.3586" y="-355.3" font-family="Arial Bold" font-size="18.00" fill="#000000">public.prefectures</text>
<text text-anchor="start" x="836.3876" y="-355.3" font-family="Arial" font-size="14.00" fill="#000000"> </text>
<text text-anchor="start" x="840.2782" y="-355.3" font-family="Arial" font-size="14.00" fill="#666666">[BASE TABLE]</text>
<polygon fill="none" stroke="#000000" points="687.5,-312.5 687.5,-342.5 940.5,-342.5 940.5,-312.5 687.5,-312.5"/>
<text text-anchor="start" x="694.5" y="-323.9" font-family="Arial" font-size="14.00" fill="#000000">id </text>
<text text-anchor="start" x="709.2798" y="-323.9" font-family="Arial" font-size="14.00" fill="#666666">[bigint]</text>
<polygon fill="none" stroke="#000000" points="687.5,-282.5 687.5,-312.5 940.5,-312.5 940.5,-282.5 687.5,-282.5"/>
<text text-anchor="start" x="694.5" y="-293.9" font-family="Arial" font-size="14.00" fill="#000000">name </text>
<text text-anchor="start" x="733.399" y="-293.9" font-family="Arial" font-size="14.00" fill="#666666">[varchar]</text>
<polygon fill="none" stroke="#000000" points="687.5,-252.5 687.5,-282.5 940.5,-282.5 940.5,-252.5 687.5,-252.5"/>
<text text-anchor="start" x="694.5" y="-263.9" font-family="Arial" font-size="14.00" fill="#000000">created_at </text>
<text text-anchor="start" x="764.528" y="-263.9" font-family="Arial" font-size="14.00" fill="#666666">[timestamp with time zone]</text>
<polygon fill="none" stroke="#000000" points="687.5,-222.5 687.5,-252.5 940.5,-252.5 940.5,-222.5 687.5,-222.5"/>
<text text-anchor="start" x="694.1915" y="-233.9" font-family="Arial" font-size="14.00" fill="#000000">updated_at </text>
<text text-anchor="start" x="768.1241" y="-233.9" font-family="Arial" font-size="14.00" fill="#666666">[timestamp with time zone]</text>
</g>
<!-- public.tags -->
<g id="node5" class="node">
<title>public.tags</title>
<polygon fill="#efefef" stroke="transparent" points="342.5,-979.5 342.5,-1014.5 595.5,-1014.5 595.5,-979.5 342.5,-979.5"/>
<polygon fill="none" stroke="#000000" points="342.5,-979.5 342.5,-1014.5 595.5,-1014.5 595.5,-979.5 342.5,-979.5"/>
<text text-anchor="start" x="377.3612" y="-992.3" font-family="Arial Bold" font-size="18.00" fill="#000000">public.tags</text>
<text text-anchor="start" x="463.385" y="-992.3" font-family="Arial" font-size="14.00" fill="#000000"> </text>
<text text-anchor="start" x="467.2756" y="-992.3" font-family="Arial" font-size="14.00" fill="#666666">[BASE TABLE]</text>
<polygon fill="none" stroke="#000000" points="342.5,-949.5 342.5,-979.5 595.5,-979.5 595.5,-949.5 342.5,-949.5"/>
<text text-anchor="start" x="349.5" y="-960.9" font-family="Arial" font-size="14.00" fill="#000000">id </text>
<text text-anchor="start" x="364.2798" y="-960.9" font-family="Arial" font-size="14.00" fill="#666666">[bigint]</text>
<polygon fill="none" stroke="#000000" points="342.5,-919.5 342.5,-949.5 595.5,-949.5 595.5,-919.5 342.5,-919.5"/>
<text text-anchor="start" x="349.5" y="-930.9" font-family="Arial" font-size="14.00" fill="#000000">name </text>
<text text-anchor="start" x="388.399" y="-930.9" font-family="Arial" font-size="14.00" fill="#666666">[varchar]</text>
<polygon fill="none" stroke="#000000" points="342.5,-889.5 342.5,-919.5 595.5,-919.5 595.5,-889.5 342.5,-889.5"/>
<text text-anchor="start" x="349.5" y="-900.9" font-family="Arial" font-size="14.00" fill="#000000">created_at </text>
<text text-anchor="start" x="419.528" y="-900.9" font-family="Arial" font-size="14.00" fill="#666666">[timestamp with time zone]</text>
<polygon fill="none" stroke="#000000" points="342.5,-859.5 342.5,-889.5 595.5,-889.5 595.5,-859.5 342.5,-859.5"/>
<text text-anchor="start" x="349.1915" y="-870.9" font-family="Arial" font-size="14.00" fill="#000000">updated_at </text>
<text text-anchor="start" x="423.1241" y="-870.9" font-family="Arial" font-size="14.00" fill="#666666">[timestamp with time zone]</text>
</g>
<!-- public.recruitments -->
<g id="node6" class="node">
<title>public.recruitments</title>
<polygon fill="#efefef" stroke="transparent" points="699.5,-1159.5 699.5,-1194.5 961.5,-1194.5 961.5,-1159.5 699.5,-1159.5"/>
<polygon fill="none" stroke="#000000" points="699.5,-1159.5 699.5,-1194.5 961.5,-1194.5 961.5,-1159.5 699.5,-1159.5"/>
<text text-anchor="start" x="706.3685" y="-1172.3" font-family="Arial Bold" font-size="18.00" fill="#000000">public.recruitments</text>
<text text-anchor="start" x="857.3777" y="-1172.3" font-family="Arial" font-size="14.00" fill="#000000"> </text>
<text text-anchor="start" x="861.2683" y="-1172.3" font-family="Arial" font-size="14.00" fill="#666666">[BASE TABLE]</text>
<polygon fill="none" stroke="#000000" points="699.5,-1129.5 699.5,-1159.5 961.5,-1159.5 961.5,-1129.5 699.5,-1129.5"/>
<text text-anchor="start" x="706.5" y="-1140.9" font-family="Arial" font-size="14.00" fill="#000000">id </text>
<text text-anchor="start" x="721.2798" y="-1140.9" font-family="Arial" font-size="14.00" fill="#666666">[bigint]</text>
<polygon fill="none" stroke="#000000" points="699.5,-1099.5 699.5,-1129.5 961.5,-1129.5 961.5,-1099.5 699.5,-1099.5"/>
<text text-anchor="start" x="706.5" y="-1110.9" font-family="Arial" font-size="14.00" fill="#000000">title </text>
<text text-anchor="start" x="732.1676" y="-1110.9" font-family="Arial" font-size="14.00" fill="#666666">[varchar(60)]</text>
<polygon fill="none" stroke="#000000" points="699.5,-1069.5 699.5,-1099.5 961.5,-1099.5 961.5,-1069.5 699.5,-1069.5"/>
<text text-anchor="start" x="706.5" y="-1080.9" font-family="Arial" font-size="14.00" fill="#000000">category </text>
<text text-anchor="start" x="764.0722" y="-1080.9" font-family="Arial" font-size="14.00" fill="#666666">[recruitment_category]</text>
<polygon fill="none" stroke="#000000" points="699.5,-1039.5 699.5,-1069.5 961.5,-1069.5 961.5,-1039.5 699.5,-1039.5"/>
<text text-anchor="start" x="706.5" y="-1050.9" font-family="Arial" font-size="14.00" fill="#000000">venue </text>
<text text-anchor="start" x="748.521" y="-1050.9" font-family="Arial" font-size="14.00" fill="#666666">[varchar]</text>
<polygon fill="none" stroke="#000000" points="699.5,-1009.5 699.5,-1039.5 961.5,-1039.5 961.5,-1009.5 699.5,-1009.5"/>
<text text-anchor="start" x="706.5" y="-1020.9" font-family="Arial" font-size="14.00" fill="#000000">venue_lat </text>
<text text-anchor="start" x="771.0834" y="-1020.9" font-family="Arial" font-size="14.00" fill="#666666">[double precision]</text>
<polygon fill="none" stroke="#000000" points="699.5,-979.5 699.5,-1009.5 961.5,-1009.5 961.5,-979.5 699.5,-979.5"/>
<text text-anchor="start" x="706.5" y="-990.9" font-family="Arial" font-size="14.00" fill="#000000">venue_lng </text>
<text text-anchor="start" x="774.9754" y="-990.9" font-family="Arial" font-size="14.00" fill="#666666">[double precision]</text>
<polygon fill="none" stroke="#000000" points="699.5,-949.5 699.5,-979.5 961.5,-979.5 961.5,-949.5 699.5,-949.5"/>
<text text-anchor="start" x="706.5" y="-960.9" font-family="Arial" font-size="14.00" fill="#000000">start_at </text>
<text text-anchor="start" x="757.0708" y="-960.9" font-family="Arial" font-size="14.00" fill="#666666">[timestamp with time zone]</text>
<polygon fill="none" stroke="#000000" points="699.5,-919.5 699.5,-949.5 961.5,-949.5 961.5,-919.5 699.5,-919.5"/>
<text text-anchor="start" x="706.5" y="-930.9" font-family="Arial" font-size="14.00" fill="#000000">closing_at </text>
<text text-anchor="start" x="773.4074" y="-930.9" font-family="Arial" font-size="14.00" fill="#666666">[timestamp with time zone]</text>
<polygon fill="none" stroke="#000000" points="699.5,-889.5 699.5,-919.5 961.5,-919.5 961.5,-889.5 699.5,-889.5"/>
<text text-anchor="start" x="706.5" y="-900.9" font-family="Arial" font-size="14.00" fill="#000000">detail </text>
<text text-anchor="start" x="743.8422" y="-900.9" font-family="Arial" font-size="14.00" fill="#666666">[varchar(10000)]</text>
<polygon fill="none" stroke="#000000" points="699.5,-859.5 699.5,-889.5 961.5,-889.5 961.5,-859.5 699.5,-859.5"/>
<text text-anchor="start" x="706.5" y="-870.9" font-family="Arial" font-size="14.00" fill="#000000">sport_id </text>
<text text-anchor="start" x="760.1788" y="-870.9" font-family="Arial" font-size="14.00" fill="#666666">[bigint]</text>
<polygon fill="none" stroke="#000000" points="699.5,-829.5 699.5,-859.5 961.5,-859.5 961.5,-829.5 699.5,-829.5"/>
<text text-anchor="start" x="706.5" y="-840.9" font-family="Arial" font-size="14.00" fill="#000000">prefecture_id </text>
<text text-anchor="start" x="792.0778" y="-840.9" font-family="Arial" font-size="14.00" fill="#666666">[bigint]</text>
<polygon fill="none" stroke="#000000" points="699.5,-799.5 699.5,-829.5 961.5,-829.5 961.5,-799.5 699.5,-799.5"/>
<text text-anchor="start" x="706.5" y="-810.9" font-family="Arial" font-size="14.00" fill="#000000">status </text>
<text text-anchor="start" x="747.737" y="-810.9" font-family="Arial" font-size="14.00" fill="#666666">[recruitment_status]</text>
<polygon fill="none" stroke="#000000" points="699.5,-769.5 699.5,-799.5 961.5,-799.5 961.5,-769.5 699.5,-769.5"/>
<text text-anchor="start" x="706.5" y="-780.9" font-family="Arial" font-size="14.00" fill="#000000">user_id </text>
<text text-anchor="start" x="756.2882" y="-780.9" font-family="Arial" font-size="14.00" fill="#666666">[bigint]</text>
<polygon fill="none" stroke="#000000" points="699.5,-739.5 699.5,-769.5 961.5,-769.5 961.5,-739.5 699.5,-739.5"/>
<text text-anchor="start" x="706.0302" y="-750.9" font-family="Arial" font-size="14.00" fill="#000000">published_at </text>
<text text-anchor="start" x="789.2854" y="-750.9" font-family="Arial" font-size="14.00" fill="#666666">[timestamp with time zone]</text>
<polygon fill="none" stroke="#000000" points="699.5,-709.5 699.5,-739.5 961.5,-739.5 961.5,-709.5 699.5,-709.5"/>
<text text-anchor="start" x="706.5" y="-720.9" font-family="Arial" font-size="14.00" fill="#000000">created_at </text>
<text text-anchor="start" x="776.528" y="-720.9" font-family="Arial" font-size="14.00" fill="#666666">[timestamp with time zone]</text>
<polygon fill="none" stroke="#000000" points="699.5,-679.5 699.5,-709.5 961.5,-709.5 961.5,-679.5 699.5,-679.5"/>
<text text-anchor="start" x="706.5" y="-690.9" font-family="Arial" font-size="14.00" fill="#000000">updated_at </text>
<text text-anchor="start" x="780.4326" y="-690.9" font-family="Arial" font-size="14.00" fill="#666666">[timestamp with time zone]</text>
</g>
<!-- public.recruitments&#45;&gt;public.users -->
<g id="edge1" class="edge">
<title>public.recruitments:user_id&#45;&gt;public.users:id</title>
<path fill="none" stroke="#000000" d="M971.7049,-783.8461C1080.4041,-769.0327 919.6207,-507.5 1044.5,-507.5"/>
<polygon fill="#000000" stroke="#000000" points="971.4795,-783.8604 961.2122,-780.0092 966.4898,-784.1802 961.5,-784.5 961.5,-784.5 961.5,-784.5 966.4898,-784.1802 961.7878,-788.9908 971.4795,-783.8604 971.4795,-783.8604"/>
<text text-anchor="start" x="968.5535" y="-768.5" font-family="Arial" font-size="10.00" fill="#000000">FOREIGN KEY (user_id) REFERENCES users(id) ON DELETE CASCADE</text>
</g>
<!-- public.recruitments&#45;&gt;public.sports -->
<g id="edge2" class="edge">
<title>public.recruitments:sport_id&#45;&gt;public.sports:id</title>
<path fill="none" stroke="#000000" d="M689.6188,-872.1407C647.3549,-850.4653 659.9978,-685.6471 646.5,-637 641.9908,-620.7485 638.7224,-617.3284 634.5,-601 619.0214,-541.1436 645.3254,-327.5 583.5,-327.5"/>
<polygon fill="#000000" stroke="#000000" points="689.7734,-872.1775 698.4549,-878.877 694.6367,-873.3388 699.5,-874.5 699.5,-874.5 699.5,-874.5 694.6367,-873.3388 700.5451,-870.123 689.7734,-872.1775 689.7734,-872.1775"/>
<text text-anchor="start" x="706.945" y="-884.5" font-family="Arial" font-size="10.00" fill="#000000">FOREIGN KEY (sport_id) REFERENCES sports(id) ON DELETE RESTRICT</text>
</g>
<!-- public.recruitments&#45;&gt;public.prefectures -->
<g id="edge3" class="edge">
<title>public.recruitments:prefecture_id&#45;&gt;public.prefectures:id</title>
<path fill="none" stroke="#000000" d="M689.3551,-843.9453C611.5187,-834.9273 663.3624,-717.9169 699.5,-637 758.1538,-505.6664 881.8462,-552.3336 940.5,-421 957.4456,-383.0565 982.0556,-327.5 940.5,-327.5"/>
<polygon fill="#000000" stroke="#000000" points="689.5149,-843.9539 699.2543,-848.9933 694.5075,-844.227 699.5,-844.5 699.5,-844.5 699.5,-844.5 694.5075,-844.227 699.7457,-840.0067 689.5149,-843.9539 689.5149,-843.9539"/>
<text text-anchor="start" x="406.16" y="-828.5" font-family="Arial" font-size="10.00" fill="#000000">FOREIGN KEY (prefecture_id) REFERENCES prefectures(id) ON DELETE RESTRICT</text>
</g>
<!-- public.recruitment_tags -->
<g id="node7" class="node">
<title>public.recruitment_tags</title>
<polygon fill="#efefef" stroke="transparent" points="466.5,-1466.5 466.5,-1501.5 763.5,-1501.5 763.5,-1466.5 466.5,-1466.5"/>
<polygon fill="none" stroke="#000000" points="466.5,-1466.5 466.5,-1501.5 763.5,-1501.5 763.5,-1466.5 466.5,-1466.5"/>
<text text-anchor="start" x="473.3581" y="-1479.3" font-family="Arial Bold" font-size="18.00" fill="#000000">public.recruitment_tags</text>
<text text-anchor="start" x="659.3881" y="-1479.3" font-family="Arial" font-size="14.00" fill="#000000"> </text>
<text text-anchor="start" x="663.2787" y="-1479.3" font-family="Arial" font-size="14.00" fill="#666666">[BASE TABLE]</text>
<polygon fill="none" stroke="#000000" points="466.5,-1436.5 466.5,-1466.5 763.5,-1466.5 763.5,-1436.5 466.5,-1436.5"/>
<text text-anchor="start" x="473.5" y="-1447.9" font-family="Arial" font-size="14.00" fill="#000000">id </text>
<text text-anchor="start" x="488.2798" y="-1447.9" font-family="Arial" font-size="14.00" fill="#666666">[bigint]</text>
<polygon fill="none" stroke="#000000" points="466.5,-1406.5 466.5,-1436.5 763.5,-1436.5 763.5,-1406.5 466.5,-1406.5"/>
<text text-anchor="start" x="473.5" y="-1417.9" font-family="Arial" font-size="14.00" fill="#000000">tag_id </text>
<text text-anchor="start" x="515.5182" y="-1417.9" font-family="Arial" font-size="14.00" fill="#666666">[bigint]</text>
<polygon fill="none" stroke="#000000" points="466.5,-1376.5 466.5,-1406.5 763.5,-1406.5 763.5,-1376.5 466.5,-1376.5"/>
<text text-anchor="start" x="473.5" y="-1387.9" font-family="Arial" font-size="14.00" fill="#000000">recruitment_id </text>
<text text-anchor="start" x="566.0624" y="-1387.9" font-family="Arial" font-size="14.00" fill="#666666">[bigint]</text>
<polygon fill="none" stroke="#000000" points="466.5,-1346.5 466.5,-1376.5 763.5,-1376.5 763.5,-1346.5 466.5,-1346.5"/>
<text text-anchor="start" x="473.5" y="-1357.9" font-family="Arial" font-size="14.00" fill="#000000">created_at </text>
<text text-anchor="start" x="543.528" y="-1357.9" font-family="Arial" font-size="14.00" fill="#666666">[timestamp with time zone]</text>
<polygon fill="none" stroke="#000000" points="466.5,-1316.5 466.5,-1346.5 763.5,-1346.5 763.5,-1316.5 466.5,-1316.5"/>
<text text-anchor="start" x="473.5" y="-1327.9" font-family="Arial" font-size="14.00" fill="#000000">updated_at </text>
<text text-anchor="start" x="547.4326" y="-1327.9" font-family="Arial" font-size="14.00" fill="#666666">[timestamp with time zone]</text>
</g>
<!-- public.recruitment_tags&#45;&gt;public.tags -->
<g id="edge4" class="edge">
<title>public.recruitment_tags:tag_id&#45;&gt;public.tags:id</title>
<path fill="none" stroke="#000000" d="M456.4285,-1420.7078C406.2972,-1412.0175 450.0531,-1333.6153 466.5,-1274 506.1331,-1130.3412 744.5256,-964.5 595.5,-964.5"/>
<polygon fill="#000000" stroke="#000000" points="456.5308,-1420.7157 466.1471,-1425.9861 461.5154,-1421.1079 466.5,-1421.5 466.5,-1421.5 466.5,-1421.5 461.5154,-1421.1079 466.8529,-1417.0139 456.5308,-1420.7157 456.5308,-1420.7157"/>
<text text-anchor="start" x="137.1035" y="-1431.5" font-family="Arial" font-size="10.00" fill="#000000">FOREIGN KEY (tag_id) REFERENCES tags(id) ON DELETE CASCADE</text>
</g>
<!-- public.recruitment_tags&#45;&gt;public.recruitments -->
<g id="edge5" class="edge">
<title>public.recruitment_tags:recruitment_id&#45;&gt;public.recruitments:id</title>
<path fill="none" stroke="#000000" d="M773.869,-1390.344C811.8811,-1380.9006 787.9075,-1315.733 763.5,-1274 747.024,-1245.8286 715.976,-1266.1714 699.5,-1238 678.5208,-1202.1289 657.9444,-1144.5 699.5,-1144.5"/>
<polygon fill="#000000" stroke="#000000" points="773.4384,-1390.3919 763.0014,-1387.0277 768.4692,-1390.946 763.5,-1391.5 763.5,-1391.5 763.5,-1391.5 768.4692,-1390.946 763.9986,-1395.9723 773.4384,-1390.3919 773.4384,-1390.3919"/>
<text text-anchor="start" x="770.0005" y="-1401.5" font-family="Arial" font-size="10.00" fill="#000000">FOREIGN KEY (recruitment_id) REFERENCES recruitments(id) ON DELETE CASCADE</text>
</g>
<!-- public.stocks -->
<g id="node8" class="node">
<title>public.stocks</title>
<polygon fill="#efefef" stroke="transparent" points="1159.5,-1466.5 1159.5,-1501.5 1412.5,-1501.5 1412.5,-1466.5 1159.5,-1466.5"/>
<polygon fill="none" stroke="#000000" points="1159.5,-1466.5 1159.5,-1501.5 1412.5,-1501.5 1412.5,-1466.5 1159.5,-1466.5"/>
<text text-anchor="start" x="1185.8643" y="-1479.3" font-family="Arial Bold" font-size="18.00" fill="#000000">public.stocks</text>
<text text-anchor="start" x="1288.8819" y="-1479.3" font-family="Arial" font-size="14.00" fill="#000000"> </text>
<text text-anchor="start" x="1292.7725" y="-1479.3" font-family="Arial" font-size="14.00" fill="#666666">[BASE TABLE]</text>
<polygon fill="none" stroke="#000000" points="1159.5,-1436.5 1159.5,-1466.5 1412.5,-1466.5 1412.5,-1436.5 1159.5,-1436.5"/>
<text text-anchor="start" x="1166.5" y="-1447.9" font-family="Arial" font-size="14.00" fill="#000000">id </text>
<text text-anchor="start" x="1181.2798" y="-1447.9" font-family="Arial" font-size="14.00" fill="#666666">[bigint]</text>
<polygon fill="none" stroke="#000000" points="1159.5,-1406.5 1159.5,-1436.5 1412.5,-1436.5 1412.5,-1406.5 1159.5,-1406.5"/>
<text text-anchor="start" x="1166.5" y="-1417.9" font-family="Arial" font-size="14.00" fill="#000000">user_id </text>
<text text-anchor="start" x="1216.2882" y="-1417.9" font-family="Arial" font-size="14.00" fill="#666666">[bigint]</text>
<polygon fill="none" stroke="#000000" points="1159.5,-1376.5 1159.5,-1406.5 1412.5,-1406.5 1412.5,-1376.5 1159.5,-1376.5"/>
<text text-anchor="start" x="1166.5" y="-1387.9" font-family="Arial" font-size="14.00" fill="#000000">recruitment_id </text>
<text text-anchor="start" x="1259.0624" y="-1387.9" font-family="Arial" font-size="14.00" fill="#666666">[bigint]</text>
<polygon fill="none" stroke="#000000" points="1159.5,-1346.5 1159.5,-1376.5 1412.5,-1376.5 1412.5,-1346.5 1159.5,-1346.5"/>
<text text-anchor="start" x="1166.5" y="-1357.9" font-family="Arial" font-size="14.00" fill="#000000">created_at </text>
<text text-anchor="start" x="1236.528" y="-1357.9" font-family="Arial" font-size="14.00" fill="#666666">[timestamp with time zone]</text>
<polygon fill="none" stroke="#000000" points="1159.5,-1316.5 1159.5,-1346.5 1412.5,-1346.5 1412.5,-1316.5 1159.5,-1316.5"/>
<text text-anchor="start" x="1166.1915" y="-1327.9" font-family="Arial" font-size="14.00" fill="#000000">updated_at </text>
<text text-anchor="start" x="1240.1241" y="-1327.9" font-family="Arial" font-size="14.00" fill="#666666">[timestamp with time zone]</text>
</g>
<!-- public.stocks&#45;&gt;public.users -->
<g id="edge6" class="edge">
<title>public.stocks:user_id&#45;&gt;public.users:id</title>
<path fill="none" stroke="#000000" d="M1420.1021,-1414.6685C1466.5473,-1331.0288 1494.7326,-507.5 1446.5,-507.5"/>
<polygon fill="#000000" stroke="#000000" points="1419.938,-1414.8159 1409.4922,-1418.1529 1416.219,-1418.158 1412.5,-1421.5 1412.5,-1421.5 1412.5,-1421.5 1416.219,-1418.158 1415.5078,-1424.8471 1419.938,-1414.8159 1419.938,-1414.8159"/>
<text text-anchor="start" x="1419.5535" y="-1431.5" font-family="Arial" font-size="10.00" fill="#000000">FOREIGN KEY (user_id) REFERENCES users(id) ON DELETE CASCADE</text>
</g>
<!-- public.stocks&#45;&gt;public.recruitments -->
<g id="edge7" class="edge">
<title>public.stocks:recruitment_id&#45;&gt;public.recruitments:id</title>
<path fill="none" stroke="#000000" d="M1149.2854,-1389.7908C1083.5251,-1367.9678 1028.4127,-1144.5 961.5,-1144.5"/>
<polygon fill="#000000" stroke="#000000" points="1149.6371,-1389.8496 1158.7573,-1395.9383 1154.5686,-1390.6748 1159.5,-1391.5 1159.5,-1391.5 1159.5,-1391.5 1154.5686,-1390.6748 1160.2427,-1387.0617 1149.6371,-1389.8496 1149.6371,-1389.8496"/>
<text text-anchor="start" x="758.0005" y="-1375.5" font-family="Arial" font-size="10.00" fill="#000000">FOREIGN KEY (recruitment_id) REFERENCES recruitments(id) ON DELETE CASCADE</text>
</g>
<!-- public.relationships -->
<g id="node9" class="node">
<title>public.relationships</title>
<polygon fill="#efefef" stroke="transparent" points="1097.5,-994.5 1097.5,-1029.5 1361.5,-1029.5 1361.5,-994.5 1097.5,-994.5"/>
<polygon fill="none" stroke="#000000" points="1097.5,-994.5 1097.5,-1029.5 1361.5,-1029.5 1361.5,-994.5 1097.5,-994.5"/>
<text text-anchor="start" x="1104.3614" y="-1007.3" font-family="Arial Bold" font-size="18.00" fill="#000000">public.relationships</text>
<text text-anchor="start" x="1257.3848" y="-1007.3" font-family="Arial" font-size="14.00" fill="#000000"> </text>
<text text-anchor="start" x="1261.2754" y="-1007.3" font-family="Arial" font-size="14.00" fill="#666666">[BASE TABLE]</text>
<polygon fill="none" stroke="#000000" points="1097.5,-964.5 1097.5,-994.5 1361.5,-994.5 1361.5,-964.5 1097.5,-964.5"/>
<text text-anchor="start" x="1104.5" y="-975.9" font-family="Arial" font-size="14.00" fill="#000000">id </text>
<text text-anchor="start" x="1119.2798" y="-975.9" font-family="Arial" font-size="14.00" fill="#666666">[bigint]</text>
<polygon fill="none" stroke="#000000" points="1097.5,-934.5 1097.5,-964.5 1361.5,-964.5 1361.5,-934.5 1097.5,-934.5"/>
<text text-anchor="start" x="1104.5" y="-945.9" font-family="Arial" font-size="14.00" fill="#000000">followed_id </text>
<text text-anchor="start" x="1178.4032" y="-945.9" font-family="Arial" font-size="14.00" fill="#666666">[bigint]</text>
<polygon fill="none" stroke="#000000" points="1097.5,-904.5 1097.5,-934.5 1361.5,-934.5 1361.5,-904.5 1097.5,-904.5"/>
<text text-anchor="start" x="1104.5" y="-915.9" font-family="Arial" font-size="14.00" fill="#000000">follower_id </text>
<text text-anchor="start" x="1175.2812" y="-915.9" font-family="Arial" font-size="14.00" fill="#666666">[bigint]</text>
<polygon fill="none" stroke="#000000" points="1097.5,-874.5 1097.5,-904.5 1361.5,-904.5 1361.5,-874.5 1097.5,-874.5"/>
<text text-anchor="start" x="1104.5" y="-885.9" font-family="Arial" font-size="14.00" fill="#000000">created_at </text>
<text text-anchor="start" x="1174.528" y="-885.9" font-family="Arial" font-size="14.00" fill="#666666">[timestamp with time zone]</text>
<polygon fill="none" stroke="#000000" points="1097.5,-844.5 1097.5,-874.5 1361.5,-874.5 1361.5,-844.5 1097.5,-844.5"/>
<text text-anchor="start" x="1104.5" y="-855.9" font-family="Arial" font-size="14.00" fill="#000000">updated_at </text>
<text text-anchor="start" x="1178.4326" y="-855.9" font-family="Arial" font-size="14.00" fill="#666666">[timestamp with time zone]</text>
</g>
<!-- public.relationships&#45;&gt;public.users -->
<g id="edge8" class="edge">
<title>public.relationships:followed_id&#45;&gt;public.users:id</title>
<path fill="none" stroke="#000000" d="M1371.7,-948.6555C1423.2158,-939.4026 1391.3035,-856.1871 1361.5,-802 1281.1034,-655.8271 1124.8966,-747.1729 1044.5,-601 1024.4733,-564.5885 1002.9444,-507.5 1044.5,-507.5"/>
<polygon fill="#000000" stroke="#000000" points="1371.4659,-948.6748 1361.1287,-945.0153 1366.483,-949.0874 1361.5,-949.5 1361.5,-949.5 1361.5,-949.5 1366.483,-949.0874 1361.8713,-953.9847 1371.4659,-948.6748 1371.4659,-948.6748"/>
<text text-anchor="start" x="1368.941" y="-959.5" font-family="Arial" font-size="10.00" fill="#000000">FOREIGN KEY (followed_id) REFERENCES users(id) ON DELETE CASCADE</text>
</g>
<!-- public.relationships&#45;&gt;public.users -->
<g id="edge9" class="edge">
<title>public.relationships:follower_id&#45;&gt;public.users:id</title>
<path fill="none" stroke="#000000" d="M1371.8507,-918.3544C1409.7166,-908.9939 1384.7993,-844.3617 1361.5,-802 1281.1034,-655.8271 1124.8966,-747.1729 1044.5,-601 1024.4733,-564.5885 1002.9444,-507.5 1044.5,-507.5"/>
<polygon fill="#000000" stroke="#000000" points="1371.4393,-918.3998 1361.0049,-915.0273 1366.4697,-918.9499 1361.5,-919.5 1361.5,-919.5 1361.5,-919.5 1366.4697,-918.9499 1361.9951,-923.9727 1371.4393,-918.3998 1371.4393,-918.3998"/>
<text text-anchor="start" x="1368.056" y="-929.5" font-family="Arial" font-size="10.00" fill="#000000">FOREIGN KEY (follower_id) REFERENCES users(id) ON DELETE CASCADE</text>
</g>
</g>
</svg>
